<svg xmlns="http://www.w3.org/2000/svg" viewBox="0 0 645.23 49.29"><defs><style>.cls-1{fill:#987d51;}</style></defs><title>Fichier 13</title><g id="Calque_2" data-name="Calque 2"><g id="Calque_1-2" data-name="Calque 1"><path class="cls-1" d="M25.15,49.11c.08,0,.2-.18.11-.23l-.29.19Z"/><path class="cls-1" d="M25.11,48.21a.93.93,0,0,0-.65.41c.31-.15.23,0,.59-.22.09.05,0,.2-.06.28.09,0,.06.16.25,0,.09-.28,0-.4-.29-.37C25,48.28,25.06,48.25,25.11,48.21Z"/><path class="cls-1" d="M18.67,41v.07A.08.08,0,0,0,18.67,41Z"/><path class="cls-1" d="M14.58,36.69a.08.08,0,0,0,.1,0S14.59,36.67,14.58,36.69Z"/><path class="cls-1" d="M14.12,35.72l0,.05S14.14,35.71,14.12,35.72Z"/><path class="cls-1" d="M18.67,41l0-.19C18.54,40.92,18.63,41,18.67,41Z"/><path class="cls-1" d="M23.61,47.84h.12l-.08,0Z"/><path class="cls-1" d="M20.72,42.71l0,0,.13-.06Z"/><path class="cls-1" d="M22.18,44.1s-.23.15-.33.22c.1-.06.16-.08.2-.07A.69.69,0,0,0,22.18,44.1Z"/><path class="cls-1" d="M24.09,46.71h0Z"/><path class="cls-1" d="M19.74,41.64l.06-.08A.21.21,0,0,0,19.74,41.64Z"/><path class="cls-1" d="M23,1.36l0,0S23,1.35,23,1.36Z"/><polygon class="cls-1" points="25.67 0.69 25.66 0.73 25.76 0.84 25.67 0.69"/><path class="cls-1" d="M13.05,34.14h0S13.09,34.15,13.05,34.14Z"/><path class="cls-1" d="M4.07,23.84c-.32,0,0-.46-.41-.45C3.76,23.45,3.78,23.89,4.07,23.84Z"/><path class="cls-1" d="M23.6,47.77a.1.1,0,0,1-.06-.05S23.57,47.77,23.6,47.77Z"/><path class="cls-1" d="M3.66,23.39Z"/><path class="cls-1" d="M9.9,31.23a.41.41,0,0,0-.06.11A.27.27,0,0,0,9.9,31.23Z"/><path class="cls-1" d="M11.88,33.77l0-.08A.1.1,0,0,0,11.88,33.77Z"/><path class="cls-1" d="M8.44,30.33s0-.08-.06-.1,0,0,0,0S8.44,30.27,8.44,30.33Z"/><polygon class="cls-1" points="7.22 29.11 7.2 29.17 7.25 29.2 7.22 29.11"/><path class="cls-1" d="M19.41,5.17a1,1,0,0,1,.23.13C19.48,5.17,19.61,4.94,19.41,5.17Z"/><path class="cls-1" d="M23.72,47.72c-.06.05-.09.06-.12.05a.05.05,0,0,0,0,0A.18.18,0,0,0,23.72,47.72Z"/><path class="cls-1" d="M6.82,31.85l-.16-.22A1.53,1.53,0,0,0,6.82,31.85Z"/><path class="cls-1" d="M10.67,14l0-.07A.06.06,0,0,0,10.67,14Z"/><path class="cls-1" d="M6.05,31.08a.47.47,0,0,0,0-.25l-.07,0Z"/><path class="cls-1" d="M19.65,5.3h0Z"/><path class="cls-1" d="M20.45,3.55c-.19.18.17.34.28.53-.14.29-.29-.09-.5-.15-.07.21.07.55-.05.65s-.08,0-.11-.11c.06.35-.43.44-.34.87l-.08,0a2.14,2.14,0,0,1,.38.33c-.08.09,0,.32-.19.18.06,0,0-.12,0-.2v.17c-.32-.17,0-.21-.15-.39-.09.25-.08.65-.28.71-.27-.21.22-.38-.17-.42l.3-.11c-.54-.23.15-.1-.4-.36-.34.19-.17.41-.51.61.08.19.22.18.29.37-.13.61-.9-.31-.85.29.09.23.36.56,0,.59l-.21-.33c-.28.23.25.53-.21.62-.05-.16.12-.29,0-.29-.38,0,0,.28-.1.41l-.27-.21c-.23.31-.36.79-.62,1.13-.05-.09-.07-.21-.22-.22a2.6,2.6,0,0,1-1.35,1l.07.35s-.16,0-.16-.11c-.22.07.12.14.13.29s-.22,0-.23-.13c-.08.43-.34,1.1-.83,1.15v-.12c-.29.13.19.66-.2.66v-.07c-.54.36-.84,1-1.5,1.07.23.37-.58.32-.19.76-.46.05-.46-.09-1,.13-.12.08.11.4,0,.57L11,13.52l.07.39-.35-.17-.05.16a.26.26,0,0,1,.25.08c-.08.27-.58.27-.7.16l-.23.6c-.08-.09,0-.19,0-.3,0,.44-.27-.19-.27.21.08,0,.12.15.16.2-.23,0-.47.19-.58.42l-.12-.18c-.34.27-.57.72-.92,1.06.19-.06.43.23.35.36l-.27-.19c.08.21.19,0,.23.29-.15.1-.35-.18-.35-.33l-.07.24c-.08-.06-.08-.13-.16-.23.08.21-.5,0-.35.38l-.07-.06c-.35.34-.43.58-.7.87.2.21,0,.27.12.52a2.67,2.67,0,0,0-.89.48c-.07.27.12.22.16.41-.19-.17-.42.1-.43-.16a3.24,3.24,0,0,0-.57.94c.11,0,.19,0,.23.11s-.23.08-.31,0v0c-.15.7-1.5.45-1.46,1.17v0l-.16.55c-.19.13,0-.24-.27-.23-.07.68-.64.55-.75,1.07-.4-.14-.55,0-.81.37A3.35,3.35,0,0,1,.43,23.72l.24,0c0,.2-.3.15-.47.27.18,0,.35-.13.37,0a5.64,5.64,0,0,1-.57.65A15.44,15.44,0,0,1,1.39,26.3l.36.47.18.29.36.55c.23.3.8-.5.84.13l-.33.14c.82.26,1.09,1.11,1.85,1.4-.08,0-.15.09-.2,0-.06.28.4.42.54.28.07.1-.11.15-.13.27s.5.06.39.29c0,0-.08,0-.12,0,.16,0,.32.36.45.1.1.29.46.29.5.56.32-.11.24.45.58.17-.34.31.09.6.36.58-.14.05,0,.21-.17.29.14.14.33.21.47,0-.12.65.84.22.5.86a9.9,9.9,0,0,1,1.56.83c-.34.31-.46-.39-.78,0,.5.23,1,.17,1.26.6.05.14-.19.09-.28.11.5.23.67.73,1.17.88,0,0-.1,0-.16,0s.1.19.24,0l-.1,0c.11-.32.69-.19.81-.29-.52.31.22.42-.48.77a.29.29,0,0,0,.28-.1c0,.09,0,.16-.18.21.31.15.38-.09.58.12-.07.07-.14.06-.24.12.24,0,.48-.07.6.17-.06,0-.09.1-.14,0,.32.28.87.14,1.07.6-.41.21,0,.21-.24.5l.25.09.06-.2c.15.16.48.11.53.33H13.4l.34.24-.06-.27c.29,0,.32-.35.45-.07-.07,0,.15.16.07.4h0c.16,0,.33,0,.38.16s-.32.27-.36.34c.3-.14.43.3.76.16a.58.58,0,0,0-.25.2l.24-.12c0,.13,0,.17-.12.27.18.25.27-.4.38,0,0,0-.06,0-.12,0,.18.33.6.38.75.71-.2.33-.27-.14-.41.16.38.29,1,.38,1.28.77l0-.09c.42-.33.06.43.4.42-.07,0-.26.16-.21.13.17.28.55.36,1,.59l-.14.05c0,.22.3.4.4.58.14-.05.21,0,.3-.14-.11,1,1.13.55,1.07,1.39-.05,0-.2,0-.16,0l.42.25c.14-.19.06-.14.11-.34a.36.36,0,0,1,.39,0c-.25,0-.26.26-.28.42a1.14,1.14,0,0,1,.16-.15c-.12.46.36-.3.4.13l-.1.07c.13,0,.33,0,.4.14-.15.23-.18,0-.35.14.15.12.63-.09.56.22-.11,0-.19-.09-.3-.09-.09.35,0,.31,0,.44h0L21,45v-.12c.66-.32.43.25,1,.16-.52.08-.21.14-.44.34,0,.11,0,.27-.07.3.28-.06,0,.32.45.22-.06.07.11.12-.09.27.2.08.09-.16.19-.23.45,0,.22.79.85.78.4.13.68,0,1.05.08,0,.19-.32.18-.32.18,0,.24.15.32.36.37-.09,0-.11.11-.15.23.12.08.32-.18.35,0a1.48,1.48,0,0,1-.38.18c.18,0,.43,0,.62.11-.09.15-.26.1-.38.14.19.08.47.25.7.1l0-.15c.06,0-.14.19-.21.18-.27,0-.11-.24,0-.31l.13,0c.31-.49-.42-.29-.58-.49l.37-.22-.42.06c0-.11.17-.31.3-.26,0-.27-.22,0-.16-.28,0,0,0,0,.05,0l-.21,0c.09,0,.19-.22.22-.1-.05-.4-.58-.15-.44-.45h0c-.41-.21-.24.18-.73.2l.38-.69-.25.19a.14.14,0,0,1,0-.2c-.27,0-.08.12-.29.19.05-.35-.51-.33-.2-.71-.22.11,0,.27-.26.22.32-.42-.26-.13-.23-.44.24-.15.27.09.3-.22-.41.24-.21-.35-.39-.41-.26.26-.36-.15-.65-.26.1-.07-.23-.52-.33-.8l.05,0c-.29.22-.43,0-.63-.11a.5.5,0,0,1,.39-.18l-.13-.13a.31.31,0,0,1-.31,0l.23-.16c-.19-.16-.59-.12-.68-.48-.19.17-.33.69-.68.57.08-.11.24-.28.35-.26s-.16,0-.16-.07l.26-.07c0-.18-.19.08-.26,0,.15-.14,0-.16.17-.26s0,.13.1.11a.53.53,0,0,1,0-.46c-.07.09-.19.19-.27.14s.1-.22.07-.4c-.14.06-.15-.16-.36,0-.05,0,0-.16.08-.24-.19,0-.45-.39-.57-.07v0h0c-.5-.09-.5-.74-.88-.94l.07-.07c-.25-.1-.44-.35-.71-.32,0,0,0-.25.11-.31-.19-.08-.28,0-.36-.33.26,0,.06-.15.23.05-.12-.23,0-.39-.42-.38a.21.21,0,0,0,0-.39v.25a.69.69,0,0,1-.25-.26l.28-.19c-.07-.64-1.13-.16-.92-.91-.26.07.07.31-.2.42-.14-.2,0-.7,0-.76-.09-.35-.55.14-.7-.19,0,.12-.25.37-.5.27s.15-.55.32-.51a.06.06,0,0,1,0,.1c.08,0,.19.06.21-.1l-.1.06c0-.16-.23-.38,0-.47-.21,0-.19.09-.15.22-.09-.33-.32-.33-.46-.63,0,.08-.08.21-.11.18-.21-.42-.3,0-.55-.16,0-.25.35-.26,0-.37,0-.22.19-.25.31-.27-.36,0-.26-.47-.34-.62l.17,0a.32.32,0,0,1-.21-.13l-.11.23c0-.09-.08-.14,0-.21-.17,0-.23.33-.5.35,0-.16-.34-.15-.15-.4.18.33.2-.26.45-.08a.19.19,0,0,1-.15-.15.07.07,0,0,1,.08,0c0-.44-.36.14-.61-.12.16-.09.18-.29.11-.31.1.11-.16.26-.35.26-.06-.26-.25-.1-.32-.2l0,.14c-.16.1-.22,0-.38-.08.09-.1.17,0,.17,0-.34.09-.05-.52-.38-.54,0-.17.23-.25.22-.38-.36,0,0-.38-.39-.45-.1.22-.05.19-.36.21l.46.22-.47,0c.1.11.33.11.36.2-.24,0-.19,0-.28.19.11-.39-.43-.13-.42-.46l.42-.41c-.05-.44-.65-.22-.86-.65l0,.18c-.21.12-.22-.18-.39-.21.15-.13.14-.25.18-.38-.1.11-.22-.24-.53,0l0-.32c-.18-.34-.69.1-.89-.19.23-.08.22-.29.49-.23-.08-.09-.13-.19-.23-.09,0-.14-.41,0-.36-.25-.09,0-.25.16-.33.06a.21.21,0,0,1,.07-.07c-.07.07-.24-.05-.31.18.18-.68-.74-.67-.59-1.27a4.76,4.76,0,0,1-.66-.45s.07-.07.09,0c-.1-.35-.54.27-.65-.14.09-.35.26,0,.26-.15.42-.49-.37-.24-.28-.68H6c0-.29-.49-.15-.67-.39a.21.21,0,0,0,.07-.07,1.55,1.55,0,0,1-1-.26c.24-.11.19,0,.33-.22-.12-.07-.27.32-.5.19a1.1,1.1,0,0,1,.17-.6l.18.17c.16-.34-.23-.22-.28-.35l.12-.1c-.3-.23-.58,0-.85-.27L3.53,26c-.43.11,0-.29-.33-.24l.23-.33c-.2-.06-.54,0-.79-.15l.81-.05c-.09-.1-.18-.14-.4-.09.06,0,.17,0,.13,0A.74.74,0,0,1,2.4,25c.58-.12.38-.23.35-.34a.86.86,0,0,1,.51-.08c-.12-.09,0-.17.13-.2l.17,0a1,1,0,0,0,.29-.25c-.57-.27.11-.13-.35-.54.07-.13.12-.16.16-.14l.55,0c.2.06,0,.19.11.28.25-.18.27.09.53.07-.18-.13-.15-.3,0-.36l-.38,0c.07-.53.63.1.7-.43l0,.23c.08-.23.58-.57.38-1.07.08,0,.24.11.2.21.42-.32.46-1.2,1-1.28l.08.14c0-.1-.08-.32.11-.3,0,.05.08.13.12.11s0-.37.15-.4l0,.19c.5-.22.27-.84.5-1.22a.74.74,0,0,0,.89,0l0,0c.46-.39.46-1,.73-1.49.58.09,1-.68,1.54-.88-.12,0-.23-.26-.2-.36s0-.47.31-.17l0,0c.35.21.47-.05.62-.19l-.35-.4c.93.16.81-1.2,1.5-.93,0-.18.12-.3.12-.48l.19.2a2.08,2.08,0,0,0,.73-.67l.08.21c.2-.17-.35-.81-.19-1l.34.25c.31-.32.89-.37.93-1,0,0,.11.14.08.2.15-.14.77-.36.3-.72.27.26.35-.3.4-.58l.17.22c-.11-.39-.17-.47,0-.74.07,0,.2.12.08.13.27,0-.06-.31.24-.39l0,.2c.18-.15.1-.21,0-.44s.36-.26.56-.1c-.09-.13-.15-.37,0-.41a.19.19,0,0,1,.09.17c.41-.14.17-.63.55-.63a.31.31,0,0,0,.15.09c-.22.21-.4.37-.4.34.18.18.39,0,.5.43,0-.28-.06-.81.2-.9a.25.25,0,0,1,.08,0v0a.13.13,0,0,0,.07-.13.53.53,0,0,0,.2-.09c.17.13.28-.12.37-.2-.2-.19-.06-.27-.33-.33,0,0,0,0,0,.11a.14.14,0,0,0,0,.06v0l-.2.23c0-.17-.05-.32.16-.31-.08-.17-.17-.35-.2-.44.39.16.77.08,1,.22.16-.38.55-.7.35-1.24,0-.12.19,0,.28.06s-.07.12,0,.2c.06-.25.41-.48.19-.78.3-.07.13.35.35,0l0,.11c.93-.09.17-1.5,1.27-1.53a.21.21,0,0,1-.16,0c.88-.41,1.11-1.56,2.12-1.82.26-.11.11-.29.1-.53l.25.17-.06-.43c.09-.45,1,.06,1-.62l-.19-.1c.15-.1.3-.47.45-.29,0,0-.11-.19,0-.16l.12.11.1-.49c.32-.15.41.48.77.16.08-.17,0-.68-.09-.71a.26.26,0,0,1-.31,0l0-.17C25.35.38,25.1,0,24.59,0V.4L24.37.31l.15-.18c-.24-.06-.17.14-.14.3a.43.43,0,0,0-.26-.1l.12.51c-.15-.11-.17-.34-.37-.28.05.23.37.2.32.44C24,1,23.85.8,23.87,1a.27.27,0,0,1-.13-.23c0,.2-.21.3-.09.53-.28-.09-.28.38-.59.06a.72.72,0,0,1,0,.52c-.21-.54-.36.32-.72-.13.21.46-.29.59-.32,1,0,0-.05-.12,0-.12-.15.09-.29,0-.43,0,.26.29.14.55.2.82-.41-.12-.23-.41-.53-.62.23.21,0,.48.2.62-.28-.06-.18,0-.47-.16.33.37-.05.17.07.48-.34,0-.37-.29-.44,0C20.42,3.83,20.45,3.55,20.45,3.55ZM16.73,8.47h0l.07-.1Zm-.36.36a1.07,1.07,0,0,0,.17-.15c.08.06.13.15.09.18S16.48,8.84,16.37,8.83Zm2.15.61c0,.09-.09.07-.14,0a1.05,1.05,0,0,0,.08-.13l0,0Z"/><path class="cls-1" d="M18.36,9.08a.06.06,0,0,1,0,0h-.08l0,.08Z"/><path class="cls-1" d="M18.69,41.12h0a.11.11,0,0,1,0,0Z"/><polygon class="cls-1" points="10.97 13.47 11.03 13.52 11.01 13.44 10.97 13.47"/><path class="cls-1" d="M20,43.81a.09.09,0,0,0,0,.07A.24.24,0,0,0,20,43.81Z"/><path class="cls-1" d="M20.83,44.71l.05.2C20.86,44.81,20.84,44.76,20.83,44.71Z"/><path class="cls-1" d="M21.39,45.48l.1-.07h0Z"/><path class="cls-1" d="M10.59,35.15l0,0C10.46,35.11,10.52,35.13,10.59,35.15Z"/><path class="cls-1" d="M14.2,37.83H14C14.05,37.89,14.09,37.94,14.2,37.83Z"/><polygon class="cls-1" points="6.84 31.88 6.85 31.87 6.83 31.85 6.84 31.88"/><path class="cls-1" d="M13.86,37.67a.19.19,0,0,0,.15.15C14,37.76,13.94,37.69,13.86,37.67Z"/><path class="cls-1" d="M24.18,48.45l0,0s0,0,0,0Z"/><path class="cls-1" d="M24.24,48.46h.06S24.27,48.44,24.24,48.46Z"/><path class="cls-1" d="M24.42,48.5l-.12,0S24.35,48.54,24.42,48.5Z"/><path class="cls-1" d="M23.39,47.48l-.08.06Z"/><path class="cls-1" d="M23.11,47.23c0,.08,0,.31.14.36l.06-.05C23.16,47.6,23.29,47.17,23.11,47.23Z"/><path class="cls-1" d="M22.88,45.22l.17.28c0-.11.09-.27.21-.18C23.2,44.81,23.14,45.55,22.88,45.22Z"/><path class="cls-1" d="M22.3,44.42c.15.08.11-.12.16-.15C22.31,44.26,22.27,44.26,22.3,44.42Z"/><path class="cls-1" d="M17.28,39.4l.19-.17C17.35,39.16,17.4,39.3,17.28,39.4Z"/><polygon class="cls-1" points="15.38 39.37 15.36 39.58 15.57 39.45 15.38 39.37"/><polygon class="cls-1" points="16.11 37.52 16.17 37.53 15.95 37.44 16.11 37.52"/><path class="cls-1" d="M7.61,29.15l-.19.25C7.52,29.43,7.78,29.19,7.61,29.15Z"/><path class="cls-1" d="M3.75,25.74c.07-.15,0-.33-.14-.28C3.68,25.56,3.68,25.73,3.75,25.74Z"/><polygon class="cls-1" points="11.79 16.22 11.8 16.37 11.87 16.17 11.79 16.22"/><path class="cls-1" d="M620.09.17c-.09,0-.21.19-.12.23l.29-.18Z"/><path class="cls-1" d="M620.12,1.07a.9.9,0,0,0,.65-.4c-.3.14-.23,0-.58.21-.1,0-.05-.2,0-.27-.09,0-.06-.16-.24,0-.09.27,0,.39.28.36C620.26,1,620.17,1,620.12,1.07Z"/><path class="cls-1" d="M626.56,8.25V8.17A.11.11,0,0,0,626.56,8.25Z"/><path class="cls-1" d="M630.65,12.59a.09.09,0,0,0-.09,0S630.64,12.62,630.65,12.59Z"/><path class="cls-1" d="M631.11,13.57l0-.06S631.09,13.58,631.11,13.57Z"/><path class="cls-1" d="M626.56,8.25l0,.18C626.69,8.36,626.6,8.32,626.56,8.25Z"/><path class="cls-1" d="M621.62,1.45a.24.24,0,0,0-.12,0l.08,0Z"/><path class="cls-1" d="M624.51,6.58l0,0-.12.07Z"/><path class="cls-1" d="M623.05,5.19s.24-.15.33-.23c-.1.07-.16.08-.2.07Z"/><path class="cls-1" d="M621.14,2.57h0Z"/><path class="cls-1" d="M625.49,7.64l-.06.08A.16.16,0,0,0,625.49,7.64Z"/><path class="cls-1" d="M622.2,47.92l0,0S622.19,47.93,622.2,47.92Z"/><polygon class="cls-1" points="619.56 48.59 619.58 48.56 619.47 48.44 619.56 48.59"/><path class="cls-1" d="M632.18,15.14h0C632.12,15.12,632.14,15.14,632.18,15.14Z"/><path class="cls-1" d="M641.16,25.45c.32,0,0,.45.41.44C641.48,25.83,641.45,25.39,641.16,25.45Z"/><path class="cls-1" d="M621.64,1.51l.06.06A.11.11,0,0,0,621.64,1.51Z"/><path class="cls-1" d="M641.57,25.89Z"/><path class="cls-1" d="M635.33,18.06a.34.34,0,0,0,.06-.12A.26.26,0,0,0,635.33,18.06Z"/><path class="cls-1" d="M633.35,15.51l0,.09A.12.12,0,0,0,633.35,15.51Z"/><path class="cls-1" d="M636.79,19c0,.05,0,.09.06.1l0,0S636.79,19,636.79,19Z"/><polygon class="cls-1" points="638.01 20.18 638.03 20.11 637.98 20.08 638.01 20.18"/><path class="cls-1" d="M625.82,44.11a1,1,0,0,1-.23-.12C625.75,44.11,625.62,44.34,625.82,44.11Z"/><path class="cls-1" d="M621.51,1.56c.06,0,.1-.06.13-.05l-.06,0S621.52,1.53,621.51,1.56Z"/><path class="cls-1" d="M638.41,17.44l.16.22A.65.65,0,0,0,638.41,17.44Z"/><path class="cls-1" d="M634.56,35.31l0,.07S634.58,35.35,634.56,35.31Z"/><path class="cls-1" d="M639.18,18.21a.44.44,0,0,0,0,.24l.07,0Z"/><path class="cls-1" d="M625.58,44h0Z"/><path class="cls-1" d="M624.78,45.74c.19-.18-.17-.34-.28-.53.14-.3.29.09.5.15.07-.21-.06-.56,0-.65s.09,0,.12.11c-.07-.36.42-.44.33-.88l.08.05a2.65,2.65,0,0,1-.38-.34c.08-.08,0-.31.19-.17,0,0,0,.11,0,.19v-.16c.33.17,0,.2.15.39.09-.25.08-.65.28-.72.27.22-.22.39.17.43l-.3.11c.54.22-.14.09.4.36.34-.2.18-.42.51-.61-.07-.2-.22-.18-.29-.37.13-.62.9.3.85-.29-.09-.23-.36-.56,0-.6l.2.34c.28-.23-.24-.54.21-.62.06.15-.11.29,0,.28.38,0,0-.28.1-.41L628,42c.23-.31.36-.78.62-1.13,0,.09.08.22.22.22a2.66,2.66,0,0,1,1.35-1l-.07-.34s.16,0,.16.1c.23-.06-.12-.13-.13-.29s.22,0,.23.13c.08-.43.34-1.1.83-1.14v.11c.29-.12-.19-.66.2-.66v.08c.54-.36.84-1,1.5-1.08-.23-.36.58-.31.19-.76.46-.05.47.1,1-.12.11-.08-.12-.41,0-.57l.22.21-.07-.39.35.18,0-.17a.26.26,0,0,1-.25-.07c.08-.28.58-.28.7-.17l.23-.6c.08.1,0,.2,0,.31,0-.44.27.19.27-.22-.08,0-.12-.14-.16-.19.24,0,.47-.2.58-.42l.12.18c.34-.27.57-.72.92-1.06-.19,0-.42-.24-.35-.36l.27.19c-.07-.21-.19,0-.23-.29.16-.11.35.17.35.32l.08-.24c.07.06.07.14.15.23-.08-.2.5,0,.35-.38l.07.06a11.13,11.13,0,0,0,.7-.87c-.2-.2,0-.27-.12-.51a2.76,2.76,0,0,0,.89-.48c.07-.28-.12-.22-.16-.42.19.17.43-.1.43.16a2.81,2.81,0,0,0,.57-.94c-.11,0-.19,0-.23-.1s.23-.08.31,0v0c.15-.69,1.51-.45,1.46-1.16v0l.16-.54c.19-.13,0,.23.27.22.07-.68.64-.55.75-1.06.4.13.55,0,.82-.37a3.27,3.27,0,0,1,1.27-1.12h-.23c-.05-.2.29-.16.46-.27-.18,0-.35.13-.37,0a8.29,8.29,0,0,1,.57-.65A15.3,15.3,0,0,1,643.84,23l-.36-.47-.18-.29a5.21,5.21,0,0,0-.36-.55c-.23-.3-.8.5-.84-.14l.33-.14c-.82-.25-1.09-1.11-1.85-1.39.08,0,.15-.1.2,0,.06-.28-.4-.42-.54-.29-.07-.09.11-.14.13-.26s-.5-.06-.39-.29c0,0,.09,0,.12,0-.16,0-.32-.36-.44-.09-.11-.29-.47-.29-.51-.57-.32.12-.23-.44-.58-.16.34-.31-.08-.61-.36-.58.14-.06,0-.21.17-.3-.14-.13-.33-.21-.47,0,.12-.64-.84-.22-.49-.85a9.09,9.09,0,0,1-1.56-.84c.33-.3.45.39.77,0-.5-.23-1-.16-1.26-.6,0-.14.19-.09.28-.11-.49-.23-.67-.73-1.17-.87a.21.21,0,0,1,.16,0c-.08-.05-.1-.2-.24,0l.1,0c-.11.31-.69.19-.81.29.52-.31-.21-.42.48-.78a.3.3,0,0,0-.28.11c0-.09,0-.17.18-.21-.31-.15-.38.08-.58-.13.07-.07.14-.05.24-.11-.24,0-.48.06-.59-.17.05,0,.08-.11.13,0-.32-.28-.87-.15-1.06-.61.4-.21,0-.21.23-.49l-.25-.1-.06.2c-.15-.16-.48-.1-.52-.32h.22l-.34-.24.06.26c-.29,0-.31.35-.45.07.07,0-.15-.15-.07-.39h0c-.16,0-.33,0-.38-.16S631,11,631,11c-.3.15-.42-.3-.76-.16a.65.65,0,0,0,.25-.19l-.24.11c0-.13,0-.17.12-.26-.18-.25-.26.4-.37,0,0,0,0,0,.12,0-.18-.33-.61-.38-.76-.7.2-.34.27.14.42-.16-.39-.3-1-.39-1.29-.78l0,.09c-.42.33-.06-.43-.4-.42.07,0,.26-.15.21-.12-.17-.29-.55-.37-1-.59l.14,0c-.05-.22-.3-.4-.4-.59-.14,0-.21,0-.3.15.11-1-1.13-.55-1.07-1.4,0,0,.2,0,.16,0l-.42-.24c-.14.19-.05.14-.11.34a.4.4,0,0,1-.39,0c.26,0,.26-.26.29-.42,0,.06-.12.09-.17.15.12-.47-.35.3-.4-.13l.1-.08c-.13,0-.33,0-.4-.13.15-.23.19,0,.35-.14-.15-.13-.63.09-.56-.22.11,0,.19.08.3.09.09-.36,0-.32,0-.45v0l-.13-.33v.11c-.66.33-.43-.25-1-.15.52-.09.21-.14.44-.34,0-.12,0-.27.07-.31-.28.07,0-.31-.45-.21.06-.08-.11-.12.09-.27-.19-.09-.09.15-.19.23-.45,0-.22-.8-.85-.78-.4-.14-.68,0-1-.09,0-.19.32-.18.32-.18a.41.41,0,0,0-.36-.37c.08,0,.11-.11.14-.22s-.31.18-.35-.06a2.19,2.19,0,0,1,.38-.17c-.18-.06-.43-.05-.62-.11.09-.15.26-.11.38-.14-.19-.09-.47-.26-.7-.11l0,.16c-.06,0,.14-.19.21-.19.27,0,.11.24,0,.32l-.13,0c-.31.5.42.29.58.5l-.37.22.43-.07c0,.12-.18.31-.31.27,0,.27.22,0,.16.28a.05.05,0,0,1-.05,0l.21,0c-.09,0-.19.23-.22.11,0,.39.58.14.44.45h0c.41.21.24-.19.73-.21l-.38.69.25-.18a.12.12,0,0,1,0,.19c.27,0,.08-.11.29-.18,0,.35.51.33.21.71.21-.11,0-.28.25-.23-.32.42.26.13.23.44-.24.15-.27-.08-.3.23.41-.24.21.34.39.4.26-.25.36.15.65.27-.1.07.23.51.33.79l0,0c.29-.22.44,0,.63.1-.16.15-.25.19-.39.18l.13.13a.34.34,0,0,1,.31,0l-.22.16c.18.17.58.13.67.48.2-.17.33-.68.69-.56-.09.1-.25.28-.35.26s.15,0,.15.07l-.26.07c0,.17.19-.08.26,0-.14.14,0,.16-.16.26s0-.13-.1-.1a.54.54,0,0,1,0,.45c.07-.09.19-.19.28-.14s-.11.23-.08.4c.14-.05.15.16.36-.05.05.06,0,.16-.07.24.18,0,.44.4.56.07v0h0c.5.09.5.73.88.94l-.07.07c.25.09.44.34.71.32,0,0,0,.25-.11.31.19.08.28,0,.36.32-.26,0-.06.16-.23,0,.12.23,0,.38.42.38-.24.11-.09.35.05.38v-.25a.71.71,0,0,1,.25.27l-.28.19c.07.64,1.13.15.93.9.26-.07-.08-.31.2-.42.13.2,0,.71,0,.76.1.36.55-.13.7.19,0-.11.25-.36.51-.27s-.16.56-.33.52a.07.07,0,0,1,0-.11c-.09,0-.19-.05-.22.1l.11-.06c0,.17.23.39,0,.47.2,0,.19-.08.14-.22.09.33.32.33.46.63,0-.08.08-.21.11-.17.21.42.3,0,.55.16,0,.25-.35.26,0,.37,0,.22-.2.25-.32.26.36,0,.26.48.35.62l-.18,0a.42.42,0,0,1,.21.13l.11-.23c0,.09.08.15,0,.22.17-.05.23-.33.51-.36,0,.17.33.16.14.41-.18-.33-.2.25-.45.07a.22.22,0,0,1,.15.16.06.06,0,0,1-.08,0c0,.45.36-.14.61.12-.16.1-.18.3-.11.31-.1-.1.16-.25.35-.26.07.26.25.11.32.2l-.05-.14c.16-.09.23,0,.38.08-.09.11-.17,0-.17.05.34-.1,0,.51.38.54,0,.17-.23.24-.22.37.36,0,0,.39.39.46.11-.23.05-.2.36-.22l-.46-.22.47,0c-.1-.1-.32-.11-.36-.2.24,0,.19,0,.28-.19-.11.4.43.13.42.47l-.42.41c.06.43.65.22.86.64l0-.17c.21-.13.22.17.39.21a.58.58,0,0,0-.18.37c.1-.11.22.24.53,0l0,.33c.18.33.69-.11.89.19-.23.07-.22.29-.49.23.08.08.13.18.23.09,0,.13.41,0,.36.24.09,0,.25-.16.33-.05a.21.21,0,0,1-.07.07c.07-.07.24,0,.31-.19-.18.69.74.68.59,1.27a4.26,4.26,0,0,1,.66.46c-.05,0-.07.07-.09,0,.1.36.54-.26.65.14-.09.36-.25,0-.26.15-.42.5.37.25.28.69h-.07c0,.28.49.14.68.39a.21.21,0,0,0-.08.07,1.48,1.48,0,0,1,1,.25c-.24.12-.19,0-.33.23.12.06.27-.32.5-.19a1,1,0,0,1-.16.59l-.19-.16c-.16.34.23.21.28.35l-.12.1c.3.23.59,0,.85.26l.06-.11c.43-.12,0,.29.34.24l-.24.32c.2.07.55,0,.8.15l-.82.06a.37.37,0,0,0,.41.09c-.06,0-.17,0-.14,0a.76.76,0,0,1,.78.14c-.58.13-.37.23-.35.34a.84.84,0,0,1-.51.09c.12.08,0,.16-.12.2l-.17,0a1,1,0,0,0-.3.25c.57.28-.11.14.35.55-.07.12-.12.15-.15.13l-.56,0c-.2-.05,0-.19-.11-.27-.25.18-.27-.1-.53-.07.18.13.15.3,0,.36l.37,0c-.07.53-.63-.11-.7.42l0-.23c-.08.24-.58.57-.38,1.07-.08,0-.23-.1-.2-.2-.42.32-.45,1.2-1,1.27l-.07-.13c0,.1.07.32-.12.3,0-.05-.08-.14-.12-.11s0,.37-.15.4l0-.2c-.5.23-.27.85-.5,1.22a.74.74,0,0,0-.89,0l0-.05c-.46.38-.46,1-.72,1.49-.58-.1-1,.68-1.55.88.12,0,.24.25.2.35s0,.47-.31.17l0,0c-.35-.21-.46,0-.62.19l.35.4c-.93-.16-.81,1.21-1.5.93,0,.19-.12.3-.12.49l-.19-.21a2.32,2.32,0,0,0-.73.68l-.08-.21c-.19.16.35.8.2,1l-.35-.25c-.31.32-.89.37-.93,1,0-.05-.11-.15-.07-.21-.16.14-.78.37-.31.73-.27-.27-.35.29-.4.58l-.17-.23c.11.4.17.47,0,.74-.07,0-.2-.12-.08-.13-.26.06.06.31-.23.4l-.06-.2c-.18.15-.1.2,0,.44s-.35.25-.56.1c.09.13.15.36,0,.41a.2.2,0,0,1-.09-.17c-.4.13-.17.63-.55.62a.27.27,0,0,0-.15-.08,2.1,2.1,0,0,1,.4-.35c-.18-.18-.39,0-.5-.43,0,.28.06.82-.2.9l-.08,0v0c-.06,0-.08.07-.08.14a.4.4,0,0,0-.2.08c-.17-.13-.28.12-.37.2.21.19.06.27.33.33,0,0,0,0,0-.1a.14.14,0,0,0,0-.06v0l.2-.23c0,.17,0,.33-.16.31a4.31,4.31,0,0,1,.2.45c-.39-.16-.77-.09-1-.22-.16.37-.55.69-.34,1.23,0,.12-.2,0-.28-.05s.06-.13,0-.2c-.06.24-.41.48-.18.77-.31.08-.14-.34-.36,0l0-.12c-.93.1-.17,1.5-1.27,1.53.07,0,.11,0,.16,0-.88.41-1.11,1.55-2.12,1.82-.26.1-.11.29-.09.52l-.26-.17.06.44c-.09.44-1-.06-1,.62l.19.1c-.15.09-.3.47-.45.28,0,0,.11.19,0,.16l-.11-.1-.11.49c-.32.15-.41-.48-.77-.17-.08.17,0,.69.09.72a.25.25,0,0,1,.31,0l0,.18c.31.35.55.77,1.07.72v-.4l.23.1-.16.17c.24.06.17-.13.15-.29a.37.37,0,0,0,.25.09l-.12-.5c.16.1.17.34.37.28-.05-.24-.37-.2-.32-.45.25.06.34.21.32,0a.26.26,0,0,1,.13.23c0-.21.21-.31.09-.53.28.08.29-.38.59-.06a.8.8,0,0,1,0-.53c.21.54.36-.31.72.13-.21-.46.29-.59.32-1,0,0,0,.11,0,.12.15-.1.29,0,.43,0-.26-.29-.13-.54-.2-.82.41.12.23.42.54.63-.24-.22,0-.48-.21-.62.28.05.18,0,.47.15-.33-.36,0-.16-.07-.47.34,0,.37.28.44,0C624.82,45.45,624.78,45.74,624.78,45.74Zm3.72-4.92h0l-.07.1Zm.36-.37a1.1,1.1,0,0,0-.16.15c-.09-.06-.14-.14-.1-.17S628.75,40.45,628.86,40.45Zm-2.14-.61c0-.08.08-.06.13,0l-.08.12,0,0A.37.37,0,0,1,626.72,39.84Z"/><path class="cls-1" d="M626.87,40.21a0,0,0,0,1,0,0h.08l0-.08Z"/><path class="cls-1" d="M626.54,8.16h0a.08.08,0,0,1,0,0Z"/><polygon class="cls-1" points="634.26 35.81 634.21 35.77 634.22 35.84 634.26 35.81"/><path class="cls-1" d="M625.23,5.48a.19.19,0,0,0,0-.08A.19.19,0,0,0,625.23,5.48Z"/><path class="cls-1" d="M624.41,4.57l-.06-.19A.85.85,0,0,0,624.41,4.57Z"/><path class="cls-1" d="M623.84,3.81l-.1.07h0Z"/><path class="cls-1" d="M634.64,14.14l0,0C634.77,14.18,634.72,14.15,634.64,14.14Z"/><path class="cls-1" d="M631,11.46a.66.66,0,0,1,.2,0C631.18,11.4,631.14,11.35,631,11.46Z"/><polygon class="cls-1" points="638.39 17.41 638.38 17.41 638.41 17.43 638.39 17.41"/><path class="cls-1" d="M631.37,11.62c0-.1-.07-.14-.14-.15S631.29,11.6,631.37,11.62Z"/><path class="cls-1" d="M621.05.84l0,0,0,0Z"/><path class="cls-1" d="M621,.83l-.06,0S621,.84,621,.83Z"/><path class="cls-1" d="M620.81.79l.12,0A.08.08,0,0,0,620.81.79Z"/><path class="cls-1" d="M621.84,1.81l.08-.06Z"/><path class="cls-1" d="M622.13,2.06c0-.08,0-.32-.14-.36l-.07.05C622.07,1.68,621.94,2.12,622.13,2.06Z"/><path class="cls-1" d="M622.35,4.06l-.17-.28c0,.12-.08.27-.21.19C622,4.48,622.09,3.74,622.35,4.06Z"/><path class="cls-1" d="M622.93,4.87c-.15-.09-.11.11-.16.15C622.92,5,623,5,622.93,4.87Z"/><path class="cls-1" d="M628,9.89l-.19.17C627.88,10.12,627.83,10,628,9.89Z"/><polygon class="cls-1" points="629.85 9.91 629.87 9.71 629.66 9.83 629.85 9.91"/><polygon class="cls-1" points="629.13 11.77 629.06 11.75 629.28 11.84 629.13 11.77"/><path class="cls-1" d="M637.62,20.13l.19-.25C637.71,19.86,637.45,20.1,637.62,20.13Z"/><path class="cls-1" d="M641.49,23.55c-.08.15,0,.32.13.27C641.55,23.73,641.56,23.56,641.49,23.55Z"/><polygon class="cls-1" points="633.44 33.06 633.43 32.91 633.36 33.12 633.44 33.06"/></g></g></svg>