<?xml version="1.0" encoding="UTF-8" standalone="no"?>
<!DOCTYPE svg PUBLIC "-//W3C//DTD SVG 1.1//EN" "http://www.w3.org/Graphics/SVG/1.1/DTD/svg11.dtd">
<svg width="100%" height="100%" viewBox="0 0 1500 3" version="1.1" xmlns="http://www.w3.org/2000/svg" xmlns:xlink="http://www.w3.org/1999/xlink" xml:space="preserve" xmlns:serif="http://www.serif.com/" style="fill-rule:evenodd;clip-rule:evenodd;stroke-linejoin:round;stroke-miterlimit:1.41421;">
    <g id="Calque_1-2" transform="matrix(-1.0502,0.000102451,-9.75541e-05,-1,874.659,2.39783)">
        <path d="M187.28,1.71C187.38,1.65 187.33,1.5 187.06,1.53L186.86,1.78L187.28,1.71Z" style="fill:rgb(152,125,81);fill-rule:nonzero;"/>
        <path d="M185.46,1.25C185.14,1.37 184.77,1.58 184.98,1.81C185.29,1.57 185.37,1.67 185.71,1.39C185.98,1.39 186.18,1.47 186.14,1.56C186.23,1.5 186.56,1.61 186.71,1.46C186.305,1.282 185.845,1.282 185.44,1.46C185.34,1.36 185.43,1.3 185.46,1.25Z" style="fill:rgb(152,125,81);fill-rule:nonzero;"/>
        <path d="M158.9,0.87L159.07,0.87L158.9,0.87Z" style="fill:rgb(152,125,81);fill-rule:nonzero;"/>
        <path d="M142.45,0.73C142.57,0.73 142.63,0.73 142.63,0.73C142.63,0.73 142.42,0.71 142.45,0.73Z" style="fill:rgb(152,125,81);fill-rule:nonzero;"/>
        <path d="M139.64,0.46L139.8,0.46C139.748,0.441 139.692,0.441 139.64,0.46Z" style="fill:rgb(152,125,81);fill-rule:nonzero;"/>
        <path d="M158.9,0.87L158.46,0.79C158.43,0.87 158.69,0.85 158.9,0.87Z" style="fill:rgb(152,125,81);fill-rule:nonzero;"/>
        <path d="M181.8,1.85C181.879,1.842 181.957,1.822 182.03,1.79L181.81,1.79C181.81,1.79 181.8,1.84 181.8,1.85Z" style="fill:rgb(152,125,81);fill-rule:nonzero;"/>
        <path d="M166.15,0.66L166.29,0.66C166.331,0.632 166.369,0.599 166.4,0.56L166.15,0.66Z" style="fill:rgb(152,125,81);fill-rule:nonzero;"/>
        <path d="M171.72,0.63C171.6,0.63 171.55,0.83 171.5,0.92C171.569,0.835 171.671,0.784 171.78,0.78C171.775,0.725 171.754,0.673 171.72,0.63Z" style="fill:rgb(152,125,81);fill-rule:nonzero;"/>
        <path d="M180.55,1L180.7,1L180.55,1Z" style="fill:rgb(152,125,81);fill-rule:nonzero;"/>
        <path d="M162.17,0.62C162.175,0.594 162.175,0.566 162.17,0.54C162.165,0.514 162.14,0.59 162.17,0.62Z" style="fill:rgb(152,125,81);fill-rule:nonzero;"/>
        <path d="M6.48,2.2C6.48,2.2 6.44,2.2 6.48,2.2Z" style="fill:rgb(152,125,81);fill-rule:nonzero;"/>
        <path d="M0,1.16L0.12,1.16C0.132,1.108 0.135,1.054 0.13,1L0,1.16Z" style="fill:rgb(152,125,81);fill-rule:nonzero;"/>
        <path d="M134.5,0.19C134.66,0.17 134.58,0.17 134.5,0.19Z" style="fill:rgb(152,125,81);fill-rule:nonzero;"/>
        <path d="M87.3,0.34C87.84,0.53 86.43,0.58 87.24,0.79C87.16,0.71 88,0.46 87.3,0.34Z" style="fill:rgb(152,125,81);fill-rule:nonzero;"/>
        <path d="M87.24,0.79L87.32,0.79L87.24,0.79Z" style="fill:rgb(152,125,81);fill-rule:nonzero;"/>
        <path d="M122.65,0.31C122.681,0.351 122.722,0.382 122.77,0.4C122.818,0.418 122.74,0.36 122.65,0.31Z" style="fill:rgb(152,125,81);fill-rule:nonzero;"/>
        <path d="M131.48,0.61L131.26,0.61L131.48,0.61Z" style="fill:rgb(152,125,81);fill-rule:nonzero;"/>
        <path d="M118.07,0.61C117.965,0.584 117.855,0.584 117.75,0.61C117.851,0.563 117.969,0.563 118.07,0.61Z" style="fill:rgb(152,125,81);fill-rule:nonzero;"/>
        <path d="M113.3,0.61L113.54,0.61L113.3,0.61Z" style="fill:rgb(152,125,81);fill-rule:nonzero;"/>
        <path d="M21,2.1C20.914,2.053 20.839,1.988 20.78,1.91C20.83,2.06 20.13,2.12 21,2.1Z" style="fill:rgb(152,125,81);fill-rule:nonzero;"/>
        <path d="M181.79,1.73C181.764,1.784 181.71,1.819 181.65,1.82L181.81,1.82C181.81,1.82 181.83,1.75 181.79,1.73Z" style="fill:rgb(152,125,81);fill-rule:nonzero;"/>
        <path d="M117.88,2.27L117.12,2.27C117.33,2.26 117.61,2.27 117.88,2.27Z" style="fill:rgb(152,125,81);fill-rule:nonzero;"/>
        <path d="M55.19,2.07L55,2.1C55.065,2.108 55.131,2.098 55.19,2.07Z" style="fill:rgb(152,125,81);fill-rule:nonzero;"/>
        <path d="M114.87,2.27C114.734,2.204 114.589,2.157 114.44,2.13L114.35,2.18L114.87,2.27Z" style="fill:rgb(152,125,81);fill-rule:nonzero;"/>
        <g transform="matrix(7.73203,-7.80841e-19,-5.93177e-20,0.793921,-594.766,0.283598)">
            <path d="M15.76,2.41C16.48,2.41 16.1,2.14 16.25,1.98C17.11,1.9 16.65,2.18 16.94,2.33C17.386,2.192 17.84,2.082 18.3,2C18.76,1.918 18.4,2.06 18.3,2.12C18.87,1.9 19.99,2.12 20.65,1.83C20.685,1.846 20.716,1.87 20.74,1.9C20.652,1.795 20.615,1.655 20.64,1.52C20.96,1.52 21.24,1.34 21.36,1.52C21.16,1.52 21.15,1.58 21.05,1.64L21.39,1.56C21.7,1.82 20.93,1.65 20.93,1.84C21.567,1.696 22.217,1.622 22.87,1.62C22.97,1.87 21.68,1.7 22.36,1.93L21.58,1.83C22.17,2.23 21.1,1.83 21.65,2.23C22.65,2.31 22.8,2.1 23.83,2.23C24.06,2.09 23.76,2.02 23.99,1.88C25.45,1.62 25.14,2.52 26.22,2.18C26.49,2.01 26.6,1.69 27.37,1.86L27.11,2.15C28.11,2.15 27.68,1.73 28.72,1.93C28.55,2 28,2 28.1,2C28.78,2.23 28.58,1.84 29.1,1.84L29.21,2.1C30.27,2.1 31.44,1.87 32.62,1.83C32.56,1.9 32.35,1.98 32.62,2.06C34.156,1.979 35.695,2.039 37.22,2.24L37.78,2C37.91,2 38.02,2.1 37.88,2.14C38.44,2.23 37.88,2 38.18,1.92C38.48,1.84 38.6,2.04 38.4,2.11C39.665,1.863 40.963,1.826 42.24,2L42.04,2.07C42.85,2.16 42.95,1.62 43.7,1.82L43.56,1.82C45.23,1.773 46.901,1.85 48.56,2.05C48.82,1.73 50.3,2.19 50.41,1.75C51.101,1.977 51.816,2.124 52.54,2.19C52.91,2.19 53.1,1.92 53.54,1.87L53.54,2.1L54.17,1.86L54.51,2.14L55,2.1C54.83,2.1 54.63,1.99 54.66,1.93C55.235,1.843 55.824,1.941 56.34,2.21L58,2C58,2.09 57.69,2.13 57.48,2.18C58.34,1.95 57.63,2.43 58.42,2.18C58.32,2.13 58.48,2.04 58.5,2C59.157,2.138 59.834,2.166 60.5,2.08L60.37,2.24C61.57,2.24 62.9,2.16 64.24,2.17C63.76,2.09 63.87,1.81 64.24,1.79L64.39,2.03C64.65,1.88 63.98,1.94 64.51,1.76C65.01,1.76 64.84,2.03 64.51,2.11L65.13,2.03C65.13,2.1 65.02,2.14 64.98,2.23C65.23,2.08 65.98,2.48 66.4,2.23L66.4,2.31C67.74,2.31 68.4,2.22 69.4,2.21C69.4,2 69.85,2.05 70.18,1.88C71.062,2.001 71.95,2.072 72.84,2.09C73.52,1.99 73.04,1.91 73.35,1.79C73.35,1.98 74.35,1.96 73.86,2.1C74.863,2.089 75.864,2.025 76.86,1.91C76.7,1.83 76.52,1.79 76.62,1.73C76.88,1.73 77.22,1.81 77.19,1.9L77.11,1.9C78.77,1.61 80.93,2.46 82.24,2.06L82.17,2.06L83.53,1.85C84.16,1.85 83.16,2 83.62,2.12C85.09,1.79 85.95,2.12 87.16,1.95C88.1,2.51 90.49,1.95 91.75,2.27L91.68,2.14C92.01,2.01 92.07,2.21 92.32,2.24C92.32,2.14 91.96,2.12 92.16,2.05C94.94,1.89 97.88,2.25 100.73,2.37C101.73,2.37 101.32,1.68 102.63,1.99L102.25,2.24C104.35,1.95 106.54,2.24 108.6,2C108.47,2.06 108.47,2.13 108.27,2.13C108.806,2.273 109.376,2.223 109.88,1.99C110.2,1.99 109.96,2.13 110.15,2.2C110.59,2.31 111.24,1.97 111.48,2.2C111.48,2.2 111.35,2.26 111.27,2.27C111.56,2.19 112.6,2.27 112.27,2.09C113.04,2.19 113.75,1.99 114.36,2.09C114.76,1.86 115.68,2.2 115.81,1.87C115.75,2.21 117.16,2.14 117.65,1.98C117.48,2.09 118.07,2.09 117.88,2.23C118.44,2.23 118.95,2.17 118.88,1.99C119.88,2.4 120.94,1.66 121.51,2.18C123.17,2 124.7,1.88 126.18,1.8C126.18,2.14 124.54,1.8 124.6,2.19C125.794,1.966 127.005,1.848 128.22,1.84C128.59,1.89 128.02,1.99 127.9,2.04C129.3,1.91 130.62,2.04 131.9,1.89C131.9,1.89 131.76,1.96 131.64,1.98C131.88,1.98 132.21,1.98 132.18,1.88L132,2C131.61,1.78 133,1.53 133,1.42C132.58,1.86 134.23,1.53 133.57,2.08C133.73,2.08 133.93,1.98 133.9,1.88C134.14,1.88 134.21,1.97 133.97,2.09C134.85,2 134.54,1.84 135.34,1.84C135.34,1.92 135.18,1.95 135.09,2.03C135.561,1.835 136.073,1.759 136.58,1.81C137.087,1.861 136.58,1.91 136.42,1.91C137.499,1.743 138.589,1.659 139.68,1.66C139.3,1.99 140.11,1.77 140.18,2.05L140.87,1.96L140.59,1.83C141.136,1.751 141.688,1.714 142.24,1.72L141.79,1.84L142.92,1.78L142.28,1.68C142.89,1.53 142.22,1.32 143.02,1.4C142.86,1.4 143.62,1.4 143.93,1.57C144.268,1.429 144.636,1.378 145,1.42C145.11,1.51 144.91,1.73 145,1.79C145.29,1.55 146.41,1.72 146.78,1.47C146.66,1.53 146.65,1.68 146.69,1.71L146.94,1.52C147.21,1.58 147.26,1.61 147.21,1.72C148.05,1.72 146.94,1.37 147.94,1.52C147.86,1.52 147.94,1.57 147.74,1.6C148.74,1.67 149.66,1.47 150.58,1.6C150.85,1.88 149.78,1.67 150.09,1.9C151.41,1.85 152.83,1.57 154.09,1.63L153.85,1.63C154.03,1.23 154.85,1.83 155.45,1.63C155.29,1.63 155.24,1.85 155.29,1.81C156.334,1.812 157.377,1.735 158.41,1.58L158.24,1.69C158.76,1.78 159.6,1.74 160.16,1.79C160.33,1.68 160.64,1.7 160.45,1.55C162.17,2.13 163.73,1.24 165.26,1.72C165.08,1.72 164.82,1.81 164.97,1.81L166.27,1.72C166.17,1.55 166.1,1.62 165.83,1.48C166.096,1.356 166.387,1.294 166.68,1.3C166.09,1.41 166.68,1.58 166.94,1.67C166.94,1.62 166.94,1.56 166.94,1.51C167.62,1.82 167.05,1.16 167.94,1.37L167.89,1.46C168.217,1.376 168.552,1.329 168.89,1.32C169.05,1.52 168.52,1.41 168.5,1.58C169.03,1.58 169.5,1.2 170.01,1.4C169.79,1.4 169.47,1.4 169.25,1.51C169.56,1.665 169.904,1.738 170.25,1.72L171.14,1.82L170.91,1.76C171.57,1.24 172.25,1.66 173.14,1.32C172.28,1.64 173,1.51 172.93,1.73C173.16,1.8 173.5,1.87 173.4,1.93C173.82,1.75 174.1,2.08 174.69,1.81C174.69,1.88 175.14,1.81 175.05,2C175.59,1.94 174.92,1.87 174.97,1.78C175.8,1.53 176.97,2.08 178.15,1.78C179.15,1.64 179.38,1.39 180.35,1.27C180.67,1.39 180.08,1.54 180.08,1.54C180.549,1.63 181.031,1.63 181.5,1.54C181.4,1.6 181.5,1.66 181.65,1.74C182.05,1.74 181.92,1.47 182.44,1.58C182.325,1.703 182.19,1.804 182.04,1.88C182.51,1.81 182.98,1.67 183.46,1.61C183.59,1.73 183.17,1.8 183,1.88C183.54,1.83 184.41,1.77 184.58,1.57L184.23,1.49C184.43,1.49 184.33,1.67 184.18,1.7C183.72,1.86 183.51,1.63 183.48,1.56L183.83,1.51C183.47,1.08 182.44,1.58 181.75,1.56L182.04,1.25L181.32,1.5C181.17,1.42 181.07,1.25 181.41,1.2C180.91,1.05 180.97,1.31 180.54,1.14C180.49,1.14 180.54,1.14 180.54,1.09L180.05,1.18C180.15,1.11 179.97,0.96 180.27,1C179.39,0.82 178.86,1.24 178.53,1L178.6,1C177.39,1.11 178.48,1.23 177.6,1.5L177,0.83L176.88,1.06C176.76,1.06 176.51,1.06 176.55,0.94C176.09,1.09 176.63,1.04 176.36,1.19C175.76,0.98 174.7,1.28 174.57,0.92C174.35,1.09 175.14,1.05 174.5,1.17C174.32,0.78 173.76,1.24 173.2,1.06C173.37,0.86 173.9,0.97 173.34,0.78C173.01,1.13 172.27,0.71 171.81,0.78C171.81,1.05 170.81,0.89 170.02,0.98C169.285,0.854 168.544,0.771 167.8,0.73C167.66,1 166.91,0.95 166.37,1.01C166.37,0.84 166.49,0.78 166.78,0.7L166.27,0.7C166.087,0.813 165.875,0.872 165.66,0.87L165.78,0.66C165.04,0.781 164.288,0.818 163.54,0.77C163.49,0.96 164.23,1.3 163.31,1.43C163.31,1.33 163.24,1.15 163.48,1.11C163.335,1.139 163.185,1.139 163.04,1.11L163.41,0.94C163.01,0.86 163.2,1.08 162.88,1.07C162.88,0.92 162.64,0.96 162.69,0.84C162.74,0.72 162.97,0.9 163.09,0.84C162.764,0.829 162.444,0.75 162.15,0.61C162.15,0.69 162.15,0.81 161.89,0.83C161.21,0.83 161.65,0.65 161.26,0.57C161.09,0.68 160.66,0.57 160.65,0.79C160.45,0.79 160.41,0.69 160.33,0.63C159.98,0.72 158.69,0.63 159.08,0.89L159.17,0.89L159.12,0.89C157.938,0.96 156.752,0.96 155.57,0.89L155.57,0.82C154.899,0.841 154.231,0.911 153.57,1.03C153.36,1.03 153.09,0.89 153.18,0.81C152.738,0.902 152.282,0.902 151.84,0.81C152.36,0.68 151.66,0.7 152.38,0.72C151.865,0.585 151.325,0.585 150.81,0.72C151.06,0.53 150.3,0.48 149.98,0.54L150.45,0.67C150.117,0.69 149.783,0.69 149.45,0.67L149.63,0.42C148.23,0.11 147.12,0.93 146.06,0.42C145.69,0.59 146.81,0.54 146.48,0.74C145.978,0.664 145.483,0.546 145,0.39C144.12,0.25 144.18,0.75 143.26,0.66C143.38,0.75 143.49,0.99 142.8,1.07C142.11,1.15 142,0.7 142.41,0.63C142.56,0.63 142.64,0.63 142.63,0.68C142.84,0.68 143.11,0.61 142.86,0.51L142.77,0.6C142.46,0.51 141.57,0.52 141.77,0.37C141.29,0.46 141.56,0.52 141.92,0.56C141.1,0.43 140.64,0.56 139.79,0.47C139.93,0.52 140.05,0.63 139.92,0.63C138.68,0.52 139.37,0.79 138.53,0.83C138.05,0.7 138.7,0.51 137.86,0.62C137.34,0.53 137.75,0.39 137.95,0.31C137.32,0.383 136.682,0.335 136.07,0.17L136.48,0.1C136.267,0.119 136.053,0.119 135.84,0.1L136.07,0.28C135.83,0.28 135.63,0.28 135.63,0.17C135.39,0.29 135.82,0.47 135.33,0.63C135.01,0.54 134.33,0.72 134.25,0.49C135.25,0.57 134.14,0.25 134.99,0.21C134.791,0.24 134.589,0.24 134.39,0.21C134.191,0.18 134.39,0.21 134.49,0.15C133.49,-0.07 134.05,0.41 133.06,0.41C133.18,0.27 132.83,0.15 132.67,0.18C133.06,0.18 132.86,0.41 132.49,0.51C131.85,0.4 131.8,0.58 131.49,0.57L131.87,0.62C131.74,0.75 131.42,0.74 130.98,0.78C130.98,0.67 131.38,0.71 131.22,0.66C130.73,0.9 130.11,0.42 129.42,0.58C129.11,0.49 129.42,0.33 129.11,0.27C128.35,0.44 128.28,0.08 127.47,0.27C127.71,0.44 127.75,0.4 127.18,0.58L128.5,0.45L127.64,0.71C128.04,0.71 128.49,0.6 128.73,0.63C128.32,0.77 128.37,0.73 128.56,0.88C128.01,0.61 127.47,1.03 126.84,0.88L126.84,0.44C125.84,0.24 125.14,0.67 123.9,0.56L124.3,0.63C124.14,0.81 123.54,0.63 123.14,0.73C123.14,0.58 122.92,0.53 122.75,0.43C122.75,0.54 121.85,0.43 121.75,0.72L121.2,0.5C120.2,0.42 120.06,0.92 119.1,0.87C119.39,0.71 118.95,0.6 119.6,0.49C119.28,0.49 118.99,0.49 118.98,0.56C118.79,0.47 118.09,0.76 117.8,0.62C117.66,0.68 117.62,0.84 117.26,0.83L117.26,0.75C117.26,0.75 116.7,0.85 117.01,1.02C116.01,0.55 114.25,1.02 113.39,0.65C112.69,0.65 111.85,0.75 111.21,0.76C111.21,0.76 111.21,0.69 111.33,0.7C110.45,0.57 110.79,1.13 109.79,0.97C109.29,0.74 110.32,0.85 110.01,0.75C109.87,0.27 108.8,0.82 108.13,0.54L108.29,0.54C107.78,0.37 107.04,0.72 106.2,0.69C106.2,0.69 106.2,0.64 106.2,0.61C105.397,0.85 104.567,0.984 103.73,1.01C103.98,0.82 104.1,0.91 103.95,0.72C103.59,0.72 104.05,1.03 103.33,1.08C103.1,0.98 102.58,0.89 102.51,0.68L103.19,0.68C102.84,0.41 102.31,0.68 101.95,0.68L101.95,0.57C100.95,0.57 100.95,0.9 99.77,0.88L99.89,0.97C99.28,1.26 99.38,0.8 98.77,0.97L98.58,0.67C98.18,0.74 97.16,0.96 96.44,1.02C97.032,0.795 97.645,0.627 98.27,0.52C97.741,0.496 97.212,0.554 96.7,0.69C96.874,0.651 97.056,0.651 97.23,0.69C96.613,0.931 95.951,1.037 95.29,1C95.43,0.4 93.21,0.83 92.63,0.39C91.147,0.459 89.661,0.439 88.18,0.33C88.76,0.78 87.7,0.33 87.8,0.8C87.42,0.8 87.27,0.8 87.24,0.8L86.08,0.52C85.8,0.39 86.44,0.42 86.4,0.32C85.57,0.32 86.05,0.12 85.5,0C85.61,0.16 85.21,0.23 84.73,0.17L85.4,0.38C84.23,0.63 84.4,0 83.2,0.24L83.58,0.1C82.97,0.18 81.34,0.1 80.75,0.46C80.64,0.41 80.5,0.28 80.75,0.25C79.3,0.25 77.53,0.64 76.4,0.42L76.52,0.3C76.25,0.3 76.05,0.51 75.71,0.4C75.71,0.35 75.82,0.29 75.71,0.28C75.365,0.391 75.002,0.435 74.64,0.41L74.94,0.29C73.53,0.14 72.77,0.59 71.58,0.67C71.58,0.34 70.48,0.23 69.92,0.18C68.474,0.21 67.031,0.33 65.6,0.54C64.65,0.18 62.39,0.39 60.87,0.19C61.1,0.25 60.87,0.44 60.56,0.48C60.25,0.52 59.56,0.71 59.63,0.4L59.76,0.4C59.49,0.1 58.76,0.18 58.18,0.17L58.09,0.57C56.59,0 54.16,0.79 53.34,0.27C52.98,0.37 52.53,0.37 52.17,0.47L52.17,0.26C51.258,0.203 50.342,0.203 49.43,0.26L49.7,0.08C49.01,0.08 48.82,0.69 48.18,0.7L48,0.38C46.787,0.24 45.563,0.24 44.35,0.38C44.35,0.33 44.4,0.24 44.6,0.23C44.03,0.23 42.38,0.01 42.6,0.45C42.6,0.17 41.34,0.45 40.68,0.55L40.79,0.34C40.383,0.591 39.918,0.733 39.44,0.75C39.25,0.75 39.28,0.58 39.52,0.64C38.91,0.53 39.04,0.83 38.3,0.72L38.58,0.59C38.255,0.543 37.923,0.618 37.65,0.8C37.25,0.88 36.45,0.8 36.36,0.56C36.136,0.742 35.844,0.819 35.56,0.77C35.51,0.7 35.64,0.66 35.71,0.64C34.71,0.49 34.14,0.88 33.42,0.64C33.403,0.583 33.357,0.537 33.3,0.52C34.13,0.52 34.81,0.52 34.75,0.52C34.75,0.33 34.07,0.3 34.61,0.03C33.926,0.273 33.206,0.399 32.48,0.4C32.444,0.385 32.413,0.361 32.39,0.33L32.46,0.33C32.321,0.304 32.179,0.304 32.04,0.33C31.858,0.3 31.674,0.28 31.49,0.27C31.39,0.2 30.69,0.28 30.35,0.27C30.35,0.48 29.94,0.45 30.35,0.62C30.3,0.62 30.42,0.62 30.64,0.62L31.6,0.62C31.315,0.764 30.985,0.793 30.68,0.7C30.53,0.822 30.373,0.936 30.21,1.04C29.75,0.7 28.86,0.54 28.73,0.36C27.688,0.344 26.65,0.503 25.66,0.83C25.37,0.88 25.32,0.72 25.22,0.65C25.376,0.636 25.53,0.606 25.68,0.56C25.09,0.67 23.94,0.56 23.8,0.88C23.06,0.76 24.22,0.63 23.2,0.67L23.34,0.59C21.34,0.14 20.1,1.29 17.89,0.72C18.04,0.72 18.12,0.78 18.15,0.82C15.63,0.57 13,1.06 10.46,0.66C10.043,0.607 9.619,0.688 9.25,0.89L9.1,0.66L8.36,0.93C7.36,1.12 6.55,0.37 5.22,0.73L5.39,0.88C4.92,0.86 3.88,1 4,0.8C3.916,0.896 3.778,0.929 3.66,0.88L3.66,0.76L2.44,1C1.53,0.88 2.58,0.49 1.26,0.47C0.77,0.51 -0.14,0.81 0,0.89C0.14,0.97 0.51,0.97 0.52,1.09L0.08,1.15C-0.01,1.5 -0.35,1.85 0.75,2.15L1.52,1.93L1.77,2.1L1.16,2.1C1.441,2.193 1.749,2.156 2,2C2.079,2.1 2.194,2.165 2.32,2.18L3.08,1.85C3.17,1.99 2.74,2.12 3.25,2.2C3.6,2.04 2.91,1.89 3.49,1.79C3.86,1.95 3.75,2.08 4.19,1.94C4.25,2.03 4.19,2.09 3.98,2.13C4.37,2.02 4.98,2.08 5.2,1.9C5.58,2.09 6.5,1.84 6.46,2.18C6.776,2.032 7.114,1.938 7.46,1.9C6.81,2.3 8.78,1.9 8.61,2.35C9.14,2 10.38,2.18 11.23,2C11.168,2.05 11.089,2.075 11.01,2.07C11.324,2.1 11.634,2.171 11.93,2.28C11.99,1.98 12.74,1.91 13.13,1.73C13.72,2.02 12.78,2.08 12.96,2.35C12.96,2.11 13.96,2.11 13.78,1.91C14.22,2.09 14.16,2 14.39,2.24C14.47,1.88 14.81,2.18 15.18,1.96C15.82,2.14 15.34,2.3 16.05,2.19C16.39,2.28 15.76,2.41 15.76,2.41ZM34.04,1.78L33.43,1.78C33.43,1.71 33.43,1.64 33.57,1.64C33.49,1.67 33.83,1.71 34,1.77L34.04,1.78ZM31,0.31C31.23,0.31 31.3,0.31 31.33,0.37L31,0.39C30.998,0.363 30.998,0.337 31,0.31Z" style="fill:rgb(152,125,81);fill-rule:nonzero;"/>
        </g>
        <path d="M30.64,0.59L30.55,0.59L30.68,0.64C30.711,0.622 30.738,0.598 30.76,0.57L30.64,0.59Z" style="fill:rgb(152,125,81);fill-rule:nonzero;"/>
        <path d="M159.1,0.9L159.17,0.9L159.1,0.9Z" style="fill:rgb(152,125,81);fill-rule:nonzero;"/>
        <path d="M53.61,2.17L53.61,2.12L53.48,2.17L53.61,2.17Z" style="fill:rgb(152,125,81);fill-rule:nonzero;"/>
        <path d="M166.91,1.62L167.01,1.68C167.11,1.74 167,1.64 166.91,1.62Z" style="fill:rgb(152,125,81);fill-rule:nonzero;"/>
        <path d="M170.28,1.67L170.76,1.75C170.602,1.711 170.442,1.684 170.28,1.67Z" style="fill:rgb(152,125,81);fill-rule:nonzero;"/>
        <path d="M172.87,1.78C172.875,1.747 172.875,1.713 172.87,1.68L172.87,1.78Z" style="fill:rgb(152,125,81);fill-rule:nonzero;"/>
        <path d="M131.66,2L131.56,2C131.32,2.07 131.48,2.06 131.66,2Z" style="fill:rgb(152,125,81);fill-rule:nonzero;"/>
        <path d="M143.92,1.53C143.793,1.573 143.662,1.606 143.53,1.63C143.74,1.65 143.91,1.65 143.92,1.53Z" style="fill:rgb(152,125,81);fill-rule:nonzero;"/>
        <path d="M143,1.63C143.188,1.665 143.382,1.665 143.57,1.63C143.381,1.605 143.189,1.605 143,1.63Z" style="fill:rgb(152,125,81);fill-rule:nonzero;"/>
        <path d="M184.11,1.87L184.23,1.87L184.11,1.87Z" style="fill:rgb(152,125,81);fill-rule:nonzero;"/>
        <path d="M184.25,1.85L184.39,1.85C184.32,1.82 184.27,1.82 184.25,1.85Z" style="fill:rgb(152,125,81);fill-rule:nonzero;"/>
        <path d="M184.68,1.77L184.39,1.82C184.49,1.836 184.591,1.818 184.68,1.77Z" style="fill:rgb(152,125,81);fill-rule:nonzero;"/>
        <path d="M180.67,1.77L180.67,1.85C180.681,1.825 180.681,1.795 180.67,1.77Z" style="fill:rgb(152,125,81);fill-rule:nonzero;"/>
        <path d="M179.63,1.8C179.958,1.874 180.294,1.91 180.63,1.91L180.63,1.85C180.47,2 179.87,1.67 179.63,1.8Z" style="fill:rgb(152,125,81);fill-rule:nonzero;"/>
        <path d="M175.28,0.85L176.15,0.91C176,0.83 175.8,0.72 176.15,0.7C175.1,0.46 176.42,0.88 175.28,0.85Z" style="fill:rgb(152,125,81);fill-rule:nonzero;"/>
        <path d="M172.57,0.73C173.04,0.73 172.57,0.61 172.57,0.57C172.29,0.64 172.22,0.66 172.57,0.73Z" style="fill:rgb(152,125,81);fill-rule:nonzero;"/>
        <path d="M153,0.73L153,0.54C152.67,0.57 153,0.61 153,0.73Z" style="fill:rgb(152,125,81);fill-rule:nonzero;"/>
        <path d="M149.25,1.72L149.6,1.84L149.77,1.67L149.25,1.72Z" style="fill:rgb(152,125,81);fill-rule:nonzero;"/>
        <path d="M147.03,0.36L147.19,0.33L146.59,0.4L147.03,0.36Z" style="fill:rgb(152,125,81);fill-rule:nonzero;"/>
        <path d="M114.15,0.42L114.26,0.66C114.5,0.62 114.55,0.35 114.15,0.42Z" style="fill:rgb(152,125,81);fill-rule:nonzero;"/>
        <path d="M100,0.67C99.76,0.521 99.464,0.491 99.2,0.59C99.47,0.6 99.79,0.7 100,0.67Z" style="fill:rgb(152,125,81);fill-rule:nonzero;"/>
        <path d="M57.37,0.28L57.66,0.2L57.12,0.27L57.37,0.28Z" style="fill:rgb(152,125,81);fill-rule:nonzero;"/>
    </g>
</svg>
