<svg xmlns="http://www.w3.org/2000/svg" viewBox="0 0 149.06 6.47"><defs><style>.cls-1{fill:#987d51;}</style></defs><title>Fichier 15</title><g id="Calque_2" data-name="Calque 2"><g id="Calque_1-2" data-name="Calque 1"><path class="cls-1" d="M149,4.57c.08-.18,0-.57-.18-.49l-.15.66Z"/><path class="cls-1" d="M147.57,3.34a1.73,1.73,0,0,0-.39,1.49c.26-.63.32-.37.59-1.13.21-.07.38.22.34.46.08-.17.33.15.45-.27-.28-.51-.64-.53-1-.11C147.47,3.64,147.55,3.46,147.57,3.34Z"/><path class="cls-1" d="M126.44,2.31l.13.08A.18.18,0,0,0,126.44,2.31Z"/><path class="cls-1" d="M113.34,1.94a.15.15,0,0,0,.15-.14C113.4,1.85,113.32,1.89,113.34,1.94Z"/><path class="cls-1" d="M111.11,1.22l.13,0C111.19,1.2,111.14,1.17,111.11,1.22Z"/><path class="cls-1" d="M126.44,2.31l-.35-.21C126.06,2.32,126.27,2.26,126.44,2.31Z"/><path class="cls-1" d="M144.65,4.94a.47.47,0,0,0,.19-.18.67.67,0,0,1-.18.07A.41.41,0,0,1,144.65,4.94Z"/><path class="cls-1" d="M132.21,1.77h.1a1.42,1.42,0,0,0,.09-.27Z"/><path class="cls-1" d="M136.64,1.67c-.1,0-.14.54-.18.78.06-.23.13-.34.22-.38A2.15,2.15,0,0,0,136.64,1.67Z"/><path class="cls-1" d="M143.66,2.66l.12-.08Z"/><path class="cls-1" d="M129,1.65a1.73,1.73,0,0,0,0-.2A.45.45,0,0,0,129,1.65Z"/><path class="cls-1" d="M5.15,5.87a.34.34,0,0,0,0-.1C5.13,5.83,5.12,5.87,5.15,5.87Z"/><path class="cls-1" d="M0,3.09l.07,0c0-.11,0-.21,0-.32Z"/><path class="cls-1" d="M107,.49l0,0C107.14.44,107.08.45,107,.49Z"/><path class="cls-1" d="M69.46.91c.43.5-.69.64,0,1.2C69.35,1.89,70,1.24,69.46.91Z"/><path class="cls-1" d="M144.54,4.86h-.18A.26.26,0,0,0,144.54,4.86Z"/><path class="cls-1" d="M69.41,2.11h0l.07,0Z"/><path class="cls-1" d="M97.59.83a.82.82,0,0,0,.1.25A.55.55,0,0,0,97.59.83Z"/><path class="cls-1" d="M104.61,1.63l-.17-.07A.32.32,0,0,0,104.61,1.63Z"/><path class="cls-1" d="M94,1.63c-.1,0-.13-.12-.26,0a.43.43,0,0,0,0,.07C93.78,1.57,93.84,1.54,94,1.63Z"/><path class="cls-1" d="M90.15,1.63l.07.11.12,0Z"/><path class="cls-1" d="M16.69,5.6a1.76,1.76,0,0,1-.18-.5C16.57,5.5,16,5.64,16.69,5.6Z"/><path class="cls-1" d="M144.65,4.62c0,.14-.05.21-.11.24a.27.27,0,0,0,.12,0A.29.29,0,0,0,144.65,4.62Z"/><path class="cls-1" d="M93.79,6.06,93.19,6A2.23,2.23,0,0,0,93.79,6.06Z"/><path class="cls-1" d="M43.91,5.52l-.14.07A.11.11,0,0,0,43.91,5.52Z"/><path class="cls-1" d="M91.4,6.06a1,1,0,0,0-.34-.39,1.07,1.07,0,0,0-.07.15Z"/><path class="cls-1" d="M16.51,5.09h0Z"/><path class="cls-1" d="M12.54,6.43c.57,0,.27-.73.39-1.15.69-.21.32.54.55.92.43-.19.76-.87,1.08-.84,0,.12.08.16,0,.32.45-.59,1.34,0,1.87-.77a.51.51,0,0,1,.07.18,3.72,3.72,0,0,1-.08-1c.26,0,.48-.47.57,0-.15,0-.17.18-.24.33L17,4.22c.24.69-.37.24-.37.75.53-.23,1.14-.8,1.54-.6.09.68-.94.23-.4.83l-.62-.26c.47,1.07-.38-.08.05,1.07.83.2.92-.35,1.74-.15.19-.37-.06-.56.13-.93,1.16-.68.91,1.71,1.77.8.22-.45.31-1.31.91-.86l-.2.77c.79.08.45-1.1,1.28-.59-.15.31-.62.26-.5.35.54.61.38-.44.79-.44l.09.68c.85-.1,1.78-.59,2.72-.72-.06.2-.22.42,0,.62A6.31,6.31,0,0,1,29.63,6l.43-.59c.1,0,.19.27.08.38.45.23,0-.37.24-.6.25,0,.33.34.17.51.79-.49,2.24-1.07,3.06-.44l-.16.17c.64.24.73-1.2,1.32-.65l-.11.1c1.4.26,2.94-.28,4,.61.21-.85,1.39.37,1.48-.81.79.59.56.8,1.69,1.19.3.06.44-.73.82-.86v.62L43.16,5l.27.74.34-.16a.51.51,0,0,1-.27-.45c.54-.28,1.32.43,1.34.74l1.28-.52c0,.25-.24.33-.41.49.69-.63.12.65.75.07-.08-.14,0-.36.06-.49a1.57,1.57,0,0,0,1.56.22l-.1.43c1,.1,2-.21,3.08-.2-.39-.2-.3-.93,0-1l.13.65c.2-.41-.33-.25.09-.74.4.07.27.74,0,1l.48-.23c0,.2-.08.3-.11.55.2-.4.84.65,1.12,0l0,.19c1.07,0,1.56-.21,2.43-.25,0-.56.35-.43.61-.89A6.56,6.56,0,0,0,58,5.64c.54-.28.15-.48.4-.82,0,.52.81.47.41.84a7.45,7.45,0,0,0,2.35-.52c-.12-.21-.27-.3-.19-.48s.48.22.45.46l-.06.06c1.32-.77,3,1.49,4.08.42l-.06.06,1.09-.56c.5.09-.3.38.07.7,1.17-.85,1.85.12,2.81-.44.75,1.51,2.65-.11,3.66.85L73,5.86c.26-.35.32.2.51.28,0-.27-.28-.32-.12-.51,2.2-.43,4.55.52,6.81.84.83.1.47-1.84,1.51-1l-.29.66c1.67-.79,3.41,0,5-.65-.09.16-.1.36-.26.35.35.48,1.28,0,1.29-.37.25,0,.05.36.21.56.35.28.87-.61,1-.14,0,.08-.09.16-.16.2.23-.24,1.06,0,.84-.5.61.27,1.17-.25,1.66.08.32-.62,1,.3,1.15-.57,0,.9,1.08.72,1.46.3-.12.27.34.28.19.66.44,0,.85-.18.77-.64.82,1.08,1.64-.88,2.1.51a22.91,22.91,0,0,1,3.71-1c0,.91-1.31.09-1.25,1,1.12-.37,1.76-1.14,2.88-.93.28.13-.17.39-.26.55,1.12-.37,2.16.08,3.16-.41,0,.08-.11.18-.21.24.19,0,.45.14.43-.27l-.19.11c-.31-.6.78-1.25.82-1.56-.34,1.18,1,.3.45,1.78a.57.57,0,0,0,.26-.55c.19.08.26.24.06.56.7-.23.45-.66,1.09-.65,0,.2-.13.27-.19.51.32-.39.64-.78,1.18-.61,0,.12,0,.27-.13.27.93-.06,1.58-1,2.59-.66-.3.87.35.29.4,1l.55-.23-.22-.36c.48,0,.9-.53,1.31-.29l-.35.31.89-.14-.5-.28c.48-.39-.06-1,.58-.74-.13.08.48,0,.73.45h0c.23-.24.48-.49.83-.3.09.24-.07.82,0,1,.23-.62,1.12-.17,1.41-.84a1.12,1.12,0,0,0-.07.63l.2-.5c.22.16.25.24.21.55.67.09-.21-.95.58-.54-.06,0,0,.12-.16.19.8.22,1.54-.32,2.27-.07.21.75-.64.19-.39.82,1-.14,2.17-.9,3.19-.72l-.19-.09c.14-1.06.76.53,1.28,0-.13.08-.17.59-.13.47.69.17,1.42-.26,2.48-.6l-.13.28c.41.24,1.08.14,1.52.26.14-.27.39-.23.24-.62,1.36,1.55,2.61-.84,3.82.46-.14,0-.34.23-.23.24l1-.26c-.09-.46-.14-.27-.36-.63a.84.84,0,0,1,.68-.49c-.46.31,0,.74.21,1,0-.14,0-.3,0-.44.54.82.09-.93.82-.38l0,.24c.28-.12.54-.44.83-.37.13.53-.29.25-.31.69.42,0,.83-1,1.2-.48-.17.15-.43.15-.61.3.42.62.46.47.77.56h0l.71.28L136,4.55c.52-1.39,1.06-.25,1.77-1.16-.69.86-.11.5-.17,1.1.18.17.46.36.38.53.33-.49.55.38,1-.33,0,.19.35,0,.28.51.43-.15-.11-.34-.07-.58.67-.67,1.57.8,2.53-.11.83-.38,1-1,1.75-1.36.26.31-.21.71-.21.71a1,1,0,0,0,1.13,0c-.08.17,0,.31.12.53.32-.05.21-.71.63-.42a2.86,2.86,0,0,1-.32.78c.38-.18.74-.54,1.13-.72.1.34-.23.52-.37.74.44-.15,1.13-.31,1.26-.85l-.28-.19c.16,0,.08.46,0,.56-.38.42-.54-.18-.56-.38l.27-.12c-.28-1.15-1.1.18-1.65.11l.23-.83-.57.69c-.12-.22-.2-.68.07-.8-.4-.42-.35.29-.69-.17a.1.1,0,0,1,0-.14l-.39.25c.08-.18-.06-.59.18-.47-.7-.48-1.13.62-1.39,0l.06-.05c-1,.28-.09.61-.82,1.33l-.49-1.51-.09.61c-.1,0-.3-.06-.26-.31-.37.42.06.27-.15.66-.48-.55-1.33.26-1.43-.71-.18.46.46.36-.06.68-.14-1-.59.18-1-.3.14-.54.55-.26.11-.74-.26.92-.85-.2-1.22,0,0,.72-.8.3-1.42.54,0-.24-1.17-.4-1.75-.66l0-.12c-.11.73-.7.59-1.14.75a.92.92,0,0,1,.33-.81h-.41a.65.65,0,0,1-.48.44l.1-.55c-.54,0-1.09.65-1.79.28,0,.52.55,1.43-.18,1.77,0-.27-.06-.75.14-.86-.07,0-.23.23-.36.11l.3-.47c-.32-.2-.17.39-.42.35,0-.39-.19-.28-.15-.59.06,0,.22.16.31,0a1.11,1.11,0,0,1-.74-.6c0,.22,0,.53-.21.58-.54,0-.19-.47-.5-.68-.14.28-.48,0-.49.59-.16,0-.19-.28-.25-.44-.28.26-1.31.07-1,.7l.07,0,0,0h0c-.92.58-1.91-.34-2.82-.09V2.19c-.54.22-1.21.13-1.6.56-.16,0-.38-.37-.31-.6-.42.15-.46.37-1.07,0,.42-.34-.14-.3.43-.25-.54-.17-.66-.49-1.24.05.2-.5-.41-.63-.67-.48l.38.36a2,2,0,0,1-.8,0l.14-.67c-1.1-.81-2,1.38-2.84,0-.29.47.61.33.34.88-.51-.09-1-1-1.2-1-.69-.37-.65,1-1.38.72a.81.81,0,0,1-.36,1.09c-.51-.08-.63-1-.3-1.18.12,0,.18.05.17.13.17-.08.38-.18.18-.44l-.07.24c-.25-.25-.95-.22-.79-.61-.38.23-.16.39.13.51-.66-.34-1,0-1.7-.24.11.13.21.41.1.41-1-.3-.43.45-1.1.55-.38-.36.13-.86-.54-.56-.41-.24-.09-.63.08-.82-.62.46-1.15-.3-1.5-.39l.32-.19a.83.83,0,0,1-.51.11l.19.48c-.19-.09-.35-.09-.35-.29-.2.31.15.79-.24,1.22-.25-.24-.77.26-.86-.37.8.21-.08-.64.59-.74a.51.51,0,0,1-.48,0c0-.07,0-.13.08-.17-.76-.56-.35.72-1.14.7.1-.35-.18-.67-.31-.59.32,0,.15.59-.14.86-.51-.28-.55.2-.82.17l.31.13c-.11.36-.36.31-.71.42,0-.27.32-.19.19-.31-.39.62-.88-.65-1.43-.22-.25-.25,0-.67-.24-.83-.61.46-.67-.49-1.31-.11.19.48.22.36-.23.82l1-.33-.67.69c.31,0,.67-.3.86-.22-.32.39-.29.27-.14.67-.43-.72-.86.42-1.37-.07l0-1.18c-.76-.52-1.35.61-2.33.31l.31.21c-.13.47-.61.06-.93.25,0-.39-.16-.54-.3-.78,0,.29-.72,0-.81.76l-.44-.52c-.8-.21-.91,1.13-1.67,1,.23-.43-.12-.71.39-1-.25,0-.48-.08-.49.19-.15-.24-.7.53-.94.16-.11.17-.14.59-.43.55a.37.37,0,0,1,0-.19c0,.19-.45.26-.2.7-.78-1.23-2.19.09-2.88-1A10.24,10.24,0,0,1,88.49,2c0-.12,0-.2.1-.15-.7-.37-.43,1.13-1.23.72-.4-.64.42-.35.17-.59-.11-1.3-1,.18-1.49-.58l.13-.08c-.41-.44-1,.5-1.66.4a.37.37,0,0,0,0-.19,3.35,3.35,0,0,1-2,1.06c.2-.5.29-.27.17-.78-.29.07.08.83-.49,1-.19-.28-.6-.52-.66-1.07l.54,0c-.27-.71-.7,0-1-.1l0-.31c-.83.1-.84.88-1.73.83l.09.23c-.49.78-.41-.43-.89.15l-.15-.79a8.07,8.07,0,0,1-1.7.91c.32-.59,1-.89,1.42-1.23-.32,0-1.09.05-1.25.44.12-.07.29-.27.41-.14a1.72,1.72,0,0,1-1.54.91c.11-1.53-1.65-.39-2.12-1.58-1.12.57-2.23-.24-3.54-.15.47,1.19-.38,0-.3,1.26-.3.08-.42.06-.45,0l-.92-.73c-.22-.36.29-.27.26-.55C68.08.75,68.47.32,68,0c.09.44-.23.63-.61.46L68,1c-.93.65-.8-1-1.75-.38l.3-.38c-.48.22-1.78,0-2.25,1-.09-.14-.2-.47,0-.56-1.15-.15-2.57,1-3.46.44l.09-.3c-.22.09-.38.56-.65.26,0-.12.09-.3,0-.32s-.57.53-.86.35l.24-.33c-1.12-.39-1.72.82-2.67,1C57,.91,56.06.62,55.62.48V.36c-1.31-.11-2.22.73-3.44,1.07C51.44.48,49.64,1,48.43.5c.19.16,0,.68-.24.77-.29-.18-.79.61-.74-.2l.1,0c-.22-.79-.8-.58-1.26-.6l-.07,1.05C45,0,43.09,2.11,42.44.73c-.28.27-.64.26-.93.53l0-.57A5.57,5.57,0,0,0,39.35.61l.2-.41c-.56,0-.7,1.64-1.22,1.67L38.18,1c-1,0-2-.73-2.91,0,0-.12,0-.36.2-.4-.45,0-1.76-.57-1.6.59,0-.76-1-.07-1.52.26L32.43,1c-.44.71-.46.91-1.07,1.1-.15-.07-.13-.44.06-.3-.49-.29-.38.53-1,.23l.22-.35c-.5,0-.46.14-.74.56-.31.22-.95-.14-1-.65-.07.31-.34.72-.64.58a.41.41,0,0,1,.12-.37c-.84-.38-1.25.65-1.82.1a.51.51,0,0,0-.1-.33,4.36,4.36,0,0,1,1.15.08c0-.51-.54-.6-.11-1.31-.43.39-1.17,1.23-1.69,1a.61.61,0,0,1-.07-.18L25.8,1a.3.3,0,0,0-.33.09A1,1,0,0,0,25,1C25,.55,24.42.74,24.15.72c0,.56-.33.47,0,.94,0,0,.05-.07.23-.09s.09,0,.11-.06a.43.43,0,0,0,0,.05l.66,0c-.21.29-.43.53-.73.21-.14.37-.29.74-.37.91C23.67,1.86,23,1.43,22.86,1c-.82.31-1.93.21-2.44,1.26-.23.14-.27-.3-.36-.47.14-.1.3-.08.37-.24-.47.27-1.38.11-1.49.85-.59-.34.33-.68-.48-.56l.11-.23C17,.38,16,3.45,14.23,1.93c.12.09.18.14.21.26-2-.67-4.13.63-6.11-.43-.57-.21-.63.26-1,.62l-.12-.61-.59.7C5.82,3,5.21,1,4.15,2l.14.41c-.38-.08-1.2.24-1.14-.23,0,.07-.12.42-.27.21V2l-.93.55c-.72-.23.11-1.26-.94-1.32-.39.12-1.11.92-1,1.13a.54.54,0,0,1,.42.52l-.36.16C0,4-.25,4.94.63,5.6L1.24,5l.2.45-.52,0c.3.42.48,0,.69-.21a.74.74,0,0,0,.26.49l.6-.89c.07.37-.27.73.13.93.28-.41-.27-.82.2-1.09.29.42.2.77.55.41a.49.49,0,0,1-.16.5c.3-.29.8-.13,1-.62.31.52,1-.14,1,.74.1-.21.54-.69.82-.72-.51,1,1.06.06.92,1.19.38-1,1.37-.42,2-1,0,.08-.11.23-.17.18.38.08.49.37.74.54,0-.78.63-1,.95-1.44.47.75-.28.92-.13,1.65,0-.64.8-.64.64-1.17.36.47.31.23.49.88.06-1,.33-.17.63-.77.51.48.13.92.69.62C13,6.08,12.54,6.43,12.54,6.43ZM26,4.73h0l-.28,0Zm1.13,0a3.7,3.7,0,0,0-.49,0c0-.19,0-.39.11-.38C26.65,4.45,26.92,4.56,27.09,4.72ZM24.7.83c.18-.08.24,0,.26.14a1.82,1.82,0,0,0-.31.07.19.19,0,0,1,0,.07A1.42,1.42,0,0,1,24.7.83Z"/><path class="cls-1" d="M24.38,1.57l-.07,0a.63.63,0,0,0,.1.12c0-.06.05-.11.07-.17Z"/><path class="cls-1" d="M126.6,2.4h0a.16.16,0,0,1,.05.08A.64.64,0,0,0,126.6,2.4Z"/><polygon class="cls-1" points="42.66 5.8 42.65 5.66 42.56 5.78 42.66 5.8"/><path class="cls-1" d="M132.81,4.33a.23.23,0,0,0,.08.14A.53.53,0,0,0,132.81,4.33Z"/><path class="cls-1" d="M135.49,4.45l.38.21A1.69,1.69,0,0,0,135.49,4.45Z"/><path class="cls-1" d="M137.55,4.73a.75.75,0,0,0,0-.24h0Z"/><path class="cls-1" d="M104.76,5.39s-.06,0-.08,0C104.49,5.53,104.62,5.49,104.76,5.39Z"/><path class="cls-1" d="M114.52,4.08a2.55,2.55,0,0,1-.32.27C114.38,4.39,114.51,4.4,114.52,4.08Z"/><path class="cls-1" d="M93.86,6.07h0Z"/><path class="cls-1" d="M113.75,4.34a.41.41,0,0,0,.45,0A.54.54,0,0,0,113.75,4.34Z"/><path class="cls-1" d="M146.49,5l.1,0s0-.07,0-.09Z"/><path class="cls-1" d="M146.6,4.92l.11-.06C146.66,4.86,146.62,4.86,146.6,4.92Z"/><path class="cls-1" d="M147,4.71l-.24.15A.21.21,0,0,0,147,4.71Z"/><path class="cls-1" d="M143.76,4.73l0,.2A.49.49,0,0,0,143.76,4.73Z"/><path class="cls-1" d="M142.93,4.79c.2,0,.5.43.77.31l0-.17C143.6,5.24,143.12,4.44,142.93,4.79Z"/><path class="cls-1" d="M139.47,2.27l.69.16c-.12-.22-.28-.51,0-.56C139.32,1.22,140.38,2.36,139.47,2.27Z"/><path class="cls-1" d="M137.31,2c.38-.1,0-.31,0-.44C137.09,1.71,137,1.76,137.31,2Z"/><path class="cls-1" d="M121.73,2l0-.51C121.48,1.51,121.77,1.64,121.73,2Z"/><polygon class="cls-1" points="118.75 4.59 119.03 4.91 119.17 4.44 118.75 4.59"/><polygon class="cls-1" points="116.99 0.95 117.12 0.88 116.64 1.06 116.99 0.95"/><path class="cls-1" d="M90.83,1.13l.08.63C91.11,1.65,91.15.94,90.83,1.13Z"/><path class="cls-1" d="M79.53,1.77c-.12-.31-.44-.51-.64-.2C79.15,1.61,79.4,1.86,79.53,1.77Z"/><polygon class="cls-1" points="45.65 0.75 45.88 0.54 45.45 0.71 45.65 0.75"/></g></g></svg>