<svg xmlns="http://www.w3.org/2000/svg" viewBox="0 0 23.9 23.93"><defs><style>.cls-1{fill:#d7be9a;}</style></defs><title>Fichier 10</title><g id="Calque_2" data-name="Calque 2"><g id="Calque_1-2" data-name="Calque 1"><path class="cls-1" d="M23.18,23.75c.06,0,.16-.15.11-.16l-.21.15Z"/><path class="cls-1" d="M23.29,23.19a1.06,1.06,0,0,0-.46.35c.21-.14.15-.06.39-.22.06,0,0,.12-.07.18s0,.09.14,0,.05-.24-.12-.18A.34.34,0,0,1,23.29,23.19Z"/><path class="cls-1" d="M20.31,19.65v0Z"/><path class="cls-1" d="M18.38,17.53a.06.06,0,0,0,.06,0S18.39,17.51,18.38,17.53Z"/><path class="cls-1" d="M18.23,17a0,0,0,0,1,0,0S18.25,17,18.23,17Z"/><path class="cls-1" d="M20.31,19.65v-.11C20.25,19.6,20.29,19.61,20.31,19.65Z"/><path class="cls-1" d="M22.41,23.17a.09.09,0,0,0,.08,0h0Z"/><path class="cls-1" d="M21.34,20.4h0l.08-.05Z"/><path class="cls-1" d="M22.05,21.05s-.16.13-.24.19l.14-.07Z"/><path class="cls-1" d="M22.87,22.41h0Z"/><path class="cls-1" d="M20.88,19.88l.05-.06S20.9,19.86,20.88,19.88Z"/><path class="cls-1" d="M.62,1.89l0,0Z"/><path class="cls-1" d="M.58.35h0L.69.27Z"/><path class="cls-1" d="M17.8,16.17h0S17.82,16.16,17.8,16.17Z"/><path class="cls-1" d="M11.89,10.48c-.07.2-.28.07-.33.32C11.61,10.73,11.88,10.65,11.89,10.48Z"/><path class="cls-1" d="M22.41,23.14l0,0Z"/><path class="cls-1" d="M11.56,10.8h0v0Z"/><path class="cls-1" d="M16.25,14.8l-.05.08Z"/><path class="cls-1" d="M17.12,16.1v-.05S17.11,16.09,17.12,16.1Z"/><path class="cls-1" d="M15.47,14.45s0,0,0,0l0,0S15.48,14.41,15.47,14.45Z"/><path class="cls-1" d="M14.89,13.87l0,0h0Z"/><path class="cls-1" d="M2.48,3.6a.91.91,0,0,1,.11-.16C2.49,3.55,2.36,3.51,2.48,3.6Z"/><path class="cls-1" d="M22.49,23.09s-.06.05-.08.05h0Z"/><path class="cls-1" d="M14.26,15.62l-.08-.11A.28.28,0,0,0,14.26,15.62Z"/><path class="cls-1" d="M6.7,7.78h0Z"/><path class="cls-1" d="M13.89,15.26a.47.47,0,0,0,0-.16l0,0Z"/><path class="cls-1" d="M2.59,3.43h0Z"/><path class="cls-1" d="M1.61,3.18c.09.09.24-.15.37-.25s-.09.2-.16.34c.12,0,.35-.12.39-.07s0,.06-.08.09c.23-.09.22.2.5.08l0,.06a1.79,1.79,0,0,1,.26-.28s.2,0,.08.09c0,0-.07,0-.13,0h.1c-.15.22-.12,0-.26.14.15,0,.39,0,.4.08-.17.2-.2-.08-.28.16l0-.16c-.21.36,0-.08-.28.29.07.18.24,0,.31.23.13-.07.14-.16.27-.23.36,0-.32.6.06.49.15-.09.4-.31.37-.09l-.24.17c.1.15.37-.22.36,0-.11.06-.17,0-.17,0-.08.25.17-.06.24,0l-.17.19c.16.1.43.11.61.23A.35.35,0,0,0,3.92,5c.28.09.37.41.44.69l.22-.09s0,.1-.09.12.11-.1.2-.13,0,.14-.11.16c.26,0,.64.06.59.36l-.07,0c0,.16.44-.21.38,0h0c.14.28.53.37.45.78.26-.2.11.31.45,0,0,.28-.13.3-.06.58,0,.06.26-.13.35-.11l-.16.17.25-.09-.16.24h.1a.26.26,0,0,1,.08-.17c.16,0,.09.32,0,.41l.34.06a.44.44,0,0,1-.2.07c.27-.07-.16.19.1.13,0,0,.1-.09.14-.12a.23.23,0,0,0,.18.3l-.13.1c.12.17.36.25.53.42,0-.11.2-.3.27-.27l-.16.2c.14-.08,0-.12.22-.19,0,.08-.16.24-.25.26l.13,0c0,.05-.09.06-.16.13.14-.08,0,.3.18.16l0,.05c.16.17.3.18.44.31.15-.15.17-.06.33-.14.06.14.05.37.18.48s.15-.11.28-.16c-.13.15,0,.25-.16.29a1,1,0,0,0,.5.22c0-.07,0-.12.1-.16s0,.14-.06.2h0c.41,0,.07.87.52.75h0l.32,0c0,.1-.15.06-.18.2.41,0,.25.32.56.32-.3.52.43.38.33.79l.09-.1c.13-.06,0,.1,0,.15s0-.13.12-.16c.45.23.56.85.82,1.28.1.16.57-.42.5,0l-.22.13c.47,0,.52.54.95.61,0,0-.11.08-.13.05-.08.18.19.2.3.1s-.09.1-.12.18.3,0,.2.13a.12.12,0,0,1-.08,0c.1,0,.15.18.26,0,0,.17.25.11.24.28.21-.12.08.24.33,0-.25.24,0,.36.15.31-.1.05,0,.13-.15.21.07.06.18.08.29-.06-.17.42.49,0,.18.46a3,3,0,0,1,.85.3c-.25.24-.22-.18-.47.08.27.08.58,0,.69.2,0,.08-.13.08-.18.11.27.07.31.35.6.37a.21.21,0,0,1-.1,0s0,.1.14,0h-.06c.11-.21.46-.21.55-.29-.37.26.07.23-.41.55a.28.28,0,0,0,.18-.11s0,.1-.14.16c.17,0,.25-.11.35,0-.06.05-.1.05-.17.11.15-.06.31-.11.35,0s-.07.08-.1.05c.16.13.52,0,.58.22-.28.19,0,.13-.22.34l.15,0,.06-.13c.07.07.28,0,.28.12l-.14,0,.18.1v-.16c.18,0,.25-.26.29-.1,0,0,.07.07,0,.23h0c.1,0,.2-.06.21.05s-.24.21-.27.26c.2-.13.22.13.45,0a.8.8,0,0,0-.19.16l.17-.11a.24.24,0,0,1-.11.19c.07.13.22-.29.23-.06,0,0,0,0-.08,0,.07.18.33.15.37.33-.17.23-.15-.05-.28.16.2.12.58.09.69.3v-.05c.31-.27,0,.25.19.2,0,0-.18.13-.14.11.06.15.29.15.54.22l-.09.05c0,.13.13.21.16.31.09-.05.12,0,.2-.13-.2.63.63.18.47.71,0,0-.12,0-.1,0l.23.09c.11-.14.05-.09.12-.22s.19-.07.23,0c-.15,0-.2.2-.24.3a1.42,1.42,0,0,0,.13-.12c-.14.31.26-.23.23,0l-.08.06c.08,0,.21,0,.23,0s-.11,0-.23.13c.07.06.4-.14.31.06-.06,0-.1,0-.17,0-.11.23-.06.19,0,.27h0l0,.19v-.08c.46-.29.24.1.59,0-.34.13-.15.12-.32.27s0,.17-.09.2c.19-.08,0,.19.25.07-.05.06,0,.06-.09.18.11,0,.07-.1.15-.16.28-.08,0,.46.42.36.22,0,.43-.13.63-.1,0,.13-.22.16-.22.16s.05.18.17.18a.31.31,0,0,0-.13.16c.07,0,.23-.16.22,0a1.4,1.4,0,0,1-.26.16c.1,0,.26,0,.36,0-.07.1-.17.1-.25.14a.43.43,0,0,0,.42,0v-.09s-.11.14-.16.14,0-.13,0-.19H23c.26-.35-.22-.12-.29-.22l.26-.19-.28.1c0-.08.16-.22.23-.21.05-.17-.13,0-.06-.15a.05.05,0,0,1,0,0h-.13c.06,0,.15-.17.16-.1,0-.23-.35,0-.22-.21h0c-.23-.07-.18.15-.49.23l.33-.48-.18.15s0-.06.05-.12c-.17.05-.06.08-.2.15.07-.22-.28-.13,0-.41-.15.1,0,.17-.19.18.26-.31-.14-.05-.08-.24s.15,0,.21-.19c-.28.21-.07-.18-.18-.19-.2.19-.2,0-.36-.07.07-.06-.08-.29-.1-.45l0,0c-.22.18-.27.05-.38,0,.12-.11.18-.15.27-.16l-.06-.07a.23.23,0,0,1-.2.05l.17-.13c-.09-.08-.35,0-.35-.2-.15.13-.3.47-.51.44.07-.07.19-.21.25-.21s-.09,0-.08,0l.17-.08c0-.11-.13.08-.16,0s.05-.11.14-.19,0,.08.05,0a.31.31,0,0,1,0-.27c-.05.06-.14.14-.18.12s.09-.16.1-.26c-.09.05-.07-.08-.23.08,0,0,.05-.1.08-.15s-.22-.19-.34,0v0h0c-.3,0-.2-.38-.41-.45l.05-.06c-.14,0-.22-.15-.4-.09,0,0,0-.16.12-.21-.11,0-.17,0-.18-.15.16,0,.06-.11.13,0,0-.13,0-.23-.2-.17.16-.11.11-.24,0-.24l0,.16a.25.25,0,0,1-.12-.13l.2-.16c.05-.39-.68.07-.45-.43-.17.08,0,.18-.18.29-.05-.1.12-.44.1-.47,0-.21-.36.16-.41,0-.05.08-.21.26-.35.24s.17-.36.27-.37,0,.05,0,.07a.13.13,0,0,0,.15-.09l-.07.05c0-.11-.09-.21,0-.29-.12,0-.13.08-.12.16,0-.19-.16-.16-.2-.33,0,.06-.08.15-.09.13-.07-.23-.19.05-.32,0,0-.16.25-.21.07-.24,0-.13.15-.18.23-.21-.22,0-.1-.25-.13-.33h.1a.12.12,0,0,1-.1-.05l-.1.15c0-.05,0-.07,0-.13-.11.06-.19.24-.37.3,0-.11-.18-.05,0-.24.07.18.16-.18.29-.1,0,0-.06,0-.07-.08a.07.07,0,0,1,.06,0c0-.27-.25.13-.37,0,.11-.08.16-.21.12-.21s-.14.18-.26.21c0-.15-.14,0-.17-.08v.08c-.11.08-.14,0-.22,0s.1,0,.11-.06c-.23.11,0-.31-.16-.28,0-.1.18-.18.19-.26-.22,0,0-.23-.17-.23-.1.16-.07.13-.26.19l.25.07-.29.08c.05.05.18,0,.19.08-.15.05-.12,0-.2.15.13-.26-.25,0-.19-.23l.32-.31c0-.26-.37-.05-.45-.28v.11c-.15.1-.11-.08-.21-.08a.68.68,0,0,0,.16-.26c-.08.08-.1-.12-.33.08l.07-.2c-.06-.18-.44.16-.52,0,.15-.08.17-.2.33-.21,0,0-.05-.09-.13,0,.05-.09-.25,0-.19-.1-.06,0-.18.13-.21.08l0,0s-.14,0-.22.16c.21-.46-.36-.32-.18-.71a1.66,1.66,0,0,1-.35-.19s.06-.05.06,0c0-.2-.37.24-.38,0s.15,0,.18-.13c.33-.37-.2-.1-.07-.39h0c.05-.18-.29,0-.37-.15L14,13a.73.73,0,0,1-.59,0c.16-.1.11,0,.23-.18-.06,0-.21.23-.33.18a.92.92,0,0,1,.18-.39l.1.08c.14-.24-.12-.1-.13-.18l.09-.08c-.16-.1-.37.11-.49,0l0,.08c-.29.13,0-.19-.18-.1l.19-.24a1.79,1.79,0,0,1-.51,0,1.84,1.84,0,0,1,.56-.11.27.27,0,0,0-.32-.07s.12,0,.11,0c-.23.11-.39.11-.49,0,.43-.4-.15-.36.1-.75-.33,0-.28-.41-.51-.59-.25.39-.06-.05-.38.29-.07,0-.08,0-.07-.07l.06-.34c.06-.13.12,0,.19-.11-.08-.13.09-.18.11-.34-.1.14-.2.14-.22,0l-.07.24c-.32,0,.16-.4-.16-.37l.15-.06c-.14,0-.28-.28-.61-.09,0,0,.09-.16.15-.15-.14-.22-.68-.11-.65-.41l.09-.07c-.06,0-.21.09-.17,0s.1-.07.08-.09-.22.06-.22,0l.13-.06c-.07-.28-.49,0-.69-.13a.51.51,0,0,0,.15-.56l0,0C9.73,8,9.36,8.05,9.08,8c.14-.38-.28-.51-.33-.84,0,.07-.19.18-.24.17s-.29,0-.06-.16v0c.18-.25,0-.28,0-.36l-.3.27c.23-.59-.64-.33-.36-.8-.12,0-.17,0-.29,0l.16-.15a.78.78,0,0,0-.32-.36l.14-.08c-.08-.09-.55.33-.64.26L7,5.68c-.16-.14-.11-.49-.46-.44,0,0,.1-.09.14-.07s-.12-.43-.41-.09c.2-.21-.13-.18-.3-.17l.16-.13c-.26.12-.31.17-.46.13s.1-.14.09-.07c0-.16-.2.08-.21-.09l.13-.06c-.07-.09-.11,0-.27,0s-.11-.18,0-.33c-.1.07-.25.14-.26.06a.2.2,0,0,1,.12-.08c0-.23-.37,0-.31-.26A.41.41,0,0,0,5.09,4c.1.1.17.2.15.2.14-.14.08-.25.34-.37-.17,0-.51.15-.53,0l0-.06h0s0,0-.07,0,0-.08,0-.11,0-.16-.07-.2c-.14.15-.17.07-.25.25,0,0,0,0,.06,0h0l.11.09c-.11.05-.21.08-.17,0l-.3.19c.15-.27.16-.5.27-.64-.21,0-.35-.24-.71,0-.08,0,0-.12.07-.18s.07,0,.12,0c-.15,0-.24-.18-.46,0,0-.18.24-.13.08-.23l.08,0c.07-.56-.91.11-.77-.57a.18.18,0,0,1,0,.1c-.13-.49-.81-.47-.83-1.06,0-.14-.16,0-.31,0l.14-.18-.28.09c-.26,0,.18-.62-.24-.52L1.44.81c0-.08-.25-.12-.12-.24,0,0-.13.1-.1,0L1.31.5H1C1,.33,1.37.18,1.23,0A.73.73,0,0,0,.77.16S.78.28.7.36H.6C.34.59,0,.81,0,1.12l.25-.06-.09.15L.07,1.14c-.07.16.06.09.16.05a.31.31,0,0,0-.09.17l.33-.14c-.09.11-.24.15-.23.27.16-.07.18-.27.32-.27-.06.16-.17.24,0,.2a.29.29,0,0,1-.16.11c.13,0,.16.09.32,0-.1.19.19.12,0,.36.07-.05.27-.11.32-.07-.36.2.15.17-.18.46.32-.2.33.1.57.06,0,0-.07,0-.07,0s0,.17,0,.26c.21-.2.35-.16.53-.24-.13.27-.29.2-.46.42.17-.17.29,0,.41-.21a.66.66,0,0,1-.16.31c.27-.26.1,0,.3-.11,0,.21-.22.27-.06.27C1.78,3.17,1.61,3.18,1.61,3.18ZM4.14,4.8h0l0,0ZM4.32,5a.27.27,0,0,0-.07-.08c0-.06.11-.11.12-.09S4.34,4.9,4.32,5ZM5,3.55s0,0,0,.08l-.06,0h0Z"/><path class="cls-1" d="M4.75,3.7h0l0,0,.06,0Z"/><path class="cls-1" d="M20.31,19.7h0l0,0Z"/><polygon class="cls-1" points="6.43 7.66 6.47 7.62 6.42 7.64 6.43 7.66"/><path class="cls-1" d="M20.74,21.18s0,0,0,.05A.08.08,0,0,0,20.74,21.18Z"/><path class="cls-1" d="M21.12,21.63v.11A.28.28,0,0,0,21.12,21.63Z"/><path class="cls-1" d="M21.37,22l.07-.06h0Z"/><path class="cls-1" d="M16.13,17.14h0C16.05,17.13,16.08,17.14,16.13,17.14Z"/><path class="cls-1" d="M18,18.29l-.12,0S17.9,18.38,18,18.29Z"/><path class="cls-1" d="M14.26,15.64h0v0Z"/><path class="cls-1" d="M17.8,18.24c0,.06,0,.07.07.07S17.85,18.24,17.8,18.24Z"/><path class="cls-1" d="M22.68,23.47v0l0,0Z"/><path class="cls-1" d="M22.71,23.47h0Z"/><path class="cls-1" d="M22.82,23.47h-.07S22.77,23.5,22.82,23.47Z"/><path class="cls-1" d="M22.33,23l-.06.05Z"/><path class="cls-1" d="M22.18,22.87s0,.19,0,.2l.05,0C22.17,23.09,22.31,22.8,22.18,22.87Z"/><path class="cls-1" d="M22.33,21.65l.06.15c0-.07.1-.18.16-.14C22.59,21.35,22.45,21.82,22.33,21.65Z"/><path class="cls-1" d="M22.08,21.24c.09,0,.08-.09.12-.12S22.09,21.14,22.08,21.24Z"/><path class="cls-1" d="M19.68,18.83l.14-.13C19.76,18.67,19.77,18.75,19.68,18.83Z"/><polygon class="cls-1" points="18.5 19.08 18.46 19.21 18.61 19.11 18.5 19.08"/><polygon class="cls-1" points="19.21 17.83 19.25 17.83 19.13 17.8 19.21 17.83"/><path class="cls-1" d="M15.13,13.84,15,14C15,14,15.23,13.84,15.13,13.84Z"/><path class="cls-1" d="M13.21,12.27c.07-.11.07-.21,0-.16S13.17,12.27,13.21,12.27Z"/><polygon class="cls-1" points="8.26 6.76 8.35 6.74 8.23 6.72 8.26 6.76"/><path class="cls-1" d="M23.9.75c0-.06-.15-.16-.16-.11l.16.21Z"/><path class="cls-1" d="M23.35.64a1,1,0,0,0,.34.46c-.13-.21-.05-.15-.21-.39,0-.06.11,0,.17.07s.09,0,0-.14-.24-.05-.19.12C23.41.74,23.38.68,23.35.64Z"/><path class="cls-1" d="M19.81,3.62h0Z"/><path class="cls-1" d="M17.69,5.55a0,0,0,0,0,0-.06S17.67,5.54,17.69,5.55Z"/><path class="cls-1" d="M17.15,5.7h0S17.14,5.68,17.15,5.7Z"/><path class="cls-1" d="M19.81,3.62H19.7C19.75,3.68,19.77,3.64,19.81,3.62Z"/><path class="cls-1" d="M23.33,1.52a.45.45,0,0,0,0-.08.43.43,0,0,1,0,.05Z"/><path class="cls-1" d="M20.55,2.59l0,0-.06-.08Z"/><path class="cls-1" d="M21.21,1.88s.12.16.18.24A.4.4,0,0,1,21.32,2Z"/><path class="cls-1" d="M22.56,1.06v0Z"/><path class="cls-1" d="M20,3.05A.22.22,0,0,0,20,3Z"/><path class="cls-1" d="M2.05,23.31l0,0S2,23.31,2.05,23.31Z"/><path class="cls-1" d="M.5,23.35v0l-.09-.09Z"/><path class="cls-1" d="M16.32,6.13h0S16.32,6.11,16.32,6.13Z"/><path class="cls-1" d="M10.63,12c.21.07.07.28.32.33C10.88,12.32,10.8,12.05,10.63,12Z"/><path class="cls-1" d="M23.29,1.52l0,0S23.29,1.53,23.29,1.52Z"/><path class="cls-1" d="M11,12.37h0Z"/><path class="cls-1" d="M15,7.68l.08.05Z"/><path class="cls-1" d="M16.26,6.81h0Z"/><path class="cls-1" d="M14.61,8.46s-.06,0,0,0l0,0S14.57,8.45,14.61,8.46Z"/><path class="cls-1" d="M14,9l0,0V9Z"/><path class="cls-1" d="M3.75,21.45a.76.76,0,0,1-.16-.11C3.71,21.44,3.66,21.57,3.75,21.45Z"/><path class="cls-1" d="M23.24,1.44s.05.06.05.08,0,0,0,0Z"/><path class="cls-1" d="M15.78,9.68l-.12.07A.47.47,0,0,0,15.78,9.68Z"/><path class="cls-1" d="M7.93,17.23v0S8,17.25,7.93,17.23Z"/><path class="cls-1" d="M15.41,10a.47.47,0,0,0-.16,0l0,0Z"/><path class="cls-1" d="M3.59,21.34Z"/><path class="cls-1" d="M3.33,22.32c.1-.09-.15-.24-.24-.37s.19.09.33.16c0-.12-.12-.35-.06-.39s.06,0,.09.08c-.09-.23.2-.22.08-.5l.06,0a1.89,1.89,0,0,1-.29-.26s0-.2.1-.08c0,0,0,.07.05.13l0-.1c.23.15,0,.12.15.26,0-.14,0-.39.07-.4.2.17-.08.2.17.28l-.17,0c.36.21-.08,0,.3.28.18-.07,0-.24.23-.31C4.1,21,4,21,3.94,20.9c0-.36.6.32.49-.06-.09-.15-.3-.4-.09-.37l.18.24c.14-.1-.23-.37,0-.36.06.11,0,.17,0,.17.25.08-.06-.17,0-.24l.2.17c.1-.16.11-.43.22-.61,0,.06.08.14.17.17.09-.28.41-.37.7-.44l-.1-.22s.11,0,.12.09-.1-.11-.13-.2.15,0,.17.11c0-.26.05-.63.35-.59l0,.07c.17,0-.21-.44,0-.38v0c.28-.14.38-.53.78-.45-.2-.26.32-.11,0-.45.28,0,.3.13.58.06.06,0-.13-.26-.1-.35l.17.16-.1-.25.24.16v-.1a.22.22,0,0,1-.16-.08c0-.16.32-.09.4,0l.06-.34a.44.44,0,0,1,.07.2c-.06-.27.19.16.14-.1-.06,0-.1-.1-.13-.14a.23.23,0,0,0,.3-.18l.1.13c.18-.12.26-.36.42-.53-.11,0-.29-.2-.27-.27l.2.16c-.08-.14-.12,0-.19-.22.09,0,.25.16.27.25V16a1.12,1.12,0,0,1,.13.16c-.08-.14.31,0,.16-.18l.06,0c.16-.16.18-.3.3-.44-.15-.15-.06-.17-.14-.33.15,0,.37,0,.48-.18s-.1-.15-.16-.28c.15.13.25,0,.29.16a1,1,0,0,0,.23-.5c-.08,0-.13,0-.16-.1s.13,0,.19.06v0c0-.41.87-.07.74-.52v-.29c.11-.05.06.15.2.18-.05-.41.32-.25.32-.56.52.3.38-.43.79-.33l-.1-.09c0-.13.1,0,.15,0s-.13,0-.15-.12c.22-.45.84-.56,1.28-.82.15-.1-.43-.57,0-.5l.13.22c0-.47.54-.52.61-.95,0,.05.08.11,0,.13.19.08.21-.19.1-.29,0,0,.11.08.18.11s0-.3.13-.2a.09.09,0,0,1,0,.08c0-.1.18-.15,0-.26.17,0,.12-.25.28-.24-.12-.21.24-.08,0-.33.24.25.37,0,.31-.15.06.1.13,0,.21.15.06-.07.08-.17-.06-.29.42.17,0-.49.47-.18a3.38,3.38,0,0,1,.29-.85c.24.25-.17.22.09.47.07-.27,0-.58.19-.69s.08.13.11.18c.07-.27.36-.31.38-.6a.19.19,0,0,1,0,.1s.11,0,0-.14v.06c-.2-.11-.21-.46-.29-.55.27.37.23-.07.55.41a.28.28,0,0,0-.11-.18c.05,0,.11,0,.16.14.05-.17-.11-.25,0-.35.06.06.06.1.11.17-.05-.15-.11-.31,0-.35s.08.07.05.1c.13-.16,0-.52.23-.58.18.28.13,0,.34.22l0-.15-.13-.06c.08-.07,0-.28.12-.28l0,.14.1-.18h-.15c0-.18-.26-.24-.11-.29,0,0,.08-.07.23,0h0c0-.1-.05-.2,0-.21s.21.24.26.27c-.13-.2.13-.22,0-.44a1,1,0,0,0,.15.18l-.1-.17c.08,0,.1,0,.18.11.13-.07-.29-.22-.05-.23,0,0,0,0,0,.08.18-.07.15-.33.33-.37.24.17-.05.15.16.28.13-.2.1-.58.3-.69h0c-.26-.31.26,0,.2-.19,0,0,.14.18.11.14.15-.06.15-.29.22-.54l.06.09c.12,0,.2-.13.3-.16s0-.12-.13-.2c.63.2.18-.63.71-.47,0,0,0,.12,0,.1l.1-.23c-.14-.11-.1,0-.23-.12S21,3,21,3c0,.15.2.2.3.24l-.11-.13c.3.14-.24-.26,0-.23l.06.08c0-.08,0-.21,0-.23s0,.11.14.23c.05-.07-.15-.4.05-.31,0,.06,0,.1,0,.17.23.11.2.06.27,0h0l.19,0h-.07c-.3-.46.09-.24-.05-.59.13.34.12.15.28.32.07,0,.16,0,.2.09-.08-.19.19,0,.07-.25.05,0,.06-.05.18.09,0-.11-.11-.07-.17-.15-.08-.28.46,0,.36-.41,0-.23-.13-.44-.1-.64.13,0,.16.22.16.22s.18-.05.18-.17a.35.35,0,0,0,.16.13c0-.07-.16-.23,0-.22s.12.18.16.26c0-.1,0-.26,0-.36.11.07.1.17.14.25a.43.43,0,0,0,0-.42h-.1s.14.11.15.16-.14,0-.19,0V1c-.35-.26-.12.22-.23.29L22.85,1l.1.28c-.07,0-.21-.16-.2-.23-.18-.05,0,.13-.15.06s0,0,0,0v.13c0-.06-.17-.15-.1-.16-.24,0,0,.35-.22.22v0c-.08.23.15.18.23.49L22,1.38l.15.18s-.07,0-.13-.05c.06.17.08.06.16.2-.23-.07-.14.28-.42,0,.1.15.17,0,.18.19-.31-.26,0,.14-.24.08s0-.15-.18-.21c.2.28-.19.07-.2.18.2.2,0,.2-.07.36-.06-.07-.29.08-.45.1l0,0c.18.22.05.27,0,.38a.49.49,0,0,1-.17-.27l-.06.06a.22.22,0,0,1,0,.2l-.13-.17c-.08.1,0,.35-.2.35.13.15.47.3.45.51-.08-.07-.21-.19-.21-.25s0,.09,0,.08l-.08-.17c-.1,0,.08.13,0,.16s-.1,0-.18-.14.07,0,0-.05a.33.33,0,0,1-.28,0c.06.05.14.14.12.19s-.15-.1-.26-.11c.06.09-.07.07.09.23,0,0-.11,0-.16-.08,0,.12-.18.22,0,.34h0v0h0c0,.3-.39.2-.46.41l-.05,0c0,.14-.15.22-.1.4,0,0-.16,0-.21-.12,0,.11,0,.18-.15.18,0-.16-.11-.06,0-.13-.13,0-.24,0-.18.2-.11-.16-.24-.11-.23,0l.15,0c0,.07-.07.09-.13.12l-.15-.2c-.39,0,.06.68-.44.45.08.17.19,0,.29.18-.1,0-.44-.12-.47-.1-.2,0,.17.36,0,.41.07,0,.26.21.23.35s-.36-.17-.36-.27,0,0,.06,0a.13.13,0,0,0-.09-.15l.05.07c-.1,0-.2.09-.28,0,0,.12.08.13.15.12-.19,0-.16.16-.32.2.05,0,.14.08.12.09-.23.08.06.19,0,.32-.15,0-.21-.25-.23-.07-.13,0-.19-.15-.21-.23,0,.22-.26.1-.34.13v-.1a.1.1,0,0,1-.05.1l.16.1c-.05,0-.08,0-.13,0,.05.12.23.19.29.37-.1,0-.05.18-.23,0,.18-.07-.19-.16-.11-.29,0,0,0,.06-.08.07a.07.07,0,0,1,0-.06c-.27,0,.14.25,0,.37-.08-.11-.21-.16-.21-.12s.19.14.21.26c-.15,0,0,.14-.07.17h.08c.08.11,0,.14,0,.22s0-.1-.05-.11c.1.23-.31,0-.28.16-.11,0-.19-.18-.27-.19,0,.22-.23,0-.23.17.16.1.13.07.19.26l.07-.25.08.29c.06,0,0-.18.08-.19.05.15,0,.12.16.2-.26-.13,0,.25-.23.19l-.32-.32c-.26,0,0,.37-.27.45h.1c.11.15-.08.11-.07.21A.87.87,0,0,0,15,7.73c.08.08-.12.1.08.33L14.91,8c-.18.06.16.44,0,.52-.08-.15-.21-.17-.21-.33-.05,0-.1.05,0,.13-.09-.05,0,.25-.1.19,0,.06.14.18.08.21l-.05-.05c.05.05,0,.14.16.22-.45-.21-.32.36-.71.18a1.66,1.66,0,0,1-.19.35s0-.06,0-.06c-.21,0,.24.37,0,.38s0-.15-.13-.18c-.37-.33-.1.2-.39.07v0c-.18-.05,0,.29-.15.37a.18.18,0,0,0,0-.06.74.74,0,0,1,0,.59c-.11-.16,0-.11-.19-.23,0,.06.24.21.19.33a.83.83,0,0,1-.39-.18l.07-.1c-.23-.14-.1.12-.18.13l-.07-.09c-.11.16.1.37-.05.49l.08.05c.13.29-.18-.05-.1.18l-.24-.19a1.47,1.47,0,0,1,0,.51,1.61,1.61,0,0,1-.12-.55.25.25,0,0,0-.07.31s0-.12,0-.11c.1.23.11.39,0,.49-.39-.43-.36.15-.75-.1,0,.33-.41.28-.58.51.39.25-.05.06.29.38,0,.07,0,.08-.08.07l-.34-.06c-.13-.06,0-.12-.1-.19s-.19-.09-.34-.11c.13.1.13.2,0,.22l.23.07c0,.32-.4-.16-.37.16L10,12.32c0,.14-.28.28-.08.61-.06,0-.16-.09-.15-.15-.22.14-.12.68-.42.65l-.07-.09c0,.06.1.21,0,.17s-.06-.09-.08-.08.05.23,0,.22l-.05-.13c-.28.07-.05.49-.14.69a.51.51,0,0,0-.56-.15l0,0c-.23.17-.15.54-.24.82-.37-.14-.5.28-.83.33.07,0,.18.19.17.24s0,.29-.17.07l0,0c-.25-.18-.28,0-.36,0l.28.3c-.6-.23-.33.64-.8.37,0,.11,0,.16,0,.28l-.15-.16a.78.78,0,0,0-.36.32l-.07-.14c-.1.08.33.55.26.64l-.25-.21c-.15.16-.5.11-.44.46,0,0-.09-.1-.08-.14s-.43.12-.09.41c-.2-.2-.17.13-.16.3l-.14-.16c.12.26.17.31.13.46s-.14-.1-.07-.09c-.15,0,.08.2-.09.21l-.06-.13c-.09.07,0,.11,0,.27s-.19.11-.33,0c.07.1.14.25,0,.26a.26.26,0,0,1-.08-.12c-.23,0,0,.37-.25.31a.39.39,0,0,0-.11-.08c.11-.1.2-.17.2-.15-.14-.14-.24-.08-.37-.34,0,.17.15.51,0,.53l-.06,0v0s0,0,0,.07-.08,0-.11,0-.15,0-.2.07c.15.14.08.17.25.25,0,0,0,0,0-.06s0,0,0,0v0l.1-.11c0,.11.07.21-.06.17.08.12.16.24.19.3-.27-.15-.49-.16-.64-.27,0,.21-.24.35,0,.71,0,.08-.13,0-.19-.07s0-.07,0-.12c0,.15-.19.24,0,.46-.18,0-.13-.24-.22-.08l0-.08c-.56-.07.11.91-.57.77a.21.21,0,0,1,.11,0c-.49.13-.47.81-1.06.83-.15,0,0,.16,0,.31l-.18-.14.1.28c0,.26-.62-.18-.53.24l.13.09c-.07,0-.12.25-.23.12s.09.13,0,.1l-.08-.09v.29c-.17.05-.32-.35-.5-.21a.66.66,0,0,0,.15.46s.12,0,.21.07v.1c.24.26.45.56.76.6l-.06-.25.16.09-.08.09c.16.07.09-.06.05-.16a.3.3,0,0,0,.18.09l-.15-.33c.11.09.15.24.27.23-.07-.16-.26-.18-.26-.32.16.06.23.17.19,0a.29.29,0,0,1,.11.16c0-.13.09-.16,0-.32.19.1.13-.19.36.05A.57.57,0,0,1,2,23c.2.36.18-.15.46.18-.2-.32.1-.33.06-.57,0,0,0,.08,0,.07s.18,0,.26,0c-.2-.21-.16-.35-.24-.53.28.13.21.29.42.46-.17-.17,0-.29-.21-.41a.66.66,0,0,1,.31.16c-.25-.27,0-.1-.11-.3.21.05.27.22.28.06C3.32,22.15,3.33,22.32,3.33,22.32ZM5,19.79H5l0,.05Zm.17-.18L5,19.68c-.06,0-.11-.11-.09-.12S5.05,19.59,5.12,19.61ZM3.7,18.93c0-.05,0,0,.08,0a.15.15,0,0,0,0,.07l0,0Z"/><path class="cls-1" d="M3.85,19.18s0,0,0,0l0,0,0-.06Z"/><path class="cls-1" d="M19.86,3.62h0l0,0Z"/><polygon class="cls-1" points="7.82 17.5 7.78 17.46 7.79 17.51 7.82 17.5"/><path class="cls-1" d="M21.33,3.19l.06,0A.11.11,0,0,0,21.33,3.19Z"/><path class="cls-1" d="M21.78,2.81h0Z"/><path class="cls-1" d="M22.18,2.56l-.06-.07h0Z"/><path class="cls-1" d="M17.29,7.8v0Z"/><path class="cls-1" d="M18.44,5.94a.35.35,0,0,1,0,.12S18.53,6,18.44,5.94Z"/><path class="cls-1" d="M15.79,9.67h0v0Z"/><path class="cls-1" d="M18.39,6.13c.06,0,.08,0,.08-.07S18.39,6.08,18.39,6.13Z"/><path class="cls-1" d="M23.62,1.25h0l0,0Z"/><path class="cls-1" d="M23.62,1.22v0S23.61,1.2,23.62,1.22Z"/><path class="cls-1" d="M23.62,1.11v.07S23.66,1.16,23.62,1.11Z"/><path class="cls-1" d="M23.13,1.6l.05.06Z"/><path class="cls-1" d="M23,1.75s.19,0,.2,0l0-.05C23.24,1.76,23,1.62,23,1.75Z"/><path class="cls-1" d="M21.81,1.6,22,1.54c-.08,0-.18-.1-.15-.16C21.5,1.34,22,1.48,21.81,1.6Z"/><path class="cls-1" d="M21.39,1.85c0-.08-.09-.08-.12-.12S21.29,1.84,21.39,1.85Z"/><path class="cls-1" d="M19,4.25l-.13-.14C18.83,4.18,18.9,4.16,19,4.25Z"/><polygon class="cls-1" points="19.24 5.43 19.36 5.47 19.26 5.32 19.24 5.43"/><polygon class="cls-1" points="17.98 4.72 17.98 4.68 17.96 4.8 17.98 4.72"/><path class="cls-1" d="M14,8.8l.19.16C14.18,8.9,14,8.7,14,8.8Z"/><path class="cls-1" d="M12.42,10.72c-.1-.06-.21-.07-.15,0S12.42,10.76,12.42,10.72Z"/><polygon class="cls-1" points="6.92 15.67 6.89 15.58 6.88 15.7 6.92 15.67"/></g></g></svg>