<svg xmlns="http://www.w3.org/2000/svg" viewBox="0 0 21.74 21.82"><defs><style>.cls-1{fill:#987d51;}</style></defs><title>crois-sansOpacité</title><g id="Calque_2" data-name="Calque 2"><g id="Calque_1-2" data-name="Calque 1"><path class="cls-1" d="M0,20.79c.05.07.19.2.2.14L0,20.68Z" transform="translate(-0.01)"/><path class="cls-1" d="M.66,21a1.86,1.86,0,0,0-.47-.58c.19.26.09.17.32.48,0,.06-.13,0-.21-.12,0,.07-.1,0,0,.16s.28.1.18-.1A.75.75,0,0,1,.66,21Z" transform="translate(-0.01)"/><path class="cls-1" d="M3.94,18.48h0Z" transform="translate(-0.01)"/><path class="cls-1" d="M5.87,16.8s0,.05,0,.07S5.89,16.82,5.87,16.8Z" transform="translate(-0.01)"/><path class="cls-1" d="M6.43,16.75h0S6.45,16.78,6.43,16.75Z" transform="translate(-0.01)"/><path class="cls-1" d="M3.94,18.48l.12,0C4,18.42,4,18.47,3.94,18.48Z" transform="translate(-0.01)"/><path class="cls-1" d="M.5,20.05a.12.12,0,0,0,0,.09.09.09,0,0,1,0-.05Z" transform="translate(-0.01)"/><path class="cls-1" d="M3.33,19.46v0l.08.1Z" transform="translate(-0.01)"/><path class="cls-1" d="M2.76,20.11a1.93,1.93,0,0,0-.26-.31c.08.09.11.14.11.17Z" transform="translate(-0.01)"/><path class="cls-1" d="M1.44,20.72v.05A.09.09,0,0,0,1.44,20.72Z" transform="translate(-0.01)"/><path class="cls-1" d="M3.81,19.07l.08.06Z" transform="translate(-0.01)"/><path class="cls-1" d="M19.37.52l0,0Z" transform="translate(-0.01)"/><path class="cls-1" d="M21.06.8v0l.11.12Z" transform="translate(-0.01)"/><path class="cls-1" d="M7.25,16.44h0S7.26,16.47,7.25,16.44Z" transform="translate(-0.01)"/><path class="cls-1" d="M12.27,11.13c-.23-.12-.13-.32-.42-.43C11.94,10.77,12.08,11.09,12.27,11.13Z" transform="translate(-0.01)"/><path class="cls-1" d="M.54,20.06l0,0Z" transform="translate(-0.01)"/><path class="cls-1" d="M11.85,10.7Z" transform="translate(-0.01)"/><path class="cls-1" d="M8.43,15,8.33,15Z" transform="translate(-0.01)"/><path class="cls-1" d="M7.18,15.71h0Z" transform="translate(-0.01)"/><path class="cls-1" d="M8.65,14.25s.06,0,0,0l0,0S8.69,14.26,8.65,14.25Z" transform="translate(-0.01)"/><path class="cls-1" d="M9.17,13.72l-.05,0a0,0,0,0,1,0,0Z" transform="translate(-0.01)"/><path class="cls-1" d="M17.87,2.21c.07,0,.14.1.21.15C17.93,2.23,18,2.1,17.87,2.21Z" transform="translate(-0.01)"/><path class="cls-1" d="M.61,20.17c0-.06-.07-.09-.07-.11a0,0,0,0,1,0,0Z" transform="translate(-0.01)"/><path class="cls-1" d="M7.1,12.66l.11-.06A.24.24,0,0,0,7.1,12.66Z" transform="translate(-0.01)"/><path class="cls-1" d="M14.16,6v0S14.14,6,14.16,6Z" transform="translate(-0.01)"/><path class="cls-1" d="M7.43,12.33l.18.09,0-.06Z" transform="translate(-0.01)"/><path class="cls-1" d="M18.08,2.36Z" transform="translate(-0.01)"/><path class="cls-1" d="M18.15,1.34c-.08.08.22.3.36.46,0,.17-.24-.14-.41-.25,0,.13.21.42.16.45a.41.41,0,0,1-.12-.11c.15.27-.17.2,0,.53l-.07-.06a4.34,4.34,0,0,1,.37.35s.1.23-.09.07c0,0,0-.08-.08-.15l0,.11c-.28-.21,0-.13-.22-.31,0,.15.13.44,0,.42-.25-.23,0-.21-.23-.35H18c-.44-.31.08,0-.38-.37-.19,0,0,.25-.19.29.11.16.2.19.31.35.08.4-.73-.48-.52,0,.12.19.42.5.17.43l-.24-.3c-.14.08.33.45,0,.38-.09-.13,0-.17,0-.19-.29-.14.1.21,0,.26L17,3.09c-.08.16,0,.46-.12.63a.66.66,0,0,0-.22-.22c0,.29-.38.32-.68.34l.15.26S16,4,16,4s.12.14.18.25-.17-.08-.21-.16c.07.28.07.69-.26.58l0-.09c-.18,0,.32.53.05.42l0-.06c-.29.11-.31.51-.77.34.27.33-.32.06.08.49-.31-.1-.36-.2-.65-.19-.06,0,.2.32.19.42l-.22-.22.16.3-.3-.22v.1s.14.06.2.12S14,6.09,13.9,6v.36a.73.73,0,0,1-.12-.23c.13.32-.24-.21-.13.08a1.41,1.41,0,0,1,.17.18c-.18-.09-.27,0-.29.14l-.14-.16c-.17.09-.2.34-.35.49.12,0,.37.29.35.36L13.15,7c.12.17.13,0,.25.28-.08,0-.3-.23-.34-.33v.14a1.39,1.39,0,0,1-.17-.21c.11.17-.35-.11-.14.18L12.69,7c-.15.15-.14.29-.25.42.2.21.11.21.23.4-.15,0-.4,0-.49.09s.14.19.23.35c-.19-.18-.28-.06-.35-.24a.71.71,0,0,0-.14.5c.09.06.14.07.19.15s-.14,0-.22-.1l0,0c.1.45-.94-.11-.71.41v0l0,.35c-.1,0-.1-.18-.26-.24.14.46-.3.21-.23.55-.64-.44-.33.4-.8.2l.13.11c.09.16-.12,0-.17,0,.1.1.15.08.2.17-.16.45-.81.44-1.24.64-.15.08.59.71.14.56l-.19-.28c.05.51-.48.46-.47.92,0-.06-.11-.13-.08-.15-.22-.13-.19.16-.05.3,0,0-.13-.12-.22-.16s.09.33-.1.19c0,0,0-.07-.05-.09s-.16.12.06.29c-.18,0-.07.25-.26.2.18.26-.24,0,0,.36-.31-.33-.4-.11-.31.09-.08-.11-.14,0-.26-.2,0,.06,0,.18.12.33-.49-.27.09.53-.47.11A3,3,0,0,1,6.6,14c-.32-.32.14-.21-.2-.54,0,.29.16.65-.07.73s-.11-.16-.15-.23c0,.28-.33.27-.29.58a.27.27,0,0,1-.06-.12s-.11,0,0,.16l0-.07c.26.17.34.55.44.67-.37-.46-.24,0-.69-.57a.5.5,0,0,0,.16.23c-.06,0-.12-.05-.21-.19,0,.18.17.3.08.38a1.27,1.27,0,0,1-.15-.21c.09.19.19.37,0,.38s-.1-.09-.08-.11c-.1.15.15.58-.12.59-.26-.35-.15-.06-.42-.31v.15l.16.1c-.07.06.07.31-.08.28l-.06-.16-.07.18.17,0c.07.2.34.32.18.34,0-.05-.07.06-.26-.06H5c0,.12.11.24,0,.22s-.28-.3-.34-.35c.18.25-.1.22.1.49a1.22,1.22,0,0,0-.21-.23l.15.21a.45.45,0,0,1-.23-.17c-.12.06.37.31.11.27,0,0,0,0,0-.09-.19,0-.1.33-.29.34-.3-.24,0-.16-.24-.35-.09.2,0,.62-.18.7h.06c.35.4-.29-.08-.19.17,0,0-.18-.23-.15-.18-.15,0-.1.28-.13.55l-.08-.12c-.14,0-.19.1-.3.12.08.11,0,.13.19.25-.74-.36-.07.66-.69.37,0,0,0-.14,0-.12l-.06.23a1.18,1.18,0,0,0,.28.18c.08.11.11.23.08.26,0-.17-.27-.26-.39-.32a1.21,1.21,0,0,1,.16.16c-.37-.22.31.34,0,.24L2.44,19c0,.08.08.23,0,.25-.21-.17,0-.13-.2-.29,0,.07.24.47,0,.34,0-.08,0-.11,0-.19C2,18.89,2,19,1.93,19H1.74l.09,0c.42.56-.06.23.17.65-.21-.4-.16-.19-.37-.41-.09,0-.19-.06-.24-.14.13.22-.21-.05,0,.26-.08-.06-.06,0-.22-.14,0,.12.13.11.21.2.15.33-.5-.07-.31.38,0,.25.23.51.24.73a.64.64,0,0,1-.22-.28c-.16-.05-.18,0-.16.15a.69.69,0,0,0-.2-.17c0,.06.22.28.06.23a1.86,1.86,0,0,1-.23-.32c0,.12.09.3.09.41a.81.81,0,0,1-.21-.31.58.58,0,0,0,.13.47l.11,0s-.18-.15-.2-.2.14,0,.21.06v.08c.44.36.09-.22.19-.27l.26.33L1,20.41c.1.06.27.22.28.3.2.09-.06-.16.15,0l.05,0,0-.14c.05.07.21.2.14.19.26.07-.07-.37.19-.19v0c0-.23-.2-.23-.36-.58l.6.46-.2-.23s.07,0,.15.08c-.1-.2-.1-.09-.21-.26.26.13.09-.27.44.06C2,20,2,20.08,1.94,19.89c.39.35,0-.14.25,0s0,.16.24.27c-.28-.36.19-.05.18-.16-.25-.26,0-.22,0-.39.09.09.31,0,.48,0l0,0c-.25-.27-.11-.31-.11-.42a.87.87,0,0,1,.24.33l.06-.05c-.07-.1-.1-.16-.09-.23l.18.21c.06-.09-.08-.38.14-.35-.17-.18-.58-.42-.6-.65.11.1.28.26.29.33s-.05-.11,0-.09l.12.21c.12,0-.11-.16-.06-.18.14.14.13.07.23.19s-.09,0,0,0a.44.44,0,0,1,.32.11c-.08-.08-.19-.19-.18-.24s.2.14.31.17c-.08-.11.07-.06-.14-.27,0,0,.13.07.19.12-.05-.13.16-.21-.11-.38h0c-.08-.34.39-.15.42-.36l.07.07c0-.16.12-.22,0-.42,0,0,.18.07.26.17,0-.11-.07-.2.13-.17.06.18.13.09,0,.15.13,0,.26.08.15-.19.15.21.28.17.26.08L5,17.71a.16.16,0,0,1,.12-.11l.22.26c.43.13-.22-.77.38-.4-.13-.21-.2,0-.36-.26.11,0,.52.22.54.2.22,0-.26-.43-.07-.44-.09-.07-.33-.29-.33-.44s.44.27.46.38,0,0-.07,0,0,.12.13.19L6,17c.12.05.21-.05.33.11a.2.2,0,0,0-.2-.17c.21,0,.14-.13.32-.14-.06,0-.18-.12-.16-.13.24,0-.1-.22,0-.35.18.07.28.32.27.12.14,0,.23.21.28.3-.08-.24.26-.05.34-.07l0,.12c0-.07,0-.09,0-.11L7,16.49c.06,0,.08,0,.15.06-.08-.14-.3-.26-.4-.47.12.05,0-.19.25,0-.18,0,.24.21.18.34,0-.05,0-.07.07-.06a.13.13,0,0,1,0,.06c.3.1-.2-.3-.09-.4.11.14.26.21.25.17s-.23-.19-.28-.32c.16,0,0-.15,0-.18H7.09c-.11-.14-.06-.16,0-.25.1.1,0,.11.08.14-.16-.28.35.11.28-.12.12,0,.24.23.33.26-.08-.25.26.08.21-.14s-.15-.1-.26-.33l0,.27-.15-.34s0,.2,0,.2c-.09-.19,0-.14-.21-.26.31.19,0-.26.21-.16l.42.42c.29.08,0-.4.21-.43l-.12,0c-.15-.19.06-.11,0-.22a1,1,0,0,0,.32.23c-.11-.1.11-.09-.16-.38l.24.13c.19,0-.27-.53-.12-.58.12.18.27.23.31.41,0,0,.09,0,0-.14.1.07-.09-.28.07-.18-.05-.08-.19-.23-.14-.26L8.6,14c-.07-.07,0-.15-.22-.27.54.32.27-.34.74-.06a1.05,1.05,0,0,1,.14-.34c0,.05.07.07,0,.07.22,0-.34-.46-.09-.42s.06.18.18.23c.48.44.07-.2.42,0v0c.21.1,0-.31.08-.37L10,13a.88.88,0,0,1-.11-.65c.16.21.06.14.26.31,0-.07-.31-.29-.28-.42a2.06,2.06,0,0,1,.47.29l-.06.09c.29.21.09-.11.17-.1l.1.11c.08-.15-.19-.43,0-.53l-.1-.07c-.21-.34.21.1.08-.17l.3.26a1.77,1.77,0,0,1-.09-.56,2.54,2.54,0,0,1,.24.63.24.24,0,0,0,0-.33s.06.13,0,.11c-.17-.27-.21-.45-.11-.54.52.56.36-.09.84.27,0-.35.4-.22.54-.43-.48-.36.05-.07-.4-.49,0-.07,0-.08.07-.05l.39.13c.15.09,0,.13.15.23.13-.06.22.14.4.19-.17-.14-.19-.25-.08-.24l-.27-.13c-.1-.36.47.25.37-.1l.1.17c0-.14.25-.24,0-.65.06,0,.19.14.19.2.21-.11,0-.72.32-.63l.1.11c0-.06-.15-.25,0-.18s.1.12.12.11-.11-.26,0-.24l.09.15c.29,0,0-.52,0-.72a.74.74,0,0,0,.65.28l0,0c.22-.14.05-.56.09-.85.44.23.5-.21.85-.19a.64.64,0,0,1-.24-.31c.1,0-.11-.32.17,0h0c.31.25.32.1.39,0l-.36-.38c.7.38.23-.63.8-.24-.05-.13,0-.18-.05-.31l.19.2a.47.47,0,0,0,.33-.27l.12.17c.09-.06-.48-.67-.42-.75l.32.27c.12-.13.52,0,.38-.41,0,0,.13.14.12.17s.44,0,0-.43c.27.27.16-.11.12-.3l.18.21c-.19-.31-.25-.39-.24-.54.05,0,.18.14.1.12.17,0-.13-.24.05-.22l.1.16c.08-.06,0-.12-.1-.3s.18-.08.37.08c-.1-.11-.21-.3-.12-.29a.53.53,0,0,1,.12.15c.25,0-.06-.4.21-.29A1.49,1.49,0,0,0,18,5c-.09.08-.18.15-.19.13.19.18.29.14.48.45-.07-.2-.27-.6-.11-.59l.07.06v0s0,0,0-.07.09,0,.11,0c.16.15.17,0,.21,0-.2-.2-.12-.21-.33-.33t0,.06a.08.08,0,0,0,0,0l0,0a.3.3,0,0,1-.07.1c-.08-.13-.13-.24,0-.17l-.27-.37c.33.22.58.28.76.43,0-.22.19-.34-.11-.78,0-.08.14.07.21.12s0,.07,0,.13c0-.16.15-.23-.09-.5.2,0,.19.28.26.13l.06.1c.64.19-.31-1,.47-.73a.37.37,0,0,1-.12-.07c.51,0,.35-.79,1-.68.15,0,0-.18-.09-.36l.23.2-.16-.33c-.07-.29.72.33.52-.16l-.16-.12c.08,0,.08-.25.24-.08,0,0-.14-.16,0-.11l.11.11L21,1.25c.18,0,.43.46.59.34a1.13,1.13,0,0,0-.26-.54s-.13,0-.24-.12V.82a2.78,2.78,0,0,0-1-.82l.12.29L20,.15l.06-.08c-.19-.11-.08,0,0,.17A.57.57,0,0,0,19.85.1l.23.4c-.14-.12-.22-.3-.35-.31.11.18.33.25.36.41-.19-.11-.3-.24-.22-.07a.47.47,0,0,1-.15-.2c.06.15-.07.16.08.35-.22-.14-.09.2-.4-.12a.9.9,0,0,1,.15.37c-.31-.44-.17.12-.55-.3.28.39,0,.34.05.62,0,0-.06-.1,0-.09s-.19-.06-.29-.09a2.29,2.29,0,0,1,.38.64c-.33-.2-.29-.36-.56-.6.22.23.11.34.32.5a1.06,1.06,0,0,1-.38-.24c.34.36,0,.11.19.36-.25-.1-.35-.31-.32-.12A.5.5,0,0,1,18.15,1.34ZM16.91,3.79h0l0,0S16.92,3.76,16.91,3.79ZM16.75,4a.16.16,0,0,0,.08-.06C16.9,4,17,4,17,4S16.84,4,16.75,4Zm1.71,1s0,0-.09,0a.08.08,0,0,0,0-.06l0,0Z" transform="translate(-0.01)"/><path class="cls-1" d="M18.24,4.69v0l-.06,0,.05.07Z" transform="translate(-0.01)"/><path class="cls-1" d="M3.88,18.47h0l0,0S3.87,18.46,3.88,18.47Z" transform="translate(-0.01)"/><polygon class="cls-1" points="14.22 5.71 14.27 5.76 14.24 5.7 14.22 5.71"/><path class="cls-1" d="M2.34,18.64s0,0-.06,0Z" transform="translate(-0.01)"/><path class="cls-1" d="M1.93,19l-.12,0Z" transform="translate(-0.01)"/><path class="cls-1" d="M1.55,19.15l.08.09h0Z" transform="translate(-0.01)"/><path class="cls-1" d="M5.83,14.4v0C5.82,14.32,5.82,14.35,5.83,14.4Z" transform="translate(-0.01)"/><path class="cls-1" d="M5,16.21a1.21,1.21,0,0,1,0-.14S4.84,16.1,5,16.21Z" transform="translate(-0.01)"/><path class="cls-1" d="M7.09,12.66h0Z" transform="translate(-0.01)"/><path class="cls-1" d="M5,16c-.06,0-.07,0-.06.06S5,16.06,5,16Z" transform="translate(-0.01)"/><path class="cls-1" d="M.23,20.29h0l0,0Z" transform="translate(-0.01)"/><path class="cls-1" d="M.24,20.33v0S.26,20.35.24,20.33Z" transform="translate(-0.01)"/><path class="cls-1" d="M.26,20.45l0-.08S.21,20.38.26,20.45Z" transform="translate(-0.01)"/><path class="cls-1" d="M.7,20l-.07-.07Z" transform="translate(-0.01)"/><path class="cls-1" d="M.79,19.87s-.22-.09-.22,0l.06.06C.54,19.8.88,20,.79,19.87Z" transform="translate(-0.01)"/><path class="cls-1" d="M2.16,20.28l-.16,0c.1.06.22.14.2.21C2.55,20.63,2,20.38,2.16,20.28Z" transform="translate(-0.01)"/><path class="cls-1" d="M2.56,20.1c0,.09.12.11.16.16C2.68,20.15,2.67,20.13,2.56,20.1Z" transform="translate(-0.01)"/><path class="cls-1" d="M4.71,18l.18.18C4.9,18.08,4.82,18.07,4.71,18Z" transform="translate(-0.01)"/><polygon class="cls-1" points="4.17 16.61 4.02 16.54 4.17 16.72 4.17 16.61"/><polygon class="cls-1" points="5.7 17.66 5.71 17.7 5.71 17.57 5.7 17.66"/><path class="cls-1" d="M9.25,14,9,13.78C9,13.85,9.28,14.1,9.25,14Z" transform="translate(-0.01)"/><path class="cls-1" d="M10.58,12.21c.13.09.24.12.16,0C10.69,12.22,10.57,12.16,10.58,12.21Z" transform="translate(-0.01)"/><polygon class="cls-1" points="15.59 7.91 15.63 8.02 15.63 7.89 15.59 7.91"/><path class="cls-1" d="M1,.28C.9.33.77.47.82.48L1.08.26Z" transform="translate(-0.01)"/><path class="cls-1" d="M.74.91A1.73,1.73,0,0,0,1.32.44C1.06.63,1.14.53.84.76.78.75.86.63,1,.55.88.6,1,.45.79.58S.69.86.9.76A2.06,2.06,0,0,1,.74.91Z" transform="translate(-0.01)"/><path class="cls-1" d="M3.28,4.19V4.14A.11.11,0,0,0,3.28,4.19Z" transform="translate(-0.01)"/><path class="cls-1" d="M5,6.12s0,0-.07,0S4.94,6.14,5,6.12Z" transform="translate(-0.01)"/><path class="cls-1" d="M5,6.68v0S5,6.7,5,6.68Z" transform="translate(-0.01)"/><path class="cls-1" d="M3.28,4.19l0,.12C3.33,4.24,3.29,4.23,3.28,4.19Z" transform="translate(-0.01)"/><path class="cls-1" d="M1.7.75a.16.16,0,0,0-.09,0,0,0,0,0,1,0,0Z" transform="translate(-0.01)"/><path class="cls-1" d="M2.3,3.58h0l-.11.08Z" transform="translate(-0.01)"/><path class="cls-1" d="M1.65,3s.21-.17.3-.25a.46.46,0,0,1-.16.1Z" transform="translate(-0.01)"/><path class="cls-1" d="M1,1.69H1Z" transform="translate(-0.01)"/><path class="cls-1" d="M2.69,4.06l-.07.08Z" transform="translate(-0.01)"/><path class="cls-1" d="M21.23,19.62l0,0Z" transform="translate(-0.01)"/><path class="cls-1" d="M21,21.31h0a1.14,1.14,0,0,1-.11.11Z" transform="translate(-0.01)"/><path class="cls-1" d="M5.31,7.5h0S5.29,7.51,5.31,7.5Z" transform="translate(-0.01)"/><path class="cls-1" d="M10.63,12.52c.12-.23.32-.13.43-.42C11,12.19,10.67,12.33,10.63,12.52Z" transform="translate(-0.01)"/><path class="cls-1" d="M1.69.79l0,0S1.71.79,1.69.79Z" transform="translate(-0.01)"/><path class="cls-1" d="M11.06,12.1h0v0Z" transform="translate(-0.01)"/><path class="cls-1" d="M6.73,8.68l.07-.1Z" transform="translate(-0.01)"/><path class="cls-1" d="M6,7.43v.05S6.05,7.44,6,7.43Z" transform="translate(-0.01)"/><path class="cls-1" d="M7.51,8.9s0,.06,0,0l0,0S7.49,9,7.51,8.9Z" transform="translate(-0.01)"/><path class="cls-1" d="M8,9.42a.13.13,0,0,0,0-.05H8Z" transform="translate(-0.01)"/><path class="cls-1" d="M19.55,18.13l-.15.2C19.53,18.18,19.66,18.21,19.55,18.13Z" transform="translate(-0.01)"/><path class="cls-1" d="M1.59.86s.08-.07.1-.07h0A.46.46,0,0,0,1.59.86Z" transform="translate(-0.01)"/><path class="cls-1" d="M9.1,7.35l.05.11A.16.16,0,0,0,9.1,7.35Z" transform="translate(-0.01)"/><path class="cls-1" d="M15.77,14.41h.05S15.8,14.39,15.77,14.41Z" transform="translate(-0.01)"/><path class="cls-1" d="M9.43,7.68a.51.51,0,0,0-.09.19l.06,0Z" transform="translate(-0.01)"/><path class="cls-1" d="M19.39,18.33h0Z" transform="translate(-0.01)"/><path class="cls-1" d="M20.41,18.4c-.07-.08-.29.22-.46.36-.17,0,.15-.24.25-.41-.13,0-.41.21-.44.16s0-.08.11-.12c-.27.15-.2-.17-.53,0l.05-.07-.34.37s-.23.1-.08-.08c0,0,.09-.05.15-.09l-.11,0c.21-.28.14,0,.32-.22-.15,0-.44.13-.43,0,.23-.25.21,0,.35-.23v.17c.31-.44,0,.08.37-.38,0-.19-.25,0-.29-.19-.16.11-.19.21-.35.31-.4.08.48-.73,0-.52-.19.12-.51.42-.43.17l.3-.24c-.08-.14-.45.33-.38,0,.12-.09.17,0,.19,0,.14-.29-.21.1-.27,0l.23-.25c-.15-.08-.45,0-.63-.12a.58.58,0,0,0,.22-.22c-.28,0-.32-.38-.33-.68l-.27.15s.07-.12.13-.14-.14.12-.25.18.07-.17.16-.21c-.29.07-.69.07-.58-.26l.08,0c0-.18-.52.32-.41.05l0,0c-.1-.29-.5-.31-.34-.77-.32.27,0-.32-.48.08.09-.31.2-.36.19-.65,0-.06-.33.2-.42.19l.22-.22-.3.16.22-.3h-.1a.44.44,0,0,1-.13.2c-.17,0,0-.33.08-.45h-.36a.73.73,0,0,1,.23-.12c-.31.13.22-.24-.07-.13a.75.75,0,0,1-.19.17c.09-.18,0-.27-.13-.29l.16-.14c-.09-.17-.35-.2-.49-.35,0,.12-.29.37-.36.35l.21-.25c-.17.12,0,.14-.27.25,0-.08.22-.3.33-.34h-.15c.07-.07.12-.09.21-.17-.17.11.12-.35-.17-.14l.07-.07c-.15-.15-.3-.14-.43-.25-.2.2-.2.11-.4.23,0-.15,0-.4-.09-.49s-.19.14-.34.23c.18-.19.05-.28.24-.35a.74.74,0,0,0-.51-.14c-.06.09-.07.14-.14.19s0-.14.1-.22h0c-.45.09.11-1-.41-.72h0l-.34,0c0-.1.17-.09.24-.26-.47.14-.22-.3-.55-.23.43-.63-.4-.32-.2-.8l-.12.13c-.16.09,0-.12,0-.17-.09.1-.07.15-.16.2-.46-.15-.44-.81-.64-1.24-.08-.15-.72.59-.56.14L10.83,9c-.51.05-.46-.48-.92-.46.07-.05.14-.12.16-.09.12-.22-.17-.19-.31-.05,0,0,.12-.13.17-.22s-.34.09-.19-.1c0,0,.07,0,.09,0s-.13-.16-.29.06c0-.17-.25-.07-.2-.25-.26.17,0-.25-.36,0,.32-.31.11-.4-.1-.31.12-.08.06-.14.21-.26-.06,0-.18,0-.33.12C9,7,8.22,7.55,8.65,7a2.93,2.93,0,0,1-.87-.14c.32-.32.21.14.54-.2-.29,0-.65.16-.73-.07s.16-.11.23-.15c-.29,0-.27-.33-.58-.29a.27.27,0,0,1,.12-.06s0-.11-.16,0l.06,0c-.16.26-.54.34-.66.44.46-.37,0-.24.57-.69A.5.5,0,0,0,6.94,6c0-.06,0-.12.18-.21-.17,0-.29.18-.38.08.08-.07.12-.08.21-.15-.18.09-.36.19-.38,0s.1-.1.12-.08c-.15-.1-.58.15-.59-.12.35-.26.05-.15.31-.42H6.26l-.1.16c-.06-.07-.31.07-.28-.08L6,5.18l-.17-.07,0,.17c-.2.07-.33.34-.34.18,0,0-.06-.07.06-.26h0c-.12,0-.24.11-.22,0s.3-.28.35-.34c-.26.18-.22-.1-.5.1a1.79,1.79,0,0,0,.24-.21l-.21.15a.45.45,0,0,1,.17-.23c-.06-.12-.31.37-.27.11,0,0,0,0,.09,0,0-.19-.33-.1-.34-.29.24-.29.15,0,.34-.23-.19-.1-.62,0-.69-.19v.06c-.39.35.08-.29-.16-.19,0,0,.23-.18.18-.15,0-.15-.29-.1-.55-.13l.11-.08c0-.14-.1-.19-.11-.3-.12.08-.14,0-.26.19.36-.74-.65-.07-.36-.69,0,0,.13,0,.12,0l-.23-.06c-.16.18-.08.12-.18.28S2.83,3,2.79,3c.17,0,.26-.27.33-.38L3,2.75c.22-.37-.34.32-.25,0l.09-.08c-.08,0-.23.08-.24,0,.17-.21.13,0,.28-.2-.06,0-.47.24-.33,0,.08,0,.11,0,.19,0,.16-.28.1-.23.09-.31h0V2l0,.09c-.56.42-.24-.06-.66.17.4-.21.2-.16.42-.37a.47.47,0,0,1,.13-.24c-.22.13.06-.21-.26,0,.07-.08,0-.06.15-.22-.12,0-.11.13-.2.21-.33.15.07-.5-.39-.31-.25,0-.5.23-.72.24a.59.59,0,0,1,.28-.22c0-.16,0-.18-.15-.16A.69.69,0,0,0,1.53,1c-.06,0-.28.22-.24.06A3.19,3.19,0,0,1,1.61.79c-.11,0-.29.09-.4.09A.81.81,0,0,1,1.52.67.59.59,0,0,0,1,.8L1,.91s.15-.18.2-.2,0,.14-.06.22H1.08c-.37.45.21.09.27.19L1,1.38l.32-.16c-.06.09-.21.26-.29.27-.09.2.15-.06,0,.15,0,0,0,.05-.06.05l.14,0C1.1,1.71,1,1.87,1,1.8c-.08.26.37-.07.18.19h0c.23,0,.23-.2.58-.35l-.47.59L1.49,2s0,.07-.07.15c.2-.1.08-.1.25-.21-.13.26.28.09,0,.44.19-.14.06-.19.25-.23-.35.39.14,0,0,.25s-.16,0-.27.24c.35-.28,0,.19.16.18.25-.25.21,0,.38,0-.09.09,0,.31,0,.48l-.05,0c.28-.24.31-.11.43-.11a.73.73,0,0,1-.34.24l.06.06c.1-.07.16-.1.23-.09l-.21.18c.08.06.38-.08.34.15.19-.18.43-.59.65-.6A1.24,1.24,0,0,1,3,3.49s.11-.05.09,0l-.21.12c0,.12.16-.11.18-.06-.14.14-.07.13-.19.23s0-.09,0,0a.49.49,0,0,1-.11.32c.08-.08.19-.19.23-.18s-.14.2-.17.31c.12-.08.07.07.28-.14,0,0-.08.13-.12.19.13,0,.2.16.38-.11v0h0c.33-.08.15.39.36.42l-.07.07c.16,0,.21.12.42,0,0,0-.08.18-.17.26C4,4.87,4,4.8,4,5s-.09.13-.15,0c0,.13-.08.26.19.15-.2.15-.17.28-.08.27l.08-.19c.07,0,.08.07.1.12L3.9,5.6c-.13.43.76-.22.4.38.2-.13,0-.2.26-.36,0,.11-.23.52-.2.54,0,.23.43-.26.44-.07.07-.09.28-.33.44-.33s-.27.44-.38.46,0,0,0-.07-.12,0-.18.13l.09-.08c0,.13.06.21-.1.33a.19.19,0,0,0,.16-.2c0,.21.14.14.15.32,0-.06.12-.17.13-.16,0,.24.22-.1.35,0-.08.18-.33.28-.13.27,0,.14-.21.23-.3.28.25-.08,0,.26.07.34L5,7.36c.07,0,.09,0,.11,0l.14-.2c0,.06,0,.08,0,.15.14-.08.26-.3.46-.4,0,.12.2,0,0,.25,0-.18-.21.24-.34.18,0,0,.06,0,.06.07a.15.15,0,0,1-.07,0c-.09.3.3-.2.4-.09-.13.11-.21.26-.16.25s.18-.23.32-.28c0,.16.15,0,.17,0V7.34c.14-.11.16-.06.25,0-.1.1-.12,0-.14.08.27-.16-.11.35.12.28C6.22,7.77,6,7.89,6,8c.24-.08-.09.26.14.21s.1-.15.32-.26l-.26,0,.34-.15s-.2,0-.2,0c.18-.09.14,0,.25-.21-.19.31.27,0,.17.21l-.42.42c-.08.29.4,0,.43.21l0-.12c.18-.15.11.06.22,0a1,1,0,0,0-.24.32c.1-.11.09.11.38-.16l-.12.24c0,.19.52-.27.58-.12-.18.12-.23.27-.41.31,0,0,0,.09.13,0-.06.1.29-.09.19.07.07-.05.23-.19.25-.14a.21.21,0,0,1-.07.07c.07-.07.16,0,.28-.22-.33.54.33.27.05.74a.89.89,0,0,1,.34.14s-.06.07-.06,0c0,.22.46-.34.42-.09s-.18.07-.23.19c-.44.47.19.06,0,.41h0c-.09.21.32,0,.38.08l-.07.07a.8.8,0,0,1,.64-.1c-.21.15-.13.05-.3.25.07,0,.28-.31.41-.28a1.53,1.53,0,0,1-.29.47l-.08-.06c-.22.29.1.09.1.17l-.12.1c.15.08.43-.19.54,0l.07-.1c.34-.2-.1.21.17.08l-.26.3a1.73,1.73,0,0,1,.56-.09,2.54,2.54,0,0,1-.63.24.24.24,0,0,0,.33,0s-.14.06-.11,0c.27-.17.45-.21.53-.11-.55.52.09.36-.26.84.35,0,.22.4.43.55.36-.49.07,0,.49-.41.07,0,.07,0,.05.07l-.13.39c-.1.15-.14,0-.23.15.06.13-.14.23-.2.4.14-.17.26-.19.25-.08l.12-.27c.36-.1-.25.47.11.38l-.18.09c.15,0,.25.25.66,0,0,.06-.14.19-.2.19.1.21.72,0,.63.32l-.12.1c.06,0,.25-.15.18,0s-.11.1-.11.12.27-.11.24,0l-.15.09c0,.29.53,0,.73,0a.74.74,0,0,0-.28.65l-.05,0c.15.22.57.05.86.09-.24.44.21.5.19.85a.62.62,0,0,1,.3-.24c0,.1.33-.11,0,.17v0c-.25.31-.1.32,0,.39l.38-.36c-.38.7.63.23.23.8.14-.05.18,0,.32-.05l-.21.19a.46.46,0,0,0,.28.33l-.18.12c.07.09.68-.48.76-.42l-.28.32c.14.12,0,.52.42.38-.05,0-.14.13-.17.12s0,.44.43,0c-.27.27.11.16.3.12l-.21.18c.31-.19.38-.25.54-.24,0,.05-.14.18-.12.1,0,.17.24-.13.22.05l-.16.1c.05.08.11,0,.3-.1s.08.18-.09.37c.12-.1.3-.21.29-.12a.54.54,0,0,1-.14.12c0,.25.4-.06.28.21l-.1.13c-.09-.09-.15-.18-.13-.19-.18.19-.14.29-.45.48.2-.07.6-.27.58-.11a.23.23,0,0,1-.05.07h0s0,0,.08,0,0,.09,0,.11c-.14.16,0,.17,0,.21.19-.2.21-.12.33-.33,0,0,0,0-.07,0h0l0,0-.11-.07c.13-.08.25-.13.18,0l.37-.27c-.23.33-.28.58-.44.76.23,0,.34.19.79-.11.08,0-.07.14-.12.22s-.07,0-.14,0c.16,0,.23.15.51-.09,0,.2-.29.19-.13.26l-.1.07c-.2.63,1-.32.73.46a.34.34,0,0,1,.06-.12c0,.51.79.35.69,1,0,.15.18,0,.35-.09l-.19.23.32-.16c.3-.07-.32.72.16.52l.13-.16c0,.08.25.08.07.24,0,0,.17-.14.12,0l-.11.11.32-.06c0,.18-.46.43-.34.59a1.06,1.06,0,0,0,.53-.26s0-.13.13-.24h.1a2.82,2.82,0,0,0,.83-1l-.29.12.13-.19.08.06c.11-.19,0-.08-.16,0a1.06,1.06,0,0,0,.14-.21l-.4.23c.12-.14.29-.22.31-.35-.19.11-.25.33-.41.36.11-.19.24-.3.06-.22a.53.53,0,0,1,.2-.15c-.14.06-.15-.07-.35.08.14-.22-.19-.09.13-.4a.9.9,0,0,1-.37.15c.44-.31-.13-.17.29-.55-.39.28-.33,0-.61.05,0,0,.09-.06.08,0s.06-.19.09-.29a2,2,0,0,1-.64.38c.21-.33.37-.29.6-.56-.22.22-.33.11-.5.32a1.28,1.28,0,0,1,.25-.38c-.36.34-.11,0-.36.19.1-.24.3-.35.12-.32A.49.49,0,0,1,20.41,18.4ZM18,17.16h0l.05,0ZM17.81,17a.19.19,0,0,0,.06.07c-.07.07-.14.14-.15.12S17.77,17.09,17.81,17Zm-1,1.7c-.05,0,0,0,0-.09l.07,0,0,0Z" transform="translate(-0.01)"/><path class="cls-1" d="M17.06,18.49h0l0-.06-.07.05Z" transform="translate(-0.01)"/><path class="cls-1" d="M3.29,4.13h0l0,0Z" transform="translate(-0.01)"/><polygon class="cls-1" points="16.03 14.48 15.98 14.53 16.04 14.5 16.03 14.48"/><path class="cls-1" d="M3.12,2.6l0-.07A.43.43,0,0,0,3.12,2.6Z" transform="translate(-0.01)"/><path class="cls-1" d="M2.79,2.18l0-.12A.35.35,0,0,0,2.79,2.18Z" transform="translate(-0.01)"/><path class="cls-1" d="M2.61,1.8l-.09.08h0Z" transform="translate(-0.01)"/><path class="cls-1" d="M7.36,6.08h0Z" transform="translate(-0.01)"/><path class="cls-1" d="M5.55,5.2l.13,0S5.66,5.09,5.55,5.2Z" transform="translate(-0.01)"/><polygon class="cls-1" points="9.08 7.34 9.08 7.34 9.09 7.35 9.08 7.34"/><path class="cls-1" d="M5.74,5.22c0-.07,0-.08-.06-.07S5.69,5.23,5.74,5.22Z" transform="translate(-0.01)"/><path class="cls-1" d="M1.47.48v0l0,0Z" transform="translate(-0.01)"/><path class="cls-1" d="M1.43.49h0S1.4.51,1.43.49Z" transform="translate(-0.01)"/><path class="cls-1" d="M1.31.51h.08S1.37.46,1.31.51Z" transform="translate(-0.01)"/><path class="cls-1" d="M1.75,1,1.83.88Z" transform="translate(-0.01)"/><path class="cls-1" d="M1.89,1S2,.82,1.89.82L1.83.88C2,.79,1.74,1.14,1.89,1Z" transform="translate(-0.01)"/><path class="cls-1" d="M1.47,2.41l0-.16c-.06.1-.14.22-.2.2C1.12,2.8,1.38,2.25,1.47,2.41Z" transform="translate(-0.01)"/><path class="cls-1" d="M1.66,2.82c-.09,0-.11.11-.16.15C1.6,2.93,1.63,2.92,1.66,2.82Z" transform="translate(-0.01)"/><path class="cls-1" d="M3.8,5l-.18.18C3.68,5.15,3.69,5.07,3.8,5Z" transform="translate(-0.01)"/><polygon class="cls-1" points="5.13 4.43 5.21 4.28 5.02 4.43 5.13 4.43"/><polygon class="cls-1" points="4.09 5.97 4.04 5.97 4.17 5.97 4.09 5.97"/><path class="cls-1" d="M7.77,9.5,8,9.27C7.91,9.28,7.65,9.53,7.77,9.5Z" transform="translate(-0.01)"/><path class="cls-1" d="M9.55,10.83c-.1.13-.13.24,0,.16C9.54,10.94,9.59,10.82,9.55,10.83Z" transform="translate(-0.01)"/><polygon class="cls-1" points="13.83 15.86 13.73 15.9 13.85 15.9 13.83 15.86"/></g></g></svg>