<svg xmlns="http://www.w3.org/2000/svg" viewBox="0 0 26.04 49.11"><defs><style>.cls-1{fill:#987d51;}</style></defs><title>Fichier 21</title><g id="Calque_2" data-name="Calque 2"><g id="Calque_1-2" data-name="Calque 1"><path class="cls-1" d="M.9,0C.81,0,.69.19.78.23L1.07.05Z"/><path class="cls-1" d="M.93.9A.9.9,0,0,0,1.58.5c-.3.14-.23,0-.58.21C.9.67,1,.51,1.05.44,1,.47,1,.28.81.39c-.09.27,0,.39.28.36C1.07.83,1,.86.93.9Z"/><path class="cls-1" d="M7.37,8.07V8A.15.15,0,0,0,7.37,8.07Z"/><path class="cls-1" d="M11.46,12.42a.06.06,0,0,0-.09,0S11.45,12.45,11.46,12.42Z"/><path class="cls-1" d="M11.93,13.4l0-.06S11.9,13.41,11.93,13.4Z"/><path class="cls-1" d="M7.37,8.07l0,.19C7.5,8.19,7.41,8.15,7.37,8.07Z"/><path class="cls-1" d="M2.44,1.28a.19.19,0,0,0-.13,0l.09,0Z"/><path class="cls-1" d="M5.33,6.4l0,0-.12.07Z"/><path class="cls-1" d="M3.86,5s.24-.14.34-.22A.28.28,0,0,1,4,4.86Z"/><path class="cls-1" d="M2,2.4H2Z"/><path class="cls-1" d="M6.3,7.47l0,.08A.22.22,0,0,0,6.3,7.47Z"/><path class="cls-1" d="M3,47.75l0,0S3,47.76,3,47.75Z"/><polygon class="cls-1" points="0.38 48.42 0.39 48.39 0.28 48.27 0.38 48.42"/><path class="cls-1" d="M13,15h0C12.93,15,13,15,13,15Z"/><path class="cls-1" d="M22,25.28c.31,0,0,.45.4.44C22.29,25.66,22.26,25.22,22,25.28Z"/><path class="cls-1" d="M2.45,1.34a.34.34,0,0,1,.06.06A.11.11,0,0,0,2.45,1.34Z"/><path class="cls-1" d="M22.38,25.72h0Z"/><path class="cls-1" d="M16.15,17.89a.61.61,0,0,0,.05-.12A.19.19,0,0,0,16.15,17.89Z"/><path class="cls-1" d="M14.17,15.34l0,.09A.3.3,0,0,0,14.17,15.34Z"/><path class="cls-1" d="M17.6,18.78s0,.08.07.1,0,0,0,0S17.6,18.85,17.6,18.78Z"/><polygon class="cls-1" points="18.82 20 18.84 19.94 18.79 19.91 18.82 20"/><path class="cls-1" d="M6.63,43.94a1.67,1.67,0,0,1-.23-.12C6.56,43.94,6.43,44.17,6.63,43.94Z"/><path class="cls-1" d="M2.32,1.39c.06,0,.1-.06.13,0l-.05,0S2.33,1.36,2.32,1.39Z"/><path class="cls-1" d="M19.22,17.26l.16.23A.69.69,0,0,0,19.22,17.26Z"/><path class="cls-1" d="M15.38,35.14l0,.07A.05.05,0,0,0,15.38,35.14Z"/><path class="cls-1" d="M20,18a.48.48,0,0,0,0,.25s.05,0,.07,0Z"/><path class="cls-1" d="M6.4,43.81h0Z"/><path class="cls-1" d="M5.59,45.57c.19-.18-.17-.35-.28-.54.15-.29.29.09.5.15.07-.2-.06-.55.05-.64s.09,0,.12.11c-.06-.36.42-.45.33-.88l.09,0A1.92,1.92,0,0,1,6,43.48c.08-.08,0-.32.19-.18,0,.05,0,.12,0,.2v-.16c.33.17,0,.2.15.38.09-.25.09-.65.28-.71.27.22-.22.39.17.43l-.29.11c.53.22-.15.09.39.36.34-.2.18-.42.51-.62-.07-.19-.22-.17-.29-.37.14-.61.9.31.85-.28-.08-.23-.36-.57,0-.6l.2.34c.28-.23-.24-.54.21-.63.06.16-.11.3,0,.29.39,0,0-.28.1-.41l.27.21c.23-.31.36-.78.62-1.13,0,.09.08.22.22.22a2.66,2.66,0,0,1,1.35-1l-.06-.35s.15,0,.15.11c.23-.06-.12-.14-.13-.29s.23,0,.24.13c.07-.43.34-1.1.82-1.14v.11c.3-.12-.19-.66.2-.66v.08c.54-.36.85-1,1.5-1.08-.23-.37.58-.31.19-.76.47,0,.47.1,1-.12.11-.08-.12-.41,0-.57l.22.21L15,35.2l.35.18,0-.17a.23.23,0,0,1-.24-.07c.07-.28.57-.28.69-.17l.23-.6c.08.1,0,.2,0,.31,0-.45.27.19.27-.22-.08,0-.12-.14-.16-.19.24,0,.47-.2.58-.43l.12.19A12.29,12.29,0,0,0,17.8,33c-.19.05-.42-.24-.35-.37l.27.19c-.07-.2-.19,0-.23-.29.16-.1.35.18.35.33l.08-.24c.08.06.07.13.15.23-.08-.21.5,0,.35-.38l.08.06c.34-.34.42-.58.69-.87-.19-.2,0-.27-.12-.51a3,3,0,0,0,.89-.48c.07-.28-.12-.22-.16-.42.2.17.43-.1.43.16a3,3,0,0,0,.57-.94c-.11,0-.19,0-.23-.1s.23-.08.31,0v0c.15-.7,1.51-.45,1.47-1.16v0l.15-.54c.19-.13,0,.23.27.22.07-.68.64-.55.75-1.06.4.13.55,0,.82-.37a3.42,3.42,0,0,1,1.27-1.12l-.23,0c-.05-.2.3-.15.47-.26-.19,0-.36.13-.38,0a8.29,8.29,0,0,1,.57-.65,16.34,16.34,0,0,1-1.39-1.65l-.36-.48-.18-.29a6.33,6.33,0,0,0-.36-.54c-.23-.3-.8.5-.84-.14l.33-.14c-.82-.26-1.09-1.11-1.85-1.4.08,0,.15-.09.21,0,0-.28-.41-.41-.55-.28-.06-.1.11-.14.13-.26s-.5-.07-.39-.29c0,0,.09,0,.12,0-.15,0-.32-.36-.44-.1-.11-.29-.47-.29-.51-.56-.32.12-.23-.44-.57-.17.33-.3-.09-.6-.37-.57.14-.06,0-.21.18-.3-.15-.14-.34-.21-.48,0,.12-.64-.84-.22-.49-.86a8.44,8.44,0,0,1-1.56-.83c.33-.31.45.39.77,0-.49-.23-1-.17-1.26-.6-.05-.14.19-.09.28-.11-.49-.23-.67-.73-1.17-.88a.28.28,0,0,1,.16,0c-.07-.06-.1-.2-.24-.05l.1,0c-.11.31-.69.19-.81.29.52-.31-.21-.43.48-.78a.28.28,0,0,0-.28.11c0-.09,0-.17.18-.22-.3-.14-.38.09-.58-.12.07-.07.14-.05.24-.11-.24,0-.48.06-.59-.17.05,0,.08-.11.13-.06-.31-.27-.87-.14-1.06-.6.4-.21,0-.21.23-.49L13,11.7l-.06.2c-.15-.16-.48-.1-.52-.32h.22l-.34-.24.06.27c-.29,0-.31.35-.44.07.06,0-.16-.16-.08-.39h0c-.16,0-.33,0-.37-.16s.31-.27.35-.35c-.3.15-.42-.3-.75-.16a.61.61,0,0,0,.24-.2l-.24.12c0-.13,0-.17.12-.27-.18-.24-.26.41-.37,0,0,0,0,0,.12,0-.18-.33-.61-.38-.76-.7.2-.34.27.14.42-.17-.39-.29-1-.38-1.29-.77l0,.09c-.42.33-.06-.43-.4-.42.07,0,.26-.15.21-.12-.16-.29-.55-.37-1-.59l.14-.06c0-.22-.3-.39-.4-.58-.14,0-.2-.05-.29.14.1-1-1.14-.54-1.07-1.39,0,0,.19,0,.15,0l-.42-.25c-.13.19,0,.15-.11.34a.38.38,0,0,1-.39,0C6,5.77,6,5.46,6,5.31c0,.06-.12.09-.17.15.12-.47-.35.3-.39-.14l.09-.07c-.13,0-.32,0-.4-.13.15-.23.19,0,.35-.15-.15-.12-.63.1-.56-.21.11,0,.19.08.3.09.09-.36,0-.32,0-.45h0l-.13-.33V4.2c-.66.33-.43-.25-1-.15.53-.09.21-.15.44-.34,0-.12,0-.27.07-.31-.28.07,0-.32-.45-.21.06-.08-.11-.13.09-.27-.19-.09-.09.15-.18.22-.46,0-.22-.79-.86-.77-.4-.14-.68,0-1-.09,0-.19.32-.18.32-.18a.41.41,0,0,0-.36-.37c.08,0,.11-.11.15-.23-.12-.08-.32.19-.36-.05a1.63,1.63,0,0,1,.38-.17c-.18-.06-.43-.05-.61-.11C1.78,1,2,1.06,2.07,1,1.88.94,1.6.77,1.37.92l0,.16C1.33,1,1.53.89,1.6.89c.27,0,.11.24,0,.32l-.14-.05c-.31.5.42.29.58.49l-.37.22.43-.06c0,.12-.18.31-.31.26,0,.28.22,0,.17.28,0,0,0,0-.06,0l.21,0c-.08,0-.18.23-.22.11.06.39.58.14.45.45h0c.41.21.24-.19.73-.21l-.37.69L3,3.29a.14.14,0,0,1,0,.2c.26,0,.07-.12.28-.19,0,.35.52.34.21.72.22-.11,0-.28.25-.23-.32.42.26.13.23.44-.23.15-.27-.09-.3.23.41-.24.21.34.39.4.26-.25.37.15.65.26-.1.08.24.52.33.8l0,0c.3-.23.44,0,.63.1-.16.15-.25.19-.39.18l.13.13a.34.34,0,0,1,.31,0l-.22.16c.18.17.58.12.67.48.2-.17.33-.68.69-.57-.09.11-.25.29-.35.26s.15,0,.15.08l-.26.07c0,.17.19-.09.26,0-.14.14,0,.16-.16.26s0-.13-.1-.11a.56.56,0,0,1,0,.46c.08-.09.19-.19.28-.14s-.11.23-.08.4c.14-.05.15.16.36-.05,0,.06,0,.16-.07.24.18,0,.45.39.57.07V8h0c.5.09.5.73.88.94L8.18,9c.26.09.44.34.71.31.06.06,0,.25-.11.31.19.09.28,0,.36.33-.25,0-.06.16-.23-.05.12.24.05.39.42.39-.24.11-.09.35.05.38v-.25a.92.92,0,0,1,.26.26l-.28.19c.07.65,1.13.16.92.91.26-.07-.08-.31.2-.42.13.2,0,.71,0,.76.1.35.56-.13.7.19.06-.11.25-.37.51-.27s-.15.55-.32.52a.07.07,0,0,1,0-.11c-.09,0-.19-.05-.22.1l.11-.06c0,.17.23.38,0,.47.2,0,.19-.09.14-.22.09.33.32.33.46.63,0-.08.08-.21.11-.18.22.43.3,0,.55.16,0,.25-.35.26,0,.37,0,.22-.2.26-.32.27.36,0,.26.48.35.62l-.17,0a.37.37,0,0,1,.2.13l.11-.23c0,.09.08.14,0,.21.17,0,.23-.32.51-.35,0,.17.34.16.14.41-.18-.33-.19.25-.45.07.07,0,.12.07.15.16S13,15,13,15c0,.44.36-.14.61.12-.16.09-.18.3-.11.31-.1-.1.16-.26.35-.26.07.26.25.11.33.2l-.06-.14c.16-.09.23,0,.38.08-.09.11-.17,0-.17.05.34-.1,0,.51.38.54,0,.16-.23.24-.22.37.36,0,0,.38.39.46.11-.23.06-.2.37-.22l-.46-.22.46,0c-.1-.1-.32-.11-.36-.2.25,0,.19,0,.28-.19-.11.39.43.13.42.47l-.42.41c.06.43.65.22.86.64l0-.17c.21-.13.22.17.39.2-.15.13-.14.25-.18.38.1-.11.22.24.53,0l0,.33c.18.33.69-.11.89.19-.23.07-.21.28-.49.23.08.08.13.18.23.08,0,.14.41,0,.36.25.09,0,.25-.16.33-.05a.27.27,0,0,1-.07.06c.07-.06.24,0,.32-.18-.19.69.73.68.58,1.27a3.67,3.67,0,0,1,.66.46c-.05,0-.07.07-.08,0,.09.36.53-.26.64.14-.09.35-.25,0-.26.15-.42.5.37.25.28.69l-.07,0c0,.29.49.15.68.4a.21.21,0,0,0-.07.07,1.46,1.46,0,0,1,1,.25c-.24.12-.18,0-.33.22.12.07.27-.32.5-.18a1,1,0,0,1-.16.59l-.19-.17c-.16.35.24.22.28.36l-.12.1c.31.23.59-.05.85.26l.06-.11c.43-.12,0,.28.34.24l-.24.32c.2.07.55,0,.8.15l-.82.06c.09.09.18.13.41.09-.06,0-.17,0-.14,0a.76.76,0,0,1,.79.14c-.59.13-.38.23-.35.34a.82.82,0,0,1-.51.08c.11.09,0,.17-.13.21l-.17,0a1,1,0,0,0-.3.25c.57.27-.11.14.35.54-.07.13-.12.16-.15.14l-.56,0c-.2-.06,0-.19-.11-.28-.25.19-.27-.09-.53-.06.19.12.15.29,0,.36l.37,0c-.07.54-.62-.1-.7.43l0-.23c-.07.24-.58.57-.38,1.07-.08,0-.23-.1-.2-.2-.42.32-.45,1.19-1,1.27L19.18,28c0,.1.07.31-.12.3,0,0-.08-.14-.11-.11s0,.37-.16.4l0-.2c-.5.22-.26.85-.5,1.22a.72.72,0,0,0-.89,0l0-.05c-.47.38-.46,1-.73,1.49-.58-.1-1,.68-1.55.88.12,0,.24.25.2.35s0,.47-.31.17l0,0c-.35-.21-.46.05-.62.19l.35.4c-.93-.16-.81,1.21-1.5.93,0,.19-.12.3-.12.48l-.19-.2a2.28,2.28,0,0,0-.73.67l-.08-.2c-.19.16.35.8.2,1l-.35-.25c-.31.31-.89.37-.93,1,0-.05-.11-.15-.07-.21-.16.14-.77.37-.31.72-.27-.26-.35.3-.4.59l-.17-.23c.11.4.17.47,0,.74-.07,0-.2-.12-.08-.13-.26.05.06.31-.23.39L9.73,38c-.17.14-.09.2,0,.43s-.35.26-.55.11c.08.13.14.36,0,.41A.22.22,0,0,1,9,38.81c-.4.13-.17.63-.55.62a.36.36,0,0,0-.15-.09c.22-.21.4-.37.4-.34-.18-.18-.38,0-.5-.43,0,.28.06.81-.19.9l-.09,0v0c-.06,0-.08.07-.08.14a.44.44,0,0,0-.2.08c-.17-.13-.27.12-.37.2.21.19.06.27.33.33,0,0,0,0,0-.11s0,0,0-.05v0l.2-.23c0,.17,0,.33-.16.31a3.54,3.54,0,0,1,.2.44c-.39-.16-.77-.08-1-.22-.15.38-.55.7-.34,1.24,0,.12-.2,0-.28,0s.06-.13,0-.21c0,.25-.41.49-.18.78-.31.07-.14-.34-.35,0l-.05-.12c-.93.1-.16,1.5-1.27,1.53.08,0,.11,0,.16,0-.88.41-1.11,1.55-2.12,1.81-.26.11-.11.3-.09.53l-.26-.17.06.43c-.09.45-1-.06-1,.62l.19.11c-.15.09-.3.47-.44.28,0,0,.11.19,0,.16l-.11-.11-.11.5c-.31.15-.41-.48-.77-.17-.08.17,0,.69.09.71a.26.26,0,0,1,.31.05l0,.18c.31.35.55.77,1.07.72v-.4l.23.1L1.52,49c.24.06.17-.13.15-.29a.39.39,0,0,0,.26.09l-.13-.51c.16.11.17.35.37.29,0-.24-.37-.2-.32-.45.25,0,.34.2.32,0a.24.24,0,0,1,.13.22c0-.2.22-.3.09-.53.29.09.29-.38.59-.06a.77.77,0,0,1,0-.52c.21.54.37-.31.72.13-.21-.46.29-.59.33-1,0,0,0,.11,0,.11.15-.09.29,0,.43,0-.26-.29-.13-.54-.2-.82.42.12.23.42.54.63-.24-.22,0-.49-.21-.62.28,0,.18,0,.47.15-.32-.37.05-.16-.07-.47.34,0,.37.28.45,0C5.63,45.28,5.59,45.57,5.59,45.57Zm3.72-4.93h0l-.08.1Zm.36-.36a.73.73,0,0,0-.16.15c-.08-.06-.14-.14-.1-.18S9.56,40.27,9.67,40.28Zm-2.14-.61c0-.09.08-.07.13,0a.63.63,0,0,0-.07.12v0A.37.37,0,0,1,7.53,39.67Z"/><path class="cls-1" d="M7.68,40s0,0,0,0h.08l0-.08Z"/><path class="cls-1" d="M7.36,8h0a.06.06,0,0,1,0,0Z"/><polygon class="cls-1" points="15.07 35.64 15.02 35.59 15.03 35.67 15.07 35.64"/><path class="cls-1" d="M6,5.31a.19.19,0,0,0,0-.08A.13.13,0,0,0,6,5.31Z"/><path class="cls-1" d="M5.22,4.4l0-.19A.56.56,0,0,0,5.22,4.4Z"/><path class="cls-1" d="M4.65,3.64l-.1.07h0Z"/><path class="cls-1" d="M15.45,14h0C15.58,14,15.53,14,15.45,14Z"/><path class="cls-1" d="M11.84,11.29H12C12,11.22,12,11.18,11.84,11.29Z"/><polygon class="cls-1" points="19.2 17.24 19.2 17.24 19.22 17.26 19.2 17.24"/><path class="cls-1" d="M12.18,11.44a.18.18,0,0,0-.14-.15C12.07,11.35,12.1,11.43,12.18,11.44Z"/><path class="cls-1" d="M1.86.67l0-.05a.05.05,0,0,1,0,0Z"/><path class="cls-1" d="M1.8.65H1.74S1.77.67,1.8.65Z"/><path class="cls-1" d="M1.62.62l.12,0S1.69.58,1.62.62Z"/><path class="cls-1" d="M2.65,1.64l.08-.07A.23.23,0,0,0,2.65,1.64Z"/><path class="cls-1" d="M2.94,1.88c0-.08,0-.31-.14-.35l-.07,0C2.88,1.51,2.76,1.94,2.94,1.88Z"/><path class="cls-1" d="M3.16,3.89,3,3.61c0,.11-.09.27-.21.19C2.84,4.31,2.9,3.57,3.16,3.89Z"/><path class="cls-1" d="M3.75,4.7c-.16-.09-.11.11-.16.15C3.73,4.85,3.77,4.85,3.75,4.7Z"/><path class="cls-1" d="M8.76,9.72l-.19.16C8.69,10,8.64,9.82,8.76,9.72Z"/><polygon class="cls-1" points="10.66 9.74 10.68 9.54 10.47 9.66 10.66 9.74"/><polygon class="cls-1" points="9.94 11.6 9.87 11.58 10.09 11.67 9.94 11.6"/><path class="cls-1" d="M18.43,20l.2-.25C18.52,19.69,18.26,19.92,18.43,20Z"/><path class="cls-1" d="M22.3,23.37c-.08.15,0,.33.13.28C22.36,23.55,22.37,23.39,22.3,23.37Z"/><polygon class="cls-1" points="14.25 32.89 14.25 32.74 14.17 32.94 14.25 32.89"/></g></g></svg>