<svg xmlns="http://www.w3.org/2000/svg" viewBox="0 0 216.08 6.47"><defs><style>.cls-1{fill:#987d51;}</style></defs><title>Fichier 14</title><g id="Calque_2" data-name="Calque 2"><g id="Calque_1-2" data-name="Calque 1"><path class="cls-1" d="M216,4.57c.11-.18.05-.57-.26-.49l-.23.66Z"/><path class="cls-1" d="M213.92,3.34a1.38,1.38,0,0,0-.55,1.49c.36-.63.45-.37.84-1.13a.41.41,0,0,1,.5.46c.11-.17.48.15.65-.27a.94.94,0,0,0-1.46-.11C213.78,3.64,213.9,3.46,213.92,3.34Z"/><path class="cls-1" d="M183.29,2.31l.2.08A.36.36,0,0,0,183.29,2.31Z"/><path class="cls-1" d="M164.31,1.94c.15,0,.21-.08.21-.14S164.28,1.89,164.31,1.94Z"/><path class="cls-1" d="M161.07,1.22l.19,0C161.19,1.2,161.12,1.17,161.07,1.22Z"/><path class="cls-1" d="M183.29,2.31l-.51-.21C182.75,2.32,183,2.26,183.29,2.31Z"/><path class="cls-1" d="M209.7,4.94a.8.8,0,0,0,.27-.18,1.11,1.11,0,0,1-.26.07A.41.41,0,0,1,209.7,4.94Z"/><path class="cls-1" d="M191.66,1.77h.15a1.36,1.36,0,0,0,.13-.27Z"/><path class="cls-1" d="M198.08,1.67c-.15,0-.2.54-.25.78a.54.54,0,0,1,.31-.38A1,1,0,0,0,198.08,1.67Z"/><path class="cls-1" d="M208.26,2.66l.18-.08Z"/><path class="cls-1" d="M187.06,1.65a.47.47,0,0,0-.06-.2A.47.47,0,0,0,187.06,1.65Z"/><path class="cls-1" d="M7.47,5.87a.34.34,0,0,0,0-.1C7.44,5.83,7.42,5.87,7.47,5.87Z"/><path class="cls-1" d="M0,3.09l.1,0c0-.11,0-.21,0-.32Z"/><path class="cls-1" d="M155.14.49l0,0C155.32.44,155.23.45,155.14.49Z"/><path class="cls-1" d="M100.7.91c.62.5-1,.64-.08,1.2C100.54,1.89,101.47,1.24,100.7.91Z"/><path class="cls-1" d="M209.53,4.86h-.26A.53.53,0,0,0,209.53,4.86Z"/><path class="cls-1" d="M100.62,2.11h0l.1,0Z"/><path class="cls-1" d="M141.48.83a.56.56,0,0,0,.14.25A.53.53,0,0,0,141.48.83Z"/><path class="cls-1" d="M151.66,1.63l-.26-.07A.6.6,0,0,0,151.66,1.63Z"/><path class="cls-1" d="M136.19,1.63c-.14,0-.18-.12-.37,0l.06.07C136,1.57,136,1.54,136.19,1.63Z"/><path class="cls-1" d="M130.69,1.63l.1.11.18,0Z"/><path class="cls-1" d="M24.19,5.6a1.68,1.68,0,0,1-.25-.5C24,5.5,23.21,5.64,24.19,5.6Z"/><path class="cls-1" d="M209.7,4.62c0,.14-.08.21-.17.24a.48.48,0,0,0,.18,0A.29.29,0,0,0,209.7,4.62Z"/><path class="cls-1" d="M136,6.06,135.09,6A4.71,4.71,0,0,0,136,6.06Z"/><path class="cls-1" d="M63.66,5.52l-.2.07A.2.2,0,0,0,63.66,5.52Z"/><path class="cls-1" d="M132.5,6.06a1.32,1.32,0,0,0-.49-.39.4.4,0,0,0-.1.15Z"/><path class="cls-1" d="M23.94,5.09h0Z"/><path class="cls-1" d="M18.18,6.43c.83,0,.39-.73.57-1.15,1-.21.46.54.79.92.63-.19,1.1-.87,1.56-.84,0,.12.13.16,0,.32.66-.59,1.95,0,2.72-.77a.66.66,0,0,1,.1.18,2.35,2.35,0,0,1-.12-1c.37,0,.69-.47.83,0-.23,0-.25.18-.35.33l.39-.21c.35.69-.54.24-.54.75.77-.23,1.66-.8,2.24-.6.12.68-1.37.23-.59.83l-.9-.26C25.59,6,24.35,4.86,25,6c1.19.2,1.34-.35,2.52-.15.27-.37-.09-.56.18-.93,1.69-.68,1.33,1.71,2.57.8.32-.45.45-1.31,1.33-.86l-.3.77c1.15.08.66-1.1,1.86-.59-.21.31-.9.26-.73.35C33.19,6,33,5,33.57,5l.12.68c1.23-.1,2.58-.59,3.94-.72-.08.2-.31.42,0,.62A12.91,12.91,0,0,1,43,6l.63-.59c.15,0,.27.27.11.38.65.23,0-.37.35-.6a.29.29,0,0,1,.25.51c1.14-.49,3.24-1.07,4.44-.44l-.24.17c.93.24,1-1.2,1.92-.65l-.17.1c2,.26,4.26-.28,5.81.61.29-.85,2,.37,2.13-.81,1.16.59.83.8,2.46,1.19.43.06.64-.73,1.18-.86v.62L62.56,5l.39.74.51-.16c-.2,0-.43-.28-.4-.45A1.85,1.85,0,0,1,65,5.88l1.86-.52c0,.25-.35.33-.6.49,1-.63.18.65,1.09.07-.12-.14.07-.36.09-.49a3.11,3.11,0,0,0,2.26.22l-.15.43c1.38.1,2.91-.21,4.46-.2a.52.52,0,0,1,0-1l.18.65c.29-.41-.47-.25.13-.74.58.07.39.74.06,1l.7-.23c0,.2-.12.3-.17.55.29-.4,1.22.65,1.64,0l0,.19c1.55,0,2.25-.21,3.51-.25,0-.56.52-.43.9-.89a13.07,13.07,0,0,0,3.07.58c.79-.28.23-.48.59-.82,0,.52,1.17.47.59.84a15,15,0,0,0,3.41-.52c-.18-.21-.39-.3-.28-.48.31-.08.7.22.66.46L89,5.18c1.9-.77,4.39,1.49,5.91.42l-.08.06,1.57-.56c.72.09-.44.38.1.7,1.7-.85,2.68.12,4.08-.44,1.08,1.51,3.84-.11,5.3.85l-.09-.35c.38-.35.46.2.74.28,0-.27-.41-.32-.18-.51,3.2-.43,6.6.52,9.88.84,1.2.1.68-1.84,2.19-1l-.43.66c2.42-.79,5,0,7.32-.65-.14.16-.15.36-.38.35.5.48,1.85,0,1.86-.37.37,0,.09.36.31.56.51.28,1.26-.61,1.53-.14,0,.08-.14.16-.23.2.32-.24,1.52,0,1.21-.5.89.27,1.7-.25,2.41.08.46-.62,1.52.3,1.67-.57-.07.9,1.55.72,2.12.3-.19.27.49.28.27.66.64,0,1.22-.18,1.11-.64,1.18,1.08,2.38-.88,3,.51a45.68,45.68,0,0,1,5.39-1c-.07.91-1.9.09-1.82,1,1.62-.37,2.56-1.14,4.17-.93.42.13-.24.39-.38.55,1.63-.37,3.14.08,4.59-.41,0,.08-.16.18-.31.24.29,0,.67.14.63-.27l-.28.11c-.45-.6,1.14-1.25,1.19-1.56-.49,1.18,1.43.3.66,1.78a.56.56,0,0,0,.38-.55c.27.08.36.24.08.56,1-.23.66-.66,1.58-.65,0,.2-.19.27-.28.51a1.87,1.87,0,0,1,1.72-.61c0,.12,0,.27-.19.27,1.34-.06,2.29-1,3.76-.66-.44.87.5.29.58,1l.79-.23-.32-.36c.69,0,1.31-.53,1.9-.29l-.51.31,1.3-.14-.74-.28c.7-.39-.07-1,.85-.74-.19.08.69,0,1,.45h0a1.21,1.21,0,0,1,1.21-.3c.13.24-.11.82,0,1,.34-.62,1.62-.17,2.05-.84a.8.8,0,0,0-.1.63l.28-.5c.32.16.37.24.32.55,1,.09-.31-.95.84-.54-.09,0-.05.12-.24.19,1.15.22,2.23-.32,3.29-.07.31.75-.93.19-.57.82,1.52-.14,3.16-.9,4.63-.72l-.27-.09c.2-1.06,1.1.53,1.85,0-.19.08-.24.59-.19.47,1,.17,2.06-.26,3.59-.6l-.19.28a13.34,13.34,0,0,0,2.22.26c.19-.27.56-.23.33-.62,2,1.55,3.79-.84,5.55.46-.21,0-.5.23-.33.24l1.49-.26c-.11-.46-.19-.27-.51-.63a1.29,1.29,0,0,1,1-.49c-.68.31,0,.74.3,1-.05-.14.05-.3,0-.44.79.82.13-.93,1.2-.38l-.05.24c.4-.12.77-.44,1.2-.37.18.53-.43.25-.46.69.61,0,1.2-1,1.75-.48-.26.15-.63.15-.89.3a1.3,1.3,0,0,0,1.11.56h0l1,.28-.26-.17c.75-1.39,1.54-.25,2.56-1.16-1,.86-.16.5-.24,1.1.26.17.66.36.55.53.48-.49.8.38,1.49-.33,0,.19.51,0,.4.51.63-.15-.14-.34-.09-.58,1-.67,2.27.8,3.67-.11,1.2-.38,1.42-1,2.53-1.36.38.31-.3.71-.3.71a1.87,1.87,0,0,0,1.63,0c-.11.17,0,.31.18.53.46-.05.31-.71.91-.42a2.66,2.66,0,0,1-.46.78c.54-.18,1.08-.54,1.64-.72.15.34-.34.52-.54.74.63-.15,1.63-.31,1.83-.85l-.41-.19c.23,0,.12.46-.05.56-.54.42-.77-.18-.81-.38l.4-.12c-.41-1.15-1.6.18-2.4.11l.33-.83-.82.69c-.17-.22-.29-.68.1-.8-.57-.42-.51.29-1-.17-.06-.07,0-.11,0-.14l-.56.25c.11-.18-.1-.59.25-.47-1-.48-1.63.62-2,0l.09-.05c-1.4.28-.14.61-1.19,1.33l-.71-1.51-.13.61c-.15,0-.43-.06-.38-.31-.54.42.09.27-.22.66-.7-.55-1.92.26-2.08-.71-.24.46.67.36-.07.68-.21-1-.86.18-1.5-.3.2-.54.8-.26.17-.74-.39.92-1.24-.2-1.78,0,0,.72-1.16.3-2.06.54.06-.24-1.69-.4-2.53-.66l0-.12c-.17.73-1,.59-1.66.75a.82.82,0,0,1,.48-.81h-.59a.91.91,0,0,1-.71.44l.15-.55c-.78,0-1.58.65-2.59.28-.06.52.8,1.43-.27,1.77,0-.27-.07-.75.21-.86-.1,0-.33.23-.52.11l.43-.47c-.46-.2-.24.39-.61.35,0-.39-.27-.28-.22-.59.1,0,.32.16.46,0a1.66,1.66,0,0,1-1.08-.6c0,.22,0,.53-.3.58-.79,0-.27-.47-.73-.68-.19.28-.69,0-.7.59-.23,0-.28-.28-.37-.44-.4.26-1.9.07-1.44.7l.11,0s0,0-.07,0h0c-1.33.58-2.77-.34-4.09-.09V2.19c-.79.22-1.76.13-2.32.56-.23,0-.55-.37-.45-.6-.61.15-.67.37-1.55,0,.61-.34-.2-.3.63-.25-.79-.17-1-.49-1.81.05.29-.5-.59-.63-1-.48l.55.36a4.08,4.08,0,0,1-1.16,0l.2-.67c-1.6-.81-2.89,1.38-4.11,0-.43.47.87.33.49.88-.74-.09-1.51-1-1.74-1-1-.37-.94,1-2,.72a.72.72,0,0,1-.53,1.09c-.74-.08-.91-1-.44-1.18.18,0,.26.05.25.13.24-.08.56-.18.26-.44l-.09.24c-.37-.25-1.39-.22-1.15-.61-.56.23-.24.39.18.51-.95-.34-1.48,0-2.46-.24.16.13.3.41.15.41-1.43-.3-.63.45-1.6.55-.55-.36.19-.86-.78-.56-.6-.24-.13-.63.11-.82-.89.46-1.66-.3-2.17-.39l.47-.19a1.69,1.69,0,0,1-.74.11l.26.48c-.27-.09-.51-.09-.5-.29-.28.31.22.79-.35,1.22-.36-.24-1.11.26-1.24-.37,1.15.21-.13-.64.85-.74a1,1,0,0,1-.69,0c0-.07,0-.13.11-.17-1.1-.56-.51.72-1.65.7.15-.35-.26-.67-.45-.59.46,0,.22.59-.2.86-.74-.28-.8.2-1.18.17l.43.13c-.14.36-.51.31-1,.42,0-.27.46-.19.28-.31-.57.62-1.28-.65-2.07-.22-.37-.25,0-.67-.36-.83-.89.46-1-.49-1.89-.11.27.48.31.36-.34.82l1.53-.33-1,.69c.46,0,1-.3,1.25-.22-.47.39-.42.27-.2.67-.63-.72-1.25.42-2-.07l0-1.18c-1.1-.52-2,.61-3.39.31l.46.21c-.19.47-.88.06-1.34.25,0-.39-.25-.54-.44-.78,0,.29-1.05,0-1.18.76l-.64-.52c-1.15-.21-1.31,1.13-2.42,1,.33-.43-.17-.71.57-1-.37,0-.7-.08-.71.19-.21-.24-1,.53-1.36.16-.16.17-.21.59-.62.55a.23.23,0,0,1,0-.19c0,.19-.65.26-.29.7-1.14-1.23-3.19.09-4.18-1a21.26,21.26,0,0,1-2.51.29c.05-.12,0-.2.14-.15-1-.37-.62,1.13-1.77.72-.59-.64.61-.35.24-.59-.16-1.3-1.39.18-2.16-.58l.19-.08c-.6-.44-1.45.5-2.42.4a.26.26,0,0,0,0-.19,5.73,5.73,0,0,1-2.84,1.06c.29-.5.42-.27.24-.78-.41.07.12.83-.71,1-.27-.28-.87-.52-1-1.07l.79,0c-.41-.71-1,0-1.43-.1l0-.31c-1.2.1-1.22.88-2.51.83l.13.23c-.71.78-.59-.43-1.3.15l-.21-.79a13.87,13.87,0,0,1-2.47.91,6.75,6.75,0,0,1,2.06-1.23c-.47,0-1.57.05-1.81.44.18-.07.42-.27.6-.14a2.83,2.83,0,0,1-2.23.91c.16-1.53-2.41-.39-3.07-1.58-1.63.57-3.24-.24-5.14-.15.68,1.19-.55,0-.43,1.26-.44.08-.61.06-.65,0l-1.34-.73c-.32-.36.42-.27.38-.55-1-.09-.41-.52-1-.84.13.44-.34.63-.89.46l.78.56c-1.35.65-1.17-1-2.54-.38l.44-.38c-.7.22-2.59,0-3.27,1-.13-.14-.29-.47,0-.56-1.67-.15-3.72,1-5,.44l.12-.3c-.31.09-.54.56-.93.26,0-.12.12-.3,0-.32s-.83.53-1.24.35l.35-.33c-1.63-.39-2.5.82-3.87,1,0-.88-1.28-1.17-1.92-1.31l0-.12c-1.9-.11-3.23.73-5,1.07C74.57.48,72,1,70.21.5c.27.16,0,.68-.36.77-.41-.18-1.13.61-1.07-.2l.15,0C68.62.3,67.77.51,67.11.49L67,1.54C65.27,0,62.47,2.11,61.53.73c-.42.27-.94.26-1.35.53l0-.57A11.61,11.61,0,0,0,57,.61L57.33.2c-.8,0-1,1.64-1.76,1.67L55.35,1c-1.41,0-2.83-.73-4.22,0,0-.12.06-.36.29-.4-.66,0-2.56-.57-2.32.59,0-.76-1.45-.07-2.21.26L47,1c-.64.71-.66.91-1.56,1.1-.21-.07-.18-.44.1-.3-.71-.29-.55.53-1.41.23l.32-.35c-.73,0-.67.14-1.07.56a1.23,1.23,0,0,1-1.48-.65c-.1.31-.5.72-.93.58-.06-.19.1-.31.18-.37-1.22-.38-1.81.65-2.65.1a.41.41,0,0,0-.14-.33A9.08,9.08,0,0,1,40,1.6c0-.51-.78-.6-.16-1.31-.62.39-1.69,1.23-2.45,1a.45.45,0,0,1-.1-.18L37.4,1a.59.59,0,0,0-.48.09A1.83,1.83,0,0,0,36.29,1C36.2.55,35.4.74,35,.72c0,.56-.48.47,0,.94-.06,0,.07-.07.33-.09a.67.67,0,0,0,.17-.06l0,.05,1,0c-.31.29-.63.53-1.06.21-.2.37-.42.74-.54.91-.54-.78-1.56-1.21-1.7-1.69-1.19.31-2.8.21-3.55,1.26-.34.14-.39-.3-.51-.47.19-.1.42-.08.53-.24-.68.27-2,.11-2.16.85-.86-.34.47-.68-.7-.56l.16-.23c-2.3-1.18-3.74,1.89-6.29.37.18.09.27.14.3.26-2.91-.67-6,.63-8.86-.43-.82-.21-.9.26-1.4.62l-.18-.61-.85.7C8.43,3,7.55,1,6,2l.2.41c-.55-.08-1.74.24-1.65-.23-.05.07-.18.42-.39.21l0-.32-1.35.55c-1-.23.17-1.26-1.36-1.32-.57.12-1.61.92-1.4,1.13a.64.64,0,0,1,.6.52l-.52.16C0,4-.36,4.94.91,5.6L1.8,5l.29.45-.75,0c.42.42.69,0,1-.21a.77.77,0,0,0,.37.49l.87-.89c.11.37-.39.73.2.93.41-.41-.39-.82.28-1.09.43.42.3.77.8.41a.39.39,0,0,1-.23.5C5.06,5.36,5.79,5.52,6,5c.44.52,1.5-.14,1.45.74a2.24,2.24,0,0,1,1.19-.72c-.74,1,1.52.06,1.33,1.19.55-1,2-.42,3-1,0,.08-.16.23-.25.18.55.08.71.37,1.06.54.08-.78.93-1,1.39-1.44.67.75-.41.92-.2,1.65,0-.64,1.17-.64.94-1.17.52.47.45.23.71.88.09-1,.48-.17.91-.77.74.48.19.92,1,.62C18.91,6.08,18.18,6.43,18.18,6.43Zm19.45-1.7h0l-.4,0Zm1.64,0c-.2,0-.45,0-.71,0-.06-.19,0-.39.17-.38C38.64,4.45,39,4.56,39.27,4.72ZM35.81.83c.26-.08.34,0,.38.14a3.35,3.35,0,0,0-.45.07.21.21,0,0,0,0,.07A.71.71,0,0,1,35.81.83Z"/><path class="cls-1" d="M35.34,1.57l-.1,0a.79.79,0,0,0,.15.12l.09-.17Z"/><path class="cls-1" d="M183.52,2.4h0a.19.19,0,0,1,.07.08S183.54,2.42,183.52,2.4Z"/><polygon class="cls-1" points="61.84 5.8 61.84 5.66 61.69 5.78 61.84 5.8"/><path class="cls-1" d="M192.53,4.33a.24.24,0,0,0,.11.14S192.59,4.38,192.53,4.33Z"/><path class="cls-1" d="M196.41,4.45l.55.21A2.66,2.66,0,0,0,196.41,4.45Z"/><path class="cls-1" d="M199.4,4.73a.84.84,0,0,0,.06-.24h0Z"/><path class="cls-1" d="M151.86,5.39a.35.35,0,0,0-.11,0C151.48,5.53,151.66,5.49,151.86,5.39Z"/><path class="cls-1" d="M166,4.08a3.57,3.57,0,0,1-.45.27C165.81,4.39,166,4.4,166,4.08Z"/><path class="cls-1" d="M136.06,6.07h0Z"/><path class="cls-1" d="M164.9,4.34a.84.84,0,0,0,.66,0A1.14,1.14,0,0,0,164.9,4.34Z"/><path class="cls-1" d="M212.36,5l.15,0s0-.07,0-.09Z"/><path class="cls-1" d="M212.53,4.92l.16-.06C212.61,4.86,212.55,4.86,212.53,4.92Z"/><path class="cls-1" d="M213,4.71l-.33.15C212.8,4.86,213,4.87,213,4.71Z"/><path class="cls-1" d="M208.41,4.73l0,.2A.44.44,0,0,0,208.41,4.73Z"/><path class="cls-1" d="M207.2,4.79c.29,0,.72.43,1.12.31l0-.17C208.17,5.24,207.48,4.44,207.2,4.79Z"/><path class="cls-1" d="M202.18,2.27l1,.16c-.18-.22-.41-.51.05-.56C202,1.22,203.5,2.36,202.18,2.27Z"/><path class="cls-1" d="M199.06,2c.54-.1,0-.31,0-.44C198.74,1.71,198.65,1.76,199.06,2Z"/><path class="cls-1" d="M176.47,2l.06-.51C176.11,1.51,176.52,1.64,176.47,2Z"/><polygon class="cls-1" points="172.15 4.59 172.56 4.91 172.75 4.44 172.15 4.59"/><polygon class="cls-1" points="169.6 0.95 169.78 0.88 169.09 1.06 169.6 0.95"/><path class="cls-1" d="M131.67,1.13l.13.63C132.08,1.65,132.14.94,131.67,1.13Z"/><path class="cls-1" d="M115.29,1.77a.59.59,0,0,0-.92-.2C114.74,1.61,115.11,1.86,115.29,1.77Z"/><polygon class="cls-1" points="66.18 0.75 66.51 0.54 65.89 0.71 66.18 0.75"/></g></g></svg>