<svg xmlns="http://www.w3.org/2000/svg" viewBox="0 0 1417.54 3.24"><defs><style>.cls-1{isolation:isolate;}.cls-2{mix-blend-mode:luminosity;}.cls-3{fill:#987d51;}</style></defs><title>Fichier 19</title><g class="cls-1"><g id="Calque_2" data-name="Calque 2"><g id="Calque_1-2" data-name="Calque 1"><g class="cls-2"><path class="cls-3" d="M.5,1c-.74.09-.32.29,1.73.25L3.69.87Z" transform="translate(-0.16)"/><path class="cls-3" d="M14.33,1.57c2.41-.16,5.2-.45,3.64-.75-2.4.32-3,.19-5.55.56-2.06,0-3.59-.1-3.25-.22-.72.08-3.19-.08-4.3.13a64.56,64.56,0,0,0,9.61.06C15.24,1.42,14.5,1.51,14.33,1.57Z" transform="translate(-0.16)"/><path class="cls-3" d="M215.28,2.08,214,2C214.34,2.07,214.78,2.08,215.28,2.08Z" transform="translate(-0.16)"/><path class="cls-3" d="M339.78,2.26a7,7,0,0,0-1.39.08A6.8,6.8,0,0,0,339.78,2.26Z" transform="translate(-0.16)"/><path class="cls-3" d="M361,2.63l-1.25,0A11,11,0,0,0,361,2.63Z" transform="translate(-0.16)"/><path class="cls-3" d="M215.28,2.08l3.32.11A21.46,21.46,0,0,0,215.28,2.08Z" transform="translate(-0.16)"/><path class="cls-3" d="M42,.77c-.7,0-1.28,0-1.81.09l1.7,0Z" transform="translate(-0.16)"/><path class="cls-3" d="M160.39,2.35h-1l-.84.14Z" transform="translate(-0.16)"/><path class="cls-3" d="M118.27,2.4A3.53,3.53,0,0,0,119.92,2a11.36,11.36,0,0,1-2.08.19C117.83,2.26,118,2.32,118.27,2.4Z" transform="translate(-0.16)"/><path class="cls-3" d="M51.48,1.91,50.29,2Z" transform="translate(-0.16)"/><path class="cls-3" d="M190.54,2.41a1.2,1.2,0,0,0,.38.1S190.77,2.44,190.54,2.41Z" transform="translate(-0.16)"/><path class="cls-3" d="M1368.67.3s0,0,0,0C1368.92.32,1369,.3,1368.67.3Z" transform="translate(-0.16)"/><path class="cls-3" d="M1417.5,1.69l-.68,0c-.07.05-.14.1-.14.15Z" transform="translate(-0.16)"/><path class="cls-3" d="M399.94,3h-.17C398.75,3,399.33,3,399.94,3Z" transform="translate(-0.16)"/><path class="cls-3" d="M757.09,2.78c-4.05-.25,6.58-.32.49-.6C758.15,2.29,752,2.62,757.09,2.78Z" transform="translate(-0.16)"/><path class="cls-3" d="M43.13.81h1.73C44.07.79,43.54.79,43.13.81Z" transform="translate(-0.16)"/><path class="cls-3" d="M757.58,2.18h0l-.63,0Z" transform="translate(-0.16)"/><path class="cls-3" d="M489.58,2.82a6.15,6.15,0,0,0-.91-.12A3.81,3.81,0,0,0,489.58,2.82Z" transform="translate(-0.16)"/><path class="cls-3" d="M422.8,2.42l1.66,0C423.8,2.43,423.27,2.42,422.8,2.42Z" transform="translate(-0.16)"/><path class="cls-3" d="M524.26,2.42c.89,0,1.2.06,2.43,0l-.38,0A14.43,14.43,0,0,1,524.26,2.42Z" transform="translate(-0.16)"/><path class="cls-3" d="M560.34,2.42l-.66,0h-1.15Z" transform="translate(-0.16)"/><path class="cls-3" d="M1259,.44a11.26,11.26,0,0,1,1.66.25C1260.11.49,1265.41.42,1259,.44Z" transform="translate(-0.16)"/><path class="cls-3" d="M42.06.93A3.77,3.77,0,0,1,43.13.81h-1.2C41.82.86,41.8.9,42.06.93Z" transform="translate(-0.16)"/><path class="cls-3" d="M525.72.21l5.74,0C529.85.22,527.77.21,525.72.21Z" transform="translate(-0.16)"/><path class="cls-3" d="M1000.09.48l1.32,0A12.77,12.77,0,0,0,1000.09.48Z" transform="translate(-0.16)"/><path class="cls-3" d="M548.47.21c1,.1,2.11.15,3.23.19.24,0,.51,0,.67-.07Z" transform="translate(-0.16)"/><path class="cls-3" d="M1260.68.69h0Z" transform="translate(-0.16)"/><path class="cls-3" d="M1298.44,0c-5.46,0-2.56.36-3.72.58-6.52.1-3-.28-5.24-.46-4.07.09-7.19.43-10.23.42-.23-.06-.82-.08-.13-.16-4.3.29-12.77,0-17.79.38a3.37,3.37,0,0,1-.65-.09c.81.19.93.37.77.51-2.45,0-4.55.23-5.47,0a11.53,11.53,0,0,0,2.33-.17l-2.57.11c-2.31-.35,3.51-.12,3.51-.38-5,.11-10.84.4-14.68.3-.8-.34,9-.11,3.85-.41l5.94.13c-4.54-.54,3.6,0-.56-.54-7.81-.1-8.74.17-16.53.08-1.75.18.58.27-1.17.46-11.07.34-8.71-.85-16.85-.4a35.9,35.9,0,0,1-8.72.43l2-.38c-7.56,0-4.31.55-12.23.29,1.41-.15,5.94-.13,4.8-.17-5.13-.31-3.63.22-7.57.22l-.82-.34c-8,0-16.91.29-25.83.36.49-.1,2-.21-.06-.32-11.25.17-24,0-34.85-.24l-4.14.3c-1,0-1.79-.14-.74-.19-4.23-.12-.22.18-2.25.3-2.41,0-3.18-.17-1.66-.26-7.45.25-21.24.54-29.1.22l1.53-.09c-6.12-.11-6.9.61-12.58.33l1.09,0c-13.28-.13-27.95.14-38.09-.3-1.92.42-13.14-.19-14,.4-7.59-.29-5.42-.4-16.1-.59-2.85,0-4.25.36-7.77.43l-.09-.31-4.79.32-2.54-.37-3.31.08a9.11,9.11,0,0,1,2.6.23A112.91,112.91,0,0,1,991.29.3L979.06.56A36.11,36.11,0,0,1,983,.31c-6.52.32-1.18-.32-7.16,0,.8.07-.44.19-.57.25-3-.19-9.77-.19-14.79-.11l1-.21c-9.07-.06-19.11.1-29.29.1,3.65.1,2.81.46-.17.5L930.8.47c-1.93.21,3.11.13-.84.37-3.8,0-2.56-.37-.38-.47L925,.48c-.27-.1.82-.15,1.1-.27-1.9.2-8-.33-10.71,0l-.26-.1C904.91.13,900.3.24,892,.26c-.17.28-3.41.22-5.88.45C880.06.62,873.3.4,866,.42c-5.15.14-1.5.24-3.82.4-.38-.25-7.71-.23-3.91-.41-8.8,0-11.24.05-22.38.26,1.21.1,2.57.15,1.86.24a18.4,18.4,0,0,1-4.3-.23l.53,0c-12.5.38-28.85-.75-38.8-.21l.55,0L785.37.69c-4.75,0,2.85-.19-.66-.35-11.14.42-17.6-.07-26.77.22-7.09-.76-25.18,0-34.76-.43l.55.18a33.64,33.64,0,0,1-4.82-.14c.26.13,2.69.16,1.15.25-21,.22-43.29-.26-64.8-.42-7.86,0-4.46.92-14.37.5L643.7.17c-15.87.39-32.46,0-48,.32a15.12,15.12,0,0,1,2.47-.17A97.93,97.93,0,0,0,586,.5c-2.42,0-.56-.18-2.05-.28-3.29-.14-8.26.31-10,.07a8.07,8.07,0,0,1,1.53-.1c-2.15.12-10,0-7.94.25-5.83-.13-11.16.12-15.81,0-3,.31-10-.15-11,.29.42-.45-10.22-.37-13.91-.15,1.24-.14-3.2-.14-1.76-.33-4.2,0-8.06.09-7.33.32C510,0,502.17,1,497.81.27c-12.5.24-24.07.41-35.32.51.41-.45,12.43,0,11.95-.51-10.67.18-16.82.57-27.4.46-2.74-.06,1.56-.2,2.48-.27-10.65.18-20.6,0-30.08.2a18,18,0,0,1,2-.12c-1.87,0-4.34-.07-4.13.14l1.82-.06c3,.3-7.42.62-7.76.78,3.18-.59-9.36-.15-4.32-.89-1.23,0-2.78.14-2.5.27-1.82,0-2.4-.12-.55-.27-6.69.11-4.31.33-10.38.32A18.77,18.77,0,0,1,395.5.58c-3.07.19-6.15.39-11.28.3.31-.06-.28-.14,1.25-.13-8.81,0-15,.51-24.66.32,2.84-.43-3.29-.14-3.8-.51l-5.19.11,2.08.18c-4.55,0-8.57.27-12.48.15L344.8.84l-8.52.07,4.82.14c-4.6.2.5.48-5.56.37,1.23,0-4.55,0-6.92-.22h0c-2.25.12-4.57.24-7.93.15-.87-.12.7-.41.13-.49-2.22.31-10.65.08-13.46.41.94-.07,1-.27.68-.31l-1.86.25c-2.11-.08-2.42-.12-2.08-.27-6.33,0,2,.47-5.51.27.59,0,.31-.06,1.54-.1-7.55-.11-14.59.16-21.54,0-2-.38,6.07-.1,3.73-.41-10,.07-20.73.45-30.42.36l1.81,0c-1.34.53-7.21-.26-12.11,0,1.2,0,1.57-.3,1.25-.24-6.64-.08-13.57.13-23.62.3l1.25-.14C216.59.93,210.21,1,206,.92c-1.25.14-3.67.12-2.2.31C190.76.46,179,1.65,167.4,1c1.38,0,3.29-.12,2.19-.12L159.75,1a20.32,20.32,0,0,0,3.36.32c-1.25.14-4,.24-6.47.24,4.43-.15,0-.37-1.94-.5.32.07-.34.15-.18.22-5.14-.41-.86.47-7.88.19l.37-.12c-2.62.06-5,.22-7.87.19-1.18-.27,2.79-.13,3-.35-4,0-7.85.51-11.45.24,1.69-.07,4.12-.07,5.81-.15-3.92-.31-4.37-.23-7.29-.28h.29L122.73.87l1.72.09c-5,.7-10.14.13-16.84.58,6.51-.43,1.07-.25,1.57-.55-1.71-.08-4.31-.18-3.57-.26-3.17.24-5.29-.2-9.77.16-.2-.1-3.39,0-2.67-.25-4.12.07,1,.17.63.29-6.36.33-14.93-.4-24.07,0-7.88.19-9.34.52-16.65.68-2.47-.15,2-.35,2-.35-4-.15-7-.12-10.72,0,.76-.08,0-.15-1.17-.26-3,0-2,.35-6,.21a27,27,0,0,1,3-.39c-3.55.09-7,.27-10.72.36-1-.17,2.21-.26,3.51-.37-4.13.07-10.7.15-12,.42l2.65.1c-1.51,0-.78-.24.33-.28,3.54-.22,5.11.09,5.31.19l-2.62.06c2.69.57,10.51-.09,15.77-.06L40.3,1.7l5.4-.35c1.14.11,1.93.34-.67.4,3.77.21,3.34-.14,6.58.09.36,0,.2,0-.13.07l3.69-.13c-.73.09.61.3-1.65.24,6.62.24,10.67-.31,13.16,0l-.55,0c9.18-.14.89-.31,7.78-.67l4.63.76.91-.31c.94,0,2.82,0,2.47.16,3.53-.21-.6-.14,1.45-.33,4.56.27,12.57-.13,13.6.35,1.64-.23-4.36-.18.51-.34,1.39.53,5.63-.09,9.79.15-1.28.27-5.22.13-1.06.37,2.52-.46,8.12.1,11.63,0,.17-.36,7.64-.15,13.54-.27-.37.12,11.1.2,16.58.33l-.16.06C148.86,2,154.52,2,158.64,2c-.16.22-.9.31-3.13.4h3.87A43,43,0,0,1,164,2.13l-1,.27c5.16,0,10.38-.32,17-.14.37-.25-5.28-.71,1.74-.88.26.14.51.38-1.32.43.6,0,2.14-.11,3.35-.05L181,2c3,.1,1.58-.19,4-.17-.05.19,1.79.14,1.44.29-.62,0-2.11-.08-3,0,2.72,0,6,.15,7.1.3-.24-.11,0-.26,2-.29,5.16,0,1.77.24,4.78.34,1.25-.14,4.53,0,4.62-.29a10.48,10.48,0,0,1,2.37.22c2.67-.13,12.46,0,9.46-.35l-.69,0,.44,0h0c8.74-.29,18.17.17,26.84,0v.1c5.18-.11,11.53-.06,15.23-.28,1.53,0,3.61.18,3,.3,4-.07,4.4-.18,10.12,0-4,.17,1.37.15-4.08.13,5.15.08,6.31.24,11.83,0-1.88.25,3.88.32,6.32.24l-3.6-.18c2.75,0,5.15,0,7.6,0l-1.32.33c10.52.41,19-.69,27,0,2.78-.23-5.72-.16-3.23-.44,4.84.05,9.89.53,11.4.53,6.64.18,6.19-.49,13.14-.36-.89-.12-1.73-.44,3.46-.55,4.85,0,5.95.5,2.9.59a7.13,7.13,0,0,1-1.68-.06c-1.56,0-3.62.09-1.7.22l.63-.12c2.4.12,9.07.11,7.5.3,3.67-.11,1.57-.19-1.14-.25,6.21.17,9.71,0,16.11.12-1-.07-2-.21-.94-.21,9.38.15,4.13-.22,10.49-.27,3.61.18-1.3.43,5.1.28,3.91.12.83.31-.72.41C379.55,2.59,384.61,3,388,3l-3.08.1c1.84-.06,3.34-.06,4.88-.06L388,2.81a22.55,22.55,0,0,1,3.3.15c1.86-.16-1.42-.4,2.27-.61,2.4.12,7.32-.13,8.15.18-7.56-.1.83.32-5.57.37,1.24,0,2.74,0,4.55,0,.27,0-.25.06-.75.08,7.24.28,3.33-.36,10.83-.35-.95.18,1.74.34,3,.3-3,0-1.44-.3,1.33-.43,4.81.14,5.23-.11,7.74-.09l-2.87-.06c1-.18,3.38-.16,6.73-.21.29.13-3,.09-1.85.15,3.72-.31,8.41.32,13.6.11,2.41.12.24.34,2.35.42,5.81-.23,6.3.24,12.41,0-1.76-.24-2.07-.18,2.24-.41l-10.06.17,6.45-.35c-3,0-6.4.15-8.21.11,3.07-.19,2.75-.14,1.3-.33,4.15.35,8.23-.21,13,0l-.15.59C465,3,470.59,2.39,480,2.54l-3-.11c1.26-.23,5.79,0,8.82-.12-.28.19,1.61.26,2.91.39-.16-.15,6.85,0,7.71-.38l4.18.26c7.56.1,8.63-.57,15.9-.5-2.19.22,1.11.36-3.76.51a32.15,32.15,0,0,0,4.65-.1c1.42.12,6.73-.27,9-.08a24,24,0,0,1,4.09-.27c.29,0,0,.09,0,.09s4.26-.13,1.88-.35c7.48.62,20.9,0,27.41.49,5.3-.07,11.68-.13,16.49-.15-.31.06,0,.1-.93.08,6.64.18,4.08-.57,11.63-.36,3.86.32-4,.17-1.6.29,1,.65,9.11-.09,14.19.29l-1.23,0c3.88.22,9.47-.25,15.81-.2,0,0-.3.06,0,.1,4.34-.33,12.55-.44,18.65-.53-1.9.25-2.77.13-1.61.39,2.73,0-.8-.42,4.66-.49,1.77.14,5.71.26,6.24.54h-5.16c2.64.36,6.67,0,9.39.05l-.35.16c7.89,0,8-.45,16.49-.42l-.88-.12c4.64-.38,3.89.22,8.51-.07l1.4.4c3.06-.1,10.72-.38,16.21-.46-3.11.3-9.53.45-13.51.62,3,0,10.31,0,11.89-.22-1.22,0-2.76.13-4,.07,3.72-.31,8.62-.46,14.66-.46-1.07.77,15.75.2,20.14.79,10.69-.28,21.2.12,33.66.08-4.42-.6,3.64,0,2.87-.63,2.9,0,4,0,4.27,0l8.79.36c2.08.18-2.76.14-2.49.28,6.35,0,2.66.25,6.86.42-.86-.22,2.21-.32,5.83-.23l-5.1-.28c8.88-.33,7.68.51,16.62.19l-2.83.19c4.6-.11,16.94,0,21.44-.49.81.07,1.89.24-.13.28,11,.08,24.42-.52,33-.22l-.83.15c2,0,3.56-.28,6.12-.13-.13.06-.82.15.13.16s5.43-.26,8.15-.17l-2.32.16c10.7.2,16.42-.41,25.4-.51,0,.44,8.4.58,12.6.66l-.15.06c12.47,0,21.17-.37,32.71-.54,7.17.48,24.27.2,35.78.47-1.76-.08.29-.34,2.34-.39,2.7.09,7.47-.3,7,.1h-1c2,.4,7.58.29,11.92.3l.72-.52c11.34.76,29.71-.29,35.9.4,2.74-.13,6.13-.13,8.84-.26l-.15.28c7.59.07,11.37.11,20.74,0l-1.91.2c5.29,0,6.68-.81,11.55-.83l1.47.42c9.22,0,18.56.37,27.67,0a5.07,5.07,0,0,1-1.91.2c4.34,0,16.79.28,15.22-.3.1.38,9.51,0,14.49-.13l-.77.28a101.21,101.21,0,0,1,10.21-.55c1.39,0,1.22.22-.63.15,4.63.15,3.61-.26,9.23-.11l-2.09.17a47.82,47.82,0,0,0,7-.28,71,71,0,0,1,9.76.32,35.69,35.69,0,0,1,6.06-.28c.38.09-.64.15-1.15.18,8,.19,11.86-.32,17.34,0a2.34,2.34,0,0,0,.93.17c-6.34,0-11.44,0-11,0,0,.25,5.11.3,1,.65,4.11-.19,11.14-.61,16.13-.49a5.56,5.56,0,0,1,.66.09l-.52,0c1.15,0,2.18,0,3.15-.05,1.59.05,2.61.08,4.13.08.59.21,5.87.12,8.43.13-.22-.28,3.13-.24,0-.47a15.88,15.88,0,0,1-2.18,0l-1.09,0,.17,0-6.34,0a49.43,49.43,0,0,1,6.94-.11c1.31-.18,2.75-.37,3.57-.45,3.49.39,10.22.6,11.16.84,7.79-.16,18.36-.1,23.26-.63a14.23,14.23,0,0,1,3.37.23c-1.28.06-2.8.05-3.49.13,4.43-.14,13.13-.06,14.18-.43,5.59.17-3.14.34,4.54.28l-1,.12c15.1.59,24.54-.95,41.27-.19a16,16,0,0,1-2-.13c19.08.34,39.31-.31,58.14.22a78.21,78.21,0,0,0,9.19-.31l1.16.3,5.59-.35c7.91-.25,13.71.74,23.73.26l-1.29-.2c3.6,0,11.4-.12,10.8.11a11.37,11.37,0,0,1,2.59-.1l.11.15,8.84-.27c6.86.12-1.07.63,8.94.66,3.71-.06,10.59-.46,9.19-.56a20.25,20.25,0,0,1-3.95-.26l3.4-.08c.62-.47,3.24-.95-5.11-1.27l-5.82.28L1404,.5l4.9,0a39.68,39.68,0,0,0-6.51.11A12.83,12.83,0,0,0,1400,.34l-5.71.44c-.69-.18,2.56-.36-1.27-.46-2.68.21,2.56.41-1.87.55a22.31,22.31,0,0,0-5.23-.21c-.46-.12.23-.19,1.53-.25-2.91.15-7.7.07-9.2.31-2.9-.26-9.82.07-9.53-.37-.92.11-5.12.35-7.8.36,4.88-.52-10,0-8.7-.59-3.62.47-13,.21-19.45.47a12.33,12.33,0,0,1,1.63-.09c-3.6,0-4.65-.18-7-.27-.46.39-6.07.48-9.09.72-4.42-.38,2.68-.46,1.29-.82.22.32-7.67.32-6.17.58a26.7,26.7,0,0,1-4.64-.44c-.59.49-3.14.09-5.94.39-4.89-.24-1.26-.46-6.63-.31C1293.67.2,1298.44,0,1298.44,0Zm-127.6.85h2.63Zm-10.73,0c1.31,0,2.93,0,4.65,0,.38.09,0,.19-1.11.19A30.06,30.06,0,0,0,1160.11.87Zm22.68,1.95a11.89,11.89,0,0,1-2.49-.07l3,0,.2,0A2.55,2.55,0,0,1,1182.79,2.82Z" transform="translate(-0.16)"/><path class="cls-3" d="M1185.85,2.45l.7,0-1-.06-.6.09Z" transform="translate(-0.16)"/><path class="cls-3" d="M213.76,2H214a4.61,4.61,0,0,1-.47,0Z" transform="translate(-0.16)"/><polygon class="cls-3" points="1011.88 0.34 1011.89 0.41 1012.83 0.35 1011.88 0.34"/><path class="cls-3" d="M154.7,1.07a6.49,6.49,0,0,0-.78-.07A7.4,7.4,0,0,0,154.7,1.07Z" transform="translate(-0.16)"/><path class="cls-3" d="M129.18,1l-3.61-.1C127.14,1,128.27,1,129.18,1Z" transform="translate(-0.16)"/><path class="cls-3" d="M109.57.87a1.47,1.47,0,0,0-.39.12h0Z" transform="translate(-0.16)"/><path class="cls-3" d="M421.45.54h.76C424,.47,422.78.49,421.45.54Z" transform="translate(-0.16)"/><path class="cls-3" d="M328.64,1.2l3-.14A9.85,9.85,0,0,0,328.64,1.2Z" transform="translate(-0.16)"/><path class="cls-3" d="M525.09.2h0Z" transform="translate(-0.16)"/><path class="cls-3" d="M335.94,1.07c-1.65-.06-3-.05-4.32,0C333,1.08,334.57,1.11,335.94,1.07Z" transform="translate(-0.16)"/><path class="cls-3" d="M24.55.74H23.6s0,0-.11.05Z" transform="translate(-0.16)"/><path class="cls-3" d="M23.49.78l-1,0A8.83,8.83,0,0,0,23.49.78Z" transform="translate(-0.16)"/><path class="cls-3" d="M20.23.88,22.44.81A18.35,18.35,0,0,0,20.23.88Z" transform="translate(-0.16)"/><path class="cls-3" d="M50.52.87l.29-.1C50.65.79,50.55.82,50.52.87Z" transform="translate(-0.16)"/><path class="cls-3" d="M58.41.84c-1.88,0-4.73-.21-7.35-.15l-.25.08C52.05.62,56.62,1,58.41.84Z" transform="translate(-0.16)"/><path class="cls-3" d="M91.34,2.1,84.73,2c1.16.11,2.68.26-.33.28C92.74,2.63,82.68,2.06,91.34,2.1Z" transform="translate(-0.16)"/><path class="cls-3" d="M111.85,2.26c-3.55.05,0,.16-.15.22C114,2.38,114.5,2.36,111.85,2.26Z" transform="translate(-0.16)"/><path class="cls-3" d="M260,2.26l-.36.26C262.4,2.48,259.69,2.42,260,2.26Z" transform="translate(-0.16)"/><polygon class="cls-3" points="288.19 0.94 285.52 0.78 284.25 1.01 288.19 0.94"/><polygon class="cls-3" points="304.92 2.76 303.72 2.8 308.29 2.71 304.92 2.76"/><path class="cls-3" d="M553.92,2.67l-.82-.31C551.25,2.41,550.86,2.77,553.92,2.67Z" transform="translate(-0.16)"/><path class="cls-3" d="M661.35,2.35a36.75,36.75,0,0,0,6.06.1C665,2.43,662.58,2.31,661.35,2.35Z" transform="translate(-0.16)"/><polygon class="cls-3" points="983.39 2.86 981.23 2.97 985.3 2.88 983.39 2.86"/></g></g></g></g></svg>