<svg xmlns="http://www.w3.org/2000/svg" viewBox="0 0 32.01 23.46"><defs><style>.cls-1{fill:#d7be9a;}</style></defs><title>Fichier 9</title><g id="Calque_2" data-name="Calque 2"><g id="Calque_1-2" data-name="Calque 1"><path class="cls-1" d="M32.38,1.73c0-.06,0-.21,0-.18l0,.25Z" transform="translate(-0.37)"/><path class="cls-1" d="M32.07,1.27a1,1,0,0,0-.09.56c.06-.24.07-.14.13-.42,0,0,.08.08.07.17,0-.07.08,0,.1-.1s-.14-.21-.22-.05A.42.42,0,0,1,32.07,1.27Z" transform="translate(-0.37)"/><path class="cls-1" d="M27.53.88l0,0S27.54.88,27.53.88Z" transform="translate(-0.37)"/><path class="cls-1" d="M24.72.74a.06.06,0,0,0,0-.06S24.71.72,24.72.74Z" transform="translate(-0.37)"/><path class="cls-1" d="M24.24.46l0,0S24.24.44,24.24.46Z" transform="translate(-0.37)"/><path class="cls-1" d="M27.53.88,27.45.8C27.45.88,27.49.86,27.53.88Z" transform="translate(-0.37)"/><path class="cls-1" d="M31.44,1.87a.09.09,0,0,0,0-.06.05.05,0,0,1,0,0Z" transform="translate(-0.37)"/><path class="cls-1" d="M28.77.67h0s0-.06,0-.1Z" transform="translate(-0.37)"/><path class="cls-1" d="M29.72.63a1.25,1.25,0,0,0,0,.3.25.25,0,0,1,.05-.15A.92.92,0,0,0,29.72.63Z" transform="translate(-0.37)"/><path class="cls-1" d="M31.23,1l0,0S31.24,1,31.23,1Z" transform="translate(-0.37)"/><path class="cls-1" d="M28.09.63s0-.06,0-.08A.22.22,0,0,0,28.09.63Z" transform="translate(-0.37)"/><path class="cls-1" d="M1.48,2.23v0S1.47,2.23,1.48,2.23Z" transform="translate(-0.37)"/><path class="cls-1" d="M.38,1.17h0A.49.49,0,0,0,.4,1Z" transform="translate(-0.37)"/><path class="cls-1" d="M23.36.19h0S23.37.17,23.36.19Z" transform="translate(-0.37)"/><path class="cls-1" d="M15.29.34c.09.2-.15.25,0,.46C15.27.72,15.41.47,15.29.34Z" transform="translate(-0.37)"/><path class="cls-1" d="M31.42,1.84h0Z" transform="translate(-0.37)"/><path class="cls-1" d="M15.28.8h0l0,0Z" transform="translate(-0.37)"/><path class="cls-1" d="M21.33.32l0,.09A.92.92,0,0,0,21.33.32Z" transform="translate(-0.37)"/><path class="cls-1" d="M22.84.62l0,0S22.83.62,22.84.62Z" transform="translate(-0.37)"/><path class="cls-1" d="M20.55.62s0-.05-.05,0v0S20.53.58,20.55.62Z" transform="translate(-0.37)"/><path class="cls-1" d="M19.74.62s0,0,0,0h0Z" transform="translate(-0.37)"/><path class="cls-1" d="M4,2.13a1.18,1.18,0,0,1,0-.2C3.93,2.09,3.81,2.14,4,2.13Z" transform="translate(-0.37)"/><path class="cls-1" d="M31.44,1.75c0,.06,0,.08,0,.09h0A.11.11,0,0,0,31.44,1.75Z" transform="translate(-0.37)"/><path class="cls-1" d="M20.52,2.3l-.13,0A.25.25,0,0,0,20.52,2.3Z" transform="translate(-0.37)"/><path class="cls-1" d="M9.81,2.09l0,0S9.8,2.12,9.81,2.09Z" transform="translate(-0.37)"/><path class="cls-1" d="M20,2.3a.3.3,0,0,0-.07-.15s0,0,0,.06Z" transform="translate(-0.37)"/><path class="cls-1" d="M3.92,1.93Z" transform="translate(-0.37)"/><path class="cls-1" d="M3.07,2.44c.12,0,.06-.28.08-.44s.07.21.12.35c.09-.07.16-.33.23-.32a.17.17,0,0,1,0,.12c.1-.22.29,0,.41-.29,0,0,0,0,0,.07a2.69,2.69,0,0,1,0-.38c.06,0,.11-.18.13,0,0,0,0,.07-.06.13L4,1.6c0,.26-.08.09-.08.29.12-.09.25-.31.33-.23,0,.25-.2.08-.08.31l-.14-.1c.11.41-.08,0,0,.41.17.07.19-.13.37-.06,0-.14,0-.21,0-.35.25-.26.19.65.38.3,0-.17.06-.49.19-.32l0,.29c.17,0,.1-.42.27-.22,0,.11-.13.09-.1.13.11.23.08-.17.17-.17l0,.26c.18,0,.38-.23.58-.27,0,.07,0,.15,0,.23.25-.13.54,0,.79.19l.09-.23a.18.18,0,0,1,0,.15c.09.08,0-.14.05-.23s.07.13,0,.19c.16-.18.48-.4.65-.16l0,.06c.14.09.15-.45.28-.25l0,0c.3.1.63-.1.86.23,0-.32.3.14.31-.3.18.22.13.3.37.45.06,0,.09-.28.17-.33v.24l.1-.25.06.28.08-.06A.19.19,0,0,1,9.72,2c.11-.11.28.16.28.28l.28-.2a.34.34,0,0,1-.09.19c.15-.24,0,.25.16,0a.58.58,0,0,1,0-.19.23.23,0,0,0,.33.08l0,.16c.2.05.43-.07.66-.07-.08-.08-.06-.35,0-.38l0,.25c0-.16-.07-.1,0-.28.09,0,.06.28,0,.36l.1-.09c0,.08,0,.11,0,.21,0-.16.18.25.24,0v.07a3.74,3.74,0,0,0,.52-.09c0-.22.07-.17.13-.34.14.07.29.23.45.22s0-.18.09-.31c0,.19.18.18.09.32a1,1,0,0,0,.5-.2c0-.08,0-.12,0-.18s.11.08.1.17V2c.28-.29.65.57.87.16v0l.23-.21c.11,0-.06.15,0,.27.25-.32.4,0,.6-.17.16.57.57,0,.79.33V2.22c.05-.13.06.08.11.11s-.07-.12,0-.2c.47-.16,1,.2,1.46.32.18,0,.1-.69.33-.37l-.07.25c.36-.3.74,0,1.09-.25,0,.06,0,.14-.06.14.08.18.28,0,.28-.14s0,.13,0,.21.19-.24.23-.06c0,0,0,.06,0,.08s.22,0,.17-.19c.14.1.26-.09.36,0,.07-.23.23.11.25-.22,0,.35.23.28.31.12,0,.1.08.1,0,.25.1,0,.18-.07.17-.25.17.41.35-.33.45.2a3.26,3.26,0,0,1,.8-.39c0,.34-.28,0-.27.39.24-.14.38-.43.61-.35.07.05,0,.15-.05.21.24-.14.46,0,.68-.16a.24.24,0,0,1-.05.1c.05,0,.1.05.1-.11l0,0c-.07-.22.16-.47.17-.59-.07.45.21.11.1.68a.28.28,0,0,0,.05-.21c.05,0,.06.09,0,.21.15-.09.09-.25.23-.25a1.77,1.77,0,0,1,0,.2c.07-.15.14-.3.25-.23s0,.1,0,.1c.19,0,.33-.39.55-.25-.06.33.08.11.09.39L24.45,2l-.05-.14c.1,0,.19-.2.28-.11l-.08.12.2-.06-.11-.1c.1-.15,0-.36.12-.28s.11,0,.16.17h0c.05-.09.1-.19.18-.12s0,.32,0,.38c.06-.24.25-.07.31-.32a1.1,1.1,0,0,0,0,.24l.05-.2a.28.28,0,0,1,0,.21c.15,0,0-.36.13-.2,0,0,0,0,0,.07.17.08.33-.12.49,0,0,.28-.14.07-.09.31.23-.06.47-.35.69-.28l0,0c0-.4.16.2.27,0,0,0,0,.22,0,.18s.3-.1.53-.23l0,.11c.09.09.23.05.33.1,0-.11.08-.09.05-.24.29.59.56-.32.82.17,0,0-.07.09-.05.09l.22-.09c0-.18,0-.11-.07-.24s.09-.19.14-.19c-.1.12,0,.28,0,.38a1,1,0,0,1,0-.17c.12.32,0-.35.18-.14v.09c.06,0,.11-.17.18-.14,0,.2-.06.1-.07.26.09,0,.18-.38.26-.18s-.09.06-.13.11c.09.24.1.18.16.22h0l.15.11,0-.06c.11-.53.23-.1.38-.45-.15.33,0,.19,0,.42,0,.07.1.14.09.2.07-.18.12.15.22-.12,0,.07.07,0,.06.19.09-.06,0-.13,0-.22.15-.25.34.31.55,0,.17-.14.21-.39.37-.52a.31.31,0,0,1,0,.27c.09.11.15.09.24,0a.36.36,0,0,0,0,.2c.07,0,.05-.27.14-.16s0,.21-.07.3c.08-.07.16-.21.24-.28,0,.13,0,.2-.08.28a.41.41,0,0,0,.28-.32l-.06-.07s0,.17,0,.21-.12-.07-.12-.14l.06-.05c-.06-.43-.24.07-.36,0l.05-.31-.12.26c0-.08-.05-.26,0-.31s-.07.12-.15-.06a.07.07,0,0,1,0-.05l-.09.09c0-.06,0-.22,0-.17-.15-.19-.24.23-.3,0l0,0c-.21.11,0,.23-.18.51l-.1-.57,0,.23A.1.1,0,0,1,30.54,1c-.08.16,0,.1,0,.25-.11-.21-.29.1-.31-.27,0,.17.1.13,0,.26,0-.4-.13.06-.22-.12s.12-.09,0-.28c0,.35-.18-.07-.26,0,0,.28-.17.12-.31.21,0-.09-.25-.15-.37-.25V.69c0,.28-.15.23-.24.29a.47.47,0,0,1,.07-.31h-.09a.24.24,0,0,1-.1.17l0-.21c-.12,0-.24.25-.39.11,0,.19.12.54,0,.67,0-.11,0-.29,0-.33s0,.09-.07,0L28.3,1c-.07-.08,0,.14-.09.13s0-.11,0-.23.05.06.07,0a.3.3,0,0,1-.16-.22c0,.08,0,.2-.05.22s0-.18-.11-.26c0,.1-.1,0-.1.22,0,0,0-.11,0-.17-.06.1-.28,0-.22.27l0,0h0c-.2.22-.41-.13-.61,0V.83c-.11.09-.26.05-.34.21,0,0-.08-.14-.07-.22s-.1.14-.23,0c.09-.13,0-.11.1-.09-.12-.07-.15-.19-.27,0,0-.2-.09-.25-.14-.19l.08.14a.2.2,0,0,1-.17,0l0-.25c-.24-.31-.43.52-.61,0-.07.18.12.12.07.33-.11,0-.22-.4-.26-.4s-.14.37-.3.28c0,.09,0,.33-.07.41S24.64.7,24.71.63s0,0,0,.05a.13.13,0,0,0,0-.17l0,.09c-.05-.09-.2-.08-.17-.23-.08.09,0,.15,0,.2-.14-.13-.22,0-.36-.09,0,.05,0,.15,0,.15-.22-.11-.1.17-.24.21-.08-.13,0-.33-.12-.21-.08-.09,0-.24,0-.31-.13.17-.25-.12-.32-.15L23.7.1a.14.14,0,0,1-.11,0l0,.18s-.08,0-.08-.11c0,.12,0,.3-.05.46-.05-.09-.16.1-.18-.14.17.08,0-.24.12-.27,0,0-.06,0-.1,0a.08.08,0,0,1,0-.06c-.16-.22-.08.27-.25.26,0-.13,0-.25-.06-.22s0,.22,0,.32c-.11-.1-.12.08-.18.07l.07.05c0,.13-.08.12-.15.16s.06-.07,0-.12c-.09.24-.19-.25-.31-.09,0-.09,0-.25,0-.31-.13.17-.15-.19-.28,0,0,.18,0,.14-.05.31l.22-.13-.14.27c.07,0,.14-.12.18-.09s-.06.11,0,.26c-.09-.27-.18.16-.29,0V.41c-.16-.2-.29.23-.5.12l.07.08c0,.18-.13,0-.2.1a.75.75,0,0,0-.06-.3c0,.11-.16,0-.18.29L21.09.5c-.17-.08-.2.43-.36.38.05-.17,0-.27.08-.39,0,0-.1,0-.1.08,0-.1-.15.2-.21.06,0,.06,0,.22-.09.21V.76c0,.08-.09.1,0,.27-.17-.47-.47,0-.62-.37a1.4,1.4,0,0,1-.37.11s0-.07,0-.06c-.15-.14-.09.43-.26.28s.09-.14,0-.23c0-.49-.2.07-.32-.22l0,0c-.09-.16-.21.19-.36.16a.2.2,0,0,0,0-.08.68.68,0,0,1-.42.4c0-.19.07-.1,0-.29-.06,0,0,.31-.11.37a1.2,1.2,0,0,1-.14-.41H18c-.06-.27-.15,0-.21,0V.49c-.18,0-.18.34-.38.32l0,.09c-.1.29-.08-.17-.19,0l0-.3a1.79,1.79,0,0,1-.37.35,1.47,1.47,0,0,1,.31-.47A.26.26,0,0,0,16.9.7S17,.6,17,.64c-.08.24-.2.35-.33.35,0-.58-.36-.15-.46-.6C16,.61,15.72.3,15.44.33c.1.46-.08,0-.06.48-.07,0-.09,0-.1,0l-.2-.27c0-.14.07-.11.06-.21S15.08.12,15,0c0,.17-.05.24-.14.17L15,.39c-.2.24-.17-.39-.38-.15L14.66.1c-.11.08-.39,0-.49.37,0-.06,0-.18,0-.22-.25,0-.56.4-.75.17l0-.11s-.08.21-.14.1,0-.12,0-.12-.12.19-.18.13l0-.13c-.24-.15-.37.31-.58.39a.53.53,0,0,0-.28-.5v0c-.28-.05-.47.27-.74.4-.16-.36-.54-.15-.8-.35a.33.33,0,0,1-.06.29c-.06-.07-.16.23-.16-.07h0c-.05-.3-.18-.22-.27-.23l0,.41C10,0,9.63.8,9.49.28c-.06.1-.14.1-.2.2V.26a.71.71,0,0,0-.46,0l0-.15c-.12,0-.15.62-.26.63l0-.32c-.2,0-.41-.28-.62,0,0,0,0-.14,0-.15S7.61,0,7.65.47c0-.28-.22,0-.33.1l0-.21c-.1.27-.1.34-.23.42s0-.17,0-.12C7,.55,7,.86,6.91.75L7,.62c-.11,0-.1.05-.16.21s-.2,0-.22-.24c0,.11-.07.27-.13.21a.26.26,0,0,1,0-.14C6.29.52,6.2.91,6.08.7a.25.25,0,0,0,0-.12c.14,0,.26,0,.25,0,0-.2-.12-.23,0-.5C6.19.26,6,.58,5.92.48s0,0,0-.06l0,0s0,0-.08,0,0-.06-.09-.06c0-.16-.13-.09-.19-.1,0,.22-.07.18,0,.36,0,0,0,0,.05,0l0,0v0h.14c0,.1-.09.2-.15.08,0,.13-.06.28-.08.34C5.46.7,5.31.54,5.29.36c-.18.12-.42.08-.53.48,0,.05-.06-.12-.08-.18s.07,0,.08-.09c-.1.1-.29,0-.32.32-.12-.13.07-.26-.1-.21l0-.09c-.34-.44-.55.72-.93.14a.19.19,0,0,1,0,.1C3,.58,2.59,1.07,2.16.67,2,.59,2,.76,2,.9l0-.23L1.8.94c-.18.19-.31-.57-.53-.2l0,.15C1.21.86,1,1,1.05.81,1,.84,1,1,1,.89V.77L.79,1C.64.89.82.5.59.47A.7.7,0,0,0,.38.9s.09.08.09.2l-.08.06c0,.35-.07.72.12,1l.13-.21,0,.17H.57c.07.16.11,0,.15-.08a.38.38,0,0,0,.06.19L.9,1.86c0,.14-.05.27,0,.35C1,2.05.88,1.9,1,1.8,1,2,1,2.09,1.09,2a.26.26,0,0,1,0,.19c.06-.11.17-.05.21-.23.06.2.22,0,.21.28,0-.08.12-.26.18-.28-.11.4.22,0,.19.46.09-.36.3-.16.44-.36,0,0,0,.08,0,.06s.1.14.15.21c0-.3.14-.36.21-.55.1.29-.06.35,0,.63,0-.24.17-.24.14-.44a.64.64,0,0,1,.1.33c0-.37.08-.06.14-.29.11.18,0,.35.15.23A.26.26,0,0,1,3.07,2.44ZM6,1.8Zm.24,0h-.1c0-.07,0-.15,0-.14S6.16,1.73,6.19,1.79ZM5.68.31s.05,0,.06.06L5.67.4v0S5.67.34,5.68.31Z" transform="translate(-0.37)"/><path class="cls-1" d="M5.61.59a0,0,0,0,1,0,0l0,.05V.59Z" transform="translate(-0.37)"/><path class="cls-1" d="M27.56.91h0a0,0,0,0,1,0,0A0,0,0,0,0,27.56.91Z" transform="translate(-0.37)"/><polygon class="cls-1" points="9.16 2.2 9.16 2.15 9.14 2.19 9.16 2.2"/><path class="cls-1" d="M28.9,1.64a.13.13,0,0,0,0,.06A.13.13,0,0,0,28.9,1.64Z" transform="translate(-0.37)"/><path class="cls-1" d="M29.47,1.69l.08.08A.19.19,0,0,0,29.47,1.69Z" transform="translate(-0.37)"/><path class="cls-1" d="M29.92,1.8V1.7h0Z" transform="translate(-0.37)"/><path class="cls-1" d="M22.87,2.05a0,0,0,0,0,0,0Z" transform="translate(-0.37)"/><path class="cls-1" d="M25,1.55a.86.86,0,0,1-.07.1S25,1.67,25,1.55Z" transform="translate(-0.37)"/><path class="cls-1" d="M20.53,2.3Z" transform="translate(-0.37)"/><path class="cls-1" d="M24.8,1.64c0,.05.07,0,.1,0S24.83,1.61,24.8,1.64Z" transform="translate(-0.37)"/><path class="cls-1" d="M31.84,1.89h0v0Z" transform="translate(-0.37)"/><path class="cls-1" d="M31.86,1.87l0,0S31.86,1.84,31.86,1.87Z" transform="translate(-0.37)"/><path class="cls-1" d="M31.93,1.79l-.05.05S31.92,1.85,31.93,1.79Z" transform="translate(-0.37)"/><path class="cls-1" d="M31.25,1.79v.08A.17.17,0,0,0,31.25,1.79Z" transform="translate(-0.37)"/><path class="cls-1" d="M31.07,1.82s.11.16.17.11V1.87C31.22,2,31.11,1.69,31.07,1.82Z" transform="translate(-0.37)"/><path class="cls-1" d="M30.33.86l.15.06c0-.08-.06-.19,0-.21C30.3.46,30.52.89,30.33.86Z" transform="translate(-0.37)"/><path class="cls-1" d="M29.86.74c.08,0,0-.12,0-.17S29.8.67,29.86.74Z" transform="translate(-0.37)"/><path class="cls-1" d="M26.52.74V.55C26.46.57,26.53.62,26.52.74Z" transform="translate(-0.37)"/><polygon class="cls-1" points="25.5 1.74 25.56 1.86 25.59 1.69 25.5 1.74"/><polygon class="cls-1" points="25.13 0.36 25.15 0.33 25.05 0.4 25.13 0.36"/><path class="cls-1" d="M19.88.43l0,.24S20,.36,19.88.43Z" transform="translate(-0.37)"/><path class="cls-1" d="M17.46.67c0-.12-.1-.19-.14-.08S17.43.7,17.46.67Z" transform="translate(-0.37)"/><polygon class="cls-1" points="9.8 0.28 9.85 0.2 9.76 0.27 9.8 0.28"/><path class="cls-1" d="M32.38,12.23c0-.06,0-.21,0-.18l0,.25Z" transform="translate(-0.37)"/><path class="cls-1" d="M32.07,11.77a1,1,0,0,0-.09.56c.06-.24.07-.14.13-.42,0,0,.08.08.07.17,0-.07.08.05.1-.1s-.14-.21-.22-.05A.42.42,0,0,1,32.07,11.77Z" transform="translate(-0.37)"/><path class="cls-1" d="M27.53,11.38l0,0S27.54,11.38,27.53,11.38Z" transform="translate(-0.37)"/><path class="cls-1" d="M24.72,11.24a.06.06,0,0,0,0-.06S24.71,11.22,24.72,11.24Z" transform="translate(-0.37)"/><path class="cls-1" d="M24.24,11l0,0S24.24,10.94,24.24,11Z" transform="translate(-0.37)"/><path class="cls-1" d="M27.53,11.38l-.08-.08C27.45,11.38,27.49,11.36,27.53,11.38Z" transform="translate(-0.37)"/><path class="cls-1" d="M31.44,12.37a.09.09,0,0,0,0-.06l0,0Z" transform="translate(-0.37)"/><path class="cls-1" d="M28.77,11.17h0s0-.06,0-.1Z" transform="translate(-0.37)"/><path class="cls-1" d="M29.72,11.13a1.25,1.25,0,0,0,0,.3.25.25,0,0,1,.05-.15A.92.92,0,0,0,29.72,11.13Z" transform="translate(-0.37)"/><path class="cls-1" d="M31.23,11.51l0,0Z" transform="translate(-0.37)"/><path class="cls-1" d="M28.09,11.13s0-.06,0-.08A.22.22,0,0,0,28.09,11.13Z" transform="translate(-0.37)"/><path class="cls-1" d="M1.48,12.73v0S1.47,12.73,1.48,12.73Z" transform="translate(-0.37)"/><path class="cls-1" d="M.38,11.67h0a.49.49,0,0,0,0-.12Z" transform="translate(-0.37)"/><path class="cls-1" d="M23.36,10.69h0S23.37,10.67,23.36,10.69Z" transform="translate(-0.37)"/><path class="cls-1" d="M15.29,10.84c.09.2-.15.25,0,.46C15.27,11.22,15.41,11,15.29,10.84Z" transform="translate(-0.37)"/><path class="cls-1" d="M31.42,12.34h0Z" transform="translate(-0.37)"/><path class="cls-1" d="M15.28,11.3h0l0,0Z" transform="translate(-0.37)"/><path class="cls-1" d="M21.33,10.82l0,.09A.92.92,0,0,0,21.33,10.82Z" transform="translate(-0.37)"/><path class="cls-1" d="M22.84,11.12l0,0S22.83,11.12,22.84,11.12Z" transform="translate(-0.37)"/><path class="cls-1" d="M20.55,11.12s0,0-.05,0v0S20.53,11.08,20.55,11.12Z" transform="translate(-0.37)"/><path class="cls-1" d="M19.74,11.12s0,0,0,0h0Z" transform="translate(-0.37)"/><path class="cls-1" d="M4,12.63a1.18,1.18,0,0,1,0-.2C3.93,12.59,3.81,12.64,4,12.63Z" transform="translate(-0.37)"/><path class="cls-1" d="M31.44,12.25c0,.06,0,.08,0,.09h0A.11.11,0,0,0,31.44,12.25Z" transform="translate(-0.37)"/><path class="cls-1" d="M20.52,12.8l-.13,0A.25.25,0,0,0,20.52,12.8Z" transform="translate(-0.37)"/><path class="cls-1" d="M9.81,12.59l0,0S9.8,12.62,9.81,12.59Z" transform="translate(-0.37)"/><path class="cls-1" d="M20,12.8a.3.3,0,0,0-.07-.15s0,0,0,.06Z" transform="translate(-0.37)"/><path class="cls-1" d="M3.92,12.43Z" transform="translate(-0.37)"/><path class="cls-1" d="M3.07,12.94c.12,0,.06-.28.08-.44s.07.21.12.35c.09-.07.16-.33.23-.32a.17.17,0,0,1,0,.12c.1-.22.29,0,.41-.29,0,0,0,.05,0,.07a2.69,2.69,0,0,1,0-.38c.06,0,.11-.18.13,0,0,0,0,.07-.06.13L4,12.1c0,.26-.08.09-.08.29.12-.09.25-.31.33-.23,0,.25-.2.08-.08.31l-.14-.1c.11.41-.08,0,0,.41.17.07.19-.13.37-.06,0-.14,0-.21,0-.35.25-.26.19.65.38.3,0-.17.06-.49.19-.32l0,.29c.17,0,.1-.42.27-.22,0,.11-.13.09-.1.13.11.23.08-.17.17-.17l0,.26c.18,0,.38-.23.58-.27,0,.07,0,.15,0,.23.25-.13.54,0,.79.19l.09-.23a.18.18,0,0,1,0,.15c.09.08,0-.14.05-.23s.07.13,0,.19c.16-.18.48-.4.65-.16l0,.06c.14.09.15-.45.28-.25l0,0c.3.1.63-.1.86.23,0-.32.3.14.31-.3.18.22.13.3.37.45.06,0,.09-.28.17-.33v.24l.1-.25.06.28.08-.06a.19.19,0,0,1-.06-.17c.11-.11.28.16.28.28l.28-.2a.34.34,0,0,1-.09.19c.15-.24,0,.25.16,0a.58.58,0,0,1,0-.19.23.23,0,0,0,.33.08l0,.16c.2,0,.43-.07.66-.07-.08-.08-.06-.35,0-.38l0,.25c0-.16-.07-.1,0-.28.09,0,.06.28,0,.36l.1-.09c0,.08,0,.11,0,.21,0-.16.18.25.24,0v.07a3.74,3.74,0,0,0,.52-.09c0-.22.07-.17.13-.34.14.07.29.23.45.22s0-.18.09-.31c0,.19.18.18.09.32a1,1,0,0,0,.5-.2c0-.08,0-.12,0-.18s.11.08.1.17v0c.28-.29.65.57.87.16v0l.23-.21c.11,0-.06.15,0,.27.25-.32.4.05.6-.17.16.57.57,0,.79.33v-.14c.05-.13.06.08.11.11s-.07-.12,0-.2c.47-.16,1,.2,1.46.32.18,0,.1-.69.33-.37l-.07.25c.36-.3.74,0,1.09-.25,0,.06,0,.14-.06.14.08.18.28,0,.28-.14.05,0,0,.13,0,.21s.19-.24.23-.06c0,0,0,.06,0,.08s.22,0,.17-.19c.14.1.26-.09.36,0,.07-.23.23.11.25-.22,0,.35.23.28.31.12,0,.1.08.1,0,.25.1,0,.18-.07.17-.25.17.41.35-.33.45.2a3.26,3.26,0,0,1,.8-.39c0,.34-.28,0-.27.39.24-.14.38-.43.61-.35.07,0,0,.15-.05.21.24-.14.46,0,.68-.16a.24.24,0,0,1-.05.1c.05,0,.1,0,.1-.11l0,0c-.07-.22.16-.47.17-.59-.07.45.21.11.1.68a.28.28,0,0,0,.05-.21c.05,0,.06.09,0,.21.15-.09.09-.25.23-.25a1.77,1.77,0,0,1,0,.2c.07-.15.14-.3.25-.23s0,.1,0,.1c.19,0,.33-.39.55-.25-.06.33.08.11.09.39l.12-.08-.05-.14c.1,0,.19-.2.28-.11l-.08.12.2-.06-.11-.1c.1-.15,0-.36.12-.28s.11,0,.16.17h0c.05-.09.1-.19.18-.12s0,.32,0,.38c.06-.24.25-.07.31-.32a1.1,1.1,0,0,0,0,.24l.05-.2a.28.28,0,0,1,0,.21c.15,0,0-.36.13-.2,0,0,0,0,0,.07.17.08.33-.12.49,0,0,.28-.14.07-.09.31.23-.06.47-.35.69-.28l0,0c0-.4.16.2.27,0,0,0,0,.22,0,.18s.3-.1.53-.23l0,.11c.09.09.23.05.33.1,0-.11.08-.09.05-.24.29.59.56-.32.82.17,0,0-.07.09-.05.09l.22-.09c0-.18,0-.11-.07-.24s.09-.19.14-.19c-.1.12,0,.28,0,.38a1,1,0,0,1,0-.17c.12.32,0-.35.18-.14v.09c.06,0,.11-.17.18-.14,0,.2-.06.1-.07.26.09,0,.18-.38.26-.18s-.09.06-.13.11c.09.24.1.18.16.22h0l.15.11,0-.06c.11-.53.23-.1.38-.45-.15.33,0,.19,0,.42,0,.07.1.14.09.2.07-.18.12.15.22-.12,0,.07.07,0,.06.19.09-.06,0-.13,0-.22.15-.25.34.31.55,0,.17-.14.21-.39.37-.52a.31.31,0,0,1,0,.27c.09.11.15.09.24,0a.36.36,0,0,0,0,.2c.07,0,.05-.27.14-.16s0,.21-.07.3c.08-.07.16-.21.24-.28,0,.13,0,.2-.08.28a.41.41,0,0,0,.28-.32l-.06-.07s0,.17,0,.21-.12-.07-.12-.14l.06-.05c-.06-.43-.24.07-.36,0l.05-.31-.12.26c0-.08-.05-.26,0-.31s-.07.12-.15-.06a.07.07,0,0,1,0-.05l-.09.09c0-.06,0-.22,0-.17-.15-.19-.24.23-.3,0l0,0c-.21.11,0,.23-.18.51l-.1-.57,0,.23a.1.1,0,0,1-.06-.12c-.08.16,0,.1,0,.25-.11-.21-.29.1-.31-.27,0,.17.1.13,0,.26,0-.4-.13.06-.22-.12s.12-.09,0-.28c0,.35-.18-.07-.26,0,0,.28-.17.12-.31.21,0-.09-.25-.15-.37-.25v-.05c0,.28-.15.23-.24.29a.47.47,0,0,1,.07-.31h-.09a.24.24,0,0,1-.1.17l0-.21c-.12,0-.24.25-.39.11,0,.19.12.54,0,.67,0-.11,0-.29,0-.33s0,.09-.07,0l.06-.17c-.07-.08,0,.14-.09.13s0-.11,0-.23.05.06.07,0a.3.3,0,0,1-.16-.22c0,.08,0,.2-.05.22s0-.18-.11-.26c0,.1-.1,0-.1.22,0,0,0-.11,0-.17-.06.1-.28,0-.22.27l0,0h0c-.2.22-.41-.13-.61,0v-.07c-.11.09-.26.05-.34.21,0,0-.08-.14-.07-.22s-.1.14-.23,0c.09-.13,0-.11.1-.09-.12-.07-.15-.19-.27,0,0-.2-.09-.25-.14-.19l.08.14a.2.2,0,0,1-.17,0L26,11c-.24-.31-.43.52-.61,0-.07.18.12.12.07.33-.11,0-.22-.4-.26-.4s-.14.37-.3.28c0,.09,0,.33-.07.41s-.14-.38-.07-.45,0,0,0,0a.13.13,0,0,0,0-.17l0,.09c-.05-.09-.2-.08-.17-.23-.08.09,0,.15,0,.2-.14-.13-.22,0-.36-.09,0,0,0,.15,0,.15-.22-.11-.1.17-.24.21-.08-.13,0-.33-.12-.21-.08-.09,0-.24,0-.31-.13.17-.25-.12-.32-.15l.07-.07a.14.14,0,0,1-.11,0l0,.18s-.08,0-.08-.11c0,.12,0,.3-.05.46-.05-.09-.16.1-.18-.14.17.08,0-.24.12-.27,0,0-.06,0-.1,0a.08.08,0,0,1,0-.06c-.16-.22-.08.27-.25.26,0-.13,0-.25-.06-.22s0,.22,0,.32c-.11-.1-.12.08-.18.07l.07.05c0,.13-.08.12-.15.16,0-.11.06-.07,0-.12-.09.24-.19-.25-.31-.09,0-.09,0-.25,0-.31-.13.17-.15-.19-.28,0,0,.18,0,.14-.05.31l.22-.13-.14.27c.07,0,.14-.12.18-.09s-.06.11,0,.26c-.09-.27-.18.16-.29,0v-.45c-.16-.2-.29.23-.5.12l.07.08c0,.18-.13,0-.2.1a.75.75,0,0,0-.06-.3c0,.11-.16,0-.18.29l-.09-.2c-.17-.08-.2.43-.36.38.05-.17,0-.27.08-.39,0,0-.1,0-.1.08,0-.1-.15.2-.21.06,0,.06,0,.22-.09.21v-.08c0,.08-.09.1,0,.27-.17-.47-.47,0-.62-.37a1.4,1.4,0,0,1-.37.11s0-.07,0-.06c-.15-.14-.09.43-.26.28s.09-.14,0-.23c0-.49-.2.07-.32-.22l0,0c-.09-.16-.21.19-.36.16a.2.2,0,0,0,0-.08.68.68,0,0,1-.42.4c0-.19.07-.1,0-.29-.06,0,0,.31-.11.37a1.2,1.2,0,0,1-.14-.41H18c-.06-.27-.15,0-.21,0V11c-.18,0-.18.34-.38.32l0,.09c-.1.29-.08-.17-.19,0l0-.3a1.79,1.79,0,0,1-.37.35,1.47,1.47,0,0,1,.31-.47.26.26,0,0,0-.27.17s.06-.1.09-.06c-.08.24-.2.35-.33.35,0-.58-.36-.15-.46-.6-.24.22-.48-.09-.76-.06.1.46-.08,0-.06.48-.07,0-.09,0-.1,0l-.2-.27c0-.14.07-.11.06-.21s-.06-.2-.15-.32c0,.17-.05.24-.14.17l.12.22c-.2.24-.17-.39-.38-.15l.07-.14c-.11.08-.39,0-.49.37,0-.06,0-.18,0-.22-.25-.05-.56.4-.75.17l0-.11s-.08.21-.14.1,0-.12,0-.12-.12.19-.18.13l0-.13c-.24-.15-.37.31-.58.39a.53.53,0,0,0-.28-.5v0c-.28-.05-.47.27-.74.4-.16-.36-.54-.15-.8-.35a.33.33,0,0,1-.06.29c-.06-.07-.16.23-.16-.07h0c-.05-.3-.18-.22-.27-.23l0,.41c-.26-.59-.67.21-.81-.31-.06.1-.14.1-.2.2v-.22a.71.71,0,0,0-.46,0l0-.15c-.12,0-.15.62-.26.63l0-.32c-.2,0-.41-.28-.62,0,0,0,0-.14,0-.15s-.38-.22-.34.22c0-.28-.22,0-.33.1l0-.21c-.1.27-.1.34-.23.42s0-.17,0-.12c-.1-.11-.08.2-.21.09l0-.13c-.11,0-.1.05-.16.21s-.2-.05-.22-.24c0,.11-.07.27-.13.21a.26.26,0,0,1,0-.14c-.18-.14-.27.25-.39,0a.25.25,0,0,0,0-.12c.14,0,.26,0,.25,0,0-.2-.12-.23,0-.5-.09.15-.25.47-.36.37s0,0,0-.06l0,0s0,0-.08,0,0-.06-.09-.06c0-.16-.13-.09-.19-.1,0,.22-.07.18,0,.36,0,0,0,0,.05,0l0,0v0h.14c0,.1-.09.2-.15.08,0,.13-.06.28-.08.34-.08-.3-.23-.46-.25-.64-.18.12-.42.08-.53.48,0,.05-.06-.12-.08-.18s.07,0,.08-.09c-.1.1-.29,0-.32.32-.12-.13.07-.26-.1-.21l0-.09c-.34-.44-.55.72-.93.14a.19.19,0,0,1,0,.1c-.44-.25-.89.24-1.32-.16-.12-.08-.13.09-.2.23l0-.23-.13.27c-.18.19-.31-.57-.53-.2l0,.15c-.09,0-.26.1-.25-.08,0,0,0,.16-.06.08v-.12l-.2.2c-.15-.08,0-.47-.2-.5a.7.7,0,0,0-.21.43s.09.08.09.2l-.08.06c0,.35-.07.72.12,1l.13-.21,0,.17H.57c.07.16.11,0,.15-.08a.38.38,0,0,0,.06.19l.12-.34c0,.14-.05.27,0,.35.06-.16-.05-.31,0-.41.06.16,0,.29.11.15a.26.26,0,0,1,0,.19c.06-.11.17-.05.21-.23.06.2.22-.05.21.28,0-.08.12-.26.18-.28-.11.4.22,0,.19.46.09-.36.3-.16.44-.36,0,0,0,.08,0,.06s.1.14.15.21c0-.3.14-.36.21-.55.1.29-.06.35,0,.63,0-.24.17-.24.14-.44a.64.64,0,0,1,.1.33c0-.37.08-.06.14-.29.11.18,0,.35.15.23A.26.26,0,0,1,3.07,12.94ZM6,12.3Zm.24,0h-.1c0-.07,0-.15,0-.14S6.16,12.23,6.19,12.29Zm-.51-1.48s.05,0,.06.06l-.07,0v0S5.67,10.84,5.68,10.81Z" transform="translate(-0.37)"/><path class="cls-1" d="M5.61,11.09l0,0,0,.05v-.07Z" transform="translate(-0.37)"/><path class="cls-1" d="M27.56,11.41h0a0,0,0,0,1,0,0A0,0,0,0,0,27.56,11.41Z" transform="translate(-0.37)"/><polygon class="cls-1" points="9.16 12.7 9.16 12.65 9.14 12.69 9.16 12.7"/><path class="cls-1" d="M28.9,12.14a.13.13,0,0,0,0,.06A.13.13,0,0,0,28.9,12.14Z" transform="translate(-0.37)"/><path class="cls-1" d="M29.47,12.19l.08.08A.19.19,0,0,0,29.47,12.19Z" transform="translate(-0.37)"/><path class="cls-1" d="M29.92,12.3v-.1h0Z" transform="translate(-0.37)"/><path class="cls-1" d="M22.87,12.55h0Z" transform="translate(-0.37)"/><path class="cls-1" d="M25,12.05a.86.86,0,0,1-.07.1S25,12.17,25,12.05Z" transform="translate(-0.37)"/><path class="cls-1" d="M20.53,12.8Z" transform="translate(-0.37)"/><path class="cls-1" d="M24.8,12.14s.07,0,.1,0S24.83,12.11,24.8,12.14Z" transform="translate(-0.37)"/><path class="cls-1" d="M31.84,12.39h0v0Z" transform="translate(-0.37)"/><path class="cls-1" d="M31.86,12.37l0,0S31.86,12.34,31.86,12.37Z" transform="translate(-0.37)"/><path class="cls-1" d="M31.93,12.29l-.05.05S31.92,12.35,31.93,12.29Z" transform="translate(-0.37)"/><path class="cls-1" d="M31.25,12.29v.08A.17.17,0,0,0,31.25,12.29Z" transform="translate(-0.37)"/><path class="cls-1" d="M31.07,12.32s.11.16.17.11v-.06C31.22,12.49,31.11,12.19,31.07,12.32Z" transform="translate(-0.37)"/><path class="cls-1" d="M30.33,11.36l.15.06c0-.08-.06-.19,0-.21C30.3,11,30.52,11.39,30.33,11.36Z" transform="translate(-0.37)"/><path class="cls-1" d="M29.86,11.24c.08,0,0-.12,0-.17S29.8,11.17,29.86,11.24Z" transform="translate(-0.37)"/><path class="cls-1" d="M26.52,11.24v-.19C26.46,11.07,26.53,11.12,26.52,11.24Z" transform="translate(-0.37)"/><polygon class="cls-1" points="25.5 12.24 25.56 12.36 25.59 12.19 25.5 12.24"/><polygon class="cls-1" points="25.13 10.86 25.15 10.83 25.05 10.9 25.13 10.86"/><path class="cls-1" d="M19.88,10.93l0,.24S20,10.86,19.88,10.93Z" transform="translate(-0.37)"/><path class="cls-1" d="M17.46,11.17c0-.12-.1-.19-.14-.08S17.43,11.2,17.46,11.17Z" transform="translate(-0.37)"/><polygon class="cls-1" points="9.8 10.78 9.85 10.7 9.76 10.77 9.8 10.78"/><path class="cls-1" d="M32.38,22.73c0-.06,0-.21,0-.18l0,.25Z" transform="translate(-0.37)"/><path class="cls-1" d="M32.07,22.27a1,1,0,0,0-.09.56c.06-.24.07-.14.13-.42,0,0,.08.08.07.17,0-.07.08.05.1-.1s-.14-.21-.22-.05A.42.42,0,0,1,32.07,22.27Z" transform="translate(-0.37)"/><path class="cls-1" d="M27.53,21.88l0,0S27.54,21.88,27.53,21.88Z" transform="translate(-0.37)"/><path class="cls-1" d="M24.72,21.74a.06.06,0,0,0,0-.06S24.71,21.72,24.72,21.74Z" transform="translate(-0.37)"/><path class="cls-1" d="M24.24,21.46l0,0S24.24,21.44,24.24,21.46Z" transform="translate(-0.37)"/><path class="cls-1" d="M27.53,21.88l-.08-.08C27.45,21.88,27.49,21.86,27.53,21.88Z" transform="translate(-0.37)"/><path class="cls-1" d="M31.44,22.87a.09.09,0,0,0,0-.06l0,0Z" transform="translate(-0.37)"/><path class="cls-1" d="M28.77,21.67h0s0-.06,0-.1Z" transform="translate(-0.37)"/><path class="cls-1" d="M29.72,21.63a1.25,1.25,0,0,0,0,.3.25.25,0,0,1,.05-.15A.92.92,0,0,0,29.72,21.63Z" transform="translate(-0.37)"/><path class="cls-1" d="M31.23,22l0,0Z" transform="translate(-0.37)"/><path class="cls-1" d="M28.09,21.63s0-.06,0-.08A.22.22,0,0,0,28.09,21.63Z" transform="translate(-0.37)"/><path class="cls-1" d="M1.48,23.23v0S1.47,23.23,1.48,23.23Z" transform="translate(-0.37)"/><path class="cls-1" d="M.38,22.17h0A.49.49,0,0,0,.4,22Z" transform="translate(-0.37)"/><path class="cls-1" d="M23.36,21.19h0S23.37,21.17,23.36,21.19Z" transform="translate(-0.37)"/><path class="cls-1" d="M15.29,21.34c.09.2-.15.25,0,.46C15.27,21.72,15.41,21.47,15.29,21.34Z" transform="translate(-0.37)"/><path class="cls-1" d="M31.42,22.84h0Z" transform="translate(-0.37)"/><path class="cls-1" d="M15.28,21.8h0l0,0Z" transform="translate(-0.37)"/><path class="cls-1" d="M21.33,21.32l0,.09A.92.92,0,0,0,21.33,21.32Z" transform="translate(-0.37)"/><path class="cls-1" d="M22.84,21.62l0,0S22.83,21.62,22.84,21.62Z" transform="translate(-0.37)"/><path class="cls-1" d="M20.55,21.62s0-.05-.05,0v0S20.53,21.58,20.55,21.62Z" transform="translate(-0.37)"/><path class="cls-1" d="M19.74,21.62s0,0,0,0h0Z" transform="translate(-0.37)"/><path class="cls-1" d="M4,23.13a1.18,1.18,0,0,1,0-.2C3.93,23.09,3.81,23.14,4,23.13Z" transform="translate(-0.37)"/><path class="cls-1" d="M31.44,22.75c0,.06,0,.08,0,.09h0A.11.11,0,0,0,31.44,22.75Z" transform="translate(-0.37)"/><path class="cls-1" d="M20.52,23.3l-.13,0A.25.25,0,0,0,20.52,23.3Z" transform="translate(-0.37)"/><path class="cls-1" d="M9.81,23.09l0,0S9.8,23.12,9.81,23.09Z" transform="translate(-0.37)"/><path class="cls-1" d="M20,23.3a.3.3,0,0,0-.07-.15s0,0,0,.06Z" transform="translate(-0.37)"/><path class="cls-1" d="M3.92,22.93Z" transform="translate(-0.37)"/><path class="cls-1" d="M3.07,23.44c.12,0,.06-.28.08-.44s.07.21.12.35c.09-.07.16-.33.23-.32a.17.17,0,0,1,0,.12c.1-.22.29,0,.41-.29,0,0,0,.05,0,.07a2.69,2.69,0,0,1,0-.38c.06,0,.11-.18.13,0,0,0,0,.07-.06.13L4,22.6c0,.26-.08.09-.08.29.12-.09.25-.31.33-.23,0,.25-.2.08-.08.31l-.14-.1c.11.41-.08,0,0,.41.17.07.19-.13.37-.06,0-.14,0-.21,0-.35.25-.26.19.65.38.3,0-.17.06-.49.19-.32l0,.29c.17,0,.1-.42.27-.22,0,.11-.13.09-.1.13.11.23.08-.17.17-.17l0,.26c.18,0,.38-.23.58-.27,0,.07,0,.15,0,.23.25-.13.54,0,.79.19l.09-.23a.18.18,0,0,1,0,.15c.09.08,0-.14.05-.23s.07.13,0,.19c.16-.18.48-.4.65-.16l0,.06c.14.09.15-.45.28-.25l0,0c.3.1.63-.1.86.23,0-.32.3.14.31-.3.18.22.13.3.37.45.06,0,.09-.28.17-.33v.24l.1-.25.06.28.08-.06A.19.19,0,0,1,9.72,23c.11-.11.28.16.28.28l.28-.2a.34.34,0,0,1-.09.19c.15-.24,0,.25.16,0a.58.58,0,0,1,0-.19.23.23,0,0,0,.33.08l0,.16c.2.05.43-.07.66-.07-.08-.08-.06-.35,0-.38l0,.25c0-.16-.07-.1,0-.28.09,0,.06.28,0,.36l.1-.09c0,.08,0,.11,0,.21,0-.16.18.25.24,0v.07a3.74,3.74,0,0,0,.52-.09c0-.22.07-.17.13-.34.14.07.29.23.45.22s0-.18.09-.31c0,.19.18.18.09.32a1,1,0,0,0,.5-.2c0-.08,0-.12,0-.18s.11.08.1.17v0c.28-.29.65.57.87.16v0l.23-.21c.11,0-.06.15,0,.27.25-.32.4.05.6-.17.16.57.57,0,.79.33v-.14c.05-.13.06.08.11.11s-.07-.12,0-.2c.47-.16,1,.2,1.46.32.18,0,.1-.69.33-.37l-.07.25c.36-.3.74,0,1.09-.25,0,.06,0,.14-.06.14.08.18.28,0,.28-.14.05,0,0,.13,0,.21s.19-.24.23-.06,0,.06,0,.08.22,0,.17-.19c.14.1.26-.09.36,0,.07-.23.23.11.25-.22,0,.35.23.28.31.12,0,.1.08.1,0,.25.1,0,.18-.07.17-.25.17.41.35-.33.45.2a3.26,3.26,0,0,1,.8-.39c0,.34-.28,0-.27.39.24-.14.38-.43.61-.35.07.05,0,.15-.05.21.24-.14.46,0,.68-.16a.24.24,0,0,1-.05.1c.05,0,.1.05.1-.11l0,0c-.07-.22.16-.47.17-.59-.07.45.21.11.1.68a.28.28,0,0,0,.05-.21c.05,0,.06.09,0,.21.15-.09.09-.25.23-.25a1.77,1.77,0,0,1,0,.2c.07-.15.14-.3.25-.23s0,.1,0,.1c.19,0,.33-.39.55-.25-.06.33.08.11.09.39l.12-.08-.05-.14c.1,0,.19-.2.28-.11l-.08.12.2-.06-.11-.1c.1-.15,0-.36.12-.28s.11,0,.16.17h0c.05-.09.1-.19.18-.12s0,.32,0,.38c.06-.24.25-.07.31-.32a1.1,1.1,0,0,0,0,.24l.05-.2a.28.28,0,0,1,0,.21c.15,0,0-.36.13-.2,0,0,0,0,0,.07.17.08.33-.12.49,0,0,.28-.14.07-.09.31.23-.06.47-.35.69-.28l0,0c0-.4.16.2.27,0,0,0,0,.22,0,.18s.3-.1.53-.23l0,.11c.09.09.23.05.33.1,0-.11.08-.09.05-.24.29.59.56-.32.82.17,0,0-.07.09-.05.09l.22-.09c0-.18,0-.11-.07-.24s.09-.19.14-.19c-.1.12,0,.28,0,.38a1,1,0,0,1,0-.17c.12.32,0-.35.18-.14v.09c.06,0,.11-.17.18-.14,0,.2-.06.1-.07.26.09,0,.18-.38.26-.18s-.09.06-.13.11c.09.24.1.18.16.22h0l.15.11,0-.06c.11-.53.23-.1.38-.45-.15.33,0,.19,0,.42,0,.07.1.14.09.2.07-.18.12.15.22-.12,0,.07.07,0,.06.19.09-.06,0-.13,0-.22.15-.25.34.31.55,0,.17-.14.21-.39.37-.52a.31.31,0,0,1,0,.27c.09.11.15.09.24,0a.36.36,0,0,0,0,.2c.07,0,.05-.27.14-.16s0,.21-.07.3c.08-.07.16-.21.24-.28,0,.13,0,.2-.08.28a.41.41,0,0,0,.28-.32l-.06-.07s0,.17,0,.21-.12-.07-.12-.14l.06,0c-.06-.43-.24.07-.36,0l.05-.31-.12.26c0-.08-.05-.26,0-.31s-.07.12-.15-.06a.07.07,0,0,1,0,0l-.09.09c0-.06,0-.22,0-.17-.15-.19-.24.23-.3,0l0,0c-.21.11,0,.23-.18.51l-.1-.57,0,.23a.1.1,0,0,1-.06-.12c-.08.16,0,.1,0,.25-.11-.21-.29.1-.31-.27,0,.17.1.13,0,.26,0-.4-.13.06-.22-.12s.12-.09,0-.28c0,.35-.18-.07-.26,0,0,.28-.17.12-.31.21,0-.09-.25-.15-.37-.25v0c0,.28-.15.23-.24.29a.47.47,0,0,1,.07-.31h-.09a.24.24,0,0,1-.1.17l0-.21c-.12,0-.24.25-.39.11,0,.19.12.54,0,.67,0-.11,0-.29,0-.33s0,.09-.07,0L28.3,22c-.07-.08,0,.14-.09.13s0-.11,0-.23.05.06.07,0a.3.3,0,0,1-.16-.22c0,.08,0,.2-.05.22s0-.18-.11-.26c0,.1-.1,0-.1.22,0,0,0-.11,0-.17-.06.1-.28,0-.22.27l0,0h0c-.2.22-.41-.13-.61,0v-.07c-.11.09-.26.05-.34.21,0,0-.08-.14-.07-.22s-.1.14-.23,0c.09-.13,0-.11.1-.09-.12-.07-.15-.19-.27,0,0-.2-.09-.25-.14-.19l.08.14a.2.2,0,0,1-.17,0l0-.25c-.24-.31-.43.52-.61,0-.07.18.12.12.07.33-.11,0-.22-.4-.26-.4s-.14.37-.3.28c0,.09,0,.33-.07.41s-.14-.38-.07-.45,0,0,0,.05a.13.13,0,0,0,0-.17l0,.09c-.05-.09-.2-.08-.17-.23-.08.09,0,.15,0,.2-.14-.13-.22,0-.36-.09,0,.05,0,.15,0,.15-.22-.11-.1.17-.24.21-.08-.13,0-.33-.12-.21-.08-.09,0-.24,0-.31-.13.17-.25-.12-.32-.15l.07-.07a.14.14,0,0,1-.11,0l0,.18s-.08,0-.08-.11c0,.12,0,.3-.05.46-.05-.09-.16.1-.18-.14.17.08,0-.24.12-.27,0,0-.06,0-.1,0a.08.08,0,0,1,0-.06c-.16-.22-.08.27-.25.26,0-.13,0-.25-.06-.22s0,.22,0,.32c-.11-.1-.12.08-.18.07l.07.05c0,.13-.08.12-.15.16s.06-.07,0-.12c-.09.24-.19-.25-.31-.09,0-.09,0-.25,0-.31-.13.17-.15-.19-.28,0,0,.18,0,.14-.05.31l.22-.13-.14.27c.07,0,.14-.12.18-.09s-.06.11,0,.26c-.09-.27-.18.16-.29,0v-.45c-.16-.2-.29.23-.5.12l.07.08c0,.18-.13,0-.2.1a.75.75,0,0,0-.06-.3c0,.11-.16,0-.18.29l-.09-.2c-.17-.08-.2.43-.36.38.05-.17,0-.27.08-.39,0,0-.1,0-.1.08,0-.1-.15.2-.21.06,0,.06,0,.22-.09.21v-.08c0,.08-.09.1,0,.27-.17-.47-.47,0-.62-.37a1.4,1.4,0,0,1-.37.11s0-.07,0-.06c-.15-.14-.09.43-.26.28s.09-.14,0-.23c0-.49-.2.07-.32-.22l0,0c-.09-.16-.21.19-.36.16a.2.2,0,0,0,0-.08.68.68,0,0,1-.42.4c0-.19.07-.1,0-.29-.06,0,0,.31-.11.37a1.2,1.2,0,0,1-.14-.41H18c-.06-.27-.15,0-.21,0v-.12c-.18,0-.18.34-.38.32l0,.09c-.1.29-.08-.17-.19.05l0-.3a1.79,1.79,0,0,1-.37.35,1.47,1.47,0,0,1,.31-.47.26.26,0,0,0-.27.17s.06-.1.09-.06c-.08.24-.2.35-.33.35,0-.58-.36-.15-.46-.6-.24.22-.48-.09-.76-.06.1.46-.08,0-.06.48-.07,0-.09,0-.1,0l-.2-.27c0-.14.07-.11.06-.21s-.06-.2-.15-.32c0,.17-.05.24-.14.17l.12.22c-.2.24-.17-.39-.38-.15l.07-.14c-.11.08-.39,0-.49.37,0-.06,0-.18,0-.22-.25-.05-.56.4-.75.17l0-.11s-.08.21-.14.1,0-.12,0-.12-.12.19-.18.13l0-.13c-.24-.15-.37.31-.58.39a.53.53,0,0,0-.28-.5v0c-.28-.05-.47.27-.74.4-.16-.36-.54-.15-.8-.35a.33.33,0,0,1-.06.29c-.06-.07-.16.23-.16-.07h0c-.05-.3-.18-.22-.27-.23l0,.41c-.26-.59-.67.21-.81-.31-.06.1-.14.1-.2.2v-.22a.71.71,0,0,0-.46,0l0-.15c-.12,0-.15.62-.26.63l0-.32c-.2,0-.41-.28-.62,0,0,0,0-.14,0-.15s-.38-.22-.34.22c0-.28-.22,0-.33.1l0-.21c-.1.27-.1.34-.23.42s0-.17,0-.12c-.1-.11-.08.2-.21.09l0-.13c-.11,0-.1.05-.16.21s-.2,0-.22-.24c0,.11-.07.27-.13.21a.26.26,0,0,1,0-.14c-.18-.14-.27.25-.39,0a.25.25,0,0,0,0-.12c.14,0,.26,0,.25,0,0-.2-.12-.23,0-.5-.09.15-.25.47-.36.37s0,0,0-.06l0,0s0,0-.08,0,0-.06-.09-.06c0-.16-.13-.09-.19-.1,0,.22-.07.18,0,.36,0,0,0,0,.05,0l0,0v0h.14c0,.1-.09.2-.15.08,0,.13-.06.28-.08.34-.08-.3-.23-.46-.25-.64-.18.12-.42.08-.53.48,0,.05-.06-.12-.08-.18s.07,0,.08-.09c-.1.1-.29,0-.32.32-.12-.13.07-.26-.1-.21l0-.09c-.34-.44-.55.72-.93.14a.19.19,0,0,1,0,.1c-.44-.25-.89.24-1.32-.16-.12-.08-.13.09-.2.23l0-.23-.13.27c-.18.19-.31-.57-.53-.2l0,.15c-.09,0-.26.1-.25-.08,0,0,0,.16-.06.08v-.12l-.2.2c-.15-.08,0-.47-.2-.5a.7.7,0,0,0-.21.43s.09.08.09.2l-.08.06c0,.35-.07.72.12,1l.13-.21,0,.17H.57c.07.16.11,0,.15-.08a.38.38,0,0,0,.06.19l.12-.34c0,.14-.05.27,0,.35.06-.16-.05-.31,0-.41.06.16,0,.29.11.15a.26.26,0,0,1,0,.19c.06-.11.17-.05.21-.23.06.2.22-.05.21.28,0-.08.12-.26.18-.28-.11.4.22,0,.19.46.09-.36.3-.16.44-.36,0,0,0,.08,0,.06s.1.14.15.21c0-.3.14-.36.21-.55.1.29-.06.35,0,.63,0-.24.17-.24.14-.44a.64.64,0,0,1,.1.33c0-.37.08-.06.14-.29.11.18,0,.35.15.23A.26.26,0,0,1,3.07,23.44ZM6,22.8Zm.24,0h-.1c0-.07,0-.15,0-.14S6.16,22.73,6.19,22.79Zm-.51-1.48s.05,0,.06.06l-.07,0v0S5.67,21.34,5.68,21.31Z" transform="translate(-0.37)"/><path class="cls-1" d="M5.61,21.59a0,0,0,0,1,0,0l0,.05v-.07Z" transform="translate(-0.37)"/><path class="cls-1" d="M27.56,21.91h0a0,0,0,0,1,0,0A0,0,0,0,0,27.56,21.91Z" transform="translate(-0.37)"/><polygon class="cls-1" points="9.16 23.2 9.16 23.15 9.14 23.19 9.16 23.2"/><path class="cls-1" d="M28.9,22.64a.13.13,0,0,0,0,.06A.13.13,0,0,0,28.9,22.64Z" transform="translate(-0.37)"/><path class="cls-1" d="M29.47,22.69l.08.08A.19.19,0,0,0,29.47,22.69Z" transform="translate(-0.37)"/><path class="cls-1" d="M29.92,22.8v-.1h0Z" transform="translate(-0.37)"/><path class="cls-1" d="M22.87,23.05h0Z" transform="translate(-0.37)"/><path class="cls-1" d="M25,22.55a.86.86,0,0,1-.07.1S25,22.67,25,22.55Z" transform="translate(-0.37)"/><path class="cls-1" d="M20.53,23.3Z" transform="translate(-0.37)"/><path class="cls-1" d="M24.8,22.64c0,.05.07,0,.1,0S24.83,22.61,24.8,22.64Z" transform="translate(-0.37)"/><path class="cls-1" d="M31.84,22.89h0v0Z" transform="translate(-0.37)"/><path class="cls-1" d="M31.86,22.87l0,0S31.86,22.84,31.86,22.87Z" transform="translate(-0.37)"/><path class="cls-1" d="M31.93,22.79l-.05.05S31.92,22.85,31.93,22.79Z" transform="translate(-0.37)"/><path class="cls-1" d="M31.25,22.79v.08A.17.17,0,0,0,31.25,22.79Z" transform="translate(-0.37)"/><path class="cls-1" d="M31.07,22.82s.11.16.17.11v-.06C31.22,23,31.11,22.69,31.07,22.82Z" transform="translate(-0.37)"/><path class="cls-1" d="M30.33,21.86l.15.06c0-.08-.06-.19,0-.21C30.3,21.46,30.52,21.89,30.33,21.86Z" transform="translate(-0.37)"/><path class="cls-1" d="M29.86,21.74c.08,0,0-.12,0-.17S29.8,21.67,29.86,21.74Z" transform="translate(-0.37)"/><path class="cls-1" d="M26.52,21.74v-.19C26.46,21.57,26.53,21.62,26.52,21.74Z" transform="translate(-0.37)"/><polygon class="cls-1" points="25.5 22.74 25.56 22.86 25.59 22.68 25.5 22.74"/><polygon class="cls-1" points="25.13 21.36 25.15 21.33 25.05 21.4 25.13 21.36"/><path class="cls-1" d="M19.88,21.43l0,.24S20,21.36,19.88,21.43Z" transform="translate(-0.37)"/><path class="cls-1" d="M17.46,21.67c0-.12-.1-.19-.14-.08S17.43,21.7,17.46,21.67Z" transform="translate(-0.37)"/><polygon class="cls-1" points="9.8 21.28 9.85 21.2 9.76 21.27 9.8 21.28"/></g></g></svg>