<svg xmlns="http://www.w3.org/2000/svg" viewBox="0 0 278.61 2.43"><defs><style>.cls-1{opacity:0.3;}.cls-2{fill:#987d51;}</style></defs><title>Fichier 24</title><g id="Calque_2" data-name="Calque 2"><g id="Calque_1-2" data-name="Calque 1"><g class="cls-1"><path class="cls-2" d="M278.54,1.71c.15-.06.06-.21-.34-.18l-.29.25Z"/><path class="cls-2" d="M275.82,1.25c-.47.12-1,.33-.71.56.47-.24.58-.14,1.09-.42.4,0,.7.08.63.17.15-.06.63.05.85-.1a3.42,3.42,0,0,0-1.89,0C275.64,1.36,275.79,1.3,275.82,1.25Z"/><path class="cls-2" d="M236.33.87l.25,0A1,1,0,0,0,236.33.87Z"/><path class="cls-2" d="M211.86.73c.18,0,.26,0,.27,0C212,.69,211.81.71,211.86.73Z"/><path class="cls-2" d="M207.68.46h.24A.5.5,0,0,0,207.68.46Z"/><path class="cls-2" d="M236.33.87l-.66-.08C235.63.87,236,.85,236.33.87Z"/><path class="cls-2" d="M270.37,1.85a1.68,1.68,0,0,0,.36-.06l-.33,0S270.39,1.84,270.37,1.85Z"/><path class="cls-2" d="M247.11.66h.2a.59.59,0,0,0,.17-.1Z"/><path class="cls-2" d="M255.39.63c-.19,0-.25.2-.32.29a.65.65,0,0,1,.41-.14A.25.25,0,0,0,255.39.63Z"/><path class="cls-2" d="M268.52,1l.23,0Z"/><path class="cls-2" d="M241.19.62l-.08-.08S241.14.59,241.19.62Z"/><path class="cls-2" d="M9.64,2.2s0,0,0,0S9.57,2.2,9.64,2.2Z"/><path class="cls-2" d="M0,1.16H.17A.27.27,0,0,0,.2,1Z"/><path class="cls-2" d="M200,.19h0C200.27.17,200.15.17,200,.19Z"/><path class="cls-2" d="M129.84.34c.79.19-1.3.24-.1.45C129.63.71,130.83.46,129.84.34Z"/><path class="cls-2" d="M270.16,1.82h0Z"/><path class="cls-2" d="M129.74.79h0l.12,0Z"/><path class="cls-2" d="M182.41.31a.44.44,0,0,0,.18.09S182.55.36,182.41.31Z"/><path class="cls-2" d="M195.54.61l-.33,0Z"/><path class="cls-2" d="M175.6.61a1.46,1.46,0,0,0-.48,0l.07,0A.87.87,0,0,1,175.6.61Z"/><path class="cls-2" d="M168.51.61a.4.4,0,0,0,.13,0h.22Z"/><path class="cls-2" d="M31.19,2.1a1.1,1.1,0,0,1-.33-.19C31,2.06,29.93,2.12,31.19,2.1Z"/><path class="cls-2" d="M270.37,1.73c0,.06-.1.08-.21.09h.24S270.42,1.75,270.37,1.73Z"/><path class="cls-2" d="M175.31,2.27l-1.13,0C174.5,2.26,174.91,2.27,175.31,2.27Z"/><path class="cls-2" d="M82.08,2.07l-.26,0A.69.69,0,0,0,82.08,2.07Z"/><path class="cls-2" d="M170.84,2.27a3.15,3.15,0,0,0-.64-.14l-.13.05Z"/><path class="cls-2" d="M30.86,1.91Z"/><path class="cls-2" d="M23.44,2.41c1.07,0,.5-.27.73-.43,1.28-.08.59.2,1,.35.8-.08,1.41-.33,2-.32.05,0,.16.06,0,.12.84-.22,2.51,0,3.49-.29a.34.34,0,0,1,.13.07.36.36,0,0,1-.15-.38c.48,0,.89-.18,1.07,0a.67.67,0,0,0-.45.12l.5-.08c.46.26-.69.09-.69.28A19.66,19.66,0,0,1,34,1.64c.15.25-1.77.08-.76.31l-1.17-.1c.89.4-.71,0,.11.4,1.54.08,1.72-.13,3.25,0,.35-.14-.11-.21.23-.35,2.18-.26,1.71.64,3.31.3a2.12,2.12,0,0,1,1.72-.32l-.39.29c1.49,0,.85-.42,2.4-.22-.27.11-1.16.09-.94.12,1,.23.71-.16,1.49-.16l.16.26c1.58,0,3.32-.23,5.08-.27-.1.07-.4.15,0,.23a55.55,55.55,0,0,1,6.85.18L56.19,2c.19,0,.35.1.15.14.83.09,0-.14.44-.22s.62.12.32.19A26,26,0,0,1,62.82,2l-.3.07c1.21.09,1.36-.45,2.48-.25l-.22,0c2.61.1,5.5-.1,7.49.23.38-.32,2.58.14,2.75-.3a20.4,20.4,0,0,0,3.16.44c.56,0,.84-.27,1.53-.32l0,.23.94-.24.5.28.65-.06c-.26,0-.55-.11-.51-.17a5.82,5.82,0,0,1,2.5.28l2.4-.2c0,.09-.46.13-.77.18,1.28-.23.23.25,1.4,0-.15-.05.09-.14.12-.18a13.18,13.18,0,0,0,2.9.08l-.19.16c1.78,0,3.76-.08,5.76-.07-.72-.08-.55-.36,0-.38l.24.24c.38-.15-.62-.09.16-.27.75,0,.5.27.07.35l.91-.08c.06.07-.16.11-.21.2.37-.15,1.57.25,2.1,0l0,.08c2,0,2.91-.09,4.54-.1,0-.21.67-.16,1.15-.33,1.2.07,2.53.23,4,.21,1-.1.3-.18.75-.3.08.19,1.52.17.77.31,1.73,0,2.21,0,4.4-.19-.24-.08-.51-.12-.37-.18.4,0,.9.08.85.17l-.11,0c2.46-.29,5.67.56,7.63.16l-.11,0,2-.21c.93,0-.56.15.13.27,2.19-.33,3.46,0,5.26-.17,1.39.56,5,0,6.83.32l-.11-.13c.49-.13.59.07,1,.1-.05-.1-.53-.12-.22-.19,4.12-.16,8.5.2,12.73.32,1.55,0,.88-.69,2.83-.38l-.56.25c3.12-.29,6.38,0,9.44-.24-.19.06-.19.13-.49.13a5.13,5.13,0,0,0,2.4-.14c.47,0,.11.14.4.21.65.11,1.62-.23,2,0,.06,0-.18.06-.3.07.42-.08,2,0,1.56-.18,1.14.1,2.19-.1,3.1,0,.6-.23,2,.11,2.16-.22-.09.34,2,.27,2.73.11-.24.11.63.11.35.25.82,0,1.58-.06,1.44-.24,1.52.41,3.06-.33,3.92.19,2.45-.18,4.73-.3,6.94-.38-.08.34-2.45,0-2.35.39a44.57,44.57,0,0,1,5.38-.35c.54.05-.3.15-.48.2,2.09-.13,4.05,0,5.91-.15a1,1,0,0,1-.4.09c.37,0,.86,0,.82-.1l-.36,0c-.59-.22,1.46-.47,1.52-.58-.62.44,1.84.11.85.66.25,0,.55-.1.49-.2.36,0,.48.09.11.21a19.12,19.12,0,0,1,2-.25c0,.08-.24.11-.37.19a6.62,6.62,0,0,1,2.22-.22c-.06,0,.06.1-.24.1a46.6,46.6,0,0,1,4.84-.25c-.56.33.65.11.75.39l1-.09-.41-.13a23.7,23.7,0,0,1,2.45-.11l-.66.12,1.67-.06-.94-.1c.9-.15-.1-.36,1.09-.28a10.4,10.4,0,0,1,1.36.17h0a4.58,4.58,0,0,1,1.55-.11c.18.09-.13.31,0,.37.43-.24,2.09-.07,2.64-.32-.18.06-.19.21-.13.24l.37-.19c.41.06.47.09.4.2,1.25,0-.39-.35,1.09-.2-.12,0-.06.05-.31.08,1.49.08,2.87-.13,4.24,0,.4.28-1.19.07-.73.3,2-.05,4.07-.33,6-.27l-.35,0c.26-.4,1.42.2,2.38,0-.24,0-.31.22-.25.18a45.29,45.29,0,0,0,4.64-.23l-.24.11c.77.09,2,.05,2.85.1.25-.11.72-.09.44-.24,2.55.58,4.88-.31,7.15.18-.27,0-.65.08-.43.08l1.93-.09c-.15-.17-.25-.1-.66-.24a4.14,4.14,0,0,1,1.27-.18c-.87.11,0,.28.38.37-.06-.05.07-.11,0-.16,1,.31.17-.35,1.55-.14l-.08.09a9.71,9.71,0,0,1,1.55-.14c.23.2-.55.09-.58.26A8,8,0,0,1,253,1.35c-.34,0-.81,0-1.15.11a4.41,4.41,0,0,0,1.44.21h-.06l1.33.1-.34-.06c1-.52,2-.1,3.31-.44-1.28.32-.21.19-.31.41.33.07.85.14.7.2.62-.18,1,.15,1.92-.12,0,.07.67,0,.53.19.81-.06-.2-.13-.13-.22,1.25-.25,2.94.3,4.73,0,1.55-.14,1.84-.39,3.27-.51.49.12-.39.27-.39.27a8.28,8.28,0,0,0,2.11,0c-.15.06,0,.12.22.2.6,0,.4-.27,1.18-.16a2.24,2.24,0,0,1-.59.3c.7-.07,1.39-.21,2.11-.27.19.12-.44.19-.69.27a8.24,8.24,0,0,0,2.35-.31L274,1.4c.3,0,.15.18-.07.21-.69.16-1-.07-1-.14l.52-.05c-.53-.43-2.07.07-3.1.05l.43-.31-1.06.25c-.23-.08-.38-.25.13-.3-.75-.15-.66.11-1.3-.06-.07,0,0,0,0-.05l-.73.09c.15-.07-.12-.22.33-.18-1.3-.18-2.1.24-2.59,0l.11,0c-1.81.11-.17.23-1.53.5L263.2.83l-.18.23c-.18,0-.55,0-.48-.12-.7.15.11.1-.29.25-.89-.21-2.47.09-2.67-.27-.32.17.86.13-.1.25-.27-.39-1.11.07-1.93-.11.26-.2,1-.09.21-.28-.49.35-1.59-.07-2.28,0,0,.27-1.51.11-2.66.2.07-.09-2.19-.15-3.26-.25l0,0c-.21.27-1.32.22-2.13.28,0-.17.17-.23.61-.31h-.76a2.35,2.35,0,0,1-.91.17l.19-.21a21.91,21.91,0,0,1-3.34.11c-.07.19,1,.53-.34.66,0-.1-.11-.28.26-.32a2.55,2.55,0,0,1-.66,0l.55-.17c-.6-.08-.31.14-.79.13,0-.15-.35-.11-.28-.23a2.82,2.82,0,0,0,.59,0,4.94,4.94,0,0,1-1.39-.23c0,.08,0,.2-.39.22-1,0-.35-.18-.94-.26-.25.11-.89,0-.91.22a.7.7,0,0,1-.47-.16c-.52.09-2.45,0-1.86.26l.14,0h-.09c-1.72.22-3.57-.13-5.27,0V.82a29.56,29.56,0,0,0-3,.21c-.3,0-.71-.14-.58-.22a7.18,7.18,0,0,1-2,0c.78-.13-.27-.11.8-.09a6.77,6.77,0,0,0-2.33,0c.37-.19-.76-.24-1.24-.18l.71.13c-.54,0-1,0-1.49,0l.26-.25c-2.07-.31-3.74.51-5.31,0-.55.17,1.12.12.63.32a20.09,20.09,0,0,1-2.24-.39c-1.3-.14-1.22.36-2.58.27.17.09.34.33-.68.41S211.2.7,211.8.63c.23,0,.34,0,.33.05.31,0,.71-.07.33-.17l-.12.09c-.47-.09-1.78-.08-1.48-.23-.72.09-.3.15.23.19-1.22-.13-1.91,0-3.17-.09.2.05.39.16.19.16-1.85-.11-.81.16-2.06.2-.71-.13.25-.32-1-.21-.76-.09-.16-.23.15-.31a11,11,0,0,1-2.8-.14L203,.1a8,8,0,0,1-1,0l.34.18c-.35,0-.65,0-.65-.11-.36.12.28.3-.44.46-.48-.09-1.44.09-1.61-.14,1.49.08-.16-.24,1.1-.28a4.47,4.47,0,0,1-.9,0s.05,0,.15-.06c-1.42-.22-.65.26-2.13.26.19-.14-.34-.26-.58-.23.6,0,.29.23-.26.33a6.26,6.26,0,0,0-1.52.06l.56.05a3.8,3.8,0,0,1-1.32.16c-.06-.11.6-.07.36-.12-.73.24-1.65-.24-2.67-.08-.47-.09,0-.25-.46-.31-1.14.17-1.24-.19-2.44,0,.35.17.41.13-.44.31l2-.13-1.27.26c.59,0,1.26-.11,1.61-.08-.6.14-.54.1-.25.25-.82-.27-1.62.15-2.56,0l0-.44c-1.42-.2-2.52.23-4.36.12l.59.07c-.25.18-1.14,0-1.74.1.06-.15-.31-.2-.57-.3,0,.11-1.34,0-1.51.29L180.26.5c-1.49-.08-1.7.42-3.13.37.43-.16-.22-.27.74-.38-.48,0-.91,0-.91.07-.28-.09-1.33.2-1.77.06a1.4,1.4,0,0,1-.8.21c-.06,0,0-.08,0-.08s-.83.1-.37.27c-1.47-.47-4.1,0-5.38-.37-1,0-2.3.1-3.24.11.06,0,0-.07.18-.06-1.31-.13-.8.43-2.29.27-.76-.23.79-.12.32-.22-.21-.48-1.79.07-2.79-.21l.24,0A27.43,27.43,0,0,0,158,.66s.06-.05,0-.08a20.9,20.9,0,0,1-3.67.4c.38-.19.55-.1.32-.29-.54,0,.16.31-.92.36-.34-.1-1.12-.19-1.22-.4h1c-.52-.27-1.31,0-1.84,0l.06-.11c-1.55,0-1.57.33-3.24.31l.18.09c-.91.29-.77-.17-1.68,0l-.27-.3c-.6.07-2.11.29-3.19.35a20.56,20.56,0,0,1,2.66-.47,11.36,11.36,0,0,0-2.34.17,2.57,2.57,0,0,1,.78,0,9.86,9.86,0,0,1-2.88.34c.21-.58-3.1-.15-4-.59-2.1.21-4.17-.09-6.61-.06.86.45-.72,0-.57.47a2.81,2.81,0,0,1-.84,0L128,.52c-.41-.13.54-.1.49-.2-1.25,0-.53-.2-1.35-.32.17.16-.44.23-1.15.17l1,.21c-1.74.25-1.51-.38-3.26-.14L124.3.1c-.9.08-3.33,0-4.21.36-.16-.05-.37-.18,0-.21-2.16,0-4.81.39-6.48.17L113.8.3a3.08,3.08,0,0,1-1.2.1c0-.05.16-.11,0-.12a6.23,6.23,0,0,1-1.6.13l.46-.12c-2.11-.15-3.23.3-5,.38,0-.33-1.66-.44-2.48-.49l0,0c-2.45,0-4.16.28-6.43.41-1.41-.36-4.77-.15-7-.35.34.06-.06.25-.46.29S88.6.71,88.68.4h.19A5.51,5.51,0,0,0,86.53.18l-.14.4C84.16,0,80.55.79,79.33.27c-.54.1-1.2.1-1.74.2l0-.21C76.13.2,75.39.18,73.55.23l.37-.15c-1,0-1.31.61-2.27.62L71.36.38a35.14,35.14,0,0,0-5.43,0c0-.05.08-.14.37-.15-.85,0-3.3-.22-3,.22,0-.28-1.87,0-2.85.1l.15-.21a5.49,5.49,0,0,1-2,.41c-.28,0-.24-.17.12-.11-.91-.11-.71.19-1.81.08l.41-.13A2.71,2.71,0,0,0,56,.82,3.82,3.82,0,0,1,54,.58a1.94,1.94,0,0,1-1.19.21c-.08-.07.13-.11.23-.13C51.5.51,50.74.9,49.66.69c0-.06-.1-.1-.18-.12,1.24,0,2.24,0,2.15,0,0-.19-1-.22-.21-.49a13.56,13.56,0,0,1-3.16.37.4.4,0,0,1-.13-.07l.1,0a2.48,2.48,0,0,0-.62,0c-.32,0-.51,0-.81-.06C46.68.2,45.64.28,45.14.27c0,.21-.62.18,0,.35-.08,0,.1,0,.43,0l.21,0H47a2.66,2.66,0,0,1-1.37.08,7,7,0,0,1-.7.34c-.69-.29-2-.45-2.19-.63-1.54.11-3.61.07-4.58.47A.82.82,0,0,1,37.5.65a4.68,4.68,0,0,0,.69-.09c-.87.11-2.58,0-2.79.32C34.3.76,36,.63,34.51.67l.2-.08c-3-.45-4.82.7-8.11.13a1.09,1.09,0,0,1,.39.1c-3.75-.25-7.73.24-11.43-.16a4.24,4.24,0,0,0-1.81.23L13.53.66l-1.1.27c-1.56.19-2.7-.56-4.67-.2L8,.88C7.31.86,5.78,1,5.9.8a.63.63,0,0,1-.51.08l0-.12L3.63,1C2.28.88,3.84.49,1.87.47,1.14.51-.21.81.06.89s.76.08.78.2l-.67.06c-.12.35-.63.7,1,1l1.14-.22.37.17h-1A2.16,2.16,0,0,0,3,2a.83.83,0,0,0,.48.18l1.12-.33c.13.14-.51.27.25.35.52-.16-.51-.31.36-.41.55.16.39.29,1,.15.09.09,0,.15-.3.19a10.35,10.35,0,0,0,1.81-.23c.57.19,1.93-.06,1.87.28a6.57,6.57,0,0,1,1.54-.28c-1,.4,2,0,1.71.45C13.59,2,15.44,2.18,16.7,2a.63.63,0,0,1-.32.07,8.15,8.15,0,0,1,1.37.21c.09-.3,1.19-.37,1.78-.55.87.29-.52.35-.25.62,0-.24,1.51-.24,1.21-.44.67.18.57.09.92.33.11-.36.61-.06,1.16-.28,1,.18.25.34,1.3.23C24.38,2.28,23.44,2.41,23.44,2.41Zm25.08-.63Zm2.11,0h-.92c-.07-.07,0-.14.22-.14C49.82,1.67,50.31,1.71,50.63,1.77ZM46.17.31c.33,0,.44,0,.49.06l-.58,0,0,0A.29.29,0,0,1,46.17.31Z"/><path class="cls-2" d="M45.57.59h-.14l.2.05.12-.07Z"/><path class="cls-2" d="M236.62.9h0a.12.12,0,0,1,.09,0Z"/><polygon class="cls-2" points="79.73 2.17 79.73 2.12 79.54 2.17 79.73 2.17"/><path class="cls-2" d="M248.23,1.62a.44.44,0,0,0,.16.06S248.31,1.64,248.23,1.62Z"/><path class="cls-2" d="M253.25,1.67l.71.08A6.63,6.63,0,0,0,253.25,1.67Z"/><path class="cls-2" d="M257.1,1.78a.22.22,0,0,0,.08-.1h0Z"/><path class="cls-2" d="M195.8,2h-.14C195.31,2.07,195.54,2.06,195.8,2Z"/><path class="cls-2" d="M214.05,1.53c-.2,0-.39.08-.59.1C213.78,1.65,214,1.65,214.05,1.53Z"/><path class="cls-2" d="M175.43,2.28h0Z"/><path class="cls-2" d="M212.61,1.63a3.44,3.44,0,0,0,.85,0A4.83,4.83,0,0,0,212.61,1.63Z"/><path class="cls-2" d="M273.81,1.87H274s0,0,0,0Z"/><path class="cls-2" d="M274,1.85l.21,0C274.13,1.82,274.05,1.82,274,1.85Z"/><path class="cls-2" d="M274.66,1.77l-.43.05A1,1,0,0,0,274.66,1.77Z"/><path class="cls-2" d="M268.71,1.77l-.06.08A.12.12,0,0,0,268.71,1.77Z"/><path class="cls-2" d="M267.16,1.8a9.83,9.83,0,0,0,1.44.11l0-.06C268.41,2,267.51,1.67,267.16,1.8Z"/><path class="cls-2" d="M260.68.85l1.3.06c-.22-.08-.52-.19.07-.21C260.41.46,262.39.88,260.68.85Z"/><path class="cls-2" d="M256.65.73c.7,0,0-.12,0-.16C256.24.64,256.13.66,256.65.73Z"/><path class="cls-2" d="M227.53.73l.07-.19C227.06.57,227.6.61,227.53.73Z"/><polygon class="cls-2" points="221.97 1.72 222.49 1.84 222.74 1.67 221.97 1.72"/><polygon class="cls-2" points="218.68 0.36 218.91 0.33 218.01 0.4 218.68 0.36"/><path class="cls-2" d="M169.77.42l.16.24C170.29.62,170.37.35,169.77.42Z"/><path class="cls-2" d="M148.65.67a1.94,1.94,0,0,0-1.19-.08C147.94.6,148.41.7,148.65.67Z"/><polygon class="cls-2" points="85.33 0.28 85.75 0.2 84.95 0.27 85.33 0.28"/></g></g></g></svg>