<?xml version="1.0" encoding="UTF-8" standalone="no"?>
<!DOCTYPE svg PUBLIC "-//W3C//DTD SVG 1.1//EN" "http://www.w3.org/Graphics/SVG/1.1/DTD/svg11.dtd">
<svg width="100%" height="100%" viewBox="0 0 4 681" version="1.1" xmlns="http://www.w3.org/2000/svg" xmlns:xlink="http://www.w3.org/1999/xlink" xml:space="preserve" xmlns:serif="http://www.serif.com/" style="fill-rule:evenodd;clip-rule:evenodd;stroke-linejoin:round;stroke-miterlimit:1.41421;">
    <g id="Calque_1-2" transform="matrix(1,0,0,1,0,-26.99)">
        <g transform="matrix(1,0,0,1,0,-0.4)">
            <path d="M1.93,623.67L1.93,624.34C1.91,624.16 1.92,623.93 1.93,623.67Z" style="fill:rgb(152,125,81);fill-rule:nonzero;"/>
        </g>
        <g transform="matrix(1,0,0,1,0,-0.4)">
            <path d="M2.15,559.13C2.131,559.372 2.155,559.616 2.22,559.85C2.2,559.4 2.18,559 2.15,559.13Z" style="fill:rgb(152,125,81);fill-rule:nonzero;"/>
        </g>
        <g transform="matrix(1,0,0,1,0,-0.4)">
            <path d="M2.53,548.11C2.53,548.35 2.53,548.55 2.53,548.76C2.554,548.544 2.554,548.326 2.53,548.11Z" style="fill:rgb(152,125,81);fill-rule:nonzero;"/>
        </g>
        <g transform="matrix(1,0,0,1,0,-0.4)">
            <path d="M1.93,623.67L2,622C1.93,621.83 2,622.83 1.93,623.67Z" style="fill:rgb(152,125,81);fill-rule:nonzero;"/>
        </g>
        <g transform="matrix(1,0,0,1,0,-0.4)">
            <path d="M2.18,652.12L2.18,652.64C2.211,652.79 2.255,652.937 2.31,653.08L2.18,652.12Z" style="fill:rgb(152,125,81);fill-rule:nonzero;"/>
        </g>
        <g transform="matrix(1,0,0,1,0,-0.4)">
            <path d="M2.21,674C2.21,673.51 1.94,673.34 1.82,673.15C1.937,673.481 1.997,673.829 2,674.18C2.07,674.18 2.13,674.12 2.21,674Z" style="fill:rgb(152,125,81);fill-rule:nonzero;"/>
        </g>
        <g transform="matrix(1,0,0,1,0,-0.4)">
            <path d="M1.7,708.58L1.7,709.19C1.72,709 1.71,708.76 1.7,708.58Z" style="fill:rgb(152,125,81);fill-rule:nonzero;"/>
        </g>
        <g transform="matrix(1,0,0,1,0,-0.4)">
            <path d="M2.25,636.49C2.303,636.435 2.338,636.365 2.35,636.29C2.362,636.215 2.28,636.37 2.25,636.49Z" style="fill:rgb(152,125,81);fill-rule:nonzero;"/>
        </g>
        <g transform="matrix(1,0,0,1,0,-0.4)">
            <path d="M2.9,528C2.905,528.03 2.905,528.06 2.9,528.09C2.93,528.57 2.92,528.27 2.9,528Z" style="fill:rgb(152,125,81);fill-rule:nonzero;"/>
        </g>
        <g transform="matrix(1,0,0,1,0,-0.4)">
            <path d="M2.82,342.83C2.57,344.92 2.5,339.41 2.22,342.57C2.33,342.28 2.65,345.44 2.82,342.83Z" style="fill:rgb(152,125,81);fill-rule:nonzero;"/>
        </g>
        <g transform="matrix(1,0,0,1,0,-0.4)">
            <path d="M2.22,342.57L2.22,342.9C2.2,342.76 2.21,342.68 2.22,342.57Z" style="fill:rgb(152,125,81);fill-rule:nonzero;"/>
        </g>
        <g transform="matrix(1,0,0,1,0,-0.4)">
            <path d="M2.76,481.49C2.703,481.642 2.663,481.799 2.64,481.96C2.617,482.121 2.7,481.84 2.76,481.49Z" style="fill:rgb(152,125,81);fill-rule:nonzero;"/>
        </g>
        <g transform="matrix(1,0,0,1,0,-0.4)">
            <path d="M2.34,516.1L2.34,515.24C2.35,515.58 2.34,515.86 2.34,516.1Z" style="fill:rgb(152,125,81);fill-rule:nonzero;"/>
        </g>
        <g transform="matrix(1,0,0,1,0,-0.4)">
            <path d="M2.38,463.51C2.412,463.091 2.412,462.669 2.38,462.25C2.38,462.31 2.38,462.37 2.38,462.45C2.423,462.802 2.423,463.158 2.38,463.51Z" style="fill:rgb(152,125,81);fill-rule:nonzero;"/>
        </g>
        <g transform="matrix(1,0,0,1,0,-0.4)">
            <path d="M2.39,444.81C2.39,444.91 2.39,445.04 2.33,445.15C2.27,445.26 2.33,445.55 2.33,445.74L2.39,444.81Z" style="fill:rgb(152,125,81);fill-rule:nonzero;"/>
        </g>
        <g transform="matrix(1,0,0,1,0,-0.4)">
            <path d="M0.65,82.66C0.703,82.365 0.786,82.077 0.9,81.8C0.7,82.08 0.63,79.34 0.65,82.66Z" style="fill:rgb(152,125,81);fill-rule:nonzero;"/>
        </g>
        <g transform="matrix(1,0,0,1,0,-0.4)">
            <path d="M0.16,462.75L0.16,459.75C0.18,460.61 0.16,461.69 0.16,462.75Z" style="fill:rgb(152,125,81);fill-rule:nonzero;"/>
        </g>
        <g transform="matrix(1,0,0,1,0,-0.4)">
            <path d="M0.6,216.86L0.6,216.18C0.583,216.406 0.583,216.634 0.6,216.86Z" style="fill:rgb(152,125,81);fill-rule:nonzero;"/>
        </g>
        <g transform="matrix(1,0,0,1,0,-0.4)">
            <path d="M0.17,451C0.271,450.448 0.334,449.89 0.36,449.33C0.346,449.212 0.323,449.095 0.29,448.98L0.17,451Z" style="fill:rgb(152,125,81);fill-rule:nonzero;"/>
        </g>
        <g transform="matrix(1,0,0,0.962487,0,26.7756)">
            <path d="M0.25,62.21C0.25,65.04 0.61,63.54 0.82,64.14C0.93,67.52 0.55,65.71 0.36,66.86C0.46,68.97 0.79,70.59 0.78,72.16C0.72,72.28 0.7,72.58 0.62,72.23C0.91,74.46 0.62,78.85 1,81.45C0.982,81.567 0.949,81.682 0.9,81.79C1.09,81.37 1.28,81.3 1.41,81.39C1.542,82.329 1.542,83.281 1.41,84.22C1.427,83.806 1.369,83.393 1.24,83L1.34,84.33C1,85.54 1.22,82.53 1,82.53C1.11,85.12 1.39,88.15 1.29,90.14C0.95,90.55 1.18,85.49 0.88,88.14L1,85.06C0.46,87.41 1,83.2 0.46,85.35C0.36,89.4 0.63,89.88 0.53,93.92C0.72,94.83 0.81,93.62 1,94.53C1.33,100.27 0.14,99.04 0.59,103.26C1.074,104.715 1.215,106.262 1,107.78L0.61,106.78C0.61,110.7 1.16,109.02 0.9,113.12C0.75,112.39 0.78,110.04 0.73,110.63C0.43,113.29 0.95,112.51 0.95,114.56L0.61,115C0.66,119.17 0.9,123.77 0.96,128.39C0.86,128.13 0.75,127.39 0.65,128.39C0.81,134.22 0.6,140.83 0.39,146.45L0.68,148.6C0.68,149.1 0.55,149.53 0.49,148.99C0.38,151.18 0.68,149.1 0.79,150.15C0.79,151.4 0.62,151.8 0.54,151.01C0.891,156.032 0.961,161.07 0.75,166.1L0.66,165.3C0.54,168.47 1.26,168.88 0.99,171.82L0.93,171.26C0.8,178.13 1.07,185.74 0.62,191C1.04,192 0.43,197.81 1.01,198.26C0.72,202.19 0.62,201.06 0.42,206.6C0.42,208.07 0.78,208.8 0.84,210.6L0.53,210.6L0.86,213.08L0.49,214.41L0.56,216.12C0.56,215.44 0.7,214.67 0.79,214.77C0.905,216.977 0.781,219.19 0.42,221.37L0.67,227.7C0.528,227.042 0.448,226.373 0.43,225.7C0.74,229.08 0.1,226.32 0.43,229.41C0.5,229 0.61,229.64 0.67,229.71C0.494,232.259 0.458,234.817 0.56,237.37L0.35,236.87C0.29,241.57 0.44,246.78 0.43,252.05C0.54,250.16 0.9,250.6 0.94,252.14L0.61,252.76C0.81,253.76 0.74,251.15 0.98,253.2C0.98,255.2 0.61,254.52 0.5,253.39L0.62,255.79C0.52,255.93 0.47,255.36 0.34,255.22C0.54,256.22 0.01,259.35 0.34,260.77L0.25,260.91C0.25,266.18 0.35,268.57 0.36,272.86C0.65,272.95 0.58,274.63 0.81,275.91C0.72,279.06 0.49,282.57 0.51,286.37C0.65,289.04 0.75,287.15 0.92,288.37C0.66,288.57 0.68,292.37 0.5,290.37C0.5,294.94 0.55,296.2 0.75,301.98C0.86,301.35 0.9,300.65 0.99,300.98C0.99,302.03 0.88,303.36 0.76,303.21L0.76,302.94C1.14,309.42 0.01,317.89 0.54,323.05L0.54,322.76L0.81,328.11C0.81,330.57 0.62,326.64 0.46,328.46C0.89,334.23 0.39,337.58 0.68,342.33C-0.08,346.01 0.68,355.38 0.23,360.33L0.41,360.04C0.484,360.876 0.437,361.718 0.27,362.54C0.41,362.41 0.43,361.15 0.53,361.95C0.65,372.89 0.17,384.46 0,395.6C0,399.68 0.92,397.92 0.49,403.06L0.16,401.6C0.55,409.83 0.16,418.42 0.47,426.47C0.347,426.055 0.29,425.623 0.3,425.19C0.101,427.296 0.161,429.419 0.48,431.51C0.48,432.77 0.3,431.8 0.2,432.58C0.06,434.28 0.5,436.86 0.26,437.77C0.26,437.92 0.18,437.29 0.17,436.98C0.28,438.09 0.17,442.16 0.41,441.09C0.28,444.09 0.53,446.87 0.41,449.29C0.72,450.86 0.26,454.46 0.7,454.96C0.25,454.74 0.33,460.26 0.54,462.17C0.41,461.53 0.4,463.83 0.21,463.08C0.21,465.26 0.3,467.26 0.53,466.88C-0.01,470.88 0.96,474.96 0.27,477.22C0.5,483.7 0.66,489.7 0.77,495.52C0.32,495.31 0.77,489.08 0.25,489.33C0.43,494.86 0.82,498.05 0.71,503.53C0.64,504.95 0.51,502.73 0.44,502.25C0.62,507.77 0.44,512.93 0.63,517.84C0.556,517.512 0.515,517.177 0.51,516.84C0.51,517.84 0.44,519.09 0.65,518.98L0.54,518C0.84,516.45 1.16,521.85 1.32,522C0.73,520.35 1.17,526.85 0.42,524.24C0.42,524.88 0.56,525.68 0.7,525.53C0.7,526.53 0.58,526.78 0.42,525.82C0.53,529.29 0.75,528.06 0.74,531.2C0.64,531.2 0.6,530.55 0.49,530.2C0.755,532.138 0.855,534.095 0.79,536.05C0.73,535.89 0.65,536.2 0.65,535.4C0.65,539.97 1.16,543.18 0.97,548.19C0.54,546.71 0.83,549.89 0.45,550.19L0.56,552.88L0.75,551.8C0.75,554.16 1.01,556.25 0.88,558.27L0.73,556.52L0.8,561L0.94,558.5C1.13,560.88 1.42,558.24 1.31,561.38C1.31,560.74 1.31,563.74 1.08,564.97C1.242,566.307 1.292,567.655 1.23,569C1.11,569.45 0.82,568.63 0.74,568.93C1.05,570.08 0.82,574.45 1.15,575.93C1.07,575.44 0.88,575.42 0.84,575.58L1.09,576.58C1,577.63 1,577.79 0.81,577.62C0.81,580.9 1.29,576.62 1.08,580.47C1.035,580.209 1.005,579.945 0.99,579.68C0.88,583.59 1.14,587.24 0.99,590.84C0.62,591.9 0.9,587.7 0.59,588.91C0.65,594.1 1.03,599.65 0.94,604.67L0.94,603.74C1.47,604.43 0.67,607.48 0.94,610.02C0.94,609.39 0.65,609.2 0.71,609.37C0.62,612.81 0.83,616.37 1,621.61L0.9,621C0.78,623 0.83,626.34 0.76,628.53C0.9,629.18 0.88,630.43 1.08,629.67C0.29,636.42 1.48,642.54 0.83,648.53C0.83,647.81 0.71,646.82 0.71,647.39L0.84,652.49C1.07,652.09 0.98,651.82 1.16,650.75C1.328,651.859 1.408,652.979 1.4,654.1C1.25,651.81 1.03,654.1 0.9,655.1C0.97,654.94 1.05,655.28 1.12,655.19C0.7,657.86 1.58,655.64 1.3,659.28L1.18,659.08C1.24,660.45 1.4,661.7 1.37,663.17C1.1,663.78 1.24,661.72 1.02,661.63C1.02,663.69 1.53,665.69 1.26,667.56C1.18,666.68 1.18,665.43 1.11,664.56C0.908,665.81 0.811,667.074 0.82,668.34L0.82,668.19L0.68,671.68L0.76,670.79C1.46,673.37 0.89,676.05 1.34,679.52C0.91,676.14 1.09,678.96 0.79,678.7C0.7,679.59 0.61,680.94 0.52,680.56C0.77,682.2 0.33,683.3 0.68,685.62C0.59,685.72 0.68,687.38 0.43,687C0.5,689.14 0.6,686.5 0.72,686.68C1.05,689.97 0.31,694.42 0.77,699.15C0.95,703.24 1.28,703.99 1.44,707.78C1.28,709.06 1.09,706.78 1.09,706.78C0.96,708.631 0.96,710.489 1.09,712.34C1,711.94 0.93,712.34 0.82,712.94C0.82,714.5 1.17,713.94 1.03,716.04C0.85,715.534 0.72,715.011 0.64,714.48C0.73,716.32 0.91,718.14 0.99,720.04C0.82,720.55 0.74,718.89 0.63,718.22C0.616,720.298 0.756,722.373 1.05,724.43L1.14,723C1.14,723.78 0.91,723.4 0.86,722.82C0.652,721.904 0.722,720.946 1.06,720.07L1.12,721.43C1.69,720 1,716 1.06,713.23L1.48,714.37L1.14,711.57C1.25,710.98 1.48,710.57 1.54,711.92C1.75,709.92 1.39,710.19 1.62,708.5C1.62,708.32 1.68,708.4 1.7,708.58L1.57,706.66C1.66,707.04 1.87,706.35 1.81,707.52C2.05,704.09 1.5,701.99 1.81,700.69L1.81,700.98C1.67,696.22 1.5,700.52 1.15,696.98L1.9,694.58L1.6,694.11C1.6,693.62 1.6,692.65 1.75,692.83C1.55,691 1.62,693.14 1.42,692.08C1.7,689.71 1.3,685.56 1.79,685.08C1.55,684.23 1.61,687.34 1.45,684.81C1.97,684.09 1.36,681.89 1.6,679.74C1.87,680.4 1.72,682.44 1.97,680.28C1.51,678.98 2.07,676.08 1.97,674.28C1.61,674.19 1.83,670.28 1.71,667.28C1.83,667.47 1.91,661.53 2.04,658.68L2.1,658.77C1.74,658.22 1.81,655.28 1.73,653.15C1.95,653.23 2.04,653.62 2.14,654.77L2.14,652.77C1.984,651.98 1.91,651.175 1.92,650.37L2.19,650.88C2.19,648.21 1.87,645.5 2.06,642.06C1.8,641.86 1.34,644.79 1.17,641.16C1.31,641.02 1.55,640.89 1.61,641.84C1.552,641.228 1.545,640.613 1.59,640L1.82,641.45C1.93,639.89 1.63,640.63 1.65,639.38C1.85,639.38 1.79,638.45 1.95,638.63C2.11,638.81 1.87,639.73 1.95,640.21C1.96,638.974 2.064,637.74 2.26,636.52C2.15,636.65 1.99,636.52 1.97,635.52C1.97,632.85 2.21,634.6 2.31,633.05C2.17,632.4 2.31,630.69 2.02,630.65C2.006,630.229 2.081,629.81 2.24,629.42C2.11,628.04 2.24,622.96 1.89,624.52L1.89,624.87C1.885,624.797 1.885,624.723 1.89,624.65C1.6,620.11 2.06,615.23 1.89,610.73L2,610.73C1.89,608.04 1.93,604.73 1.72,602.84C1.72,602.04 1.91,600.96 2.02,601.3C1.892,599.536 1.886,597.765 2,596C2.17,598.07 2.16,595.29 2.13,598.12C2.305,596.08 2.305,594.03 2.13,591.99C2.38,592.99 2.45,589.99 2.37,588.71L2.19,590.58C2.19,589.15 2.19,587.91 2.19,586.64L2.52,587.33C2.93,581.87 1.84,577.48 2.52,573.33C2.29,571.89 2.35,576.33 2.08,575C2.13,572.49 2.61,569.88 2.61,569.09C2.8,565.65 2.13,565.88 2.25,562.28C2.14,562.74 1.82,563.18 1.71,560.49C1.71,557.98 2.21,557.4 2.3,558.99C2.3,559.59 2.3,559.88 2.23,559.85C2.23,560.67 2.33,561.73 2.46,560.74L2.34,560.41C2.46,559.16 2.45,555.71 2.64,556.52C2.53,554.62 2.45,555.71 2.39,557.11C2.56,553.89 2.39,552.11 2.51,548.76C2.45,549.29 2.31,549.76 2.31,549.25C2.46,544.39 2.09,547.11 2.04,543.81C2.22,541.94 2.47,544.49 2.32,541.17C2.44,539.17 2.63,540.74 2.73,541.54C2.636,539.082 2.703,536.62 2.93,534.17L3,535.76C3,534.76 3,534.03 3,533.24L2.76,534.14C2.724,533.57 2.771,532.997 2.9,532.44C2.75,531.44 2.51,533.17 2.3,531.26C2.42,530.01 2.17,527.47 2.48,527.03C2.37,530.95 2.8,526.6 2.85,529.92C2.805,529.134 2.805,528.346 2.85,527.56C2.85,527.42 2.91,527.69 2.93,527.95C3.21,524.2 2.57,526.23 2.58,522.34C2.76,522.83 2.92,521.44 2.88,520.8C2.88,522.37 2.59,521.55 2.45,520.11C2.498,518.776 2.472,517.441 2.37,516.11L2.3,517.6C2.132,516.445 2.065,515.277 2.1,514.11C2.23,513.96 2.19,515.69 2.25,515.11C1.94,513.18 2.58,510.75 2.37,508.11C2.49,506.86 2.7,507.99 2.78,506.89C2.56,503.89 3.03,503.63 2.84,500.46C2.6,501.37 2.66,501.53 2.43,499.3L2.59,504.51L2.25,501.17C2.25,502.74 2.4,504.49 2.36,505.43C2.16,503.83 2.22,504 2.02,504.75C2.38,502.6 1.82,500.48 2.02,498L2.61,498.07C2.88,494.34 2.31,491.43 2.46,486.58L2.37,488C2.246,486.48 2.206,484.954 2.25,483.43C2.44,483.57 2.52,482.59 2.64,481.92C2.49,482 2.64,478.37 2.26,477.92L2.52,475.76C2.63,471.84 1.96,471.28 2.03,467.51C2.25,468.65 2.39,466.94 2.54,469.46C2.619,468.656 2.585,467.845 2.44,467.05C2.57,466.32 2.18,463.56 2.37,462.41C2.155,461.725 2.06,461.008 2.09,460.29C2.09,460.14 2.19,460.29 2.19,460.29C2.19,460.29 2.06,458.07 1.84,459.29C2.46,455.41 1.84,448.46 2.33,445.08C2.27,442.34 2.21,439.08 2.19,436.53C2.25,436.69 2.29,436.53 2.27,437.01C2.46,433.58 1.71,434.9 1.91,431.01C2.23,429.01 2.08,433.08 2.21,431.84C2.86,431.3 2.12,427.12 2.5,424.48L2.5,425.12C2.72,423.12 2.26,420.21 2.31,416.92C2.31,416.92 2.31,417.08 2.4,416.92C2.07,414.67 1.97,410.41 1.88,407.25C2.13,408.25 2.01,408.69 2.27,408.09C2.27,406.67 1.85,408.5 1.78,405.67C1.92,404.75 2.05,402.67 2.32,402.44L2.32,405.11C2.67,403.74 2.32,401.65 2.37,400.25L2.52,400.43C2.52,396.33 2.08,396.28 2.12,391.88L2,392.33C1.61,389.93 2.22,390.33 1.93,387.92L2.32,387.19C2.23,385.61 1.95,381.64 1.88,378.8C2.17,380.41 2.31,383.73 2.49,385.8C2.526,383.744 2.452,381.688 2.27,379.64C2.338,380.324 2.361,381.013 2.34,381.7C1.993,379.182 1.842,376.641 1.89,374.1C2.65,374.66 2.09,365.94 2.68,363.67C2.4,358.12 2.81,352.67 2.77,346.22C2.17,348.51 2.77,344.33 2.14,344.73C2.091,343.994 2.091,343.256 2.14,342.52L2.58,338C2.76,336.92 2.72,339.43 2.85,339.29C2.85,336 3.11,337.91 3.28,335.73C3.06,336.18 2.97,334.59 3.05,332.73L2.77,335.37C2.44,330.77 3.28,331.37 2.96,326.76L3.15,328.22C3.04,325.84 3.15,319.45 2.68,317.11C2.75,316.69 2.91,316.11 2.96,317.18C3.03,311.5 2.44,304.52 2.75,300.1L2.9,300.53C2.756,299.48 2.712,298.418 2.77,297.36C2.83,297.43 2.92,297.78 2.93,297.29C2.785,295.888 2.728,294.479 2.76,293.07L2.92,294.27C3.12,288.72 2.52,285.76 2.42,281.1C2.86,281.1 3.01,276.75 3.08,274.57L3.14,274.65C3.2,268.19 2.78,263.65 2.61,257.65C3.1,253.94 2.82,245.07 3.1,239.11C3.02,240.02 2.75,238.96 2.71,237.9C2.8,236.5 2.41,234.02 2.81,234.25L2.81,234.75C3.21,233.69 3.11,230.81 3.12,228.57L2.59,228.19C3.36,222.32 2.32,212.79 3.01,209.58C2.88,208.17 2.88,206.41 2.75,205L3.03,205.08C3.11,201.15 3.14,199.19 3.03,194.33L3.23,195.33C3.23,192.59 2.42,191.87 2.4,189.33L2.83,188.57C2.83,183.79 3.2,178.95 2.83,174.23C2.89,174.3 3.01,174.44 3.03,175.23C3.03,172.98 3.32,166.52 2.74,167.34C3.12,167.28 2.74,162.41 2.61,159.82L2.89,160.23C2.536,158.485 2.352,156.71 2.34,154.93C2.34,154.21 2.57,154.3 2.5,155.26C2.64,152.86 2.23,153.39 2.38,150.47L2.56,151.56C2.635,150.368 2.551,149.17 2.31,148C2.194,146.326 2.305,144.644 2.64,143C2.367,141.974 2.269,140.909 2.35,139.85C2.45,139.66 2.51,140.19 2.54,140.45C2.73,136.32 2.22,134.31 2.54,131.45C2.63,131.39 2.68,131.21 2.71,130.97C2.71,134.26 2.71,136.9 2.66,136.65C2.92,136.65 2.97,134 3.32,136.11C2.989,133.336 2.825,130.544 2.83,127.75C2.853,127.635 2.883,127.521 2.92,127.41L2.92,127.68C2.951,127.137 2.951,126.593 2.92,126.05C2.92,125.22 2.99,124.7 3,123.9C3.158,122.452 3.198,120.994 3.12,119.54C2.84,119.65 2.89,117.92 2.66,119.54C2.66,119.33 2.66,119.79 2.66,120.67C2.66,120.87 2.66,121.1 2.66,121.23C2.653,121.2 2.653,121.17 2.66,121.14C2.66,122.01 2.66,123.14 2.66,124.43C2.47,123.239 2.437,122.029 2.56,120.83C2.38,120.15 2.19,119.4 2.11,118.98C2.5,117.17 2.71,113.68 2.96,113.2C2.8,109.2 2.86,103.68 2.33,101.14C2.27,100.546 2.352,99.946 2.57,99.39C2.62,100.05 2.57,100.84 2.69,101.2C2.55,98.91 2.69,94.4 2.27,93.85C2.44,90.96 2.61,95.48 2.55,91.5L2.66,92.04C3.26,84.21 1.73,79.32 2.49,70.64C2.488,70.977 2.445,71.313 2.36,71.64C2.7,61.75 2.06,51.26 2.6,41.5C2.681,39.903 2.577,38.303 2.29,36.73L2.6,36.13L2.25,33.24C2,29.13 3,26.13 2.52,20.94L2.31,21.61C2.31,19.74 2.2,15.69 2.43,16.01C2.294,15.574 2.26,15.112 2.33,14.66L2.48,14.66L2.22,10C2.33,6.45 2.84,10.56 2.88,5.37C2.82,3.41 2.42,-0.16 2.32,0.57C2.357,1.247 2.269,1.925 2.06,2.57L2,0.85C1.51,0.53 1,-0.83 0.71,3.5L0.99,6.5L0.76,7.5L0.76,5C0.616,6.125 0.65,7.266 0.86,8.38C0.708,8.767 0.621,9.175 0.6,9.59L1.05,12.59C0.86,12.95 0.69,11.26 0.58,13.25C0.79,14.64 0.99,11.92 1.13,14.25C0.854,15.125 0.782,16.053 0.92,16.96C0.8,17.2 0.73,16.84 0.67,16.17C0.82,17.68 0.73,20.17 0.98,20.94C0.72,22.37 1,26 0.6,25.81C0.811,27.134 0.931,28.47 0.96,29.81C0.44,27.28 0.96,34.99 0.36,34.32C0.84,36.19 0.57,41.08 0.83,44.4C0.765,44.125 0.735,43.843 0.74,43.56C0.74,45.42 0.56,45.96 0.47,47.16C0.86,47.4 0.95,50.31 1.19,51.88C0.81,54.2 0.73,50.53 0.36,51.24C0.68,51.13 0.68,55.24 0.94,54.44C0.926,55.262 0.777,56.076 0.5,56.85C0.99,57.16 0.59,58.48 0.89,59.93C0.64,62.46 0.43,60.58 0.57,63.36C0.42,64.69 0.25,62.21 0.25,62.21ZM1.05,128.36C1.05,127.79 1.05,127.3 1.05,126.99C1,127.28 1,127.67 1.05,128.36ZM1.05,133.92C1.05,133.24 1.05,132.4 1.05,131.51C1.14,131.31 1.24,131.51 1.24,132.08C1.19,131.78 1.14,133.09 1.05,133.92ZM3.05,122.16C3.108,122.591 3.084,123.028 2.98,123.45C2.98,123.04 2.98,122.55 2.98,121.92L2.98,121.81C3.004,121.925 3.011,122.043 3,122.16L3.05,122.16Z" style="fill:rgb(152,125,81);fill-rule:nonzero;"/>
        </g>
        <g transform="matrix(1,0,0,1,0,-0.4)">
            <path d="M2.64,120.58C2.64,120.45 2.64,120.38 2.64,120.22L2.58,120.74C2.58,120.85 2.64,120.96 2.67,121.05C2.64,120.89 2.64,120.73 2.64,120.58Z" style="fill:rgb(152,125,81);fill-rule:nonzero;"/>
        </g>
        <g transform="matrix(1,0,0,1,0,-0.4)">
            <path d="M1.88,624.46L1.88,624.34C1.888,624.423 1.888,624.507 1.88,624.59C1.877,624.547 1.877,624.503 1.88,624.46Z" style="fill:rgb(152,125,81);fill-rule:nonzero;"/>
        </g>
        <path d="M0.46,210.27L0.53,210.27L0.47,209.78L0.46,210.27Z" style="fill:rgb(152,125,81);fill-rule:nonzero;"/>
        <g transform="matrix(1,0,0,1,0,-0.4)">
            <path d="M0.9,655.07C0.857,655.199 0.83,655.334 0.82,655.47C0.863,655.341 0.89,655.206 0.9,655.07Z" style="fill:rgb(152,125,81);fill-rule:nonzero;"/>
        </g>
        <g transform="matrix(1,0,0,1,0,-0.4)">
            <path d="M0.82,668.3L0.72,670.17C0.78,669.36 0.81,668.77 0.82,668.3Z" style="fill:rgb(152,125,81);fill-rule:nonzero;"/>
        </g>
        <g transform="matrix(1,0,0,1,0,-0.4)">
            <path d="M0.68,678.46C0.68,678.59 0.76,678.63 0.8,678.66L0.68,678.46Z" style="fill:rgb(152,125,81);fill-rule:nonzero;"/>
        </g>
        <g transform="matrix(1,0,0,1,0,-0.4)">
            <path d="M0.46,516.8C0.46,516.66 0.46,516.53 0.46,516.41C0.39,515.49 0.41,516.11 0.46,516.8Z" style="fill:rgb(152,125,81);fill-rule:nonzero;"/>
        </g>
        <g transform="matrix(1,0,0,1,0,-0.4)">
            <path d="M1.08,564.91C1.03,564.4 0.98,563.91 0.95,563.36C0.93,564.22 0.92,564.88 1.08,564.91Z" style="fill:rgb(152,125,81);fill-rule:nonzero;"/>
        </g>
        <g transform="matrix(1,0,0,1,0,-0.4)">
            <path d="M1,561.13C0.95,561.872 0.95,562.618 1,563.36C1,562.66 1,561.83 1,561.13Z" style="fill:rgb(152,125,81);fill-rule:nonzero;"/>
        </g>
        <g transform="matrix(1,0,0,1,0,-0.4)">
            <path d="M0.66,709.07L0.56,708.92C0.58,709 0.61,709.06 0.66,709.07Z" style="fill:rgb(152,125,81);fill-rule:nonzero;"/>
        </g>
        <g transform="matrix(1,0,0,1,0,-0.4)">
            <path d="M0.63,705C0.63,706 0.41,707.45 0.48,708.81L0.56,708.94C0.41,708.28 0.8,705.91 0.63,705Z" style="fill:rgb(152,125,81);fill-rule:nonzero;"/>
        </g>
        <g transform="matrix(1,0,0,1,0,-0.4)">
            <path d="M1.9,687.91L1.82,691.34C1.93,690.74 2.08,689.95 2.1,691.51C2.43,687.19 1.86,692.4 1.9,687.91Z" style="fill:rgb(152,125,81);fill-rule:nonzero;"/>
        </g>
        <g transform="matrix(1,0,0,1,0,-0.4)">
            <path d="M2.07,677.28C2.12,679.13 2.23,677.28 2.29,677.36C2.19,676.19 2.17,675.91 2.07,677.28Z" style="fill:rgb(152,125,81);fill-rule:nonzero;"/>
        </g>
        <g transform="matrix(1,0,0,1,0,-0.4)">
            <path d="M2.12,600.48L2.38,600.67C2.34,599.25 2.28,600.65 2.12,600.48Z" style="fill:rgb(152,125,81);fill-rule:nonzero;"/>
        </g>
        <path d="M0.81,585.4L0.65,586.78L0.88,587.44L0.81,585.4Z" style="fill:rgb(152,125,81);fill-rule:nonzero;"/>
        <path d="M2.64,576.73L2.67,577.35L2.58,574.98L2.64,576.73Z" style="fill:rgb(152,125,81);fill-rule:nonzero;"/>
        <g transform="matrix(1,0,0,1,0,-0.4)">
            <path d="M2.64,448.13L2.32,448.56C2.38,449.52 2.73,449.72 2.64,448.13Z" style="fill:rgb(152,125,81);fill-rule:nonzero;"/>
        </g>
        <g transform="matrix(1,0,0,1,0,-0.4)">
            <path d="M2.35,392.45C2.548,391.415 2.586,390.356 2.46,389.31C2.44,390.56 2.31,391.81 2.35,392.45Z" style="fill:rgb(152,125,81);fill-rule:nonzero;"/>
        </g>
        <path d="M2.98,225.04L3.08,226.16L3,224.05L2.98,225.04Z" style="fill:rgb(152,125,81);fill-rule:nonzero;"/>
    </g>
</svg>
