<svg xmlns="http://www.w3.org/2000/svg" viewBox="0 0 288.63 241.21"><defs><style>.cls-1{fill:#202020;}</style></defs><title>Fichier 1</title><g id="Calque_2" data-name="Calque 2"><g id="Calque_1-2" data-name="Calque 1"><path class="cls-1" d="M56.77,101.92c.26.15.85.07.73-.35l-1-.29Z"/><path class="cls-1" d="M58.61,99.13a2.23,2.23,0,0,0-2.24-.73c1,.48.56.6,1.7,1.12a.57.57,0,0,1-.69.65c.26.15-.22.65.41.87A1.16,1.16,0,0,0,58,99.1C58.17,99,58.43,99.1,58.61,99.13Z"/><path class="cls-1" d="M51,65l.26.12A.48.48,0,0,0,51,65Z"/><path class="cls-1" d="M25.94,64.42c.19,0,.27-.13.28-.22C26.05,64.27,25.9,64.33,25.94,64.42Z"/><path class="cls-1" d="M21.66,63.32l.25.07C21.81,63.3,21.72,63.25,21.66,63.32Z"/><path class="cls-1" d="M51,65l-.67-.31C50.32,65,50.72,64.89,51,65Z"/><path class="cls-1" d="M56.22,93.55a.9.9,0,0,0,.26.36c0-.11-.08-.23-.11-.34Z"/><path class="cls-1" d="M61,69v.3l.4.15C61.24,69.29,61.1,69.14,61,69Z"/><path class="cls-1" d="M61.12,78.18c0-.19-.81-.26-1.18-.33.35.11.52.25.58.42A2.64,2.64,0,0,0,61.12,78.18Z"/><path class="cls-1" d="M59.64,91.64l.11.24Z"/><path class="cls-1" d="M57.06,64a.45.45,0,0,0,0-.3A.52.52,0,0,0,57.06,64Z"/><path class="cls-1" d="M54.81,147.34H55C54.88,147.29,54.82,147.27,54.81,147.34Z"/><path class="cls-1" d="M59,137.49l0,.14.48,0Z"/><path class="cls-1" d="M13.82,62.24l0,0C14.06,62.16,13.94,62.18,13.82,62.24Z"/><path class="cls-1" d="M1.36,129.39c.76-.82,1,1.32,1.81.09C2.84,129.6,1.85,128.37,1.36,129.39Z"/><path class="cls-1" d="M56.33,93.33a2,2,0,0,1,0-.35A.66.66,0,0,0,56.33,93.33Z"/><path class="cls-1" d="M3.17,129.48h0l.08-.12Z"/><path class="cls-1" d="M1.25,75.46a1.28,1.28,0,0,0,.37-.18A.63.63,0,0,0,1.25,75.46Z"/><path class="cls-1" d="M9,64l-.52-.11A2.21,2.21,0,0,0,9,64Z"/><path class="cls-1" d="M2.44,82.45c-.06.18-.18.24-.07.49a.39.39,0,0,0,.1-.08C2.36,82.78,2.31,82.66,2.44,82.45Z"/><path class="cls-1" d="M2.44,89.72a.55.55,0,0,0,.17-.13l0-.23Z"/><path class="cls-1" d="M55.22,168.53l.76.05C55.38,168.48,55.16,168.17,55.22,168.53Z"/><path class="cls-1" d="M56.69,93.54c-.21,0-.32-.1-.36-.21,0,.08,0,.16,0,.24A.46.46,0,0,0,56.69,93.54Z"/><path class="cls-1" d="M9.09,82.75,9,83.9A5,5,0,0,0,9.09,82.75Z"/><path class="cls-1" d="M10.18,169.61l.27-.1A.26.26,0,0,0,10.18,169.61Z"/><path class="cls-1" d="M9.09,87.33a1.71,1.71,0,0,0-.58.65.76.76,0,0,0,.22.14Z"/><path class="cls-1" d="M56,168.58h0Z"/><path class="cls-1" d="M54,161.49c0,1.1,1.09.52,1.72.75.32,1.32-.81.61-1.38,1.06.29.82,1.31,1.45,1.27,2.06-.18,0-.25.17-.48,0a2.51,2.51,0,0,1,.49,1.74,4.63,4.63,0,0,0,.14,1c.09.22.24.27.52.46a.83.83,0,0,1-.27,0,10.34,10.34,0,0,1,1.52.17c0,.34.7.93,0,.81,0-.22-.27-.33-.5-.49.11.14.21.29.32.45-1-.13-.36-.58-1.13-.77a12.27,12.27,0,0,1,.69,1.12c.22.44.36.9.21,1-1-.81-.34-1.23-1.24-1.38a1.41,1.41,0,0,0,.39-.29c-1.61-.44.11-.16-1.61-.71-.24,0,.23.38.28.65,0,0-.1,0-.21-.07.37.57.75.84,1.07,1.41-.07.25-.34.22-.57.05a2.82,2.82,0,0,1-.64-.78c-.38-.6-.45-1.16-.52-.48s-.27,2-1.42,1.29l.4-1.15c-1.53-.12-.87,1.65-2.47.88.29-.45,1.2-.38,1-.52-1-.91-.73.65-1.53.65l-.16-1c-1.62.16-3.41.9-5.21,1.09.1-.31.41-.63,0-.94-2.27.51-4.84-.12-7-.73l-.84.88a.35.35,0,0,1-.15-.57c-.85-.33,0,.56-.45.91a.44.44,0,0,1-.34-.77c-1.5.74-4.28,1.61-5.86.66l.31-.26c-1.24-.36-1.4,1.81-2.54,1l.22-.15c-2.68-.38-5.64.42-7.68-.91-.39,1.27-2.65-.56-2.82,1.21-1.53-.88-1.09-1.19-3.24-1.78-.58-.09-.86,1.1-1.57,1.28l0-.92-1,1-.52-1.11-.66.24a.75.75,0,0,1,.52.68,1.49,1.49,0,0,1-.84.07,2.17,2.17,0,0,1-.42-.11.65.65,0,0,1-.15-.18,1.18,1.18,0,0,1-.09-.89,3.58,3.58,0,0,1-1.06.78c.32-.37.52-.5.73-.74-1,.94.7-1-.18-.11a9.88,9.88,0,0,1-.71.74,1.22,1.22,0,0,0,.1-.2c.36-.54.33-.67.13-.8q.31-.12.63-.27a.16.16,0,0,0,0-.17c0-.11-.07.09-.12-.6-.09-1-.2-2-.2-3a.82.82,0,0,1-1.51,0l1-.24c-.6-.39-.37.63-1.11-.17.11-.76,1.11-.51,1.43-.07l-.34-.93c.29-.06.45.16.82.22-.61-.38,1-1.61-.07-2.16l.29,0c0-2.05-.33-3-.38-4.66-.84,0-.66-.68-1.34-1.18a15.07,15.07,0,0,0,.86-4.07c-.42-1-.71-.3-1.21-.77.77-.07.69-1.55,1.24-.79a16.87,16.87,0,0,0-.77-4.51c-.32.25-.45.52-.72.38a.74.74,0,0,1,.7-.87l.07.11c-1.15-2.52,2.25-5.82.64-7.82l.08.11-.83-2.08c.13-1,.58.57,1-.14-1.28-2.24.19-3.54-.67-5.39,2.27-1.43-.16-5.08,1.29-7l-.53.11c-.53-.5.3-.6.42-1-.41,0-.48.54-.77.23-.64-4.23.78-8.73,1.27-13.06.14-1.59-2.77-.9-1.49-2.9l1,.57c-1.19-3.2,0-6.54-1-9.68.23.19.53.2.52.5.72-.66,0-2.45-.55-2.46.07-.48.53-.11.83-.41.43-.66-.92-1.67-.2-2,.12-.06.23.19.29.31-.35-.43.09-2-.74-1.6C8.78,90,8,88.92,8.51,88c-.93-.61.45-2-.87-2.2,1.36.08,1.1-2.07.46-2.81.41.25.42-.64,1-.35,0-.85-.27-1.63-1-1.48,1.63-1.56-1.3-3.14.78-4-.37-1.26-.67-2.47-.93-3.66-.12-.59-.24-1.17-.34-1.75l-.08-.43A.77.77,0,0,0,7.48,71l-.12-.42c.67.22.71.37.75.65,0,.6.09,1.19.8,1.14-.07-.27-.15-.53-.23-.77l-.13-.36c-.05-.14-.09-.09-.14-.15a2.28,2.28,0,0,1-.52-.51,1.55,1.55,0,0,1-.37-1.36c.18-.06.59.67.82.87a2.27,2.27,0,0,1-.19-.48A2.57,2.57,0,0,1,9,69.6a1.09,1.09,0,0,0,.4-.07l.2-.12a.82.82,0,0,1,.34-.19c0,.13-.25.27-.26.37s0,0,.15,0a1.24,1.24,0,0,0,.27,0c.17,0,.29-.12.26-.43l-.36.17c-.6-.89,1.49-1.86,1.56-2.33-.64,1.76,1.89.44.87,2.67a.81.81,0,0,0,.5-.82c.37.12.49.36.12.83,1.35-.34.87-1,2.09-1,0,.3-.25.41-.38.76A2.34,2.34,0,0,1,17,68.56c-.07.18.05.42-.26.41,1.78-.09,3-1.54,5-1-.58,1.29.66.42.76,1.54l1.05-.33-.42-.54c.91,0,1.72-.8,2.51-.43l-.68.46,1.72-.22-1-.42c.93-.58-.1-1.42,1.12-1.11-.25.12.92,0,1.39.68h0c.45-.36.92-.73,1.6-.45.17.36-.14,1.24,0,1.47.45-.93,2.15-.26,2.72-1.25a1.33,1.33,0,0,0-.14.94l.37-.76c.43.24.49.36.42.83,1.28.14-.4-1.42,1.11-.81-.12.06-.06.17-.31.29,1.53.32,2.94-.48,4.34-.11.42,1.13-1.22.28-.75,1.23,2-.21,4.18-1.35,6.13-1.09l-.36-.12c.27-1.59,1.45.78,2.44,0-.24.12-.31.89-.25.71,1.34.26,2.73-.39,4.76-.89l-.25.41a15.55,15.55,0,0,0,2.93.39c.25-.4.74-.34.44-.93.22.21.53.37.66.5a1.56,1.56,0,0,0,.41.25,1.34,1.34,0,0,0,.84,0,14.46,14.46,0,0,1,2.24-.65,2.52,2.52,0,0,1-.59,1.78c0-.18-.35-.15-.35,0a10,10,0,0,1,.37,1c.7-.31.42-.28,1-.83a.9.9,0,0,1,.73,1c-.23-.4-.51-.3-.78-.11s-.53.46-.72.6c.21-.06.45,0,.66,0-.61.4-.26.51.13.58s.85.23.44.94L58,72.39c.19.52.67,1,.57,1.58-.81.24-.38-.56-1-.6,0,.81,1.52,1.59.72,2.31-.22-.34-.22-.83-.45-1.17-.94.79-.7.88-.85,1.47l0-.06-.42,1.36.25-.35c2.09,1,.38,2,1.75,3.4-1.29-1.31-.75-.22-1.65-.32-.26.35-.54.87-.8.72.74.64-.57,1.07.5,2-.29,0,0,.68-.76.54.23.83.5-.2.87-.13,1,1.28-1.21,3,.16,4.85.56,1.59,1.55,1.89,2,3.36-.46.5-1.06-.41-1.06-.41a2.21,2.21,0,0,0,0,2.17c-.25-.16-.47,0-.8.23.08.61,1.07.41.64,1.21a4.43,4.43,0,0,1-1.18-.61c.27.72.82,1.42,1.08,2.16-.51.2-.77-.44-1.11-.7.23.83.47,2.15,1.27,2.41l.29-.54c0,.31-.69.16-.84-.06-.63-.72.28-1,.57-1.07l.19.52c1.72-.54-.27-2.11-.18-3.17L59,93.9l-1-1.09c.32-.23,1-.39,1.21.13.61-.76-.45-.67.24-1.32.11-.08.17,0,.22,0l-.38-.74c.27.15.89-.12.71.33.72-1.33-.94-2.15,0-2.65l.08.11c-.42-1.85-.91-.18-2-1.57l2.26-.93L59.4,86c0-.19.11-.57.47-.5-.62-.71-.4.12-1-.29.84-.92-.39-2.54,1.07-2.75-.7-.33-.54.88-1-.1,1.57-.28-.27-1.13.45-2,.81.25.38,1,1.11.21-1.37-.51.29-1.64,0-2.34-1.09,0-.45-1.54-.81-2.73.36.07.59-2.24,1-3.35l.18,0a1.09,1.09,0,0,1-.89-.86c-.11-.45-.12-1.11-.23-1.57a.91.91,0,0,1,1.21.63V69.3c-.35-.17-.54-.44-.67-1,.28,0,.55-.07.83-.09a7.16,7.16,0,0,0-.35-1.74,4.88,4.88,0,0,1-.23-1.84,2.37,2.37,0,0,1-.72-.16A14.7,14.7,0,0,0,59,65.84a3.36,3.36,0,0,1-1.73,1.23c.29-.42.77-1.13,1.33-1.3-.19.06-.75.35-.88.17.38-.23.77-.46,1.2-.7-.52-.3-.84.59-1.34.52.41-.59-.15-.42.22-.89.2-.06.38.24.79,0-.63-.11-1.33-.46-1.48-.91a1.12,1.12,0,0,1-.9.88c-1.39,0-.27-.71-1.11-1-.43.41-1.39,0-1.32.87-.3,0-.36-.41-.48-.66-.53.4-2.51.12-1.9,1.06l.14.06-.09,0h0c-1.76.88-3.66-.5-5.41-.12v-.3c-1,.34-2.32.2-3.07.84a.79.79,0,0,1-.6-.9c-.79.23-.88.56-2,.07.81-.52-.27-.46.83-.38-1-.25-1.28-.73-2.39.08.38-.76-.78-.95-1.27-.73l.72.55a4.6,4.6,0,0,1-1.53,0l.27-1c-2.12-1.22-3.83,2.06-5.45,0-.56.7,1.16.49.65,1.31-1-.14-2-1.57-2.29-1.57-1.34-.55-1.25,1.46-2.65,1.08a1.12,1.12,0,0,1-.7,1.64c-1-.13-1.2-1.49-.58-1.78.23,0,.34.08.33.2.32-.13.73-.28.35-.66l-.13.35c-.48-.36-1.83-.32-1.51-.91-.74.34-.32.59.23.77-1.25-.51-2,0-3.25-.36.21.2.4.61.19.61-1.89-.44-.83.68-2.11.83-.73-.54.26-1.29-1-.84-.79-.37-.17-.94.14-1.23-1.17.68-2.19-.45-2.87-.58l.62-.29a2.12,2.12,0,0,1-1,.17l.36.71c-.37-.13-.68-.13-.67-.42-.37.46.29,1.18-.46,1.82-.48-.36-1.47.39-1.64-.56,1.52.32-.17-1,1.12-1.1a1.2,1.2,0,0,1-.91,0c-.06-.1.05-.19.15-.25-1.46-.84-.67,1.07-2.19,1,.2-.53-.35-1-.59-.9.61,0,.29.89-.27,1.3a.94.94,0,0,0-.95,0,1.92,1.92,0,0,1-.38.19A1,1,0,0,1,9,64c.28.06.62.13.83.19-.22.54-.93.47-1.77.63-.2-.41.78-.28.4-.46-.43.46-1,.22-1.81-.06s-1.78-.6-2.34-.28c-1-.36-.84-1-1.76-1.25a2.06,2.06,0,0,1-1.1.19c-.1.83-.77.85-.35,2.8.72-.18.54-.27,1.24,1.48l-.5-3.58c.35,1,.69,2,1,2.84,0-.73-.34-1.88-.35-2.46l.27,0a.26.26,0,0,0-.07.18c.37,1,.3.77.82,1-.54,0-.38.78-.18,1.48s.44,1.37.08,1.82l-1.77-.82a6.07,6.07,0,0,0,.1,3.45,4,4,0,0,1,.36,2.45l.31-.61c.7.26.1,1.17.38,1.78-.59-.06-.8.32-1.17.59.44,0,0,1.38,1.14,1.55L2,77.67c-.32,1.53,1.69,1.74,1.49,3.21-.65-.44-1.07.22-1.53-.76,0,.49-.11.93.3.94-.37.28.8,1.35.23,1.8.26.21.89.28.84.83a.47.47,0,0,1-.3,0c.3,0,.4.86,1.06.38-1.85,1.5.13,4.21-1.46,5.52a27.59,27.59,0,0,1,.44,3.32c-.18-.06-.3,0-.24-.18-.55,1.34,1.7.82,1.09,2.34-1,.78-.52-.81-.88-.32-1.95.21.26,1.83-.87,2.86L2,97.36c-.66.78.74,1.91.6,3.19a.48.48,0,0,0-.29,0c1,.88,1.32,2.53,1.6,3.76-.77-.38-.41-.56-1.18-.32.11.55,1.24-.16,1.46.94-.42.35-.78,1.15-1.61,1.25l0-1c-1.07.53,0,1.34-.15,1.89L2,107c.15,1.59,1.33,1.61,1.24,3.32l.36-.18c1.16.94-.66.79.21,1.72l-1.19.28a16.42,16.42,0,0,1,1.37,3.27c-.88-.63-1.33-1.92-1.85-2.72,0,.61.09,2.07.67,2.39-.11-.24-.4-.55-.22-.8a3.55,3.55,0,0,1,1.37,3c-2.3-.22-.58,3.17-2.36,4.06.85,2.15-.36,4.27-.23,6.78,1.79-.89.05.74,1.89.58.11.59.08.81,0,.86l-1.1,1.77c-.53.42-.4-.55-.82-.5-.14,1.28-.77.54-1.26,1.39.66-.18.94.44.69,1.17l.85-1c1,1.79-1.54,1.55-.58,3.35l-.57-.57c.34.93,0,3.42,1.46,4.32-.21.17-.72.38-.85,0-.22,2.21,1.57,4.92.66,6.64l-.45-.17c.13.42.85.72.39,1.24-.18,0-.44-.17-.47,0,.16.22.79,1.1.53,1.65l-.51-.47c-.59,2.16,1.23,3.31,1.54,5.12-1.32,0-1.75,1.69-2,2.54l-.18,0c-.17,2.51,1.09,4.27,1.61,6.59a5,5,0,0,0-.94,3.28c0,.67-.05,1.36-.11,2L1,169.27c-.06.58-.13,1.15-.23,1.72.23-.72,1-.19,1.16.39a2.58,2.58,0,0,0,.2,1.4c.11.39.11.73-.5,1.09l0-.34a5.45,5.45,0,0,0-.92,3.65c.48,0,1,0,1.42,0,.53-.53,1-1.06,1.55-1.59.84,1.16,4,.94,6.08.7,1.36-.24,2.6-.51,3.23.52.55-.4,1.23-.39,1.78-.79l0,.85a13.27,13.27,0,0,0,4.18.12l-.39.61c1.07.06,1.35-2.45,2.33-2.5l.3,1.27c1.86,0,3.74,1.09,5.58-.06,0,.19-.09.56-.39.61.88,0,3.39.86,3.07-.89,0,1.14,1.92.12,2.92-.38l-.16.83c.85-1.07.88-1.36,2.06-1.65.28.1.25.67-.12.45.93.44.72-.79,1.86-.35l-.43.54c1,.06.89-.22,1.42-.85a1.59,1.59,0,0,1,2,1c.12-.46.65-1.08,1.22-.86a.53.53,0,0,1-.24.55c1.61.57,2.4-1,3.5-.15a.69.69,0,0,0,.19.5,10.61,10.61,0,0,1-2.21-.13c0,.77,1,.91.21,2,.83-.58,2.24-1.84,3.25-1.48a.85.85,0,0,1,.13.27l-.1.08a.68.68,0,0,0,.63-.12,2.25,2.25,0,0,0,.84.23c.12.64,1.18.35,1.69.38,0-.85.64-.71,0-1.41.09.06-.09.1-.43.14a.49.49,0,0,0-.22.09l0-.08c-.34,0-.78.05-1.28.06.41-.43.83-.79,1.4-.32.27-.54.56-1.1.72-1.36.7,1.17,2.06,1.81,2.25,2.53.79-.23,1.71-.31,2.56-.53.67-.21,2.18-.57,2.54-1.36.52-.21.83.45,1.18.7-.31.16-.78.14-.93.36,1.21-.4,4-.15,3.31-1.26.89.24,1,.48,1,.65s0,.26.77.21l0-.31.32.61h0a5,5,0,0,0,.33-3,17.5,17.5,0,0,0-.81-3.19c-.16-.46-.31-1-.44-1.31a4,4,0,0,1-.27-1,3.27,3.27,0,0,1,.63-2.29c-.14.23-.21.35-.39.39,1-3.84-.94-7.92.65-11.72.32-1.07-.39-1.19-.93-1.85l.91-.23-1-1.13c-.76-1.59,2.22-2.76.78-4.78l-.61.26c.11-.73-.36-2.3.34-2.18-.11-.07-.63-.24-.32-.52l.48,0-.82-1.79c.35-1.38,1.89.22,2-1.8-.18-.75-1.38-2.13-1.7-1.85a.89.89,0,0,1-.77.8l-.25-.69c-1.39-.12-2.82-.65-3.8,1l.86,1.17-.68.38,0-1c-.64.56-.08.92.31,1.32a1.16,1.16,0,0,0-.75.49l1.34,1.15c-.55.14-1.09-.52-1.39.26.62.54,1.23-.52,1.63.37-.63.56-1.15.4-.61,1.06a.61.61,0,0,1-.74-.31c.43.59.18,1.55.92,1.85-.78.59.2,2-1.12,1.92a3.06,3.06,0,0,1,1.1,1.58c-1.59-1-.1,2-1.79,1.75,1.42.73.63,2.63,1.42,3.92-.12-.07-.34-.21-.27-.33-.12.73-.55.94-.82,1.41,1.18.09,1.45,1.22,2.17,1.83-1.13.89-1.38-.54-2.47-.26,1,0,1,1.54,1.75,1.24-.71.68-.34.59-1.32.94,1.47.12.25.63,1.15,1.2-.72,1-1.37.25-.93,1.33C54.5,162.46,54,161.49,54,161.49ZM44.6,170.8v0l.53-.05Zm-2.16,0a6.85,6.85,0,0,0,.94,0c.07.3,0,.59-.23.58C43.27,171.23,42.76,171.06,42.44,170.81ZM47,176.65c-.34.12-.46,0-.5-.21a4.82,4.82,0,0,0,.59-.11l0-.1A1.48,1.48,0,0,1,47,176.65Z"/><path class="cls-1" d="M47.63,175.55s.07-.06.14-.06a1.2,1.2,0,0,0-.21-.19l-.12.26Z"/><path class="cls-1" d="M51.35,65.1l-.05,0a.29.29,0,0,1,.1.12A.93.93,0,0,1,51.35,65.1Z"/><polygon class="cls-1" points="12.59 169.2 12.59 169.41 12.78 169.22 12.59 169.2"/><path class="cls-1" d="M57.13,71a.61.61,0,0,0-.21.11A.47.47,0,0,0,57.13,71Z"/><path class="cls-1" d="M56.94,76l-.3.73A3.51,3.51,0,0,0,56.94,76Z"/><path class="cls-1" d="M56.52,79.93a1.55,1.55,0,0,0,.37.08h0Z"/><path class="cls-1" d="M9.63,69.59l-.05,0C9.49,69.79,9.55,69.73,9.63,69.59Z"/><path class="cls-1" d="M28.19,67.62a3.68,3.68,0,0,1-.6.4C27.92,68.08,28.18,68.1,28.19,67.62Z"/><path class="cls-1" d="M9.11,82.62h0v.13Z"/><path class="cls-1" d="M26.72,68a1,1,0,0,0,.87,0A1.36,1.36,0,0,0,26.72,68Z"/><path class="cls-1" d="M56.14,97.07l0,.19a.25.25,0,0,1,.13,0Z"/><path class="cls-1" d="M56.24,97.29l.1.21C56.34,97.4,56.33,97.32,56.24,97.29Z"/><path class="cls-1" d="M56.55,97.94l-.21-.44C56.34,97.65,56.31,97.84,56.55,97.94Z"/><path class="cls-1" d="M56.53,91.84l-.31-.06A1,1,0,0,0,56.53,91.84Z"/><path class="cls-1" d="M56.44,90.25c-.07.38-.65,1-.46,1.48l.24,0C55.77,91.53,57,90.61,56.44,90.25Z"/><path class="cls-1" d="M60.22,83.61,60,84.94c.32-.23.76-.54.84.07C61.79,83.33,60.09,85.35,60.22,83.61Z"/><path class="cls-1" d="M60.69,79.47c.16.72.48,0,.66,0C61.05,79.05,61,78.94,60.69,79.47Z"/><path class="cls-1" d="M42,64.43l.08-.77C41.54,63.77,42.09,64,42,64.43Z"/><polygon class="cls-1" points="36.31 68.39 36.85 68.87 37.11 68.17 36.31 68.39"/><polygon class="cls-1" points="32.94 62.93 33.18 62.82 32.26 63.09 32.94 62.93"/><path class="cls-1" d="M1.7,88.43l.94-.17C2.47,87.89,1.41,87.81,1.7,88.43Z"/><path class="cls-1" d="M2.66,110.09c-.47.23-.77.84-.31,1.22C2.41,110.82,2.78,110.33,2.66,110.09Z"/><polygon class="cls-1" points="4.64 176.78 3.66 177.09 5.3 176.83 4.64 176.78"/><path class="cls-1" d="M57.51,169.33c-.35,0-.62.58,0,.92l1-.46Z"/><path class="cls-1" d="M59.77,173.62c.91.14,2.15.07,2.35-1-1.21.23-1.1-.2-2.47.13-.59-.34-.69-1-.37-1.2-.34.05-.65-.83-1.33-.58a2.57,2.57,0,0,0,2.28,2.13C60.28,173.47,59.93,173.52,59.77,173.62Z"/><path class="cls-1" d="M108.57,217l-.24-.36A1.08,1.08,0,0,0,108.57,217Z"/><path class="cls-1" d="M142.5,239.33c-.33.15-.44.3-.43.39C142.37,239.54,142.61,239.38,142.5,239.33Z"/><path class="cls-1" d="M149.6,235.57l-.37.29C149.43,235.8,149.58,235.7,149.6,235.57Z"/><path class="cls-1" d="M108.57,217l.62.94C109.46,217.7,108.92,217.36,108.57,217Z"/><path class="cls-1" d="M68.21,177.57a1.8,1.8,0,0,0-.62-.17,4.67,4.67,0,0,1,.49.27Z"/><path class="cls-1" d="M94.5,206l-.25-.21a2.39,2.39,0,0,0-.47.13Z"/><path class="cls-1" d="M84,197.28c.22.23.84-.35,1.17-.55a1,1,0,0,1-.89,0A1.4,1.4,0,0,0,84,197.28Z"/><path class="cls-1" d="M68.35,182.16,68,182C68.08,182,68.23,182.12,68.35,182.16Z"/><path class="cls-1" d="M101.83,212.49a.7.7,0,0,0-.1.31A.46.46,0,0,0,101.83,212.49Z"/><path class="cls-1" d="M72,58.16c0-.06-.07-.08-.1-.12C71.89,58.16,71.91,58.22,72,58.16Z"/><path class="cls-1" d="M57,64.92l.14-.17a2.09,2.09,0,0,0-.27-.39Z"/><path class="cls-1" d="M157.76,224.46l0,0C157.66,224.88,157.73,224.68,157.76,224.46Z"/><path class="cls-1" d="M158.25,107c-.75,1.31-1-2.14-1.8-.16C156.78,106.65,157.76,108.64,158.25,107Z"/><path class="cls-1" d="M68.41,177.89c.14.11.29.22.43.35A1.82,1.82,0,0,0,68.41,177.89Z"/><path class="cls-1" d="M156.45,106.84h0l-.08.2Z"/><path class="cls-1" d="M158.37,193.87a1,1,0,0,0-.37.29C158.09,194.15,158.19,194.09,158.37,193.87Z"/><path class="cls-1" d="M157.17,215.55l.11-.54A2.24,2.24,0,0,0,157.17,215.55Z"/><path class="cls-1" d="M157.18,182.61c.06-.3.18-.39.07-.79a.32.32,0,0,0-.11.12C157.26,182.08,157.31,182.27,157.18,182.61Z"/><path class="cls-1" d="M157.17,170.89c-.06.06-.11.14-.17.21s0,.26.05.37Z"/><path class="cls-1" d="M99.41,35.49a2.64,2.64,0,0,1-.9-.25C99,35.59,97.83,36.84,99.41,35.49Z"/><path class="cls-1" d="M67.91,177.94a.46.46,0,0,1,.5-.05l-.33-.22C68,177.75,67.89,177.83,67.91,177.94Z"/><path class="cls-1" d="M150.53,182.13l.12-1.86A13,13,0,0,0,150.53,182.13Z"/><path class="cls-1" d="M151.29,28.18l-.11-.4A.46.46,0,0,0,151.29,28.18Z"/><path class="cls-1" d="M150.53,174.74a2.74,2.74,0,0,0,.58-1.05.88.88,0,0,0-.22-.21Z"/><path class="cls-1" d="M98.5,35.24h0Z"/><path class="cls-1" d="M90.24,44.48c1.4-1.1,0-1.36-.15-2.08,1.44-1.58,1.28,0,2.2,0,.84-1,1-2.47,1.77-3.06.18.1.37,0,.34.34.53-1.55,3.2-2.63,3.76-4.51a.61.61,0,0,1,.34.08,2.83,2.83,0,0,1-1.16-1c.6-.51.7-1.47,1.39-1.1-.39.29-.23.55-.27.86l.45-.76c1.25.33-.66,1-.17,1.58,1.05-1.28,2-3.13,3.13-3.69.85.63-2,2.1-.18,1.75l-1.74.91c2.16.32-1,.65,1.16,1.13,2.16-1.37,1.88-2.18,4-3.54.08-.8-.68-.53-.59-1.33,2.15-3,3.82.21,5-2.5.11-1-.5-2.12,1.39-2.77l.23,1.29c2-1.45,0-2.16,2.53-3.18-.07.64-1.26,1.51-.88,1.38,1.87-.34.5-1.24,1.5-2.05l.85.63c1.93-1.77,3.7-4.15,5.83-6.11.07.34-.11.9.61.71,2.51-2.68,6.13-4.79,9.25-6.53l.49-1.53c.25-.19.7-.06.55.29,1.27-.6-.3-.48,0-1.16a1,1,0,0,1,.4-.26.42.42,0,0,1,.2.1,1,1,0,0,1,.26.45.85.85,0,0,1,.07-.38.39.39,0,0,1,.13-.2c.13-.1.27-.19.42-.29a9.7,9.7,0,0,1,2-1,5.42,5.42,0,0,1,4-.06l-.41.25a2,2,0,0,0,1.74-.52,1.16,1.16,0,0,1,1.66,0l-.32.07a12.67,12.67,0,0,1,4.44,2.68,6.37,6.37,0,0,1,2,4.37c.71-.06.92.9,1.19,1.75s.44,1.73,1.34,1.62a14.12,14.12,0,0,1-.49,2.24,11.24,11.24,0,0,0-.32,2.84c0,.85,1.26,1.13,1.55,2.2l-.92.11,1.07,1.4-1.05.84c.11.33.18.67.27,1,0-.41.4-.89.66-.84.46,1.61-.56,3.94-1,4l.78,4c-.37-.08-.5-.75-.74-1.27.94,2.11-1,.38-.11,2.32.21-.26.55.14.74.19-.56,1-.56,3.17-.33,4.8l-.64-.32c-.16,2.95.31,6.21.3,9.51.3-1.18,1.4-.91,1.51.06l-1,.39c.6.62.37-1,1.11.27-.12,1.23-1.11.83-1.43.12l.34,1.5c-.3.09-.45-.26-.82-.35.61.61-1,2.59.07,3.48l-.29.08c0,3.3.33,4.8.38,7.49.84,0,.65,1.11,1.34,1.91a37.27,37.27,0,0,0-.86,6.55c.42,1.68.71.49,1.21,1.24-.77.13-.69,2.51-1.25,1.27a43.65,43.65,0,0,0,.78,7.27c.32-.39.45-.83.71-.6.13.65-.32,1.49-.69,1.39l-.08-.17c1.16,4.06-2.24,9.37-.63,12.6l-.08-.18.83,3.35c-.13,1.54-.58-.92-1.05.22,1.28,3.61-.19,5.71.67,8.69-2.27,2.3.16,8.18-1.29,11.29l.53-.18c.53.8-.3,1-.43,1.56.42-.08.48-.87.77-.37.65,6.81-.78,14.06-1.26,21-.14,2.56,2.76,1.45,1.49,4.67l-1-.91c1.19,5.15,0,10.54,1,15.58-.23-.3-.53-.31-.53-.8-.72,1.07,0,3.94.56,4-.07.79-.53.18-.83.67-.43,1.07.92,2.68.2,3.25-.12.09-.23-.3-.29-.5.35.7-.09,3.25.74,2.58-.39,1.89.37,3.62-.12,5.13.93,1-.45,3.25.87,3.56-1.36-.14-1.1,3.32-.46,4.52-.41-.4-.42,1-1,.57,0,1.36.27,2.62,1,2.38-1.62,2.52,1.31,5.06-.77,6.48.73,4.05,1.22,7.81,1.54,11.46-1.35-.13-.13-4-1.55-3.88.55,3.47,1.72,5.46,1.39,8.9-.19.89-.59-.51-.82-.81.56,3.47-.12,6.7.61,9.77-.12,0-.26-.34-.36-.65,0,.61-.2,1.41.41,1.34l-.16-.59c.89-1,1.86,2.41,2.33,2.52-.44-.26-.69-.2-.84,0a1.24,1.24,0,0,0-.19.4c-.05.16-.09.36-.13.44s-.16.39-.41.41a2.72,2.72,0,0,1-1.1-.32,1.37,1.37,0,0,0,.72.48.38.38,0,0,1-.17.12c-.06,0-.14.09-.21.07s-.23-.25-.43-.38a3.31,3.31,0,0,1-.06.51,4.38,4.38,0,0,0,0,.47,3.46,3.46,0,0,0,.07.64,2.13,2.13,0,0,1-.32,1.54c-.27-.14-.21-.53-.44-.85a4.17,4.17,0,0,1-.78,3.49c-.11-.17-.4-.12-.17-.53a29.18,29.18,0,0,0-1.3,3.52,6.36,6.36,0,0,1-2.2,3.17c-.19-.75-.44-.64-.74-.43s-.69.49-1.13.13c-.26.4-.54.8-.83,1.17a6.83,6.83,0,0,0,.79.06c-1,.79-1.49,2.1-2.64,2.22.22-.26.41-.55.6-.81a8.12,8.12,0,0,1-1.94,1,6.57,6.57,0,0,0,1.33,0,.93.93,0,0,0-.28,1.06c.07.24,0,.41-.9.48.36-.18-1.41.28-2-.49h0a2.12,2.12,0,0,1-2.32,0c-.12-.41.57-1.13.49-1.39a.91.91,0,0,1-.81.18,3.46,3.46,0,0,1-1-.32c-.35-.17-.72-.31-1.07-.44a1.77,1.77,0,0,0-1-.13,1,1,0,0,0,.72-.64l-.9.29c-.35-.59-.33-.75,0-1-.65-.66-.78-.31-.89,0s-.22.54-.91-.5c.19.09.2-.05.57.13-1.6-1.92-3.84-2.89-5.28-4.66.25-1.28,1.66,1.11,1.72-.1-2.57-2-6-3.46-8.15-5.74l.36.48c-1.37.91-1.25-2.13-3-2.6.37.16,1-.34.77-.27-1.46-1.61-3.59-2.59-6.39-4.34l.57-.05a40.46,40.46,0,0,0-3.32-3.37c-.58,0-1.13-.52-1.15.24-1.71-4.51-7-4.29-8.55-8.19.35.28,1.05.42.78.19L97,202.8c-.26.69,0,.59.21,1.44a3.23,3.23,0,0,1-2.07-.81c1.39.59.71-.85.49-1.55-.06.23-.38.27-.48.47-.47-2-1.11.88-2.31-1.22l.32-.2a7.79,7.79,0,0,1-2.31-1.23c.23-.86.93.3,1.41-.16-1-.8-2.93-.49-3.31-1.86.57.18,1.17.69,1.73.88a3.35,3.35,0,0,0-1.25-2.18l.05.07L88,194.72l.26.55c-2.59.55-2.76-1.83-5.31-2.2,2.46.38.75-.34,1.46-.93-.26-.55-.72-1.32-.37-1.35-1.26-.11-.94-1.55-2.75-1.67.14-.27-.82-.73-.17-1.15-1.17-.68-.08.6-.41.8-2.22-.56-2.92-4.05-6.08-4.91-2.32-1.22-3.31-.77-5.45-1.92-.31-.88,1.19-.4,1.19-.4a5.45,5.45,0,0,0-2.65-2.25c.35,0,.29-.37.22-.86-.8-.57-1.19.4-1.9-.76a3.92,3.92,0,0,1,1.51-.27c-1.06-.54-2.28-.85-3.36-1.42.08-.59,1-.13,1.58-.11-1.17-.69-3-1.88-3.79-1.53l.47.77c-.4-.28.26-.69.63-.57a1.09,1.09,0,0,1,.95,1.55l-.78-.41c-.43,1.88,2.79,2,4,3.16l-1.35.5,2,.34c.08.49-.18,1.18-.94.78.54,1.26,1.11.36,1.48,1.57,0,.15-.06.16-.18.13l1.16.49c-.35,0-.42.8-.86.19,1.18,1.93,3.25,1.52,3.26,2.76l-.19-.06c2.56,1.6.82-.51,3.22.11l-.31,2.7.82-.52c.21.23.63.67.31.88,1.28.26.11-.43,1-.45.59,1.59,3.37,2.33,2.68,3.66.86-.19-.73-1.32.79-.67-.67,1.49,1.57,1,2.14,2.39-.84.35-1.54-.8-1,.63,1.51-.52,1.82,1.93,2.86,2.46.75-.79,2.19,1.26,3.89,2.22-.33.2,2.36,2.78,3.46,4.24l-.16.1c1-.61,2.24.73,3.41,1.42-.47.47-.82.51-1.56.27l1,.81a2.2,2.2,0,0,1,1.58.47l-.78.42c1.31,1,3.2,1.45,4.48,3.26.59-.5.08-2.74,2.15-1.65-.2.37-.6,1-1.16.71.18.08.75.19.93.58l-1.14-.06c.55.87.77-.11,1.32.45-.4.44.17.69-.22,1-.19-.09-.36-.63-.74-.65a4.09,4.09,0,0,1,1.16,2.19.67.67,0,0,1,1.06-.25c1.3,1.06,0,.92.52,1.78.57-.05,1.11,1,1.7.32.37.32.17.69.16,1,.92.26,3.14,2.54,3,1.19l-.13-.19s.08,0,.13.06h0c2.73,1.19,4.15,4.22,6.52,5.78l-.2.22c1.49.85,3,2.3,4.28,2.61.38.33.53,1.18.14,1.31,1.11.67,1.44.52,2.51,2.11-1.31-.46,0,.64-1.24-.59,1.08,1.3,1.06,1.89,2.92,2.48-1,.16.3,1.54,1,1.9l-.5-1.18a11.62,11.62,0,0,1,1.81,1.65l-1,.46A7.2,7.2,0,0,0,128.2,236a11.53,11.53,0,0,1,2,1.23,5.1,5.1,0,0,1,1.54,1.87c.65,0,.22-.42-.19-.82s-.72-.87-.12-.94a12.22,12.22,0,0,1,.94,1c.32.35.57.76.87,1.08.59.66,1.09,1.29,1.42,1.36a2.8,2.8,0,0,0,2.8.12,10.8,10.8,0,0,1,1.12-.47,7.22,7.22,0,0,1,1.64-.21.77.77,0,0,1-.32-.79c.08-.34.43-.68,1.24-1.08,1.57-.37,2.62.61,1.59,1.34-.43.19-.67.16-.69,0-.55.3-1.36.65-.49.83l.16-.41a3.11,3.11,0,0,0,1-.11,10.89,10.89,0,0,0,1.13-.3c.69-.23,1.22-.36,1.08.05.57-.52.6-.74.4-.76a5.18,5.18,0,0,0-1.18.3,7.25,7.25,0,0,0,2.74-1.49c.73-.6,1.38-1.24,2.32-2-.4.14-.94.08-.68-.18,1.33-1.07,1.42-1.48,1.38-1.81s-.21-.6.37-1.51c1.16-.68.81,1.14,1.71-.94,1.05-.93,1,.27.87.9.6-2.08,2.43-3,3.1-4-.08.37-.17.73-.27,1.09a7.2,7.2,0,0,1,.68-1.6l-.92.22c.41-.5.65-1,.91-.83-.13-.79-1.27-.1-1.29-1.51.69-.58.68-2.41,1.65-2.3-1.33,2.26,1,.11.23,2.21a3.9,3.9,0,0,1,.66-1.45c.14-.05.15.16.13.34a4.78,4.78,0,0,0,.49-.65c.05-.1.1-.18.13-.26l0-.13a1.21,1.21,0,0,0,.05-.18,1.66,1.66,0,0,0,0-1c-.12-.28-.13-.55-.33-1a5.75,5.75,0,0,1-.27-1.73c.53.31,1-.57.9-1,0,1-.89.47-1.3-.43.41-1.57-.31-1.7-.26-2.52l-.19.93c-.54-.31-.47-1.09-.64-2.18.42-.09.29,1,.47.6-.93-1.21,1-2.73.34-4.42.36-.78,1-.07,1.25-.76-.69-1.89.73-2,.15-4-.71.57-.54.67-1.23-.73l.5,3.27-1-2.1c0,1,.45,2.08.33,2.67-.59-1-.41-.89-1-.42,1.07-1.35-.63-2.67.1-4.23l1.77,0c.79-2.35-.91-4.17-.46-7.21l-.31,1c-.71-.41-.1-1.88-.39-2.86.6.09.81-.53,1.18-1-.44.05,0-2.22-1.14-2.5l.78-1.36c.32-2.45-1.69-2.8-1.49-5.16.65.71,1.07-.36,1.53,1.22,0-.79.11-1.5-.3-1.51.37-.46-.8-2.19-.24-2.91-.26-.33-.88-.44-.83-1.33.12-.09.3,0,.3,0-.3,0-.4-1.39-1.06-.62,1.85-2.42-.13-6.78,1.45-8.9-.19-1.72-.38-3.79-.43-5.35.18.1.3,0,.24.3.55-2.16-1.7-1.33-1.09-3.78,1-1.25.52,1.31.88.52,2-.34-.27-2.95.87-4.6l.12.4c.66-1.27-.74-3.08-.6-5.14,0,0,.17.1.29,0-1-1.41-1.32-4.08-1.6-6.06.77.62.41.9,1.18.53-.11-.89-1.24.26-1.46-1.52.42-.57.78-1.85,1.61-2l0,1.67c1.08-.86,0-2.16.15-3.05l.47.12c-.15-2.57-1.33-2.6-1.24-5.36l-.36.29c-1.17-1.51.66-1.26-.21-2.77l1.18-.45a38.09,38.09,0,0,1-1.36-5.26c.88,1,1.32,3.09,1.85,4.38,0-1-.09-3.35-.68-3.86.12.4.41.9.23,1.29a7.48,7.48,0,0,1-1.37-4.76c2.29.35.58-5.12,2.36-6.54-.85-3.47.36-6.89.23-10.93-1.79,1.43-.06-1.18-1.89-.93-.12-.94-.09-1.3,0-1.39l1.1-2.85c.53-.68.4.89.81.81.14-2.07.78-.87,1.27-2.23-.66.28-.94-.72-.69-1.9l-.85,1.66c-1-2.88,1.54-2.49.58-5.4l.57.92c-.34-1.49,0-5.5-1.46-7,.21-.26.72-.61.85,0,.22-3.56-1.57-7.93-.66-10.7l.45.27c-.13-.66-.85-1.15-.4-2,.19,0,.45.27.48,0a4.71,4.71,0,0,1-.53-2.64l.51.75c.59-3.48-1.23-5.33-1.54-8.25,1.32,0,1.75-2.73,2-4.09l.18.05c.17-4.05-1.09-6.88-1.61-10.63,1.43-2.32.6-7.88,1.4-11.62-.24.58-1-.09-1.16-.75.27-.88-.91-2.43.3-2.29l0,.31c1.19-.66.88-2.46.91-3.87l-1.59-.23a6.37,6.37,0,0,0,.88-3.09,18.32,18.32,0,0,0-.21-3.43c-.14-1.15-.29-2.23-.34-3.18a3.52,3.52,0,0,1,.56-2.33c-.52-.9-.61-2.06-1.18-2.93l.85-.09a24.76,24.76,0,0,0-.46-3.44,19.85,19.85,0,0,0-1.26-3.85c.28.15.56.31.81.47-.66-1.95-3.16-1.44-4-2.93.29-.35.58-.72.85-1.09a28.48,28.48,0,0,0-3-4.59,8.14,8.14,0,0,0-5-2.79.81.81,0,0,1,1-.22A15.75,15.75,0,0,0,143,.14c-1.44-.31-2.56-.14-2.32.75,0-.56-.93-.69-2.09-.5a13.47,13.47,0,0,0-3.32,1.11l.15-.86C134,2,134,2.23,132.13,3.1c-.49.06-.62-.5.08-.5a1.76,1.76,0,0,0-1.43.69,3.82,3.82,0,0,1-.66.54c-.15.09-.28.24-.47.37a4,4,0,0,1-.61.37,3.81,3.81,0,0,1,.36-1l-.57.44c-.11.1-.21.18-.28.26a1.37,1.37,0,0,0-.31.44A9.5,9.5,0,0,0,128,5.82c-.55.87-2.42,1.68-3.08,1.24a1.85,1.85,0,0,1-1,1.91c-.27-.15-.13-.5,0-.67-2.38,1.19-2.39,3.18-4.29,3.66a.61.61,0,0,0-.55-.2,27.55,27.55,0,0,1,2.85-2.14c-.48-.6-1.86.34-1.5-1.31-.68,1.29-1.66,3.7-3.15,4.44a1,1,0,0,1-.33-.07l.07-.18a1.74,1.74,0,0,0-.71.74,5.56,5.56,0,0,0-1.2.67c-.55-.38-1.7.93-2.36,1.43.58.61-.35,1.19.88,1.09-.14,0,.06-.18.47-.55a1.31,1.31,0,0,0,.22-.29v.09l1.57-1.34A2.05,2.05,0,0,1,114.29,16c0,.68,0,1.41,0,1.78-1.63-.2-3.73.68-4.43.31-1.67,2-4.44,4-4.68,6.22-.43.61-.93.17-1.3.14.23-.38.63-.67.66-1-.86,1.22-3.22,2.8-2.78,3.87-1.73.76.14-1.42-1.68.28l0-.47C95.14,28.87,95.68,34.34,90,36c.38-.13.56-.19.74-.1C85.29,39,81.42,44.65,75.64,47.27c-1.55.85-1.25,1.51-1.73,2.59L73,49.4l-.74,1.94c-1.51,2.2-4.9,1.1-6.5,4.25l.72.21c-1,.64-2.65,2.6-2.95,1.94,0,.16.11.73-.45.77l-.33-.34L61.08,60.6c-2,1.13-.95-1.66-3.53.31-.83.9-1.79,3.22-1.23,3.17.39-.28,1.16-.55,1.49-.21l-.7.88c.75,1.19,1,2.82,3.75,1.86l.92-1.84.91.14-1.21,1c1.11-.08,1.19-.87,1.44-1.57a1.32,1.32,0,0,0,1.1.07l.58-2.18c.53.28.05,1.35,1.21.8.28-1-1.43-.41-.58-1.63,1.11-.08,1.24.48,1.72-.6.34.18.32.5.09.88.46-.92,1.83-1.71,1.73-2.58C70,59.14,71.12,57,71.89,58a5.31,5.31,0,0,1,1.27-2.42c-.22,2.2,2.58-2,3.34-.41,0-1.82,2.89-3.14,4-5.05,0,.16,0,.48-.24.54a6.67,6.67,0,0,1,2.28-.79c-.63-1,.61-2.35.91-3.53,1.84,0,.2,1.61,1.25,2.17-.66-.69,1.33-2.3.44-2.6,1.3-.15,1-.33,2,.06-.79-1.25.63-.83.76-2.1,1.69-.43,1.2.81,2.26-.63C91.12,43.11,90.24,44.48,90.24,44.48Zm30.6-28h0l-.64.58Zm2.7-2.2c-.35.24-.77.57-1.2.93a.38.38,0,0,1-.08-.68C122.23,14.82,123,14.44,123.54,14.3Zm-9.42.09c.36-.43.61-.42.77-.34-.19.18-.41.39-.68.69a.53.53,0,0,0,0,.12A1.14,1.14,0,0,1,114.12,14.39Z"/><path class="cls-1" d="M114.05,15.88a1,1,0,0,1-.14.19,3.79,3.79,0,0,0,.38-.06l0-.33Z"/><path class="cls-1" d="M108.29,216.53l0,.07a.48.48,0,0,1,0-.2C108.3,216.47,108.28,216.49,108.29,216.53Z"/><path class="cls-1" d="M150.68,24.55l.21,0c-.07-.09-.13-.18-.21-.27A2.81,2.81,0,0,1,150.68,24.55Z"/><path class="cls-1" d="M95.58,201.88a.49.49,0,0,0-.06-.33A.7.7,0,0,0,95.58,201.88Z"/><path class="cls-1" d="M89.38,196.38l-.7-1A6.36,6.36,0,0,0,89.38,196.38Z"/><path class="cls-1" d="M84.78,191.94a1.25,1.25,0,0,0-.33.2h0Z"/><path class="cls-1" d="M151.53,216a1.87,1.87,0,0,0,0-.25C151.33,215.17,151.39,215.56,151.53,216Z"/><path class="cls-1" d="M138.33,236.85c.28-.16.54-.28.8-.41C138.69,236.4,138.37,236.36,138.33,236.85Z"/><path class="cls-1" d="M150.51,182.33h0v-.21Z"/><path class="cls-1" d="M140.25,236.28a1.91,1.91,0,0,0-1.12.16A1.81,1.81,0,0,0,140.25,236.28Z"/><path class="cls-1" d="M63.91,173.86l-.22-.22a.21.21,0,0,1-.11.08Z"/><path class="cls-1" d="M63.58,173.72l-.33-.15C63.37,173.67,63.48,173.76,63.58,173.72Z"/><path class="cls-1" d="M62.57,173.28l.68.29C63.06,173.41,62.85,173.2,62.57,173.28Z"/><path class="cls-1" d="M70.11,179.59l.27-.18A.55.55,0,0,0,70.11,179.59Z"/><path class="cls-1" d="M72.13,181.17c-.42-.45-.75-1.49-1.53-1.89l-.22.13C71,179.32,71.35,181.19,72.13,181.17Z"/><path class="cls-1" d="M77.87,191l-1.48-1.57c.08.49.17,1.14-.62.57C77.21,192.44,75.81,189,77.87,191Z"/><path class="cls-1" d="M82.66,195.61c-1-.63-.3.37-.47.47C82.94,196.32,83.13,196.38,82.66,195.61Z"/><path class="cls-1" d="M119.2,226.86l-.6.5C119.34,227.86,118.81,227.14,119.2,226.86Z"/><polygon class="cls-1" points="128.72 229.99 128.39 229.06 127.61 229.31 128.72 229.99"/><path class="cls-1" d="M129.21,237.82l-.41-.21a17.69,17.69,0,0,0,1.55.86C130,238.25,129.57,238.05,129.21,237.82Z"/><path class="cls-1" d="M157.92,173l-.94.27C157.14,173.84,158.21,174,157.92,173Z"/><path class="cls-1" d="M157,138.09a1.57,1.57,0,0,0,.31-2C157.2,136.9,156.84,137.69,157,138.09Z"/><polygon class="cls-1" points="158.5 33.46 158.81 34.16 158.55 32.84 158.5 33.46"/><path class="cls-1" d="M200.75,158.36c.06.19.33.52.41.36l-.32-.66Z"/><path class="cls-1" d="M202.37,158.85a2.61,2.61,0,0,0-.73-1.5c.27.68.06.46.38,1.26-.08.16-.36,0-.49-.27.07.19-.28,0-.09.44.48.34.71.21.66-.33A1,1,0,0,1,202.37,158.85Z"/><path class="cls-1" d="M214.39,148.83l-.13,0A.23.23,0,0,0,214.39,148.83Z"/><path class="cls-1" d="M219.94,140.69a.18.18,0,0,0,.09.17C220,140.78,220,140.71,219.94,140.69Z"/><path class="cls-1" d="M221.42,139.51l-.09.07C221.41,139.58,221.46,139.56,221.42,139.51Z"/><path class="cls-1" d="M214.39,148.83l.35-.07C214.56,148.6,214.51,148.76,214.39,148.83Z"/><path class="cls-1" d="M203,156.2a.5.5,0,0,0,0,.24.58.58,0,0,1,.05-.14Z"/><path class="cls-1" d="M212.08,152.56l-.05.07a2.22,2.22,0,0,0,.17.24Z"/><path class="cls-1" d="M209.83,155.06c.07,0-.34-.49-.51-.71.15.22.19.34.18.42A2,2,0,0,0,209.83,155.06Z"/><path class="cls-1" d="M205.13,157.72l0,.13A.51.51,0,0,0,205.13,157.72Z"/><path class="cls-1" d="M213.75,150.82a.72.72,0,0,0,.19.12A1,1,0,0,0,213.75,150.82Z"/><path class="cls-1" d="M195,74.47l.05-.09S195,74.46,195,74.47Z"/><path class="cls-1" d="M193,70.14H193l.15-.31Z"/><path class="cls-1" d="M223.39,136.91h0C223.41,137,223.41,137,223.39,136.91Z"/><path class="cls-1" d="M225.83,108.24c-.48.41-.8-.4-1.31.19C224.75,108.34,225.55,108.7,225.83,108.24Z"/><path class="cls-1" d="M203.14,156.22a.28.28,0,0,1,.1-.09A.13.13,0,0,0,203.14,156.22Z"/><path class="cls-1" d="M224.52,108.43h0l0,.06Z"/><path class="cls-1" d="M225.21,129.82a1.24,1.24,0,0,0-.28,0A.92.92,0,0,0,225.21,129.82Z"/><path class="cls-1" d="M222.84,134.74l.12-.1A.21.21,0,0,0,222.84,134.74Z"/><path class="cls-1" d="M224.94,126.9c.06-.06.15-.07.08-.18l-.08,0C225,126.79,225.05,126.84,224.94,126.9Z"/><path class="cls-1" d="M225.39,124.05l-.13,0,0,.09Z"/><path class="cls-1" d="M201.94,78.49a2.79,2.79,0,0,1,.24-.53C202,78.34,201.54,78.23,201.94,78.49Z"/><path class="cls-1" d="M203.24,156.48c-.08-.14-.11-.21-.1-.26a.56.56,0,0,0,0,.08A.57.57,0,0,0,203.24,156.48Z"/><path class="cls-1" d="M220.16,125.91l.15-.39A1,1,0,0,0,220.16,125.91Z"/><path class="cls-1" d="M214.67,92.44l-.11,0S214.6,92.46,214.67,92.44Z"/><path class="cls-1" d="M220.42,124.28a1.14,1.14,0,0,0,.46-.17,1.07,1.07,0,0,0-.15-.07Z"/><path class="cls-1" d="M202.18,78Z"/><path class="cls-1" d="M199.07,77.59c.32.23.6-.56.92-.91.54.08-.14.62-.24,1.06.36,0,1-.51,1.15-.36-.06.12-.05.18-.19.29.65-.37.77.53,1.55.1a1.08,1.08,0,0,1-.08.19,5.34,5.34,0,0,1,.62-.93c.15.1.58-.2.32.26-.09-.08-.22.09-.36.19l.29-.07c-.32.72-.37,0-.71.51.45,0,1.18-.21,1.28.14-.41.62-.69-.21-.79.54l-.18-.49c-.44,1.14-.16-.23-.68,1,.32.52.74.09,1.06.61.36-.25.35-.51.71-.75,1.13-.08-.68,1.84.4,1.47.44-.28,1.1-1,1.1-.29l-.66.54c.35.43,1-.7,1.1.11-.3.18-.52-.08-.52,0-.16.75.52-.18.74,0l-.46.59c.51.31,1.4.32,1.94.72-.18.13-.42.22-.47.49.84.33,1.17,1.34,1.39,2.2l.69-.22c0,.06-.13.3-.27.32,0,.4.31-.26.6-.32.15.11-.13.43-.34.47.75,0,1.91.43,1.75,1.32l-.22,0c.08.5,1.36-.45,1.16.25h-.14c.39.94,1.49,1.5,1.15,2.67.84-.42.23,1,1.33.33-.23.84-.51.83-.46,1.73.06.21.85-.17,1.1,0l-.57.37.79-.08-.59.58.28.12c0-.1.15-.33.32-.42.47.17.09,1-.21,1.21.33.15.62.33.93.5-.24.12-.4,0-.6,0,.82.09-.59.43.17.5.11-.12.37-.16.49-.22a.8.8,0,0,0,.3,1.07l-.45.16c.19.64.88,1.11,1.15,1.81.09-.34.85-.63,1-.46l-.62.38c.46,0,.15-.32.76-.28,0,.29-.66.51-.94.46l.36.21a2.91,2.91,0,0,1-.58.17c.47,0-.42.83.37.7l-.19.1c.28.67.65.88.92,1.43.58-.22.53.06,1.06,0,0,.5-.33,1.13-.1,1.62.42.26.53-.07.94,0-.53.21-.3.7-.77.56a4.49,4.49,0,0,0,1,1.4c.2-.15.27-.28.47-.28s-.14.39-.4.45l-.07,0c1.06.68-1,2.46.29,2.88l-.06,0,.74.61c0,.37-.45-.11-.75.21,1.08.62.11,1.29.85,1.84-1.5.77.4,1.81-.58,2.65l.39-.09c.4.14-.2.25-.27.39.3,0,.32-.24.55-.15.7,1.49-.32,3.22-.61,4.76-.1.56,2.06.31,1.11,1l-.72-.21c.81,1.17-.08,2.35.56,3.53-.16-.08-.38-.1-.36-.21-.55.2-.11.88.31.92-.06.18-.39,0-.62.1s.62.67.08.74c-.08,0-.16-.09-.2-.13.24.18-.13.71.49.63-.32.39.17.85-.24,1.14.64.32-.44.67.5.89-1-.18-.91.61-.49,1-.29-.14-.35.18-.74,0,0,.3.1.61.61.66-1.3.31.68,1.32-.88,1.31a12.36,12.36,0,0,1,.37,1.45,7.82,7.82,0,0,1,.08,1.35c-.94-.3.17-.92-.85-1.15.18.85.87,1.53.42,2.22-.19.15-.38-.24-.52-.36.19.89-.55,1.41-.28,2.25a.51.51,0,0,1-.2-.23c0,.14-.25.25.18.39l-.07-.17c.7,0,1.1,1,1.42,1.14-1.13-.68-.55.55-2-.38a.81.81,0,0,0,.5.38c-.13.1-.3.08-.58-.18.06.56.58.57.39,1-.2-.08-.24-.19-.46-.33.3.36.6.74.28,1-.11-.07-.29-.1-.24-.2-.19.62.6,1.48-.07,2-.78-.6-.38.09-1.14-.22l.05.45.43,0c-.17.29.24.83-.14,1l-.19-.37-.15.64.45-.19c.22.5.94.43.53.74,0-.12-.17.31-.68.25h0c.16.27.32.56,0,.69-.26-.06-.77-.48-.95-.52.54.48-.22.79.31,1.33a1.71,1.71,0,0,0-.57-.38l.41.39c-.23.05-.32,0-.61-.16-.33.36,1,.38.31.65,0-.06-.1-.08-.13-.21-.49.38-.25,1.14-.75,1.45-.78-.3.06-.5-.63-.71-.24.71,0,1.83-.58,2.34l.16-.06c.9.74-.78.13-.53.74,0-.12-.47-.47-.38-.37-.41.31-.36,1-.52,1.82l-.19-.26c-.39.07-.59.52-.89.69.18.26,0,.38.44.56-1.92-.3-.52,2-2.16,1.78.07-.08,0-.36-.09-.3l-.27.75c.41.3.29.13.69.28.16.27.2.59.06.73,0-.48-.6-.55-.91-.64.13.09.22.24.35.34-.94-.34.7.74-.12.71l-.17-.2c0,.24.08.62-.13.72-.48-.34,0-.34-.38-.69-.19.24.38,1.21-.23,1,0-.21.1-.35.07-.55-.7-.27-.6-.12-.83,0h0l-.57.15.22,0c.82,1.37-.35.73,0,1.8-.28-1-.32-.45-.74-1-.23-.05-.51-.07-.6-.24.19.55-.58-.05-.29.76-.15-.15-.2.15-.52-.28-.11.33.3.23.46.44.13.88-1.39.1-1.28,1.28-.19.69.18,1.32,0,2-.36-.15-.36-.71-.36-.71-.44,0-.57.14-.65.51-.07-.18-.21-.27-.42-.41-.15.19.36.72-.08.65a5,5,0,0,1-.34-.82c-.09.31-.07.79-.18,1.11-.28-.26-.2-.56-.27-.81a1.32,1.32,0,0,0-.18,1.28l.29,0c-.08.09-.35-.38-.34-.51-.06-.53.43-.06.57.1l-.08.23c.91.89.54-.63.89-.82l.43.84L204,157c.21.14.58.5.5.73.51.18,0-.42.51-.18.07,0,.09.09.09.13l.06-.39c.07.18.44.47.22.48.74.08.21-1.06.8-.65v.07c.36-.69-.38-.56-.48-1.5l1.36,1-.38-.55c.07,0,.21-.09.37.13-.1-.53-.23-.19-.4-.62.67.21.53-.88,1.31-.14-.26-.46-.52-.06-.48-.58.86.78.19-.44.79-.27.33.5-.12.48.49.65-.55-.87.62-.28.7-.61-.54-.57.18-.67.32-1.19.17.21.92-.32,1.43-.43l.09.1c-.53-.62-.11-.83,0-1.18a1.26,1.26,0,0,1,.49.78l.21-.22a.68.68,0,0,1-.13-.61l.4.46c.25-.34,0-1.1.65-1.23-.41-.39-1.45-.71-1.39-1.37.24.19.66.51.66.7,0-.06-.09-.29.07-.28l.25.5c.33,0-.24-.37-.08-.49.33.29.32.1.57.34,0,.06-.24,0-.16.17a1.07,1.07,0,0,1,.88,0c-.21-.14-.46-.37-.4-.53.24-.33.5.23.83.19-.17-.27.23-.28-.27-.69.07-.1.32.07.49.15-.1-.35.53-.85-.16-1.08l-.07,0s0,0,0,0h0c-.1-.93,1.17-.91,1.34-1.63l.18.12c0-.48.38-.84.16-1.34.06-.1.48,0,.67.17,0-.35-.15-.51.4-.69.15.46.35.09.06.42.38-.24.73-.13.47-.82.39.43.76.11.71-.15l-.48,0a.94.94,0,0,1,.32-.51l.57.47c1.2-.29-.54-2.08,1.08-1.9-.34-.44-.55.23-1-.24.28-.28,1.4-.13,1.45-.24.61-.29-.72-.95-.22-1.31-.27-.06-.91-.32-.95-.79.25-.29,1.19.07,1.27.38,0,.09-.12.09-.2.05,0,.16.06.35.38.34l-.21-.16c.32,0,.54-.54.87-.24-.09-.38-.33-.3-.55-.17.56-.28.37-.68.81-1-.16,0-.47,0-.43-.11.59-.56-.32-.51-.23-1,.48-.1.83.48.73-.13.37-.18.66.22.81.42-.28-.63.65-.68.84-.9l.1.31a.49.49,0,0,1,0-.41l-.54-.07c.14-.1.19-.21.39-.13-.26-.27-.85-.22-1.17-.67.33-.08,0-.64.62-.46-.43.49.68.19.59.72a.31.31,0,0,1,.15-.34c.08,0,.12.07.15.12.78-.33-.64-.54-.42-1.1.34.21.74.12.7,0-.09.23-.65-.11-.86-.43.42-.26-.07-.47,0-.64l-.21.16c-.34-.2-.23-.36-.26-.65.3.08.12.29.28.25-.55-.5.9-.4.6-.95.3-.1.7.21.92.1-.35-.6.65-.33.39-.93-.54,0-.42,0-.82-.44l.13.89-.58-.72c-.08.23.17.58,0,.7-.34-.37-.22-.3-.67-.32.85-.09-.26-.76.36-1l1.24.38c.72-.41-.34-1.17.17-1.81l-.28.17c-.47-.22,0-.46-.11-.75a1.55,1.55,0,0,0,.89,0c-.32-.06.15-.54-.68-.8l.63-.2c.36-.55-1.06-.93-.79-1.46.42.26.78.06,1,.51,0-.19.16-.34-.13-.41.3-.06-.48-.63-.05-.73-.17-.12-.62-.23-.55-.43a.52.52,0,0,1,.21,0c-.21,0-.23-.39-.73-.28,1.43-.37.16-1.63,1.39-2a6.69,6.69,0,0,1-.18-1.34c.12,0,.21,0,.16.09.45-.49-1.21-.45-.71-1,.73-.25.35.34.64.18,1.43,0-.13-.74.74-1.08l.07.11c.53-.28-.49-.8-.37-1.3a.48.48,0,0,0,.21,0,2.56,2.56,0,0,1-1.12-1.52c.55.16.29.23.86.15-.07-.22-.92,0-1.06-.39a2.84,2.84,0,0,1,1.2-.48l0,.41c.78-.2,0-.53.12-.75l.35,0c-.14-.64-1-.63-1-1.3L225,116c-.87-.34.47-.32-.18-.66l.86-.15A5.86,5.86,0,0,1,224.6,114a4.36,4.36,0,0,1,1.4,1c0-.24-.1-.82-.53-.92.08.09.3.2.17.31-.69-.26-1-.62-1-1.1,1.69,0,.28-1.27,1.55-1.75-.73-.78.09-1.74-.18-2.73-1.23.56-.09-.28-1.41,0-.12-.21-.12-.3,0-.33l.66-.83c.36-.24.34.16.63.09,0-.53.52-.32.81-.72-.46.15-.71,0-.59-.38l-.53.53c-.84-.56,1-.84.16-1.41l.45.13c-.16-.15-.22-.5-.39-.81a1.24,1.24,0,0,0-1.05-.64c.14-.1.47-.28.61-.14-.08-.92-1.63-1.61-1.17-2.46l.33,0c-.13-.13-.66-.1-.41-.39.14,0,.34,0,.33-.12s-.69-.24-.58-.51l.41.07c.12-1-1.3-1-1.74-1.57a1.49,1.49,0,0,0,1-1.47l.13,0c-.26-1-1.43-1.3-2.14-2a1.49,1.49,0,0,0,.1-1.5,4,4,0,0,1-.42-1.57c-.09.21-.68.33-.84.23.07-.29-.88-.22-.08-.61l0,.08c.7-.55.28-.85.13-1.17l-1,.51c1.08-1.67-1.76-1.73-.71-3-.37,0-.51-.27-.87-.3l.53-.33a2.64,2.64,0,0,0-.86-1.46l.46-.12c-.22-.38-1.8.58-2.05.29l.69-.63c-.45-.59-.25-1.71-1.36-1.79.12-.07.34-.22.44-.15-.17-.3-.38-1.45-1.28-.55.64-.53-.44-.64-1-.71l.51-.35c-.81.25-1,.38-1.45.17,0-.14.31-.4.29-.18,0-.5-.62.16-.67-.39l.4-.14c-.21-.32-.34-.16-.83,0-.34,0-.38-.62,0-1-.28.19-.75.36-.79.09a.51.51,0,0,1,.35-.21c-.14-.75-1.16-.18-1-.92a.81.81,0,0,0,.21-.31c.34.38.6.69.54.7.41-.4.19-.77,1-1.08-.55.06-1.59.31-1.69-.16a1.12,1.12,0,0,1,.1-.18l.08,0c0-.11-.13-.13-.25-.12a.58.58,0,0,0-.12-.36c.29-.37-.18-.5-.32-.65-.41.46-.54.21-.7.75,0-.05.08,0,.2,0a.37.37,0,0,0,.11,0l-.05,0,.41.31c-.34.12-.65.2-.58-.2l-.89.54c.38-.81.29-1.52.59-2-.7-.15-1.27-.81-2.3-.18-.23,0,.06-.39.12-.57s.23.07.38,0c-.45,0-.9-.56-1.47,0-.12-.56.67-.44.1-.7l.22-.15c-.08-.88-.8-.77-1.48-.7s-1.32.1-1.4-.94a.47.47,0,0,1,0,.33c-.87-1.43-2.92-1.18-3.65-2.86-.26-.42-.55,0-1,.23l.24-.62-.75.45c-.8.21-.18-2-1.4-1.37l-.11.44c-.22-.2-.93-.14-.66-.58-.06.06-.28.38-.29.12l.15-.32-.89.25c-.38-.46.65-1.22-.05-1.63-.33,0-1.17.58-1.16.84.1.06.19.32.06.65l-.31,0c-.45.92-1,1.81-.75,2.73l.64-.39-.08.51-.33-.12c0,.51.27.19.52,0a1.16,1.16,0,0,0-.06.58l.79-.72c-.12.39-.5.65-.34,1,.37-.33.2-.9.63-1,0,.51-.23.83.16.57a.69.69,0,0,1-.34.45c.33-.2.57.11.91-.33-.06.61.74.17.27,1,.16-.18.68-.5.87-.43-.86.85.61.42-.06,1.46.73-.78,1,.06,1.75-.21-.06.06-.19.18-.2.11.18.21.09.51.14.77.47-.73.94-.71,1.4-1-.16.89-.7.75-1,1.49.35-.61.84-.29,1.05-.84a1.84,1.84,0,0,1-.23,1c.62-.88.29,0,.82-.47,0,.65-.47.9,0,.84C199.57,77.46,199.07,77.59,199.07,77.59Zm8.46,4.4h0l-.16-.11Zm.57.57a1.38,1.38,0,0,0-.23-.27c.13-.17.31-.3.36-.24C208.1,82.12,208.14,82.35,208.1,82.56Zm1.74-4.32c.16,0,.11.15,0,.25a1.3,1.3,0,0,0-.23-.1l-.07,0A1.68,1.68,0,0,1,209.84,78.24Z"/><path class="cls-1" d="M209.1,78.67s0,0-.07,0a1.24,1.24,0,0,0,0,.16l.17-.11Z"/><path class="cls-1" d="M214.24,148.86h0l-.09,0Z"/><polygon class="cls-1" points="213.95 91.86 214.08 91.78 213.93 91.79 213.95 91.86"/><path class="cls-1" d="M209.7,151a.46.46,0,0,0-.16-.07A.4.4,0,0,0,209.7,151Z"/><path class="cls-1" d="M208.26,152.28l-.34,0A1.19,1.19,0,0,0,208.26,152.28Z"/><path class="cls-1" d="M207,153.09l.17.21h0Z"/><path class="cls-1" d="M218.9,133.46a.13.13,0,0,0,0-.06C218.82,133.23,218.84,133.33,218.9,133.46Z"/><path class="cls-1" d="M217.46,140.4a1.7,1.7,0,0,1-.16-.34C217.2,140.15,217.15,140.23,217.46,140.4Z"/><polygon class="cls-1" points="220.14 125.96 220.15 125.96 220.16 125.91 220.14 125.96"/><path class="cls-1" d="M217.46,139.77a.21.21,0,0,0-.16.29C217.39,140,217.5,139.91,217.46,139.77Z"/><path class="cls-1" d="M201.94,156.93l-.07,0,0,.08Z"/><path class="cls-1" d="M201.92,157l0,.11A.08.08,0,0,0,201.92,157Z"/><path class="cls-1" d="M201.86,157.36l0-.22C201.85,157.17,201.79,157.19,201.86,157.36Z"/><path class="cls-1" d="M203.66,156l-.12-.19A.93.93,0,0,0,203.66,156Z"/><path class="cls-1" d="M204.08,155.56c-.15.05-.58-.15-.64.08l.1.15C203.4,155.48,204.21,155.94,204.08,155.56Z"/><path class="cls-1" d="M207.8,156l-.5.22c.23.12.53.27.39.48C208.65,156.82,207.23,156.42,207.8,156Z"/><path class="cls-1" d="M209.23,155.18c-.13.28.25.25.33.36C209.54,155.26,209.53,155.19,209.23,155.18Z"/><path class="cls-1" d="M216.77,146.17l.45.34C217.28,146.28,217,146.39,216.77,146.17Z"/><polygon class="cls-1" points="215.48 142.77 215.08 142.76 215.47 143.11 215.48 142.77"/><polygon class="cls-1" points="219.6 143.67 219.62 143.79 219.63 143.37 219.6 143.67"/><path class="cls-1" d="M225.85,124.63l-.69,0C225.26,124.77,226,124.91,225.85,124.63Z"/><path class="cls-1" d="M225.62,116c.34-.1.55-.35.21-.49C225.79,115.7,225.52,115.9,225.62,116Z"/><polygon class="cls-1" points="219.87 90.91 220.16 90.95 219.83 90.75 219.87 90.91"/><path class="cls-1" d="M201.15,190.64c0,.32.35.94.55.69l-.28-1.16Z"/><path class="cls-1" d="M203.76,191.82a3.84,3.84,0,0,0-.64-2.62c.17,1.16-.09.77.13,2.15-.2.24-.6-.14-.73-.55,0,.32-.51-.05-.35.69.7.68,1.15.5,1.29-.39A1.66,1.66,0,0,1,203.76,191.82Z"/><path class="cls-1" d="M228.31,177.39l-.23,0A.35.35,0,0,0,228.31,177.39Z"/><path class="cls-1" d="M240.31,164.05a.28.28,0,0,0,.1.32C240.42,164.21,240.41,164.09,240.31,164.05Z"/><path class="cls-1" d="M243,162.13a.91.91,0,0,0-.16.11C243,162.24,243.1,162.21,243,162.13Z"/><path class="cls-1" d="M228.31,177.39l.59-.08C228.65,177,228.53,177.28,228.31,177.39Z"/><path class="cls-1" d="M206,187.65a.69.69,0,0,0-.08.38l.15-.21Z"/><path class="cls-1" d="M223,183.32l-.12.09c.05.13.12.28.2.45Z"/><path class="cls-1" d="M218.16,187.11c.14,0-.39-.89-.6-1.27.17.38.2.6.14.72A3.8,3.8,0,0,0,218.16,187.11Z"/><path class="cls-1" d="M209,190.61l-.08.2C209,190.75,209,190.68,209,190.61Z"/><path class="cls-1" d="M226.45,180.65l.28.23A1.18,1.18,0,0,0,226.45,180.65Z"/><path class="cls-1" d="M197.46,46.67l.08-.16C197.46,46.59,197.43,46.65,197.46,46.67Z"/><path class="cls-1" d="M193.15,39.54l.1,0c.08-.17.15-.34.22-.51Z"/><path class="cls-1" d="M247,157.77h0C247,158,247,157.88,247,157.77Z"/><path class="cls-1" d="M255.6,106.16c-.78.72-1.29-.78-2.12.25C253.85,106.27,255.15,107,255.6,106.16Z"/><path class="cls-1" d="M206.2,187.7a1,1,0,0,1,.2-.12A.25.25,0,0,0,206.2,187.7Z"/><path class="cls-1" d="M253.48,106.41h0l-.08.11Z"/><path class="cls-1" d="M251.78,145.32a1.46,1.46,0,0,0-.46,0A1.23,1.23,0,0,0,251.78,145.32Z"/><path class="cls-1" d="M246.78,153.87l.22-.16A.39.39,0,0,0,246.78,153.87Z"/><path class="cls-1" d="M252,140c.11-.1.25-.11.17-.32l-.13,0C252.11,139.83,252.15,139.93,252,140Z"/><path class="cls-1" d="M253.23,134.93l-.21,0,0,.18Z"/><path class="cls-1" d="M210.56,53.43a4.76,4.76,0,0,1,.31-.87C210.54,53.19,209.8,53,210.56,53.43Z"/><path class="cls-1" d="M206.26,188.15c-.09-.24-.11-.36-.06-.45l-.13.12A1,1,0,0,0,206.26,188.15Z"/><path class="cls-1" d="M244.43,137.72l.34-.69A1.86,1.86,0,0,0,244.43,137.72Z"/><path class="cls-1" d="M235.43,77.6l-.2-.08C235.25,77.59,235.31,77.63,235.43,77.6Z"/><path class="cls-1" d="M245.22,134.82a1.68,1.68,0,0,0,.78-.26,1.25,1.25,0,0,0-.24-.15C245.6,134.55,245.4,134.69,245.22,134.82Z"/><path class="cls-1" d="M210.87,52.55h0Z"/><path class="cls-1" d="M205.31,51.87c.61.4.95-.93,1.46-1.49.95.13-.14,1-.23,1.76.64,0,1.64-.83,2-.56-.09.2-.07.31-.29.49,1-.57,1.47.88,2.77.16a1,1,0,0,1-.11.32,8.7,8.7,0,0,1,.91-1.56c.3.16,1-.34.61.45-.16-.14-.36.13-.59.3l.5-.11c-.43,1.21-.64.08-1.14.84.78.05,2-.33,2.26.26-.6,1.05-1.24-.36-1.28.92l-.4-.84c-.56,1.92-.33-.39-1,1.61.67.89,1.32.16,2,1,.58-.41.51-.86,1.09-1.27,1.93-.06-.83,3.16,1,2.51.7-.47,1.73-1.63,1.86-.5l-1,.92c.72.74,1.66-1.19,1.95.21-.49.3-.92-.15-.9.07-.12,1.28.87-.3,1.29,0l-.67,1c1,.5,2.43.64,3.52,1.25-.29.23-.69.38-.72.85,1.54.55,2.35,2.26,2.88,3.79l1.12-.37c.09.1-.15.51-.4.56.14.67.49-.46,1-.56.29.18-.11.73-.48.81,1.35,0,3.38.73,3.31,2.25l-.37.07c.26.88,2.2-.76,2,.47h-.24c.89,1.62,2.9,2.57,2.55,4.62,1.34-.73.57,1.8,2.29.61-.19,1.45-.65,1.43-.38,3,.14.36,1.39-.31,1.85,0l-.88.64,1.31-.13-.87,1,.47.2a1,1,0,0,1,.47-.75c.8.31.32,1.85-.14,2.17.55.28,1.13.56,1.67.86-.39.21-.66.06-1,0,1.4.15-.89.76.39.89.15-.23.58-.3.78-.4a1.57,1.57,0,0,0,.71,1.89l-.72.27c.42,1.14,1.58,2,2.19,3.22.09-.59,1.3-1.11,1.59-.81l-.95.68c.75-.1.2-.58,1.22-.51.11.53-1,.91-1.48.83l.64.36a5.87,5.87,0,0,1-.93.32c.76-.1-.56,1.45.72,1.22l-.29.18c.56,1.21,1.17,1.6,1.68,2.57.93-.38.89.1,1.76.09,0,.89-.35,2,.07,2.89.7.47.86-.11,1.52,0-.83.37-.42,1.26-1.2,1A8,8,0,0,0,245.76,97c.3-.27.4-.49.72-.5.23.22-.17.71-.6.8l-.11,0c.91.6.57,1.73.21,2.78s-.62,2,.43,2.41l-.11,0,1.26,1.13c0,.65-.75-.23-1.2.34,1.83,1.15.2,2.33,1.42,3.35a1.62,1.62,0,0,0-.83,2.3c.28.84.67,1.72-.16,2.42l.63-.13c.64.28-.33.43-.46.67.49-.07.54-.39.9-.21a7.06,7.06,0,0,1-.06,4.24c-.39,1.45-1.06,2.89-1.38,4.28-.21,1,3.24.78,1.68,2l-1.15-.46a4.56,4.56,0,0,1,.33,3.24,5.62,5.62,0,0,0,.13,3.24c-.26-.17-.61-.22-.58-.42-.86.31-.33,1.57.37,1.7-.14.31-.63,0-1,.11-.57.33.87,1.27,0,1.34-.14,0-.25-.17-.3-.26.35.36-.35,1.28.66,1.21-.6.66.15,1.55-.53,2,1,.65-.86,1.16.61,1.66-1.54-.44-1.61,1-1,1.67-.42-.29-.59.28-1.19-.09a1,1,0,0,0,.85,1.26c-1.07.23-.81.84-.65,1.38s.25,1-1,.89a19,19,0,0,1,.12,5.08c-1.43-.62.42-1.63-1.16-2.17.18,1.58,1.06,2.85.14,4-.35.25-.55-.47-.76-.69,0,1.57-1.21,2.48-1,4a.76.76,0,0,1-.27-.43c-.07.24-.48.41.19.71l-.07-.31c1.15.1,1.51,1.87,2,2.17-1.66-1.32-1.07.91-3.09-.91a1.15,1.15,0,0,0,.71.74c-.25.16-.53.09-.91-.38-.07,1,.76,1.06.36,1.78-.3-.17-.35-.38-.67-.66.41.7.81,1.4.23,1.88-.17-.14-.45-.21-.34-.39-.44,1.11.52,2.68-.74,3.48-1.09-1.14-.66.11-1.82-.53l0,.8.69.11c-.34.51.17,1.51-.47,1.72l-.21-.69c-.14.37-.26.76-.42,1.12.27-.08.52-.18.78-.27.22.91,1.45.88.65,1.37,0-.22-.39.5-1.22.32h0c.16.49.33,1-.21,1.2-.42-.15-1.13-.94-1.41-1,.72.9-.61,1.36.11,2.38a2.64,2.64,0,0,0-.84-.74l.57.75c-.4.06-.54,0-1-.37-.64.6,1.5.8.31,1.2,0-.11-.14-.16-.14-.38-.9.61-.84,1.91-1.79,2.37-1.2-.64.29-.84-.79-1.31-.69,1.17-.6,3.21-1.72,4l.28-.08c1.26,1.41-1.38.08-1.2,1.17,0-.22-.61-.87-.49-.7-.85.44-.95,1.64-1.51,3.06l-.22-.47c-.67.08-1.15.84-1.75,1,.2.47-.1.63.53,1-1.61-.41-2,.41-2.33,1.29s-.63,1.8-2,1.41c.15-.12.09-.61,0-.51l-.79,1.16c.6.58.45.28,1.08.6a1.14,1.14,0,0,1-.18,1.23c.16-.8-.82-1-1.31-1.23.19.17.29.44.47.63-1.47-.72.91,1.38-.47,1.2l-.22-.38c-.15.4-.08,1.06-.47,1.21-.7-.67,0-.6-.41-1.24-.39.38.2,2.12-.75,1.66,0-.36.29-.57.33-.92-1.09-.57-1-.31-1.39-.21h0c-.33.06-.7.08-1,.11l.37.12c.84,2.41-.91,1.13-.78,3-.09-1.77-.37-.82-.9-1.75-.37-.12-.85-.21-.93-.51.11,1-1-.19-.79,1.22-.21-.28-.4.22-.78-.57-.32.54.43.44.62.83-.1,1.52-2.47-.16-2.74,1.84-.61,1.11-.22,2.23-.85,3.25-.56-.32-.35-1.25-.35-1.25-.72-.18-1,.1-1.31.71,0-.32-.26-.49-.57-.76-.33.26.32,1.24-.41,1a7.27,7.27,0,0,1-.25-1.42c-.29.49-.44,1.27-.77,1.77-.38-.49-.12-1-.13-1.38-.39.48-1.09,1.11-.85,2.05l.48.15c-.17.13-.45-.7-.38-.92.12-.88.78,0,.95.3l-.23.36c1.22,1.67,1.19-.92,1.9-1.12l.39,1.45c0-.47.08-.95.11-1.44.32.27.8.94.58,1.32.8.39.17-.7.95-.2a.24.24,0,0,1,.1.24l.25-.65c.06.33.57.88.19.85,1.24.28.8-1.72,1.65-.91l0,.11c.89-1.07-.42-1-.21-2.58l1.92,2-.44-1a.46.46,0,0,1,.59.31c.06-.89-.31-.37-.42-1.11,1.08.52,1.24-1.36,2.29,0-.25-.82-.86-.2-.59-1.06,1.17,1.46.5-.7,1.45-.31.38.9-.37.79.6,1.17-.6-1.55,1.17-.34,1.42-.89-.72-1.09.64-1,1.05-1.89.21.39,1.68-.39,2.59-.51l.11.19c-.67-1.13.13-1.43.43-2a1.86,1.86,0,0,1,.53,1.41l.44-.35a1.08,1.08,0,0,1,0-1l.5.84c.58-.49.44-1.82,1.58-2-.56-.72-2.2-1.43-1.86-2.54.34.34.92,1,.86,1.28,0-.1,0-.51.22-.46l.25.89c.56,0-.29-.68,0-.85.46.54.52.21.85.66,0,.11-.42,0-.34.28a1.75,1.75,0,0,1,1.48.13c-.29-.28-.63-.71-.47-1,.52-.53.75.46,1.32.44-.19-.48.51-.43-.19-1.21.16-.14.52.19.78.34,0-.29.3-.62.49-.93s.2-.65-.34-.9l-.12,0s0,0,0-.08h0c.15-1.63,2.24-1.43,2.8-2.65l.25.25c.22-.82,1-1.34.78-2.25.14-.17.81,0,1.06.38.17-.61-.08-.91.88-1.16.1.84.54.2,0,.74.71-.37,1.25-.14,1-1.37.51.79,1.23.3,1.25-.15h-.83a2,2,0,0,1,.73-.82l.79.89c2.17-.28-.22-3.68,2.4-3.17-.43-.82-1,.33-1.52-.54.53-.47,2.34-.06,2.48-.25,1.11-.41-.88-1.73.08-2.29-.42-.13-1.42-.67-1.31-1.49.5-.49,1.93.26,2,.82-.06.17-.21.16-.33.08,0,.27,0,.61.52.64l-.3-.31c.55,0,1-.91,1.49-.33-.05-.68-.46-.57-.85-.36,1-.44.76-1.19,1.61-1.77-.28,0-.77-.14-.69-.27,1.17-.88-.36-.93,0-1.8.82-.11,1.21,1,1.24-.12.68-.26,1,.46,1.21.83-.23-1.13,1.27-1.12,1.64-1.49l.08.57a1.05,1.05,0,0,1,.17-.74l-.86-.18c.25-.16.36-.36.67-.19-.36-.51-1.33-.49-1.74-1.33.54-.11.09-1.16,1.14-.74-.86.8,1,.41.77,1.34a.57.57,0,0,1,.33-.59.28.28,0,0,1,.21.24c1.39-.5-.89-1-.35-2,.49.41,1.18.31,1.15.09-.22.39-1-.29-1.28-.86.76-.41,0-.84.24-1.14l-.4.27c-.49-.4-.26-.67-.25-1.2.46.17.12.54.39.48-.79-1,1.53-.64,1.16-1.64.53-.15,1.09.45,1.48.28-.4-1.12,1.17-.51.91-1.61-.89-.09-.71,0-1.22-.87l0,1.58-.76-1.34c-.18.39.12,1.06-.12,1.24-.45-.68-.28-.55-1-.64,1.41,0-.21-1.37.86-1.67l1.93.81c1.33-.62-.3-2.15.65-3.24l-.49.29c-.72-.46.17-.84,0-1.37a2.36,2.36,0,0,0,1.45.06c-.49-.15.39-.94-.9-1.5l1.08-.29c.74-.93-1.5-1.79-1-2.72.64.52,1.25.19,1.58,1,.1-.34.31-.62-.15-.76.47-.08-.66-1.2.07-1.34-.26-.22-.95-.46-.8-.83a1,1,0,0,1,.34.09c-.33-.09-.3-.71-1.14-.58,2.4-.49.66-2.91,2.62-3.43a12,12,0,0,1-.06-2.45c.2.09.35.07.25.19.82-.84-1.87-.94-1-1.87,1.22-.36.5.67,1,.4,2.28.22,0-1.34,1.35-1.88l.12.2c.84-.46-.71-1.5-.44-2.39a.86.86,0,0,0,.34,0,4.48,4.48,0,0,1-1.57-2.87c.86.35.43.44,1.36.35-.09-.4-1.48,0-1.65-.81a4.32,4.32,0,0,1,2-.75,6.26,6.26,0,0,1,0,.75c1.32-.28,0-1,.25-1.35l.55.09c-.13-1.17-1.52-1.26-1.38-2.47l-.42.11c-1.36-.71.8-.54-.2-1.23l1.4-.17a13.11,13.11,0,0,1-1.56-2.35c1.07.44,1.55,1.37,2.15,2,0-.45,0-1.51-.75-1.74.15.18.48.4.26.58-1.08-.55-1.66-1.24-1.65-2.11,2.73.08.63-2.29,2.65-3.07a3,3,0,0,1-.37-2.38,7.73,7.73,0,0,0,.13-2.64c-2,.94-.13-.53-2.26-.11-.2-.39-.2-.56-.06-.61l1.06-1.48c.57-.41.54.32,1,.2,0-1,.84-.54,1.3-1.28-.75.27-1.15-.12-1-.72l-.86.94c-1.35-1.08,1.57-1.48.17-2.57l.76.28c-.54-.59-.52-2.53-2.41-2.73.21-.18.74-.49,1-.23a5.07,5.07,0,0,0-1.34-2.32c-.61-.72-1.1-1.41-.78-2.18l.54,0c-.24-.25-1.1-.2-.71-.73.21,0,.54,0,.52-.2-.22-.09-1.15-.45-1-.93l.68.12c.1-1.74-2.18-1.81-3-2.86a2.42,2.42,0,0,0,1.44-2.61l.21-.07c-.6-1.79-2.47-2.37-3.79-3.59a2.76,2.76,0,0,0-.11-2.64,7.45,7.45,0,0,1-.95-2.8c-.11.37-1.07.57-1.35.39.07-.5-1.5-.37-.24-1.06l.05.13c1-1,.29-1.49,0-2.06l-1.64.91c.73-1.45-.12-2.22-.9-2.89s-1.58-1.21-.85-2.29c-.62,0-.91-.46-1.52-.5l.82-.58a5.7,5.7,0,0,0-1.75-2.53l.74-.22c-.44-.67-2.87,1-3.36.51l1-1.11c-.89-1-.76-3-2.69-3,.18-.13.53-.39.72-.27-.39-.5-.92-2.53-2.27-1,1-.93-.87-1.1-1.79-1.21l.79-.6c-1.34.43-1.6.66-2.43.3-.05-.24.43-.69.44-.31-.1-.85-1,.29-1.24-.65l.66-.24c-.44-.53-.64-.25-1.43,0-.58,0-.76-1.08-.22-1.81-.44.33-1.21.62-1.34.16a.83.83,0,0,1,.57-.37c-.41-1.27-2-.29-2-1.55a1.27,1.27,0,0,0,.29-.53c.67.63,1.18,1.17,1.08,1.18.61-.68.16-1.3,1.45-1.83-.92.09-2.66.52-2.94-.26a1.11,1.11,0,0,1,.14-.3l.12,0c-.07-.18-.24-.21-.45-.19a1.29,1.29,0,0,0-.28-.6c.42-.63-.4-.87-.66-1.14-.62.79-.88.35-1.06,1.28,0-.09.13,0,.34.08a.33.33,0,0,0,.19,0l-.07.05c.2.13.46.32.74.54-.55.2-1.05.33-1-.36-.56.37-1.13.75-1.42.91.5-1.39.2-2.58.63-3.34-1.23-.28-2.35-1.37-4-.27-.4,0,0-.65.1-1,.26,0,.42.11.66,0-.8,0-1.64-1-2.53,0-.32-.94,1.07-.73,0-1.18l.35-.25c-.3-1.47-1.52-1.31-2.7-1.18s-2.33.22-2.64-1.57a.7.7,0,0,1,0,.55c-1.75-2.46-5.38-1.92-6.91-4.79-.52-.69-1,0-1.67.37l.32-1-1.26.77c-1.41.35-.67-3.25-2.72-2.26l-.12.73c-.42-.33-1.66-.25-1.26-1-.1.1-.45.62-.49.2l.2-.53c-.51.13-1,.26-1.53.41-.77-.73,1-2-.35-2.64-.59,0-2,1-2,1.4a.88.88,0,0,1,.2,1.05l-.55.1c-.66,1.52-1.56,3-.92,4.47l1.1-.65-.06.83-.63-.19c.07.84.53.3.95,0a1.58,1.58,0,0,0,0,.94L195,43.71c-.16.64-.8,1.06-.47,1.59.62-.54.24-1.48,1-1.69.06.85-.29,1.37.37,1a1,1,0,0,1-.53.73c.56-.31,1,.21,1.57-.51,0,1,1.32.32.64,1.73.26-.29,1.14-.82,1.49-.72-1.39,1.41,1.18.67.15,2.41,1.18-1.31,1.89.12,3.09-.32-.11.09-.32.29-.35.18.37.34.26.86.38,1.28.71-1.2,1.53-1.11,2.31-1.66-.13,1.47-1.11,1.25-1.56,2.48.51-1,1.44-.49,1.72-1.41a2.81,2.81,0,0,1-.21,1.66c.93-1.47.52-.06,1.37-.78.14,1.08-.67,1.49.22,1.4C206.17,51.67,205.31,51.87,205.31,51.87ZM221,59.46v0l-.32-.19Zm1.11,1a2.73,2.73,0,0,0-.45-.45c.19-.3.47-.53.57-.41C222.05,59.68,222.17,60.06,222.14,60.42Zm2.08-7.34c.28.06.22.26.12.44a2.29,2.29,0,0,0-.41-.19l-.1.08A2.64,2.64,0,0,1,224.22,53.08Z"/><path class="cls-1" d="M223,53.8s-.08,0-.12,0a1.39,1.39,0,0,0,0,.27l.27-.18Z"/><path class="cls-1" d="M228,177.42h0a.36.36,0,0,1-.15-.06S228,177.41,228,177.42Z"/><polygon class="cls-1" points="234.11 76.57 234.31 76.42 234.06 76.45 234.11 76.57"/><path class="cls-1" d="M219.51,180.25a.72.72,0,0,0-.24-.14A.66.66,0,0,0,219.51,180.25Z"/><path class="cls-1" d="M216.6,182.2c-.2,0-.41,0-.61,0A1.51,1.51,0,0,0,216.6,182.2Z"/><path class="cls-1" d="M214.08,183.28a3.43,3.43,0,0,0,.2.39h0Z"/><path class="cls-1" d="M240.68,151.14a.14.14,0,0,0,0-.11C240.61,150.73,240.63,150.91,240.68,151.14Z"/><path class="cls-1" d="M236.27,163.2a2.51,2.51,0,0,1-.15-.6C235.93,162.74,235.81,162.87,236.27,163.2Z"/><path class="cls-1" d="M244.39,137.8h0a.24.24,0,0,1,0-.08Z"/><path class="cls-1" d="M236.49,162.13a.42.42,0,0,0-.37.47C236.29,162.49,236.5,162.37,236.49,162.13Z"/><path class="cls-1" d="M203.81,188.57l-.13,0a.65.65,0,0,1,0,.15Z"/><path class="cls-1" d="M203.73,188.74l-.08.17A.12.12,0,0,0,203.73,188.74Z"/><path class="cls-1" d="M203.49,189.26l.16-.35C203.56,189,203.43,189,203.49,189.26Z"/><path class="cls-1" d="M207.18,187.42l-.13-.34A2,2,0,0,0,207.18,187.42Z"/><path class="cls-1" d="M208.07,186.81c-.26.05-.92-.37-1.13,0l.11.27C206.94,186.53,208.15,187.46,208.07,186.81Z"/><path class="cls-1" d="M214.32,188.37c-.32.09-.63.19-.95.27.34.24.8.57.47.87C215.47,189.85,213.19,188.92,214.32,188.37Z"/><path class="cls-1" d="M217.09,187.21c-.33.43.32.46.42.66C217.59,187.4,217.6,187.28,217.09,187.21Z"/><path class="cls-1" d="M233.22,173.16l.65.65C234,173.41,233.61,173.57,233.22,173.16Z"/><polygon class="cls-1" points="232.22 167.09 231.54 167.01 232.08 167.66 232.22 167.09"/><polygon class="cls-1" points="238.77 169.19 238.77 169.42 238.91 168.67 238.77 169.19"/><path class="cls-1" d="M253.91,136l-1.11-.12C253,136.22,254.16,136.56,253.91,136Z"/><path class="cls-1" d="M254.78,120.33c.56-.15.94-.58.4-.87C255.09,119.81,254.64,120.15,254.78,120.33Z"/><polygon class="cls-1" points="243.79 74.86 244.28 74.93 243.69 74.59 243.79 74.86"/><path class="cls-1" d="M201.16,221.56c0,.44.32,1.33.67,1l-.18-1.63Z"/><path class="cls-1" d="M204.76,223.52a4.81,4.81,0,0,0-.42-3.66c0,1.61-.29,1-.23,2.94-.35.31-.87-.26-1-.84,0,.43-.72-.14-.65.89.89,1,1.6.85,2-.35A2,2,0,0,1,204.76,223.52Z"/><path class="cls-1" d="M243,205.28l-.33,0A.46.46,0,0,0,243,205.28Z"/><path class="cls-1" d="M262.1,186.6a.37.37,0,0,0,.09.45C262.23,186.84,262.24,186.65,262.1,186.6Z"/><path class="cls-1" d="M266.25,183.9l-.25.16C266.18,184.06,266.31,184,266.25,183.9Z"/><path class="cls-1" d="M243,205.28l.87-.08C243.57,204.77,243.34,205.14,243,205.28Z"/><path class="cls-1" d="M208.85,218a1,1,0,0,0-.2.52,1.8,1.8,0,0,1,.27-.28A1.68,1.68,0,0,1,208.85,218Z"/><path class="cls-1" d="M234.3,213.36l-.18.13a5.22,5.22,0,0,0,.21.64Z"/><path class="cls-1" d="M226.64,218.34c.21-.05-.39-1.27-.62-1.83.18.55.18.85.07,1A5.81,5.81,0,0,0,226.64,218.34Z"/><path class="cls-1" d="M212.69,222.39l-.17.27C212.56,222.58,212.64,222.49,212.69,222.39Z"/><path class="cls-1" d="M239.81,209.83a1.55,1.55,0,0,0,.36.34A2.31,2.31,0,0,0,239.81,209.83Z"/><path class="cls-1" d="M200.76,15.7c0-.09,0-.15.07-.23C200.74,15.59,200.7,15.68,200.76,15.7Z"/><path class="cls-1" d="M192.75,6.72l.15,0c.07-.25.14-.5.19-.74Z"/><path class="cls-1" d="M272.35,177.62l0,0C272.32,177.92,272.37,177.79,272.35,177.62Z"/><path class="cls-1" d="M286.91,101.4c-1.09,1-1.75-1.21-2.9.27C284.52,101.47,286.25,102.6,286.91,101.4Z"/><path class="cls-1" d="M209.12,218.08a1.55,1.55,0,0,1,.32-.14A.39.39,0,0,0,209.12,218.08Z"/><path class="cls-1" d="M284,101.67h0l-.11.16Z"/><path class="cls-1" d="M280.28,159.42a2.23,2.23,0,0,0-.62,0A1.25,1.25,0,0,0,280.28,159.42Z"/><path class="cls-1" d="M272.43,171.9l.33-.23A.75.75,0,0,0,272.43,171.9Z"/><path class="cls-1" d="M281,151.61c.16-.15.36-.16.26-.47a.48.48,0,0,0-.18,0C281.18,151.32,281.22,151.46,281,151.61Z"/><path class="cls-1" d="M283,144.05l-.3.08,0,.26Z"/><path class="cls-1" d="M221.05,23.5a6.09,6.09,0,0,1,.29-1.23C221,23.18,219.88,23,221.05,23.5Z"/><path class="cls-1" d="M209.12,218.7c-.08-.33-.08-.51,0-.62a.75.75,0,0,0-.2.15A1.09,1.09,0,0,0,209.12,218.7Z"/><path class="cls-1" d="M270.78,148.14l.53-1A3.18,3.18,0,0,0,270.78,148.14Z"/><path class="cls-1" d="M258.87,57.9l-.28-.12C258.62,57.88,258.7,57.93,258.87,57.9Z"/><path class="cls-1" d="M272,143.83a2.32,2.32,0,0,0,1.08-.38,1.38,1.38,0,0,0-.31-.21Z"/><path class="cls-1" d="M221.34,22.26h0Z"/><path class="cls-1" d="M213.2,21.82c1,.49,1.18-1.38,1.82-2.21,1.4.1,0,1.45,0,2.46.93-.08,2.22-1.3,2.73-1-.09.28,0,.43-.32.7,1.41-.87,2.28,1.12,4,0a1.49,1.49,0,0,1-.1.45,12,12,0,0,1,1-2.23c.46.21,1.38-.56,1,.56-.25-.18-.5.22-.81.48.24-.07.48-.14.71-.19-.41,1.7-.91.15-1.51,1.25,1.15,0,2.86-.59,3.31.21-.69,1.5-1.85-.43-1.68,1.35l-.73-1.14c-.48,2.72-.53-.52-1.17,2.32,1.1,1.19,1.91.14,3,1.33.77-.61.59-1.22,1.37-1.83,2.78-.21-.71,4.45,1.83,3.45.94-.69,2.24-2.35,2.61-.78l-1.36,1.32c1.13,1,2.21-1.72,2.81.23-.65.43-1.33-.18-1.27.13,0,1.8,1.2-.45,1.85,0l-.81,1.44c1.48.67,3.57.84,5.2,1.69-.38.32-.94.54-.92,1.19a5.62,5.62,0,0,1,2.77,2.15,14,14,0,0,1,1,1.54c.28.56.53,1.12.77,1.66l1.56-.5c.13.14-.17.71-.51.77.26,1,.64-.63,1.32-.77.43.25-.08,1-.6,1.13a7.53,7.53,0,0,1,3.16.86A2.87,2.87,0,0,1,247,42.31l-.51.07c.41,1.29,3.05-1,2.88.76h-.34a9.39,9.39,0,0,0,1.26,1.62c.46.51.93,1,1.36,1.52A4.35,4.35,0,0,1,253,49.87c1.84-1,.91,2.62,3.28,1-.17,2.06-.88,2-.39,4.31.22.53,1.95-.35,2.61.05l-1.21.87c.61,0,1.23-.08,1.83-.1l-1.19,1.43.68.34a1.24,1.24,0,0,1,.62-1.05c1.14.49.53,2.68-.1,3.11.81.43,1.57.91,2.36,1.39-.55.27-.93,0-1.42,0,2,.31-1.22,1,.58,1.31.21-.31.81-.39,1.08-.52-.48,1,.25,2.11,1,2.81l-1,.34c.61,1.7,2.28,3,3.12,4.89.11-.86,1.77-1.52,2.2-1.05l-1.31.91c1-.08.25-.83,1.68-.64.18.77-1.39,1.25-2,1.09l.9.58c-.4.25-.72.17-1.29.38,1.06-.08-.73,2.08,1,1.86l-.4.24c.77,1.84,1.69,2.43,2.36,3.93,1.27-.48,1.22.23,2.43.29,0,1.31-.45,2.92.11,4.27,1,.75,1.18-.09,2.1.09-1.15.47-.57,1.82-1.66,1.38a13.21,13.21,0,0,0,2.53,3.91c.42-.38.55-.71,1-.69.31.34-.24,1-.83,1.15l-.15-.07c1.28,1,.72,2.62.27,4.14a6.9,6.9,0,0,0-.42,2.13,1.55,1.55,0,0,0,1,1.51l-.14-.08,1.73,1.77c0,1-1-.39-1.65.44,2.45,1.82.26,3.49,1.92,5.09-1.73,1-1.54,2.16-1.16,3.43s.87,2.62-.24,3.64l.86-.16c.87.43-.46.62-.63,1,.66-.09.74-.58,1.23-.3a11.85,11.85,0,0,1-.11,6.41c-.26,1.08-.64,2.16-1,3.22-.17.53-.33,1.06-.47,1.59s-.32,1-.45,1.56c-.33,1.51,4.39,1.17,2.22,3l-1.56-.68a7.71,7.71,0,0,1,.41,4.83,9.29,9.29,0,0,0,0,4.8c-.33-.24-.8-.33-.75-.63-1.25.45-.5,2.35.44,2.54-.2.46-.87,0-1.4.15-.79.5,1.16,1.91-.05,2-.19,0-.32-.25-.39-.39.47.53-.58,1.89.82,1.79-.89,1,.09,2.31-.91,3,1.29,1-1.22,1.73.77,2.47-2.1-.66-2.21,1.48-1.48,2.48-.56-.43-.85.41-1.64-.14a1.32,1.32,0,0,0,1.05,1.86c-2.93.63,1,3.65-2.48,3.34.06.68.11,1.35.13,2s0,1.28,0,1.9a22.76,22.76,0,0,1-.43,3.58c-1.94-.95.79-2.39-1.37-3.19.07,2.3,1.18,4.18-.17,5.91-.5.37-.73-.69-1-1a6.45,6.45,0,0,1-1,2.94,5.54,5.54,0,0,0-.83,2.88,1,1,0,0,1-.32-.64c-.12.36-.71.61.18,1.05l-.05-.45c1.56.15,1.9,2.77,2.52,3.22-2.16-2-1.56,1.32-4.18-1.37a1.58,1.58,0,0,0,.9,1.1c-.35.22-.74.13-1.21-.58-.22,1.43.93,1.56.27,2.59-.41-.25-.44-.56-.86-1,.49,1,1,2.05.06,2.72-.21-.21-.59-.31-.42-.57-.81,1.57.4,3.92-1.44,5.07-1.38-1.67-1,.15-2.5-.81l-.17,1.15,1,.17c-.57.73,0,2.18-.93,2.47l-.2-1c-.24.53-.49,1.07-.76,1.59.38-.12.77-.23,1.14-.37.18,1.32,1.9,1.31.72,2,0-.31-.6.74-1.74.46h0c.16.72.33,1.49-.45,1.75-.56-.22-1.46-1.38-1.83-1.53.9,1.33-1.08,1.92-.22,3.41a3.27,3.27,0,0,0-1.07-1.09l.69,1.09c-.58.07-.77,0-1.29-.56-1,.84,2,1.2.25,1.72,0-.15-.17-.23-.15-.55-1.4.82-1.45,2.74-2.86,3.38-1.6-.94.52-1.21-.92-1.91a18.45,18.45,0,0,0-1.34,3,4.9,4.9,0,0,1-1.78,2.58l.41-.1c1.56,2.05-2,.08-1.87,1.64.05-.3-.73-1.27-.58-1-1.26.63-1.62,2.31-2.68,4.27l-.23-.67a2.9,2.9,0,0,0-1.39.62,6.67,6.67,0,0,1-1.31.77c.21.67-.25.9.59,1.46-2.22-.64-2.88.53-3.55,1.71s-1.24,2.48-3.12,1.84c.23-.17.23-.85,0-.73L230.58,208c.75.84.59.42,1.43.9a1.71,1.71,0,0,1-.46,1.73c.36-1.13-1-1.49-1.67-1.8.25.25.34.64.56.91-2-1.09,1.09,2-.88,1.66l-.25-.54c-.3.54-.33,1.46-.92,1.63-.89-1,.18-.82-.35-1.74-.65.48-.12,2.95-1.42,2.23.11-.49.54-.76.65-1.25-1.47-.88-1.35-.5-2-.4h.07l-1.54.08.51.19c.78,3.43-1.51,1.54-1.67,4.17.2-2.51-.38-1.18-1-2.52-.49-.18-1.18-.36-1.24-.79,0,1.34-1.37-.34-1.39,1.61-.25-.41-.64.27-1-.86-.57.71.54.65.75,1.21-.45,2.07-3.57-.45-4.33,2.33-1.08,1.52-.76,3.05-1.88,4.38-.76-.5-.26-1.75-.26-1.75a1.55,1.55,0,0,0-2.06.82c0-.44-.28-.7-.69-1.11-.54.32.22,1.74-.8,1.37a9.24,9.24,0,0,1-.09-2c-.52.65-.89,1.72-1.46,2.38-.46-.7,0-1.33.07-1.92-.66.63-1.79,1.45-1.62,2.76l.67.26c-.28.17-.52-1-.38-1.3.34-1.22,1.13.06,1.33.5l-.41.47c1.46,2.41,1.91-1.17,3-1.39l.29,2c.16-.65.32-1.3.46-2,.41.4,1,1.38.58,1.87,1.1.62.38-.94,1.43-.17a.3.3,0,0,1,.11.34l.49-.85c0,.45.67,1.26.11,1.18,1.76.52,1.52-2.25,2.6-1.07l-.06.16c1.5-1.44-.42-1.44.18-3.62l2.42,2.91-.45-1.42a.61.61,0,0,1,.8.46c.24-1.23-.39-.53-.41-1.57,1.47.82,2.08-1.75,3.34.26-.2-1.16-1.21-.35-.65-1.52,1.42,2.13.86-.92,2.18-.29.37,1.28-.71,1,.63,1.68-.56-2.19,1.75-.42,2.22-1.16-.83-1.56,1.08-1.42,1.86-2.57.23.55,2.52-.41,3.87-.49l.13.26c-.75-1.61.42-2,1-2.79a2.39,2.39,0,0,1,.52,2l.7-.47a1.5,1.5,0,0,1,.23-1.45l.57,1.22a5.59,5.59,0,0,0,1-1.54,1.93,1.93,0,0,1,1.6-1.13c-.67-1-2.92-2.15-2.22-3.68.44.51,1.16,1.4,1,1.85,0-.14,0-.71.41-.63l.18,1.26c.82,0-.28-1,.2-1.18.56.78.71.33,1.1,1,0,.16-.6-.05-.54.37a2.54,2.54,0,0,1,2.12.27c-.37-.4-.78-1-.51-1.38.83-.74,1,.68,1.81.67-.2-.7.79-.6-.08-1.73.26-.2.72.29,1.06.52.06-.85,2-1.82.52-2.59h-.17s0-.06,0-.1h0c.48-2.32,3.51-1.87,4.45-3.62l.32.36c.45-1.16,1.6-1.92,1.46-3.19.23-.23,1.16.08,1.46.59.35-.86,0-1.31,1.46-1.62,0,1.2.73.31-.19,1.06,1.07-.49,1.81-.15,1.71-1.9a.92.92,0,0,0,1.78-.19l-1.16,0a3.09,3.09,0,0,1,1.14-1.18l1,1.3c1.5-.18,1.62-1.5,1.74-2.68s.32-2.17,2.14-1.78c-.47-1.19-1.41.43-2.07-.83.84-.65,3.35,0,3.55-.28,1.6-.58-1-2.53.41-3.33-.58-.2-1.89-1-1.64-2.2.8-.67,2.68.43,2.67,1.25a.3.3,0,0,1-.49.09c0,.39-.12.89.63.94l-.37-.45c.8,0,1.59-1.28,2.15-.43,0-1-.56-.84-1.14-.54,1.47-.61,1.26-1.7,2.54-2.51-.39,0-1.06-.22-.93-.4,1.75-1.27-.39-1.36.17-2.63,1.16-.16,1.58,1.4,1.74-.16,1-.38,1.38.68,1.57,1.23-.2-1.67,1.94-1.61,2.5-2.15l0,.83a1.68,1.68,0,0,1,.34-1.06l-1.18-.28c.38-.23.56-.52,1-.26-.43-.74-1.79-.74-2.25-2,.77-.15.29-1.67,1.69-1.05-1.31,1.14,1.42.62.89,2a1,1,0,0,1,.55-.84c.18,0,.24.21.26.34,2-.68-1.11-1.51-.27-2.91.65.6,1.61.46,1.58.14-.34.57-1.4-.43-1.68-1.28,1.09-.59.11-1.23.45-1.67l-.58.39c-.66-.6-.29-1-.21-1.75.62.25.11.8.49.7-1-1.41,2.21-.9,1.82-2.37.76-.21,1.47.68,2,.44-.41-1.63,1.68-.74,1.42-2.37-1.21-.13-1,0-1.61-1.29L275.6,168l-.93-2c-.29.58.09,1.58-.28,1.84-.54-1-.32-.82-1.32-1,1.95-.06-.18-2,1.31-2.46l2.6,1.21c1.84-.92-.2-3.15,1.23-4.76l-.71.42c-.95-.68.33-1.22.15-2a3,3,0,0,0,2,.1c-.68-.22.58-1.39-1.15-2.23l1.49-.42c1.06-1.39-1.92-2.66-1.15-4,.85.77,1.71.3,2.09,1.55.17-.5.49-.91-.14-1.12.66-.11-.78-1.78.23-2-.33-.34-1.27-.7-1-1.23a.94.94,0,0,1,.45.14c-.44-.14-.36-1.07-1.51-.87,1.64-.35,1.89-1.46,2.08-2.54s.29-2.15,1.68-2.54a22.55,22.55,0,0,1,.11-3.63c.27.13.47.1.34.28,1.13-1.24-2.53-1.41-1.26-2.79,1.67-.53.66,1,1.33.6,3.13.34,0-2,1.93-2.79l.15.3c1.18-.68-.88-2.23-.46-3.55a1.13,1.13,0,0,0,.47.07c-1.43-1.14-1.81-3-2.11-4.28,1.18.52.59.65,1.86.53-.12-.6-2,0-2.25-1.22.71-.31,1.39-1.1,2.72-1.1,0,.37,0,.74,0,1.11,1.79-.41.07-1.45.4-2l.75.14c-.14-1.75-2-1.88-1.79-3.69l-.58.16c-1.83-1.06,1.09-.79-.29-1.83l1.92-.24a17.69,17.69,0,0,1-2.15-3.51c1.43.66,2.11,2,2.94,2.94,0-.66-.09-2.25-1-2.59.18.26.64.6.34.86-1.47-.82-2.25-1.85-2.24-3.14,3.7.15.89-3.39,3.65-4.49a4.56,4.56,0,0,1-.49-3.53,11.37,11.37,0,0,0,.2-3.88c-2.76,1.3-.17-.79-3.09-.25-.26-.6-.24-.84-.05-.92l1.46-2.13c.78-.58.74.5,1.38.34,0-1.42,1.16-.76,1.79-1.81-1,.35-1.58-.25-1.3-1.11l-1.17,1.34c-1.86-1.66,2.21-2.11.27-3.78l1,.45c-.75-.9-.71-3.74-3.27-4.17.29-.25,1-.66,1.34-.27-.11-1.23-1.06-2.4-1.84-3.51s-1.5-2.14-1-3.25l.74,0c-.33-.38-1.52-.36-1-1.12.29,0,.74,0,.72-.25-.31-.15-1.53-.77-1.34-1.46l.94.24c.13-2.55-3-2.81-4.16-4.45,2-.73,2-2.71,1.95-3.71l.29-.08a6,6,0,0,0-2.25-3.08,32.16,32.16,0,0,1-3-2.51c.71-1.19.33-2.5-.21-3.86S274,60.74,274,59.3c-.15.53-1.49.75-1.89.46.1-.74-2.07-.69-.34-1.58l.08.2c1.43-1.34.35-2.15-.11-3l-2.26,1.19a2.89,2.89,0,0,0,.11-2.52,6.07,6.07,0,0,0-1.49-1.75c-1.15-1-2.24-1.89-1.3-3.39-.87-.12-1.3-.73-2.17-.83l1.13-.79a14.68,14.68,0,0,0-1-1.95,10.07,10.07,0,0,0-1.64-1.82l1-.28c-.67-1-4,1.31-4.73.54l1.39-1.55c-1.35-1.49-1.32-4.31-4.08-4.52.25-.18.73-.54,1-.35-.61-.73-1.54-3.68-3.33-1.47,1.32-1.31-1.33-1.64-2.67-1.8l1.06-.85c-1.86.59-2.21.91-3.44.37-.1-.34.55-1,.6-.44-.23-1.22-1.44.39-1.84-1l.92-.33c-.7-.77-.95-.38-2,0-.83,0-1.21-1.55-.52-2.58-.59.46-1.67.85-1.91.2a1,1,0,0,1,.77-.51c-.74-1.82-3-.43-3-2.21a1.55,1.55,0,0,0,.35-.76c1,.91,1.84,1.67,1.7,1.68.8-.95.07-1.85,1.86-2.59-1.32.13-3.76.72-4.27-.38a1.85,1.85,0,0,1,.15-.43l.17,0c-.12-.25-.37-.29-.67-.26a1.92,1.92,0,0,0-.5-.85c.52-.9-.7-1.23-1.11-1.61-.77,1.13-1.22.51-1.34,1.83,0-.13.17-.07.5.11a.5.5,0,0,0,.27,0l-.1.08c.32.18.71.45,1.16.76-.77.28-1.48.48-1.52-.5-.74.53-1.52,1.07-1.91,1.31.52-2-.09-3.64.41-4.72-.93-.18-1.82-.66-2.78-.88a3.69,3.69,0,0,0-3.13.62c-.57,0-.07-.91,0-1.35.37-.07.62.14.95-.09-1.16,0-2.54-1.32-3.67.12-.63-1.29,1.43-1.07-.16-1.65l.48-.36c-.71-2-2.44-1.78-4.15-1.49s-3.34.46-4.14-2a1,1,0,0,1,.11.75,7.75,7.75,0,0,0-2.61-1.77,20.55,20.55,0,0,0-3-1,14.85,14.85,0,0,1-2.95-1.08,7.15,7.15,0,0,1-2.54-2c-.91-.88-1.41.15-2.35.72l.24-1.46L206,8.73c-1,.33-1.41-.74-1.95-1.71s-1.19-1.83-2.55-1v1c-.69-.38-2.5-.08-2.08-1.14-.13.15-.51.92-.67.35l.17-.75c-.72.24-1.44.53-2.16.82-1.3-.87.94-2.91-1.16-3.54-.86.11-2.71,1.67-2.51,2.24a1.25,1.25,0,0,1,.56,1.41l-.78.23c-.59,2.18-1.54,4.33-.24,6.24l1.43-1.09.12,1.15-1-.15c.31,1.13.85.32,1.38-.2a2.09,2.09,0,0,0,.2,1.28l1.62-1.84c-.08.89-.92,1.57-.3,2.24.77-.83,0-2.06,1-2.46.29,1.14-.08,1.9.77,1.23a1.29,1.29,0,0,1-.6,1.09c.74-.52,1.55.12,2.17-1,.22,1.37,2,.22,1.33,2.26.31-.43,1.46-1.29,2-1.21-1.7,2.14,1.87.76.75,3.28,1.43-2,2.76-.09,4.4-.86-.13.15-.39.45-.46.3.61.42.56,1.14.83,1.71.78-1.76,2-1.73,3-2.57.12,2-1.34,1.85-1.75,3.59.54-1.44,2-.83,2.21-2.13a3.71,3.71,0,0,1,0,2.32c1.05-2.14.74-.13,1.84-1.25.41,1.48-.68,2.13.58,1.93C214.39,21.46,213.2,21.82,213.2,21.82ZM237,31.5v0l-.47-.26Zm1.71,1.35a4.39,4.39,0,0,0-.69-.65c.24-.41.6-.74.76-.58C238.48,31.79,238.71,32.33,238.7,32.85Zm2-10.4c.41.08.35.37.23.62a2.89,2.89,0,0,0-.62-.26l-.14.1A4,4,0,0,1,240.73,22.45Z"/><path class="cls-1" d="M239.13,23.48c-.06,0-.12,0-.18,0,0,.14,0,.27,0,.38l.36-.26Z"/><path class="cls-1" d="M242.61,205.32h.06a.64.64,0,0,1-.2-.08A.85.85,0,0,1,242.61,205.32Z"/><polygon class="cls-1" points="256.99 56.31 257.27 56.11 256.91 56.13 256.99 56.31"/><path class="cls-1" d="M229.88,208.86a.63.63,0,0,0-.32-.2A1.11,1.11,0,0,0,229.88,208.86Z"/><path class="cls-1" d="M225.29,211.36l-.88-.06A2.4,2.4,0,0,0,225.29,211.36Z"/><path class="cls-1" d="M221.47,212.73c.07.23.15.4.21.55h0Z"/><path class="cls-1" d="M264.27,167.82a.29.29,0,0,0,0-.16C264.23,167.23,264.2,167.49,264.27,167.82Z"/><path class="cls-1" d="M256.56,185.28a3.6,3.6,0,0,1-.13-.87C256.14,184.61,256,184.8,256.56,185.28Z"/><path class="cls-1" d="M270.72,148.25h0a.56.56,0,0,1,0-.12Z"/><path class="cls-1" d="M257,183.73a.64.64,0,0,0-.57.68C256.67,184.24,257,184.07,257,183.73Z"/><path class="cls-1" d="M205.48,219.08h-.19a1.31,1.31,0,0,1,.05.22Z"/><path class="cls-1" d="M205.34,219.31l-.15.22C205.28,219.5,205.36,219.46,205.34,219.31Z"/><path class="cls-1" d="M204.87,220l.32-.47C205,219.58,204.84,219.59,204.87,220Z"/><path class="cls-1" d="M210.62,217.81l-.13-.48A1.94,1.94,0,0,0,210.62,217.81Z"/><path class="cls-1" d="M212.05,217.07c-.4.05-1.29-.61-1.66-.12l.1.38C210.44,216.56,212,218,212.05,217.07Z"/><path class="cls-1" d="M220.83,219.77c-.48.09-1,.2-1.44.27.46.38,1.06.87.53,1.26C222.22,221.93,219.08,220.42,220.83,219.77Z"/><path class="cls-1" d="M225.1,218.42c-.55.59.37.66.48,1C225.78,218.7,225.82,218.54,225.1,218.42Z"/><path class="cls-1" d="M250.72,199.48l.81.94C251.83,199.88,251.2,200.08,250.72,199.48Z"/><polygon class="cls-1" points="250.25 190.76 249.32 190.63 249.97 191.6 250.25 190.76"/><polygon class="cls-1" points="259.2 193.99 259.16 194.3 259.48 193.24 259.2 193.99"/><path class="cls-1" d="M283.87,145.7l-1.52-.19C282.5,146,284.15,146.47,283.87,145.7Z"/><path class="cls-1" d="M285.72,122.35c.78-.22,1.29-.86.55-1.3C286.15,121.58,285.55,122.07,285.72,122.35Z"/><polygon class="cls-1" points="270.49 54.55 271.17 54.69 270.34 54.14 270.49 54.55"/></g></g></svg>