<svg xmlns="http://www.w3.org/2000/svg" viewBox="0 0 3.28 734.78"><defs><style>.cls-1{isolation:isolate;}.cls-2{mix-blend-mode:luminosity;}.cls-3{fill:#987d51;}</style></defs><title>Fichier 20</title><g class="cls-1"><g id="Calque_2" data-name="Calque 2"><g id="Calque_1-2" data-name="Calque 1"><g class="cls-2"><path class="cls-3" d="M.72,735c.09.39.28.17.25-.9l-.33-.75Z" transform="translate(0 -0.4)"/><path class="cls-3" d="M1.34,727.83C1.18,726.58.9,725.13.6,726c.31,1.24.18,1.54.56,2.87,0,1.07-.11,1.86-.23,1.68a14,14,0,0,0,.13,2.23,17.4,17.4,0,0,0,.06-5C1.19,727.36,1.28,727.74,1.34,727.83Z" transform="translate(0 -0.4)"/><path class="cls-3" d="M1.93,623.67l0,.67C1.91,624.16,1.92,623.93,1.93,623.67Z" transform="translate(0 -0.4)"/><path class="cls-3" d="M2.15,559.13a2.07,2.07,0,0,0,.07.72C2.2,559.4,2.18,559,2.15,559.13Z" transform="translate(0 -0.4)"/><path class="cls-3" d="M2.53,548.11c0,.24,0,.44,0,.65A3,3,0,0,0,2.53,548.11Z" transform="translate(0 -0.4)"/><path class="cls-3" d="M1.93,623.67,2,622C1.93,621.83,2,622.83,1.93,623.67Z" transform="translate(0 -0.4)"/><path class="cls-3" d="M.55,713.47c0,.36,0,.66.09.93,0-.29,0-.58,0-.88Z" transform="translate(0 -0.4)"/><path class="cls-3" d="M2.18,652.12v.52a2.83,2.83,0,0,0,.13.44Z" transform="translate(0 -0.4)"/><path class="cls-3" d="M2.21,674c0-.49-.27-.66-.39-.85A3.17,3.17,0,0,1,2,674.18C2.07,674.18,2.13,674.12,2.21,674Z" transform="translate(0 -0.4)"/><path class="cls-3" d="M1.7,708.58l0,.61C1.72,709,1.71,708.76,1.7,708.58Z" transform="translate(0 -0.4)"/><path class="cls-3" d="M2.25,636.49a.37.37,0,0,0,.1-.2S2.28,636.37,2.25,636.49Z" transform="translate(0 -0.4)"/><path class="cls-3" d="M.55,25.81s0,0,0,0S.55,25.64.55,25.81Z" transform="translate(0 -0.4)"/><path class="cls-3" d="M2,.5,2,.85a.28.28,0,0,0,.15.08Z" transform="translate(0 -0.4)"/><path class="cls-3" d="M2.9,528a.28.28,0,0,1,0,.09C2.93,528.57,2.92,528.27,2.9,528Z" transform="translate(0 -0.4)"/><path class="cls-3" d="M2.82,342.83c-.25,2.09-.32-3.42-.6-.26C2.33,342.28,2.65,345.44,2.82,342.83Z" transform="translate(0 -0.4)"/><path class="cls-3" d="M.59,712.9c0-.29,0-.59,0-.89C.58,712.41.58,712.69.59,712.9Z" transform="translate(0 -0.4)"/><path class="cls-3" d="M2.22,342.57h0l0,.33C2.2,342.76,2.21,342.68,2.22,342.57Z" transform="translate(0 -0.4)"/><path class="cls-3" d="M2.76,481.49a2.24,2.24,0,0,0-.12.47S2.7,481.84,2.76,481.49Z" transform="translate(0 -0.4)"/><path class="cls-3" d="M2.34,516.1l0-.86C2.35,515.58,2.34,515.86,2.34,516.1Z" transform="translate(0 -0.4)"/><path class="cls-3" d="M2.38,463.51a8.34,8.34,0,0,0,0-1.26c0,.06,0,.12,0,.2A4.34,4.34,0,0,1,2.38,463.51Z" transform="translate(0 -0.4)"/><path class="cls-3" d="M2.39,444.81c0,.1,0,.23-.06.34s0,.4,0,.59Z" transform="translate(0 -0.4)"/><path class="cls-3" d="M.65,82.66A4.23,4.23,0,0,1,.9,81.8C.7,82.08.63,79.34.65,82.66Z" transform="translate(0 -0.4)"/><path class="cls-3" d="M.71,713.46a1.1,1.1,0,0,1-.12-.56c0,.22,0,.42,0,.62S.69,713.59.71,713.46Z" transform="translate(0 -0.4)"/><path class="cls-3" d="M.16,462.75l0-3C.18,460.61.16,461.69.16,462.75Z" transform="translate(0 -0.4)"/><path class="cls-3" d="M.6,216.86l0-.68A4.44,4.44,0,0,0,.6,216.86Z" transform="translate(0 -0.4)"/><path class="cls-3" d="M.17,451a12.53,12.53,0,0,0,.19-1.67,2.15,2.15,0,0,0-.07-.35Z" transform="translate(0 -0.4)"/><path class="cls-3" d="M.9,81.79h0Z" transform="translate(0 -0.4)"/><path class="cls-3" d="M.25,62.21c0,2.83.36,1.33.57,1.93.11,3.38-.27,1.57-.46,2.72.1,2.11.43,3.73.42,5.3-.06.12-.08.42-.16.07.29,2.23,0,6.62.38,9.22a1.29,1.29,0,0,1-.1.34c.19-.42.38-.49.51-.4a10.14,10.14,0,0,1,0,2.83A3.47,3.47,0,0,0,1.24,83l.1,1.33C1,85.54,1.22,82.53,1,82.53c.11,2.59.39,5.62.29,7.61-.34.41-.11-4.65-.41-2L1,85.06c-.54,2.35,0-1.86-.54.29-.1,4.05.17,4.53.07,8.57.19.91.28-.3.47.61.33,5.74-.86,4.51-.41,8.73A9.91,9.91,0,0,1,1,107.78l-.39-1c0,3.92.55,2.24.29,6.34-.15-.73-.12-3.08-.17-2.49-.3,2.66.22,1.88.22,3.93L.61,115c.05,4.17.29,8.77.35,13.39-.1-.26-.21-1-.31,0,.16,5.83-.05,12.44-.26,18.06l.29,2.15c0,.5-.13.93-.19.39-.11,2.19.19.11.3,1.16,0,1.25-.17,1.65-.25.86a135,135,0,0,1,.21,15.09l-.09-.8c-.12,3.17.6,3.58.33,6.52l-.06-.56C.8,178.13,1.07,185.74.62,191c.42,1-.19,6.81.39,7.26-.29,3.93-.39,2.8-.59,8.34,0,1.47.36,2.2.42,4l-.31,0,.33,2.48-.37,1.33.07,1.71c0-.68.14-1.45.23-1.35a30.65,30.65,0,0,1-.37,6.6l.25,6.33a10.86,10.86,0,0,1-.24-2c.31,3.38-.33.62,0,3.71.07-.41.18.23.24.3a70.38,70.38,0,0,0-.11,7.66l-.21-.5c-.06,4.7.09,9.91.08,15.18.11-1.89.47-1.45.51.09l-.33.62c.2,1,.13-1.61.37.44,0,2-.37,1.32-.48.19l.12,2.4c-.1.14-.15-.43-.28-.57.2,1-.33,4.13,0,5.55l-.09.14c0,5.27.1,7.66.11,11.95.29.09.22,1.77.45,3.05-.09,3.15-.32,6.66-.3,10.46.14,2.67.24.78.41,2-.26.2-.24,4-.42,2,0,4.57.05,5.83.25,11.61.11-.63.15-1.33.24-1,0,1.05-.11,2.38-.23,2.23l0-.27c.38,6.48-.75,14.95-.22,20.11l0-.29.27,5.35c0,2.46-.19-1.47-.35.35.43,5.77-.07,9.12.22,13.87-.76,3.68,0,13.05-.45,18l.18-.29a8.69,8.69,0,0,1-.14,2.5c.14-.13.16-1.39.26-.59C.65,372.89.17,384.46,0,395.6c0,4.08.92,2.32.49,7.46L.16,401.6c.39,8.23,0,16.82.31,24.87a4.17,4.17,0,0,1-.17-1.28,25.8,25.8,0,0,0,.18,6.32c0,1.26-.18.29-.28,1.07-.14,1.7.3,4.28.06,5.19,0,.15-.08-.48-.09-.79.11,1.11,0,5.18.24,4.11-.13,3,.12,5.78,0,8.2.31,1.57-.15,5.17.29,5.67-.45-.22-.37,5.3-.16,7.21-.13-.64-.14,1.66-.33.91,0,2.18.09,4.18.32,3.8-.54,4,.43,8.08-.26,10.34.23,6.48.39,12.48.5,18.3-.45-.21,0-6.44-.52-6.19.18,5.53.57,8.72.46,14.2-.07,1.42-.2-.8-.27-1.28.18,5.52,0,10.68.19,15.59a4.87,4.87,0,0,1-.12-1c0,1-.07,2.25.14,2.14L.54,518c.3-1.55.62,3.85.78,4-.59-1.65-.15,4.85-.9,2.24,0,.64.14,1.44.28,1.29,0,1-.12,1.25-.28.29.11,3.47.33,2.24.32,5.38-.1,0-.14-.65-.25-1a34.67,34.67,0,0,1,.3,5.85c-.06-.16-.14.15-.14-.65,0,4.57.51,7.78.32,12.79-.43-1.48-.14,1.7-.52,2l.11,2.69.19-1.08c0,2.36.26,4.45.13,6.47l-.15-1.75L.8,561l.14-2.5c.19,2.38.48-.26.37,2.88,0-.64,0,2.36-.23,3.59h0A24.23,24.23,0,0,1,1.23,569c-.12.45-.41-.37-.49-.07.31,1.15.08,5.52.41,7-.08-.49-.27-.51-.31-.35l.25,1C1,577.63,1,577.79.81,577.62c0,3.28.48-1,.27,2.85a7,7,0,0,1-.09-.79c-.11,3.91.15,7.56,0,11.16-.37,1.06-.09-3.14-.4-1.93.06,5.19.44,10.74.35,15.76l0-.93c.53.69-.27,3.74,0,6.28,0-.63-.29-.82-.23-.65-.09,3.44.12,7,.29,12.24L.9,621c-.12,2-.07,5.34-.14,7.53.14.65.12,1.9.32,1.14-.79,6.75.4,12.87-.25,18.86,0-.72-.12-1.71-.12-1.14l.13,5.1c.23-.4.14-.67.32-1.74a21.35,21.35,0,0,1,.24,3.35c-.15-2.29-.37,0-.5,1,.07-.16.15.18.22.09-.42,2.67.46.45.18,4.09l-.12-.2c.06,1.37.22,2.62.19,4.09-.27.61-.13-1.45-.35-1.54,0,2.06.51,4.06.24,5.93-.08-.88-.08-2.13-.15-3a22.65,22.65,0,0,0-.29,3.78v-.15l-.14,3.49.08-.89c.7,2.58.13,5.26.58,8.73-.43-3.38-.25-.56-.55-.82-.09.89-.18,2.24-.27,1.86.25,1.64-.19,2.74.16,5.06-.09.1,0,1.76-.25,1.38.07,2.14.17-.5.29-.32.33,3.29-.41,7.74.05,12.47.18,4.09.51,4.84.67,8.63-.16,1.28-.35-1-.35-1a39.7,39.7,0,0,0,0,5.56c-.09-.4-.16,0-.27.6,0,1.56.35,1,.21,3.1a8.39,8.39,0,0,1-.39-1.56c.09,1.84.27,3.66.35,5.56-.17.51-.25-1.15-.36-1.82a41.85,41.85,0,0,0,.42,6.21L1.14,723c0,.78-.23.4-.28-.18a4.73,4.73,0,0,1,.2-2.75l.06,1.36C1.69,720,1,716,1.06,713.23l.42,1.14-.34-2.8c.11-.59.34-1,.4.35.21-2-.15-1.73.08-3.42,0-.18.06-.1.08.08l-.13-1.92c.09.38.3-.31.24.86.24-3.43-.31-5.53,0-6.83l0,.29c-.14-4.76-.31-.46-.66-4l.75-2.4-.3-.47c0-.49,0-1.46.15-1.28-.2-1.83-.13.31-.33-.75.28-2.37-.12-6.52.37-7-.24-.85-.18,2.26-.34-.27.52-.72-.09-2.92.15-5.07.27.66.12,2.7.37.54-.46-1.3.1-4.2,0-6-.36-.09-.14-4-.26-7,.12.19.2-5.75.33-8.6l.06.09c-.36-.55-.29-3.49-.37-5.62.22.08.31.47.41,1.62v-2a11.68,11.68,0,0,1-.22-2.4l.27.51c0-2.67-.32-5.38-.13-8.82-.26-.2-.72,2.73-.89-.9.14-.14.38-.27.44.68A10.92,10.92,0,0,1,1.59,640l.23,1.45c.11-1.56-.19-.82-.17-2.07.2,0,.14-.93.3-.75s-.08,1.1,0,1.58a24.59,24.59,0,0,1,.31-3.69c-.11.13-.27,0-.29-1,0-2.67.24-.92.34-2.47-.14-.65,0-2.36-.29-2.4a3,3,0,0,1,.22-1.23c-.13-1.38,0-6.46-.35-4.9l0,.35a1.48,1.48,0,0,1,0-.22h0c-.29-4.54.17-9.42,0-13.92H2c-.11-2.69-.07-6-.28-7.89,0-.8.19-1.88.3-1.54A38.71,38.71,0,0,1,2,596c.17,2.07.16-.71.13,2.12a35.9,35.9,0,0,0,0-6.13c.25,1,.32-2,.24-3.28l-.18,1.87c0-1.43,0-2.67,0-3.94l.33.69c.41-5.46-.68-9.85,0-14-.23-1.44-.17,3-.44,1.67.05-2.51.53-5.12.53-5.91.19-3.44-.48-3.21-.36-6.81-.11.46-.43.9-.54-1.79,0-2.51.5-3.09.59-1.5,0,.6,0,.89-.07.86,0,.82.1,1.88.23.89l-.12-.33c.12-1.25.11-4.7.3-3.89-.11-1.9-.19-.81-.25.59.17-3.22,0-5,.12-8.35-.06.53-.2,1-.2.49.15-4.86-.22-2.14-.27-5.44.18-1.87.43.68.28-2.64.12-2,.31-.43.41.37a56.62,56.62,0,0,1,.2-7.37L3,535.76c0-1,0-1.73,0-2.52l-.24.9a5.87,5.87,0,0,1,.14-1.7c-.15-1-.39.73-.6-1.18.12-1.25-.13-3.79.18-4.23-.11,3.92.32-.43.37,2.89a20.75,20.75,0,0,1,0-2.36c0-.14.06.13.08.39.28-3.75-.36-1.72-.35-5.61.18.49.34-.9.3-1.54,0,1.57-.29.75-.43-.69a35.58,35.58,0,0,0-.08-4l-.07,1.49a20,20,0,0,1-.2-3.49c.13-.15.09,1.58.15,1-.31-1.93.33-4.36.12-7,.12-1.25.33-.12.41-1.22-.22-3,.25-3.26.06-6.43-.24.91-.18,1.07-.41-1.16l.16,5.21-.34-3.34c0,1.57.15,3.32.11,4.26-.2-1.6-.14-1.43-.34-.68.36-2.15-.2-4.27,0-6.75l.59.07c.27-3.73-.3-6.64-.15-11.49L2.37,488a41.61,41.61,0,0,1-.12-4.57c.19.14.27-.84.39-1.51-.15.08,0-3.55-.38-4l.26-2.16c.11-3.92-.56-4.48-.49-8.25.22,1.14.36-.57.51,1.95a8.7,8.7,0,0,0-.1-2.41c.13-.73-.26-3.49-.07-4.64a6.23,6.23,0,0,1-.28-2.12c0-.15.1,0,.1,0s-.13-2.22-.35-1c.62-3.88,0-10.83.49-14.21-.06-2.74-.12-6-.14-8.55.06.16.1,0,.08.48.19-3.43-.56-2.11-.36-6,.32-2,.17,2.07.3.83.65-.54-.09-4.72.29-7.36l0,.64c.22-2-.24-4.91-.19-8.2,0,0,0,.16.09,0-.33-2.25-.43-6.51-.52-9.67.25,1,.13,1.44.39.84,0-1.42-.42.41-.49-2.42.14-.92.27-3,.54-3.23l0,2.67c.35-1.37,0-3.46.05-4.86l.15.18c0-4.1-.44-4.15-.4-8.55l-.12.45c-.39-2.4.22-2-.07-4.41l.39-.73c-.09-1.58-.37-5.55-.44-8.39.29,1.61.43,4.93.61,7a58,58,0,0,0-.22-6.16,15.82,15.82,0,0,1,.07,2.06,48.9,48.9,0,0,1-.45-7.6c.76.56.2-8.16.79-10.43-.28-5.55.13-11,.09-17.45-.6,2.29,0-1.89-.63-1.49a16.69,16.69,0,0,1,0-2.21L2.58,338c.18-1.08.14,1.43.27,1.29,0-3.29.26-1.38.43-3.56-.22.45-.31-1.14-.23-3l-.28,2.64c-.33-4.6.51-4,.19-8.61l.19,1.46c-.11-2.38,0-8.77-.47-11.11.07-.42.23-1,.28.07.07-5.68-.52-12.66-.21-17.08l.15.43a16.67,16.67,0,0,1-.13-3.17c.06.07.15.42.16-.07a33.51,33.51,0,0,1-.17-4.22l.16,1.2c.2-5.55-.4-8.51-.5-13.17.44,0,.59-4.35.66-6.53l.06.08c.06-6.46-.36-11-.53-17,.49-3.71.21-12.58.49-18.54-.08.91-.35-.15-.39-1.21.09-1.4-.3-3.88.1-3.65v.5c.4-1.06.3-3.94.31-6.18l-.53-.38c.77-5.87-.27-15.4.42-18.61-.13-1.41-.13-3.17-.26-4.58l.28.08c.08-3.93.11-5.89,0-10.75l.2,1c0-2.74-.81-3.46-.83-6l.43-.76c0-4.78.37-9.62,0-14.34.06.07.18.21.2,1,0-2.25.29-8.71-.29-7.89.38-.06,0-4.93-.13-7.52l.28.41a27.64,27.64,0,0,1-.55-5.3c0-.72.23-.63.16.33.14-2.4-.27-1.87-.12-4.79l.18,1.09A13.49,13.49,0,0,0,2.31,148a18.63,18.63,0,0,1,.33-5,9.45,9.45,0,0,1-.29-3.15c.1-.19.16.34.19.6.19-4.13-.32-6.14,0-9,.09-.06.14-.24.17-.48,0,3.29,0,5.93-.05,5.68.26,0,.31-2.65.66-.54a69.45,69.45,0,0,1-.49-8.36,2.79,2.79,0,0,1,.09-.34l0,.27a14.18,14.18,0,0,0,0-1.63c0-.83.07-1.35.08-2.15a27,27,0,0,0,.12-4.36c-.28.11-.23-1.62-.46,0,0-.21,0,.25,0,1.13,0,.2,0,.43,0,.56a.2.2,0,0,1,0-.09c0,.87,0,2,0,3.29a13.85,13.85,0,0,1-.1-3.6c-.18-.68-.37-1.43-.45-1.85.39-1.81.6-5.3.85-5.78-.16-4-.1-9.52-.63-12.06a3.76,3.76,0,0,1,.24-1.75c.05.66,0,1.45.12,1.81-.14-2.29,0-6.8-.42-7.35.17-2.89.34,1.63.28-2.35l.11.54c.6-7.83-.93-12.72-.17-21.4a4.07,4.07,0,0,1-.13,1c.34-9.89-.3-20.38.24-30.14a20.72,20.72,0,0,0-.31-4.77l.31-.6-.35-2.89c-.25-4.11.75-7.11.27-12.3l-.21.67c0-1.87-.11-5.92.12-5.6a3,3,0,0,1-.1-1.35l.15,0L2.22,10c.11-3.55.62.56.66-4.63C2.82,3.41,2.42-.16,2.32.57a5.51,5.51,0,0,1-.26,2L2,.85C1.51.53,1-.83.71,3.5l.28,3-.23,1V5a10.81,10.81,0,0,0,.1,3.38A3.84,3.84,0,0,0,.6,9.59l.45,3c-.19.36-.36-1.33-.47.66.21,1.39.41-1.33.55,1a6,6,0,0,0-.21,2.71c-.12.24-.19-.12-.25-.79.15,1.51.06,4,.31,4.77C.72,22.37,1,26,.6,25.81a29.44,29.44,0,0,1,.36,4c-.52-2.53,0,5.18-.6,4.51.48,1.87.21,6.76.47,10.08a3.37,3.37,0,0,1-.09-.84c0,1.86-.18,2.4-.27,3.6.39.24.48,3.15.72,4.72C.81,54.2.73,50.53.36,51.24c.32-.11.32,4,.58,3.2A7.52,7.52,0,0,1,.5,56.85c.49.31.09,1.63.39,3.08-.25,2.53-.46.65-.32,3.43C.42,64.69.25,62.21.25,62.21Zm.8,66.15h0c0-.57,0-1.06,0-1.37C1,127.28,1,127.67,1.05,128.36Zm0,5.56c0-.68,0-1.52,0-2.41.09-.2.19,0,.19.57C1.19,131.78,1.14,133.09,1.05,133.92Zm2-11.76a3.47,3.47,0,0,1-.07,1.29c0-.41,0-.9,0-1.53l0-.11A1.2,1.2,0,0,1,3,122.16Z" transform="translate(0 -0.4)"/><path class="cls-3" d="M2.64,120.58c0-.13,0-.2,0-.36l-.06.52c0,.11.06.22.09.31C2.64,120.89,2.64,120.73,2.64,120.58Z" transform="translate(0 -0.4)"/><path class="cls-3" d="M1.88,624.46v-.12a1.31,1.31,0,0,1,0,.25A.86.86,0,0,1,1.88,624.46Z" transform="translate(0 -0.4)"/><polygon class="cls-3" points="0.46 210.27 0.53 210.27 0.47 209.78 0.46 210.27"/><path class="cls-3" d="M.9,655.07a1.63,1.63,0,0,0-.08.4A1.64,1.64,0,0,0,.9,655.07Z" transform="translate(0 -0.4)"/><path class="cls-3" d="M.82,668.3l-.1,1.87C.78,669.36.81,668.77.82,668.3Z" transform="translate(0 -0.4)"/><path class="cls-3" d="M.68,678.46c0,.13.08.17.12.2v0Z" transform="translate(0 -0.4)"/><path class="cls-3" d="M.46,516.8c0-.14,0-.27,0-.39C.39,515.49.41,516.11.46,516.8Z" transform="translate(0 -0.4)"/><path class="cls-3" d="M1.08,564.91c-.05-.51-.1-1-.13-1.55C.93,564.22.92,564.88,1.08,564.91Z" transform="translate(0 -0.4)"/><path class="cls-3" d="M.16,463.08h0v0Z" transform="translate(0 -0.4)"/><path class="cls-3" d="M1,561.13a16.67,16.67,0,0,0,0,2.23C1,562.66,1,561.83,1,561.13Z" transform="translate(0 -0.4)"/><path class="cls-3" d="M.52,722.53V723s0,0,0,.06Z" transform="translate(0 -0.4)"/><path class="cls-3" d="M.55,723.08l0,.55A2.28,2.28,0,0,0,.55,723.08Z" transform="translate(0 -0.4)"/><path class="cls-3" d="M.66,724.77l-.07-1.14A4.93,4.93,0,0,0,.66,724.77Z" transform="translate(0 -0.4)"/><path class="cls-3" d="M.66,709.07l-.1-.15C.58,709,.61,709.06.66,709.07Z" transform="translate(0 -0.4)"/><path class="cls-3" d="M.63,705c0,1-.22,2.45-.15,3.81l.08.13C.41,708.28.8,705.91.63,705Z" transform="translate(0 -0.4)"/><path class="cls-3" d="M1.9,687.91l-.08,3.43c.11-.6.26-1.39.28.17C2.43,687.19,1.86,692.4,1.9,687.91Z" transform="translate(0 -0.4)"/><path class="cls-3" d="M2.07,677.28c.05,1.85.16,0,.22.08C2.19,676.19,2.17,675.91,2.07,677.28Z" transform="translate(0 -0.4)"/><path class="cls-3" d="M2.12,600.48l.26.19C2.34,599.25,2.28,600.65,2.12,600.48Z" transform="translate(0 -0.4)"/><polygon class="cls-3" points="0.81 585.4 0.65 586.78 0.88 587.44 0.81 585.4"/><polygon class="cls-3" points="2.64 576.73 2.67 577.35 2.58 574.98 2.64 576.73"/><path class="cls-3" d="M2.64,448.13l-.32.43C2.38,449.52,2.73,449.72,2.64,448.13Z" transform="translate(0 -0.4)"/><path class="cls-3" d="M2.35,392.45a10.21,10.21,0,0,0,.11-3.14C2.44,390.56,2.31,391.81,2.35,392.45Z" transform="translate(0 -0.4)"/><polygon class="cls-3" points="2.98 225.04 3.08 226.16 3 224.05 2.98 225.04"/></g></g></g></g></svg>